<svg width="27" height="27" viewBox="0 0 27 27" fill="none" xmlns="http://www.w3.org/2000/svg">
<path d="M21.9375 4.21875H5.0625C4.59651 4.21875 4.21875 4.59651 4.21875 5.0625V21.9375C4.21875 22.4035 4.59651 22.7812 5.0625 22.7812H21.9375C22.4035 22.7812 22.7812 22.4035 22.7812 21.9375V5.0625C22.7812 4.59651 22.4035 4.21875 21.9375 4.21875Z" stroke="#D86300" stroke-width="1.86207" stroke-linecap="round" stroke-linejoin="round"/>
<path d="M21.9375 4.21875H5.0625C4.59651 4.21875 4.21875 4.59651 4.21875 5.0625V21.9375C4.21875 22.4035 4.59651 22.7812 5.0625 22.7812H21.9375C22.4035 22.7812 22.7812 22.4035 22.7812 21.9375V5.0625C22.7812 4.59651 22.4035 4.21875 21.9375 4.21875Z" stroke="#41B464" stroke-width="1.86207" stroke-linecap="round" stroke-linejoin="round"/>
<path d="M12.6562 11.8125V18.5625" stroke="#D86300" stroke-width="1.86207" stroke-linecap="round" stroke-linejoin="round"/>
<path d="M12.6562 11.8125V18.5625" stroke="#41B464" stroke-width="1.86207" stroke-linecap="round" stroke-linejoin="round"/>
<path d="M9.28125 11.8125V18.5625" stroke="#D86300" stroke-width="1.86207" stroke-linecap="round" stroke-linejoin="round"/>
<path d="M9.28125 11.8125V18.5625" stroke="#41B464" stroke-width="1.86207" stroke-linecap="round" stroke-linejoin="round"/>
<path d="M12.6562 14.7656C12.6563 13.9824 12.9674 13.2313 13.5212 12.6775C14.075 12.1236 14.8262 11.8125 15.6094 11.8125C16.3926 11.8125 17.1437 12.1236 17.6976 12.6775C18.2514 13.2313 18.5625 13.9824 18.5625 14.7656V18.5625" stroke="#D86300" stroke-width="1.86207" stroke-linecap="round" stroke-linejoin="round"/>
<path d="M12.6562 14.7656C12.6563 13.9824 12.9674 13.2313 13.5212 12.6775C14.075 12.1236 14.8262 11.8125 15.6094 11.8125C16.3926 11.8125 17.1437 12.1236 17.6976 12.6775C18.2514 13.2313 18.5625 13.9824 18.5625 14.7656V18.5625" stroke="#41B464" stroke-width="1.86207" stroke-linecap="round" stroke-linejoin="round"/>
<path d="M9.28125 9.70312C9.98024 9.70312 10.5469 9.13648 10.5469 8.4375C10.5469 7.73851 9.98024 7.17188 9.28125 7.17188C8.58226 7.17188 8.01562 7.73851 8.01562 8.4375C8.01562 9.13648 8.58226 9.70312 9.28125 9.70312Z" fill="#D86300"/>
<path d="M9.28125 9.70312C9.98024 9.70312 10.5469 9.13648 10.5469 8.4375C10.5469 7.73851 9.98024 7.17188 9.28125 7.17188C8.58226 7.17188 8.01562 7.73851 8.01562 8.4375C8.01562 9.13648 8.58226 9.70312 9.28125 9.70312Z" fill="#41B464"/>
</svg>
