<svg width="26" height="26" viewBox="0 0 26 26" fill="none" xmlns="http://www.w3.org/2000/svg">
<path d="M4.87506 20.3125C4.87506 20.3125 8.93756 19.5 9.75006 17.0625C9.75006 17.0625 3.25006 14.625 4.87506 5.6875C4.87506 5.6875 8.12506 9.75 13.0001 10.5625V8.9378C13.0001 8.0044 13.3216 7.09949 13.9104 6.3752C14.4991 5.65092 15.3193 5.15144 16.233 4.96072C17.1468 4.77001 18.0983 4.8997 18.9276 5.32798C19.7569 5.75627 20.4135 6.45703 20.787 7.31246L24.3751 7.3125L21.1251 10.5625C21.1251 16.25 17.0626 21.9375 9.75006 21.9375C6.50006 21.9375 4.87506 20.3125 4.87506 20.3125Z" stroke="#D86300" stroke-width="2" stroke-linecap="round" stroke-linejoin="round"/>
<path d="M4.87506 20.3125C4.87506 20.3125 8.93756 19.5 9.75006 17.0625C9.75006 17.0625 3.25006 14.625 4.87506 5.6875C4.87506 5.6875 8.12506 9.75 13.0001 10.5625V8.9378C13.0001 8.0044 13.3216 7.09949 13.9104 6.3752C14.4991 5.65092 15.3193 5.15144 16.233 4.96072C17.1468 4.77001 18.0983 4.8997 18.9276 5.32798C19.7569 5.75627 20.4135 6.45703 20.787 7.31246L24.3751 7.3125L21.1251 10.5625C21.1251 16.25 17.0626 21.9375 9.75006 21.9375C6.50006 21.9375 4.87506 20.3125 4.87506 20.3125Z" stroke="#41B464" stroke-width="2" stroke-linecap="round" stroke-linejoin="round"/>
</svg>
