<svg width="27" height="26" viewBox="0 0 27 26" fill="none" xmlns="http://www.w3.org/2000/svg">
<path d="M13.5 22.75C19.0919 22.75 23.625 18.3848 23.625 13C23.625 7.61522 19.0919 3.25 13.5 3.25C7.90812 3.25 3.375 7.61522 3.375 13C3.375 18.3848 7.90812 22.75 13.5 22.75Z" stroke="#D86300" stroke-width="2" stroke-linecap="round" stroke-linejoin="round"/>
<path d="M13.5 22.75C19.0919 22.75 23.625 18.3848 23.625 13C23.625 7.61522 19.0919 3.25 13.5 3.25C7.90812 3.25 3.375 7.61522 3.375 13C3.375 18.3848 7.90812 22.75 13.5 22.75Z" stroke="#41B464" stroke-width="2" stroke-linecap="round" stroke-linejoin="round"/>
<path d="M17.7188 8.9375H16.0312C15.3599 8.9375 14.7161 9.19431 14.2414 9.65143C13.7667 10.1085 13.5 10.7285 13.5 11.375V22.75" stroke="#D86300" stroke-width="2" stroke-linecap="round" stroke-linejoin="round"/>
<path d="M17.7188 8.9375H16.0312C15.3599 8.9375 14.7161 9.19431 14.2414 9.65143C13.7667 10.1085 13.5 10.7285 13.5 11.375V22.75" stroke="#41B464" stroke-width="2" stroke-linecap="round" stroke-linejoin="round"/>
<path d="M10.125 14.625H16.875" stroke="#D86300" stroke-width="2" stroke-linecap="round" stroke-linejoin="round"/>
<path d="M10.125 14.625H16.875" stroke="#41B464" stroke-width="2" stroke-linecap="round" stroke-linejoin="round"/>
</svg>
