<svg width="30" height="30" viewBox="0 0 30 30" fill="none" xmlns="http://www.w3.org/2000/svg">
<circle cx="15" cy="15" r="15" fill="white"/>
<path d="M23.7446 19L23.1753 17.1309H20.3125L19.7432 19H17.9492L20.7207 11.1152H22.7563L25.5386 19H23.7446ZM22.7778 15.7344C22.2515 14.0407 21.9543 13.0828 21.8862 12.8608C21.8218 12.6388 21.7752 12.4634 21.7466 12.3345C21.6284 12.7928 21.29 13.9261 20.7314 15.7344H22.7778Z" fill="#DADADA"/>
<path d="M17.8955 11.1475L14.9683 19H13.4805L16.4077 11.1475H17.8955Z" fill="#DADADA"/>
<path d="M12.4116 19H10.2954L6.87939 13.0596H6.83105C6.89909 14.1087 6.93311 14.8571 6.93311 15.3047V19H5.44531V11.1475H7.54541L10.9561 17.0288H10.9937C10.9399 16.0083 10.9131 15.2868 10.9131 14.8643V11.1475H12.4116V19Z" fill="#DADADA"/>
</svg>
