<svg width="30" height="30" viewBox="0 0 30 30" fill="none" xmlns="http://www.w3.org/2000/svg">
<path d="M30 15C30 23.2843 23.2843 30 15 30C6.71573 30 0 23.2843 0 15C0 6.71573 6.71573 0 15 0C23.2843 0 30 6.71573 30 15Z" fill="#DADADA"/>
<path d="M22.2646 23.0879C21.6875 23.0879 21.2334 22.8638 20.9023 22.4155C20.5742 21.9673 20.4102 21.3462 20.4102 20.5522C20.4102 19.7466 20.5771 19.1196 20.9111 18.6714C21.248 18.2202 21.7109 17.9946 22.2998 17.9946C22.918 17.9946 23.3896 18.2349 23.7148 18.7153H23.7588C23.6914 18.3491 23.6577 18.0225 23.6577 17.7354V16.1621H25.0024V23H23.9741L23.7148 22.3628H23.6577C23.353 22.8462 22.8887 23.0879 22.2646 23.0879ZM22.7349 22.02C23.0776 22.02 23.3281 21.9204 23.4863 21.7212C23.6475 21.522 23.7354 21.1836 23.75 20.7061V20.561C23.75 20.0337 23.668 19.6558 23.5039 19.4272C23.3428 19.1987 23.0791 19.0845 22.7129 19.0845C22.4141 19.0845 22.1812 19.2119 22.0142 19.4668C21.8501 19.7188 21.7681 20.0864 21.7681 20.5698C21.7681 21.0532 21.8516 21.4165 22.0186 21.6597C22.1855 21.8999 22.4243 22.02 22.7349 22.02Z" fill="white"/>
<path d="M17.4263 18.9482C17.1421 18.9482 16.9194 19.0391 16.7583 19.2207C16.5972 19.3994 16.5049 19.6543 16.4814 19.9854H18.3623C18.3564 19.6543 18.27 19.3994 18.103 19.2207C17.936 19.0391 17.7104 18.9482 17.4263 18.9482ZM17.6152 23.0879C16.8242 23.0879 16.2061 22.8696 15.7607 22.4331C15.3154 21.9966 15.0928 21.3784 15.0928 20.5786C15.0928 19.7554 15.2979 19.1196 15.708 18.6714C16.1211 18.2202 16.6909 17.9946 17.4175 17.9946C18.1118 17.9946 18.6523 18.1924 19.0391 18.5879C19.4258 18.9834 19.6191 19.5298 19.6191 20.2271V20.8774H16.4507C16.4653 21.2583 16.5781 21.5557 16.7891 21.7695C17 21.9834 17.2959 22.0903 17.6768 22.0903C17.9727 22.0903 18.2524 22.0596 18.5161 21.998C18.7798 21.9365 19.0552 21.8384 19.3423 21.7036V22.7407C19.1079 22.8579 18.8574 22.9443 18.5908 23C18.3242 23.0586 17.999 23.0879 17.6152 23.0879Z" fill="white"/>
<path d="M14.3457 21.541C14.3457 22.0449 14.1699 22.4287 13.8184 22.6924C13.4697 22.9561 12.9468 23.0879 12.2495 23.0879C11.8921 23.0879 11.5874 23.063 11.3354 23.0132C11.0835 22.9663 10.8477 22.896 10.6279 22.8022V21.6948C10.877 21.812 11.1567 21.9102 11.4673 21.9893C11.7808 22.0684 12.0562 22.1079 12.2935 22.1079C12.7798 22.1079 13.0229 21.9673 13.0229 21.686C13.0229 21.5806 12.9907 21.4956 12.9263 21.4312C12.8618 21.3638 12.7505 21.2891 12.5923 21.207C12.4341 21.1221 12.2231 21.0239 11.9595 20.9126C11.5815 20.7544 11.3032 20.6079 11.1245 20.4731C10.9487 20.3384 10.8198 20.1846 10.7378 20.0117C10.6587 19.8359 10.6191 19.6206 10.6191 19.3657C10.6191 18.9292 10.7876 18.5923 11.1245 18.355C11.4644 18.1147 11.9448 17.9946 12.5659 17.9946C13.1577 17.9946 13.7334 18.1235 14.293 18.3813L13.8887 19.3481C13.6426 19.2427 13.4126 19.1562 13.1987 19.0889C12.9849 19.0215 12.7666 18.9878 12.5439 18.9878C12.1484 18.9878 11.9507 19.0947 11.9507 19.3086C11.9507 19.4287 12.0137 19.5327 12.1396 19.6206C12.2686 19.7085 12.5483 19.8389 12.979 20.0117C13.3628 20.167 13.644 20.312 13.8228 20.4468C14.0015 20.5815 14.1333 20.7368 14.2183 20.9126C14.3032 21.0884 14.3457 21.2979 14.3457 21.541Z" fill="white"/>
<path d="M8.4834 23L8.30322 22.3716H8.23291C8.08936 22.6001 7.88574 22.7773 7.62207 22.9033C7.3584 23.0264 7.05811 23.0879 6.72119 23.0879C6.14404 23.0879 5.70898 22.9341 5.41602 22.6265C5.12305 22.3159 4.97656 21.8706 4.97656 21.2905V18.0869H6.31689V20.9565C6.31689 21.311 6.37988 21.5776 6.50586 21.7563C6.63184 21.9321 6.83252 22.02 7.10791 22.02C7.48291 22.02 7.75391 21.8955 7.9209 21.6465C8.08789 21.3945 8.17139 20.9785 8.17139 20.3984V18.0869H9.51172V23H8.4834Z" fill="white"/>
<path d="M24.4839 10.9482C24.1997 10.9482 23.9771 11.0391 23.8159 11.2207C23.6548 11.3994 23.5625 11.6543 23.5391 11.9854H25.4199C25.4141 11.6543 25.3276 11.3994 25.1606 11.2207C24.9937 11.0391 24.7681 10.9482 24.4839 10.9482ZM24.6729 15.0879C23.8818 15.0879 23.2637 14.8696 22.8184 14.4331C22.373 13.9966 22.1504 13.3784 22.1504 12.5786C22.1504 11.7554 22.3555 11.1196 22.7656 10.6714C23.1787 10.2202 23.7485 9.99463 24.4751 9.99463C25.1694 9.99463 25.71 10.1924 26.0967 10.5879C26.4834 10.9834 26.6768 11.5298 26.6768 12.2271V12.8774H23.5083C23.5229 13.2583 23.6357 13.5557 23.8467 13.7695C24.0576 13.9834 24.3535 14.0903 24.7344 14.0903C25.0303 14.0903 25.3101 14.0596 25.5737 13.998C25.8374 13.9365 26.1128 13.8384 26.3999 13.7036V14.7407C26.1655 14.8579 25.915 14.9443 25.6484 15C25.3818 15.0586 25.0566 15.0879 24.6729 15.0879Z" fill="white"/>
<path d="M21.0693 15H19.729V12.1304C19.729 11.7759 19.666 11.5107 19.54 11.335C19.4141 11.1562 19.2134 11.0669 18.938 11.0669C18.563 11.0669 18.292 11.1929 18.125 11.4448C17.958 11.6938 17.8745 12.1084 17.8745 12.6885V15H16.5342V10.0869H17.5581L17.7383 10.7153H17.813C17.9624 10.478 18.1675 10.2993 18.4282 10.1792C18.6919 10.0562 18.9907 9.99463 19.3247 9.99463C19.896 9.99463 20.3296 10.1499 20.6255 10.4604C20.9214 10.7681 21.0693 11.2134 21.0693 11.7964V15Z" fill="white"/>
<path d="M12.0298 12.5347C12.0298 13.021 12.1089 13.3887 12.2671 13.6377C12.4282 13.8867 12.689 14.0112 13.0493 14.0112C13.4067 14.0112 13.6631 13.8882 13.8184 13.6421C13.9766 13.3931 14.0557 13.0239 14.0557 12.5347C14.0557 12.0483 13.9766 11.6836 13.8184 11.4404C13.6602 11.1973 13.4009 11.0757 13.0405 11.0757C12.6831 11.0757 12.4253 11.1973 12.2671 11.4404C12.1089 11.6807 12.0298 12.0454 12.0298 12.5347ZM15.4268 12.5347C15.4268 13.3345 15.2158 13.96 14.7939 14.4111C14.3721 14.8623 13.7847 15.0879 13.0317 15.0879C12.5601 15.0879 12.144 14.9854 11.7837 14.7803C11.4233 14.5723 11.1465 14.2749 10.9531 13.8882C10.7598 13.5015 10.6631 13.0503 10.6631 12.5347C10.6631 11.7319 10.8726 11.1079 11.2915 10.6626C11.7104 10.2173 12.2993 9.99463 13.0581 9.99463C13.5298 9.99463 13.9458 10.0972 14.3062 10.3022C14.6665 10.5073 14.9434 10.8018 15.1367 11.1855C15.3301 11.5693 15.4268 12.019 15.4268 12.5347Z" fill="white"/>
<path d="M9.4458 15H7.71436L4.91943 10.1396H4.87988C4.93555 10.998 4.96338 11.6104 4.96338 11.9766V15H3.74609V8.5752H5.46436L8.25488 13.3872H8.28564C8.2417 12.5522 8.21973 11.9619 8.21973 11.6162V8.5752H9.4458V15Z" fill="white"/>
</svg>
