<svg width="180" height="180" viewBox="0 0 180 180" fill="none" xmlns="http://www.w3.org/2000/svg">
<mask id="mask0_2116_3835" style="mask-type:alpha" maskUnits="userSpaceOnUse" x="0" y="0" width="180" height="180">
<circle cx="89.5852" cy="89.5852" r="89.5852" fill="#F5EEDA"/>
</mask>
<g mask="url(#mask0_2116_3835)">
<rect x="-10.3369" y="-7.75244" width="238.607" height="205.874" fill="#F5EEDA"/>
<path d="M9.04492 51.253H104.229M188.215 51.253H104.229M104.229 51.253C103.673 51.253 103.591 41.4303 103.701 29.7181M103.701 29.7181C103.795 19.6782 104.03 8.2499 104.229 0.430664L103.701 29.7181ZM103.701 29.7181H13.7826" stroke="#837D6D" stroke-width="0.430698"/>
<path d="M70.8806 134.901C73.903 138.667 77.2991 136.407 81.8326 134.901L52.362 108.536C51.2222 109.289 48.585 113.809 50.8533 117.575C52.7713 120.76 57.5156 119.694 58.0357 122.848C58.4085 125.108 60.6752 128.121 64.836 128.874C69.1709 129.659 67.8583 131.134 70.8806 134.901Z" fill="#DCAE9D"/>
<path d="M76.9513 64.9752C75.7568 64.9752 63.5135 72.3885 57.5412 76.0952L50.8223 108.714C60.5273 118.104 76.6153 132.641 79.9375 134.29C82.1771 135.402 85.9098 136.885 88.896 137.626C91.8822 138.367 94.8683 136.885 96.3614 135.402C97.8545 133.919 98.601 134.661 100.841 135.402C103.08 136.143 107.56 133.919 108.306 132.437C109.053 130.954 110.546 130.954 112.785 130.954C115.025 130.954 119.504 127.989 120.251 125.023C120.997 122.058 118.758 123.541 123.237 122.799C127.716 122.058 129.209 115.386 129.209 113.162C129.209 110.938 93.3752 69.4232 90.3891 66.4578C87.4029 63.4925 78.4444 64.9752 76.9513 64.9752Z" fill="#C99480"/>
<path d="M58.5747 74.7091L51.0375 73.2183L40.4854 110.49L51.0375 111.981L58.5747 74.7091Z" fill="white"/>
<path d="M133.551 76.1577L126.162 78.0224L132.787 116.254L142.874 113.104L133.551 76.1577Z" fill="#FFFDFD"/>
<path d="M37.4872 124.902L51.6836 72.3347L-62.6347 37.0396L-83.5557 95.6145L37.4872 124.902Z" fill="#DF802F"/>
<path d="M113.151 101.653C120.608 105.419 130.302 113.704 131.793 113.704L125.828 78.3043C122.348 76.0447 114.494 70.7724 110.914 67.7597C106.44 63.9937 97.4918 65.5001 94.5093 67.7597C91.5269 70.0192 90.0352 69.266 84.8154 70.7724C79.5957 72.2788 78.1043 72.2788 75.8672 75.2915C73.6311 78.303 72.1397 79.8094 69.1595 82.8196L69.1558 82.8234C66.173 85.8361 66.9187 88.8489 69.1558 91.1084C71.3928 93.368 78.104 91.8616 81.8324 91.1084C85.5608 90.3552 86.3065 85.0829 88.5436 85.0829C90.7806 85.0829 93.0177 84.3298 97.4918 85.0829C101.966 85.8361 105.694 97.8871 113.151 101.653Z" fill="#DCAE9D"/>
<path d="M131.793 72.5777L243.728 34.4556L271.339 90.5175L145.225 124.902L132.752 76.3152L131.793 72.5777Z" fill="#41B464"/>
</g>
</svg>
