<svg width="180" height="180" viewBox="0 0 180 180" fill="none" xmlns="http://www.w3.org/2000/svg">
<mask id="mask0_2116_3323" style="mask-type:alpha" maskUnits="userSpaceOnUse" x="0" y="0" width="180" height="180">
<circle cx="89.5852" cy="89.5852" r="89.5852" fill="#F5EEDA"/>
</mask>
<g mask="url(#mask0_2116_3323)">
<rect x="-10.3369" y="-7.75293" width="238.607" height="205.874" fill="#F5EEDA"/>
<path d="M75.3819 77.9409L41.1522 80.2537L30.0507 90.4301M30.0507 90.4301V101.069M30.0507 90.4301L75.8445 89.505L83.2455 101.069H30.0507M30.0507 101.069V103.382M30.0507 101.069H25.425V103.382M30.0507 101.069L151.705 102.853M-6.0293 103.382H6.45992M30.0507 103.382H187.785L158.643 102.955M30.0507 103.382H25.425M12.9358 103.382H6.45992M12.9358 103.382V100.289M12.9358 103.382H14.3235M12.9358 88.5799C12.9358 83.4917 6.45992 83.4917 6.45992 88.5799M12.9358 88.5799V94.6221M12.9358 88.5799H6.45992M6.45992 88.5799C6.45992 90.3036 6.45992 92.4547 6.45992 94.6221M6.45992 103.382C6.45992 102.588 6.45992 101.517 6.45992 100.289M6.45992 94.6221H12.9358M6.45992 94.6221C6.45992 96.6018 6.45992 98.5951 6.45992 100.289M12.9358 94.6221V100.289M12.9358 94.6221L6.45992 100.289M6.45992 100.289H12.9358M16.1738 103.382V92.743H14.7861L14.3235 103.382M16.1738 103.382H14.3235M16.1738 103.382H25.425M151.705 102.853V101.532H154.48M151.705 102.853L158.643 102.955M158.643 102.955V101.532H155.868M154.48 101.532V93.2055L155.868 93.6681V101.532M154.48 101.532H155.868M-2.15301 123.61C1.69243 121.6 11.7276 118.183 21.1047 120.595C32.826 123.61 58.5754 132.224 65.4666 132.655C72.3578 133.085 142.359 130.932 158.181 125.764C174.003 120.595 184.339 117.58 193.815 120.595C203.29 123.61 205.013 144.284 196.399 144.714C187.785 145.145 130.493 149.883 102.937 147.298C75.3819 144.714 49.3334 139.115 30.0507 139.115C14.6245 139.115 2.15397 142.848 -2.15301 144.714M36.064 99.6814H32.826V95.0558C32.826 92.743 36.064 92.743 36.064 95.0558C36.064 97.3686 36.064 98.2937 36.064 99.6814ZM155.868 89.9676L154.48 92.743L153.093 91.8178L155.405 89.505L152.167 90.4301V88.1173L155.405 88.5799L152.63 85.8045L154.018 84.8794L155.868 88.5799L155.405 84.4168L156.793 84.8794L156.331 88.5799L158.181 85.3419L159.568 86.2671L156.331 89.505L160.031 88.1173V89.9676H156.793L159.568 91.8178L157.718 93.2055L155.868 89.9676Z" stroke="#6D6F6D" stroke-width="0.430698"/>
<path d="M90.6732 53.3111C99.3309 54.4616 122.318 46.5151 130.932 39.1933C103.66 37.2758 49.4367 34.4978 50.8219 38.3328C52.5535 43.1267 79.851 51.873 90.6732 53.3111Z" fill="#3A9D58"/>
<path d="M79.248 75.8027L79.6787 63.7432L98.1988 64.1739V77.9562L87.4313 82.6939L79.248 75.8027Z" fill="#D38E7C"/>
<path d="M77.095 63.7433C75.3722 62.0205 74.3672 47.5203 74.0801 40.4856L103.798 37.9014C103.942 38.7628 104.401 41.1747 105.09 43.9311C105.952 47.3767 103.368 60.7284 102.506 63.3126C101.645 65.8967 90.8773 71.4958 88.2931 72.3572C85.7089 73.2186 79.2485 65.8967 77.095 63.7433Z" fill="#DCAC9A"/>
<path d="M73.6494 44.3614C82.2634 48.6687 95.615 48.2379 103.368 44.7929C117.635 38.4528 77.5257 40.9132 73.6494 44.3614Z" fill="#D38E7C"/>
<path fill-rule="evenodd" clip-rule="evenodd" d="M75.4055 44.7926L77.559 41.347L74.5443 40.9162C74.1135 42.0647 72.9934 44.6202 71.9597 45.6539C70.6676 46.946 72.3904 46.946 73.2518 46.5153C73.4763 46.403 73.613 46.2031 73.6925 46.0068C73.6863 46.145 73.6825 46.313 73.6825 46.5153C73.6825 48.6688 73.2522 53.4064 72.3908 55.5599C71.7588 57.14 72.2861 56.8651 72.7818 56.6067C72.9618 56.5129 73.1375 56.4213 73.2522 56.4213C73.4317 56.4213 73.6111 56.0475 73.7906 55.6736C74.0418 55.1502 74.2931 54.6267 74.5443 55.1292C74.793 55.6266 74.7545 55.8367 74.6776 56.2571C74.6212 56.5649 74.5443 56.9853 74.5443 57.7134C74.5443 59.4362 74.5441 61.159 73.6827 63.3125C72.8213 65.466 74.5441 64.1739 74.9748 63.7432C75.3194 63.3986 75.6926 62.7382 75.8362 62.4511L77.1283 65.0353C77.559 65.8967 78.8511 67.1888 84.0195 71.0651C88.6046 74.5039 93.3258 71.5989 95.0906 70.513C95.3151 70.3748 95.4918 70.2661 95.6142 70.2037C96.4478 69.7784 98.4609 67.7789 100.338 65.9147C102.263 64.0026 104.044 62.233 104.262 62.4511C104.478 62.6664 104.478 62.7741 104.478 62.9356C104.478 63.0971 104.478 63.3125 104.693 63.7432C105.124 64.6046 105.985 64.1739 105.554 63.3125C105.315 62.8331 105.208 62.2202 105.087 61.5204C104.99 60.9628 104.884 60.35 104.693 59.7054C104.262 58.2518 104.693 53.4064 104.693 53.8371C104.693 54.1033 105.022 54.3695 105.477 54.7374C105.758 54.9647 106.087 55.2309 106.416 55.5599C107.277 56.4213 107.708 55.1292 107.277 54.6985C107.062 54.4832 106.846 53.8371 106.577 53.0296C106.308 52.222 105.985 51.2529 105.554 50.3915C104.693 48.6688 105.124 46.5153 106.416 46.946C107.277 47.8074 108.139 46.5153 106.846 45.6539C105.813 44.9647 105.267 42.2084 105.124 40.9163C103.975 40.7728 101.678 40.5718 101.678 40.9163C101.678 41.1624 102.241 41.9711 102.803 42.7798C103.225 43.3862 103.647 43.9927 103.832 44.3619C104.262 45.2233 103.832 47.8075 103.401 49.961C103.197 50.9811 102.993 52.8709 102.789 54.7607C102.562 56.8605 102.335 58.9603 102.109 59.867C101.678 61.5898 98.6632 65.0354 97.3711 66.3275C96.3374 67.3612 95.2176 67.9067 94.7869 68.0503C94.9061 67.6929 95.1006 67.3353 95.429 66.7317C95.4963 66.608 95.5693 66.474 95.6483 66.3275C95.9376 65.7915 96.079 61.5898 95.6483 60.7284C95.2176 59.867 92.6334 59.4363 91.772 59.4363H87.4651C85.7423 59.4363 83.8759 60.2977 83.1581 60.7284C82.8035 61.7139 82.9899 64.0528 83.0982 65.4129C83.1319 65.8358 83.1581 66.164 83.1581 66.3275C83.1581 66.7524 83.3594 67.1773 83.5117 67.4988C83.6681 67.8291 83.7729 68.0502 83.5547 68.0502C82.6592 68.05 78.4204 63.7433 77.559 62.0205C76.8699 60.6423 76.4105 52.8323 76.2669 49.0996L75.4055 44.7926ZM85.1083 66.7859C85.0198 66.4126 84.9435 66.0901 84.8467 65.8967C84.5022 65.2076 84.7031 62.4511 84.8467 61.5897H93.8915C94.5807 61.5897 94.1789 64.7481 93.8917 65.8967L92.5996 69.3423L89.5846 66.3274L86.5699 69.3423C85.6403 69.0325 85.3348 67.7423 85.1083 66.7859Z" fill="#713C1F"/>
<path d="M127.701 40.3631C92.0147 47.1442 59.931 43.0389 50.9239 38.132C49.6373 37.2398 60.7885 35.9014 71.9409 33.2247C73.6126 32.8234 70.6541 24.3326 75.3723 21.6559C80.0904 18.9791 101.108 19.4257 104.111 21.6563C106.513 23.4408 107.113 30.9941 106.684 33.6708C116.12 36.3475 139.44 38.1325 127.701 40.3631Z" fill="#41B464"/>
<path d="M40.4852 100.508C49.0992 79.8344 73.2183 79.4037 86.5699 78.5423C123.61 76.8195 129.64 89.7405 138.254 100.508C145.145 109.122 156.343 154.632 161.081 176.311H17.2275C22.1088 157.934 33.5941 117.047 40.4852 100.508Z" fill="#A3AB9E"/>
<path d="M45.2235 116.718C45.9789 115.585 47.377 118.01 49.9612 119.303C49.9612 120.882 49.6166 123.954 48.2382 123.61C46.5152 123.179 44.3619 118.011 45.2235 116.718Z" fill="#848E80"/>
<path d="M130.502 114.996C129.64 114.565 127.487 116.718 126.625 116.718L125.333 120.165C126.195 119.877 128.262 119.475 129.64 120.165C131.363 121.026 131.363 115.427 130.502 114.996Z" fill="#848E80"/>
<path d="M43.9307 185.2L52.1139 86.5701C53.4922 85.1919 57.2823 83.4117 59.0051 82.6938C59.8665 90.3028 61.7616 105.607 62.4507 105.952C63.1398 106.296 95.758 106.095 111.981 105.952C111.981 105.952 115.943 82.6938 118.011 82.6938C120.078 82.6938 122.892 84.2731 124.471 85.7087L136.531 185.2H43.9307Z" fill="#3D3F42"/>
<path d="M84.4168 93.0306L74.9414 79.6789L79.2484 70.6343L89.1544 77.0947L84.4168 93.0306Z" fill="#8E9A8A"/>
<path d="M93.4612 93.0306L102.937 79.6789L98.6295 70.6343L88.7235 77.0947L93.4612 93.0306Z" fill="#8E9A8A"/>
<circle cx="59.0051" cy="114.135" r="2.15349" fill="#41B464"/>
<circle cx="120.164" cy="114.135" r="2.15349" fill="#41B464"/>
</g>
</svg>
