<svg width="730" height="333" viewBox="0 0 730 333" fill="none" xmlns="http://www.w3.org/2000/svg">
<path d="M88.6567 267.776C88.6567 270.57 88.7634 272.405 91.1956 272.405C92.0704 272.405 92.6038 271.936 92.8811 271.552V272.235C92.8811 274.987 92.7104 275.904 91.3877 275.904C90.7689 275.904 90.2355 275.456 89.9155 275.158L88.7421 276.694C89.3608 277.376 90.2355 277.867 91.601 277.867C94.6946 277.867 95.0146 275.52 95.0146 272.789V267.007C95.0146 264.746 95.0146 261.93 91.857 261.93C88.6567 261.93 88.6567 264.831 88.6567 267.05V267.776ZM90.8116 266.687C90.8116 265.066 90.8116 263.829 91.8144 263.829C92.8598 263.829 92.8598 265.087 92.8598 266.687V267.562C92.8598 269.205 92.8598 270.464 91.8144 270.464C90.8116 270.464 90.8116 269.226 90.8116 267.605V266.687Z" fill="black"/>
<path d="M87.1395 271.488C87.1395 268.97 86.3714 267.712 84.5579 267.712C83.7685 267.712 83.0645 268.224 82.8938 268.693L83.0218 264.234H86.8835V262.229H81.3363L81.1443 269.952L82.5524 270.805C82.7444 270.421 83.1925 269.803 83.8539 269.803C84.8353 269.803 85.006 270.656 85.006 272.043V273.238C85.006 274.731 84.7926 275.926 83.7685 275.926C83.2351 275.926 82.8724 275.819 82.1684 274.944L80.7603 276.31C81.315 277.206 82.2537 277.889 83.7899 277.889C86.2007 277.889 87.1395 276.374 87.1395 273.323V271.488Z" fill="black"/>
<path d="M187.78 265.088C187.78 262.57 187.012 261.311 185.199 261.311C184.409 261.311 183.705 261.823 183.534 262.293L183.662 257.834H187.524V255.828H181.977L181.785 263.551L183.193 264.405C183.385 264.021 183.833 263.402 184.494 263.402C185.476 263.402 185.647 264.256 185.647 265.642V266.837C185.647 268.331 185.433 269.525 184.409 269.525C183.876 269.525 183.513 269.419 182.809 268.544L181.401 269.909C181.956 270.805 182.894 271.488 184.43 271.488C186.841 271.488 187.78 269.973 187.78 266.922V265.088Z" fill="black"/>
<path d="M179.862 265.621C179.862 262.826 179.734 260.991 177.537 260.991C176.449 260.991 175.766 261.738 175.638 262.058V261.162C175.638 258.41 175.809 257.492 177.131 257.492C177.75 257.492 178.177 257.855 178.497 258.154L179.67 256.617C179.052 255.935 178.134 255.529 176.918 255.529C173.824 255.529 173.504 257.876 173.504 260.607V266.389C173.504 268.65 173.504 271.467 176.662 271.467C179.862 271.467 179.862 268.565 179.862 266.346V265.621ZM177.707 266.709C177.707 268.33 177.707 269.568 176.705 269.568C175.659 269.568 175.659 268.309 175.659 266.709V265.834C175.659 264.191 175.659 262.933 176.705 262.933C177.707 262.933 177.707 264.17 177.707 265.792V266.709Z" fill="black"/>
<path d="M371.271 247.679V245.78H369.905V235.561H367.857L364.23 245.929V247.679H367.921V250.922H369.905V247.679H371.271ZM367.921 245.78H365.979L367.921 240.169V245.78Z" fill="black"/>
<path d="M363.033 237.075V235.561H356.525V237.566H360.984L356.824 250.922H359.022L363.033 237.075Z" fill="black"/>
<path d="M278.256 260.524V245.162H276.634L273.242 247.552L274.224 249.024L276.186 247.658V260.524H278.256Z" fill="black"/>
<path d="M271.448 246.677V245.162H264.94V247.168H269.4L265.239 260.524H267.437L271.448 246.677Z" fill="black"/>
<path d="M460.196 238.953C460.196 236.158 460.068 234.323 457.871 234.323C456.783 234.323 456.1 235.07 455.972 235.39V234.494C455.972 231.742 456.143 230.824 457.465 230.824C458.084 230.824 458.511 231.187 458.831 231.486L460.004 229.949C459.386 229.267 458.468 228.861 457.252 228.861C454.158 228.861 453.838 231.208 453.838 233.939V239.721C453.838 241.983 453.838 244.799 456.996 244.799C460.196 244.799 460.196 241.897 460.196 239.678V238.953ZM458.041 240.041C458.041 241.662 458.041 242.9 457.039 242.9C455.993 242.9 455.993 241.641 455.993 240.041V239.166C455.993 237.523 455.993 236.265 457.039 236.265C458.041 236.265 458.041 237.502 458.041 239.124V240.041Z" fill="black"/>
<path d="M452.3 230.675V229.16H445.792V231.166H450.252L446.091 244.522H448.289L452.3 230.675Z" fill="black"/>
<path d="M543.773 230.717C544.69 230.717 544.903 231.486 544.903 232.552V233.448C544.903 235.539 544.306 235.561 543.154 235.561H542.855V237.523H543.154C544.434 237.523 545.01 237.545 545.01 239.657V240.724C545.01 242.239 544.711 242.879 543.773 242.879C543.09 242.879 542.556 242.324 542.236 241.876L540.85 243.241C541.255 243.924 542.215 244.799 543.73 244.799C546.418 244.799 547.144 243.007 547.144 240.724V239.166C547.144 237.523 546.482 236.563 545.437 236.371C546.61 236.094 547.037 235.305 547.037 233.726V232.488C547.037 230.355 546.29 228.861 543.858 228.861C542.364 228.861 541.49 229.523 540.935 230.44L542.258 231.656C542.62 231.144 543.111 230.717 543.773 230.717Z" fill="black"/>
<path d="M539.247 230.675V229.16H532.74V231.166H537.199L533.038 244.522H535.236L539.247 230.675Z" fill="black"/>
<path d="M711.591 6.25504V4.74023H705.084V6.74575H709.543L705.383 20.1016H707.58L711.591 6.25504Z" fill="black"/>
<path d="M704.036 16.8587V14.9598H702.67V4.74023H700.622L696.995 15.1092V16.8587H700.686V20.1016H702.67V16.8587H704.036ZM700.686 14.9598H698.745L700.686 9.34865V14.9598Z" fill="black"/>
<path d="M696.139 16.8587V14.9598H694.774V4.74023H692.726L689.099 15.1092V16.8587H692.79V20.1016H694.774V16.8587H696.139ZM692.79 14.9598H690.848L692.79 9.34865V14.9598Z" fill="black"/>
<path d="M694.932 131.757V129.858H693.567V119.639H691.519L687.892 130.008V131.757H691.583V135H693.567V131.757H694.932ZM691.583 129.858H689.641L691.583 124.247V129.858Z" fill="black"/>
<path d="M686.694 129.431C686.694 126.637 686.566 124.802 684.369 124.802C683.281 124.802 682.598 125.548 682.47 125.868V124.972C682.47 122.22 682.641 121.303 683.963 121.303C684.582 121.303 685.009 121.665 685.329 121.964L686.502 120.428C685.884 119.745 684.966 119.34 683.75 119.34C680.656 119.34 680.336 121.687 680.336 124.418V130.199C680.336 132.461 680.336 135.277 683.494 135.277C686.694 135.277 686.694 132.376 686.694 130.157V129.431ZM684.539 130.52C684.539 132.141 684.539 133.378 683.537 133.378C682.491 133.378 682.491 132.12 682.491 130.52V129.645C682.491 128.002 682.491 126.743 683.537 126.743C684.539 126.743 684.539 127.981 684.539 129.602V130.52Z" fill="black"/>
<path d="M675.256 121.196C676.152 121.196 676.643 121.751 676.643 123.522C676.643 125.655 675.533 126.53 674.595 127.469C673.25 128.813 672.674 129.922 672.674 132.546V135H678.606V132.994H674.744V132.162C674.744 130.626 675.043 129.879 676.109 128.813C677.795 127.127 678.84 126.487 678.84 123.223C678.84 120.343 677.453 119.34 675.533 119.34C673.762 119.34 672.888 120.023 672.333 120.855L673.677 122.092C674.04 121.623 674.552 121.196 675.256 121.196Z" fill="black"/>
<path fill-rule="evenodd" clip-rule="evenodd" d="M645.733 309.196H57.9653V308.129H645.733V309.196Z" fill="#DADADA"/>
<path fill-rule="evenodd" clip-rule="evenodd" d="M729.203 309.196L660.804 309.196L660.804 308.129L729.203 308.129L729.203 309.196Z" fill="#DADADA"/>
<path fill-rule="evenodd" clip-rule="evenodd" d="M108.278 309.195L108.278 265.458C108.278 262.512 110.666 260.124 113.612 260.124C116.557 260.124 118.945 262.512 118.945 265.458L118.945 309.195L108.278 309.195Z" fill="#D86300"/>
<path fill-rule="evenodd" clip-rule="evenodd" d="M108.278 309.195L108.278 265.458C108.278 262.512 110.666 260.124 113.612 260.124C116.557 260.124 118.945 262.512 118.945 265.458L118.945 309.195L108.278 309.195Z" fill="#41B464"/>
<path fill-rule="evenodd" clip-rule="evenodd" d="M197.544 309.195L197.544 256.924C197.544 253.978 199.932 251.59 202.878 251.59C205.824 251.59 208.212 253.978 208.212 256.924L208.212 309.195L197.544 309.195Z" fill="#D86300"/>
<path fill-rule="evenodd" clip-rule="evenodd" d="M197.544 309.195L197.544 256.924C197.544 253.978 199.932 251.59 202.878 251.59C205.824 251.59 208.212 253.978 208.212 256.924L208.212 309.195L197.544 309.195Z" fill="#41B464"/>
<path fill-rule="evenodd" clip-rule="evenodd" d="M286.812 309.195L286.812 245.19C286.812 242.244 289.2 239.856 292.145 239.856C295.091 239.856 297.479 242.244 297.479 245.19L297.479 309.195L286.812 309.195Z" fill="#D86300"/>
<path fill-rule="evenodd" clip-rule="evenodd" d="M286.812 309.195L286.812 245.19C286.812 242.244 289.2 239.856 292.145 239.856C295.091 239.856 297.479 242.244 297.479 245.19L297.479 309.195L286.812 309.195Z" fill="#41B464"/>
<path fill-rule="evenodd" clip-rule="evenodd" d="M376.078 309.195L376.078 237.722C376.078 234.776 378.466 232.388 381.411 232.388C384.357 232.388 386.745 234.776 386.745 237.722L386.745 309.195L376.078 309.195Z" fill="#D86300"/>
<path fill-rule="evenodd" clip-rule="evenodd" d="M376.078 309.195L376.078 237.722C376.078 234.776 378.466 232.388 381.411 232.388C384.357 232.388 386.745 234.776 386.745 237.722L386.745 309.195L376.078 309.195Z" fill="#41B464"/>
<path fill-rule="evenodd" clip-rule="evenodd" d="M465.344 309.195L465.344 231.322C465.344 228.376 467.732 225.988 470.678 225.988C473.624 225.988 476.012 228.376 476.012 231.322L476.012 309.195L465.344 309.195Z" fill="#D86300"/>
<path fill-rule="evenodd" clip-rule="evenodd" d="M465.344 309.195L465.344 231.322C465.344 228.376 467.732 225.988 470.678 225.988C473.624 225.988 476.012 228.376 476.012 231.322L476.012 309.195L465.344 309.195Z" fill="#41B464"/>
<path fill-rule="evenodd" clip-rule="evenodd" d="M554.61 309.195L554.61 231.322C554.61 228.376 556.998 225.988 559.944 225.988C562.89 225.988 565.278 228.376 565.278 231.322L565.278 309.195L554.61 309.195Z" fill="#D86300"/>
<path fill-rule="evenodd" clip-rule="evenodd" d="M554.61 309.195L554.61 231.322C554.61 228.376 556.998 225.988 559.944 225.988C562.89 225.988 565.278 228.376 565.278 231.322L565.278 309.195L554.61 309.195Z" fill="#41B464"/>
<path fill-rule="evenodd" clip-rule="evenodd" d="M715.798 309.195L715.798 6.2345C715.798 3.28873 718.186 0.900696 721.132 0.900696C724.077 0.900695 726.465 3.28873 726.465 6.2345L726.465 309.195L715.798 309.195Z" fill="#D86300"/>
<path fill-rule="evenodd" clip-rule="evenodd" d="M715.798 309.195L715.798 6.2345C715.798 3.28873 718.186 0.900696 721.132 0.900696C724.077 0.900695 726.465 3.28873 726.465 6.2345L726.465 309.195L715.798 309.195Z" fill="#41B464"/>
<path fill-rule="evenodd" clip-rule="evenodd" d="M702.666 309.334L702.666 122C702.666 119.054 705.054 116.666 708 116.666C710.946 116.666 713.334 119.054 713.334 122L713.334 309.334L702.666 309.334Z" fill="#D86300"/>
<path fill-rule="evenodd" clip-rule="evenodd" d="M702.666 309.334L702.666 122C702.666 119.054 705.054 116.666 708 116.666C710.946 116.666 713.334 119.054 713.334 122L713.334 309.334L702.666 309.334Z" fill="#41B464"/>
<path d="M122.341 327.998C123.077 327.998 123.662 328.205 124.096 328.618C124.534 329.031 124.753 329.597 124.753 330.316C124.753 331.167 124.49 331.822 123.966 332.28C123.442 332.738 122.692 332.967 121.716 332.967C120.869 332.967 120.184 332.83 119.664 332.556V331.165C119.938 331.311 120.257 331.431 120.622 331.525C120.987 331.615 121.332 331.66 121.659 331.66C122.641 331.66 123.133 331.257 123.133 330.452C123.133 329.684 122.624 329.3 121.606 329.3C121.422 329.3 121.219 329.32 120.997 329.358C120.775 329.393 120.594 329.431 120.455 329.472L119.815 329.129L120.101 325.248H124.232V326.613H121.513L121.372 328.108L121.554 328.071C121.766 328.023 122.028 327.998 122.341 327.998Z" fill="#7B7B7B"/>
<path d="M117.455 332.863H115.846V328.457L115.861 327.733L115.887 326.941C115.62 327.208 115.434 327.384 115.33 327.467L114.455 328.17L113.679 327.201L116.132 325.248H117.455V332.863Z" fill="#7B7B7B"/>
<path d="M112.663 329.056C112.663 330.386 112.444 331.371 112.006 332.01C111.572 332.649 110.902 332.968 109.996 332.968C109.117 332.968 108.454 332.638 108.006 331.978C107.562 331.319 107.339 330.345 107.339 329.056C107.339 327.712 107.556 326.723 107.99 326.087C108.425 325.448 109.093 325.129 109.996 325.129C110.874 325.129 111.538 325.462 111.986 326.129C112.437 326.796 112.663 327.772 112.663 329.056ZM108.938 329.056C108.938 329.99 109.018 330.661 109.178 331.067C109.341 331.47 109.614 331.671 109.996 331.671C110.371 331.671 110.642 331.466 110.808 331.057C110.975 330.647 111.058 329.98 111.058 329.056C111.058 328.122 110.973 327.452 110.803 327.046C110.637 326.636 110.367 326.431 109.996 326.431C109.617 326.431 109.346 326.636 109.183 327.046C109.02 327.452 108.938 328.122 108.938 329.056Z" fill="#7B7B7B"/>
<path d="M106.61 332.863H101.287V331.743L103.199 329.811C103.765 329.231 104.134 328.83 104.308 328.608C104.482 328.382 104.607 328.174 104.683 327.983C104.759 327.792 104.798 327.594 104.798 327.389C104.798 327.083 104.713 326.856 104.542 326.707C104.376 326.557 104.152 326.483 103.871 326.483C103.575 326.483 103.289 326.55 103.011 326.686C102.733 326.821 102.443 327.014 102.141 327.264L101.266 326.227C101.641 325.908 101.952 325.682 102.198 325.55C102.445 325.418 102.714 325.318 103.006 325.248C103.298 325.175 103.624 325.139 103.985 325.139C104.461 325.139 104.881 325.225 105.246 325.399C105.61 325.573 105.893 325.816 106.095 326.128C106.296 326.441 106.397 326.799 106.397 327.201C106.397 327.552 106.334 327.882 106.209 328.191C106.088 328.497 105.897 328.811 105.636 329.134C105.379 329.457 104.924 329.917 104.272 330.514L103.292 331.436V331.509H106.61V332.863Z" fill="#7B7B7B"/>
<path d="M34.7789 310.346C34.7789 311.034 34.5306 311.575 34.0341 311.971C33.541 312.367 32.8534 312.565 31.9714 312.565C31.1588 312.565 30.44 312.412 29.8149 312.107V310.607C30.3289 310.836 30.7629 310.997 31.1171 311.091C31.4748 311.185 31.8012 311.232 32.0964 311.232C32.4506 311.232 32.7215 311.164 32.909 311.029C33.1 310.893 33.1955 310.692 33.1955 310.424C33.1955 310.275 33.1538 310.143 33.0704 310.028C32.9871 309.91 32.8638 309.798 32.7006 309.69C32.5409 309.582 32.2127 309.41 31.7162 309.174C31.2508 308.955 30.9018 308.745 30.6692 308.544C30.4365 308.343 30.2507 308.108 30.1118 307.841C29.9729 307.573 29.9035 307.261 29.9035 306.903C29.9035 306.23 30.1309 305.7 30.5858 305.315C31.0442 304.929 31.6762 304.736 32.4819 304.736C32.8777 304.736 33.2545 304.783 33.6122 304.877C33.9733 304.971 34.3501 305.103 34.7425 305.273L34.2216 306.528C33.8153 306.361 33.4785 306.245 33.2111 306.179C32.9472 306.113 32.6867 306.08 32.4298 306.08C32.1242 306.08 31.8898 306.151 31.7266 306.294C31.5634 306.436 31.4818 306.622 31.4818 306.851C31.4818 306.993 31.5147 307.118 31.5807 307.226C31.6467 307.33 31.7509 307.433 31.8933 307.533C32.0391 307.631 32.3811 307.808 32.9194 308.065C33.6313 308.405 34.1191 308.747 34.3831 309.091C34.647 309.431 34.7789 309.85 34.7789 310.346Z" fill="#7B7B7B"/>
<path d="M28.69 312.461H24.3042V304.846H28.69V306.169H25.9189V307.841H28.4973V309.164H25.9189V311.128H28.69V312.461Z" fill="#7B7B7B"/>
<path d="M22.3823 312.461H20.33L17.0172 306.7H16.9703C17.0363 307.717 17.0693 308.443 17.0693 308.877V312.461H15.6265V304.846H17.6631L20.9707 310.549H21.0072C20.9551 309.56 20.929 308.86 20.929 308.45V304.846H22.3823V312.461Z" fill="#7B7B7B"/>
<path d="M14.048 308.644C14.048 309.904 13.7355 310.873 13.1104 311.55C12.4854 312.227 11.5895 312.566 10.4227 312.566C9.25592 312.566 8.36001 312.227 7.73495 311.55C7.10989 310.873 6.79736 309.901 6.79736 308.633C6.79736 307.366 7.10989 306.399 7.73495 305.732C8.36348 305.062 9.26286 304.727 10.4331 304.727C11.6034 304.727 12.4975 305.063 13.1156 305.737C13.7372 306.411 14.048 307.38 14.048 308.644ZM8.49022 308.644C8.49022 309.494 8.6517 310.135 8.97464 310.566C9.29759 310.996 9.78027 311.212 10.4227 311.212C11.711 311.212 12.3552 310.356 12.3552 308.644C12.3552 306.928 11.7145 306.07 10.4331 306.07C9.79069 306.07 9.30627 306.287 8.97985 306.722C8.65343 307.152 8.49022 307.793 8.49022 308.644Z" fill="#7B7B7B"/>
<path d="M3.896 312.461H2.28127V306.19H0.213379V304.846H5.9639V306.19H3.896V312.461Z" fill="#7B7B7B"/>
<path d="M36.9873 295.08C36.3796 295.08 35.9091 295.309 35.5757 295.768C35.2424 296.223 35.0757 296.858 35.0757 297.674C35.0757 299.372 35.7129 300.221 36.9873 300.221C37.5221 300.221 38.1697 300.088 38.9302 299.82V301.175C38.3051 301.435 37.6072 301.565 36.8363 301.565C35.7285 301.565 34.8812 301.23 34.2944 300.56C33.7075 299.886 33.4141 298.921 33.4141 297.664C33.4141 296.872 33.5582 296.179 33.8464 295.585C34.1346 294.988 34.5478 294.532 35.0861 294.216C35.6278 293.896 36.2615 293.736 36.9873 293.736C37.727 293.736 38.4701 293.915 39.2167 294.273L38.6958 295.585C38.411 295.45 38.1246 295.332 37.8363 295.231C37.5481 295.131 37.2651 295.08 36.9873 295.08Z" fill="#7B7B7B"/>
<path d="M30.2212 301.461V293.846H31.8359V301.461H30.2212Z" fill="#7B7B7B"/>
<path d="M24.7939 297.226H25.3148C25.8253 297.226 26.202 297.141 26.4451 296.971C26.6882 296.801 26.8097 296.533 26.8097 296.169C26.8097 295.808 26.6847 295.551 26.4347 295.398C26.1882 295.245 25.8044 295.169 25.2836 295.169H24.7939V297.226ZM24.7939 298.539V301.461H23.1792V293.846H25.3982C26.433 293.846 27.1987 294.035 27.6952 294.413C28.1918 294.788 28.4401 295.36 28.4401 296.127C28.4401 296.575 28.3168 296.974 28.0703 297.325C27.8237 297.672 27.4747 297.945 27.0233 298.143C28.1692 299.855 28.9158 300.961 29.2631 301.461H27.4713L25.6534 298.539H24.7939Z" fill="#7B7B7B"/>
<path d="M19.939 301.461H18.3242V295.19H16.2563V293.846H22.0069V295.19H19.939V301.461Z" fill="#7B7B7B"/>
<path d="M15.4073 301.461H11.0215V293.846H15.4073V295.169H12.6362V296.841H15.2146V298.164H12.6362V300.128H15.4073V301.461Z" fill="#7B7B7B"/>
<path d="M4.18226 301.461L2.34876 295.486H2.30188C2.36786 296.702 2.40085 297.513 2.40085 297.919V301.461H0.958008V293.846H3.15612L4.95837 299.669H4.98962L6.90126 293.846H9.09937V301.461H7.59403V297.856C7.59403 297.686 7.59576 297.49 7.59924 297.268C7.60618 297.046 7.63049 296.455 7.67216 295.497H7.62528L5.66156 301.461H4.18226Z" fill="#7B7B7B"/>
<path d="M45.3945 290.461H43.3422L40.0294 284.7H39.9825C40.0485 285.717 40.0815 286.443 40.0815 286.877V290.461H38.6387V282.846H40.6753L43.9829 288.549H44.0194C43.9673 287.56 43.9412 286.86 43.9412 286.45V282.846H45.3945V290.461Z" fill="#7B7B7B"/>
<path d="M37.0602 286.644C37.0602 287.904 36.7477 288.873 36.1226 289.55C35.4976 290.227 34.6017 290.566 33.4349 290.566C32.2681 290.566 31.3722 290.227 30.7472 289.55C30.1221 288.873 29.8096 287.901 29.8096 286.633C29.8096 285.366 30.1221 284.399 30.7472 283.732C31.3757 283.062 32.2751 282.727 33.4453 282.727C34.6156 282.727 35.5097 283.063 36.1279 283.737C36.7494 284.411 37.0602 285.38 37.0602 286.644ZM31.5024 286.644C31.5024 287.494 31.6639 288.135 31.9869 288.566C32.3098 288.996 32.7925 289.212 33.4349 289.212C34.7232 289.212 35.3674 288.356 35.3674 286.644C35.3674 284.928 34.7267 284.07 33.4453 284.07C32.8029 284.07 32.3185 284.287 31.9921 284.722C31.6656 285.152 31.5024 285.793 31.5024 286.644Z" fill="#7B7B7B"/>
<path d="M26.6167 290.461V282.846H28.2314V290.461H26.6167Z" fill="#7B7B7B"/>
<path d="M20.585 290.461V282.846H22.1997V289.128H25.2885V290.461H20.585Z" fill="#7B7B7B"/>
<path d="M14.5532 290.461V282.846H16.168V289.128H19.2568V290.461H14.5532Z" fill="#7B7B7B"/>
<path d="M11.0215 290.461V282.846H12.6362V290.461H11.0215Z" fill="#7B7B7B"/>
<path d="M4.18226 290.461L2.34876 284.486H2.30188C2.36786 285.702 2.40085 286.513 2.40085 286.919V290.461H0.958008V282.846H3.15612L4.95837 288.669H4.98962L6.90126 282.846H9.09937V290.461H7.59403V286.856C7.59403 286.686 7.59576 286.49 7.59924 286.268C7.60618 286.046 7.63049 285.455 7.67216 284.497H7.62528L5.66156 290.461H4.18226Z" fill="#7B7B7B"/>
<path d="M208.784 329.629C208.784 328.122 209.101 327.001 209.737 326.264C210.376 325.528 211.331 325.16 212.602 325.16C213.036 325.16 213.376 325.186 213.623 325.238V326.525C213.314 326.455 213.008 326.421 212.706 326.421C212.154 326.421 211.702 326.504 211.352 326.671C211.004 326.837 210.744 327.084 210.57 327.41C210.397 327.737 210.294 328.2 210.263 328.801H210.331C210.674 328.211 211.225 327.916 211.982 327.916C212.663 327.916 213.196 328.129 213.581 328.556C213.966 328.983 214.159 329.574 214.159 330.327C214.159 331.14 213.93 331.784 213.472 332.26C213.013 332.732 212.378 332.968 211.565 332.968C211.003 332.968 210.511 332.838 210.091 332.577C209.674 332.317 209.351 331.937 209.122 331.437C208.897 330.937 208.784 330.334 208.784 329.629ZM211.534 331.682C211.878 331.682 212.142 331.567 212.326 331.338C212.51 331.105 212.602 330.775 212.602 330.348C212.602 329.977 212.515 329.685 212.341 329.473C212.171 329.258 211.912 329.15 211.565 329.15C211.239 329.15 210.959 329.256 210.727 329.468C210.497 329.68 210.383 329.926 210.383 330.207C210.383 330.621 210.49 330.97 210.706 331.254C210.925 331.539 211.201 331.682 211.534 331.682Z" fill="#7B7B7B"/>
<path d="M206.721 332.863H205.112V328.457L205.127 327.733L205.153 326.941C204.886 327.208 204.7 327.384 204.596 327.467L203.721 328.17L202.945 327.201L205.398 325.248H206.721V332.863Z" fill="#7B7B7B"/>
<path d="M201.929 329.056C201.929 330.386 201.71 331.371 201.273 332.01C200.838 332.649 200.168 332.968 199.262 332.968C198.383 332.968 197.72 332.638 197.272 331.978C196.828 331.319 196.605 330.345 196.605 329.056C196.605 327.712 196.823 326.723 197.257 326.087C197.691 325.448 198.359 325.129 199.262 325.129C200.141 325.129 200.804 325.462 201.252 326.129C201.703 326.796 201.929 327.772 201.929 329.056ZM198.205 329.056C198.205 329.99 198.284 330.661 198.444 331.067C198.607 331.47 198.88 331.671 199.262 331.671C199.637 331.671 199.908 331.466 200.075 331.057C200.241 330.647 200.325 329.98 200.325 329.056C200.325 328.122 200.239 327.452 200.069 327.046C199.903 326.636 199.634 326.431 199.262 326.431C198.883 326.431 198.613 326.636 198.449 327.046C198.286 327.452 198.205 328.122 198.205 329.056Z" fill="#7B7B7B"/>
<path d="M195.876 332.863H190.553V331.743L192.465 329.811C193.031 329.231 193.401 328.83 193.574 328.608C193.748 328.382 193.873 328.174 193.949 327.983C194.026 327.792 194.064 327.594 194.064 327.389C194.064 327.083 193.979 326.856 193.809 326.707C193.642 326.557 193.418 326.483 193.137 326.483C192.841 326.483 192.555 326.55 192.277 326.686C191.999 326.821 191.709 327.014 191.407 327.264L190.532 326.227C190.907 325.908 191.218 325.682 191.465 325.55C191.711 325.418 191.98 325.318 192.272 325.248C192.564 325.175 192.89 325.139 193.251 325.139C193.727 325.139 194.147 325.225 194.512 325.399C194.876 325.573 195.159 325.816 195.361 326.128C195.562 326.441 195.663 326.799 195.663 327.201C195.663 327.552 195.6 327.882 195.475 328.191C195.354 328.497 195.163 328.811 194.902 329.134C194.645 329.457 194.191 329.917 193.538 330.514L192.558 331.436V331.509H195.876V332.863Z" fill="#7B7B7B"/>
<path d="M298.858 332.865L301.717 326.614H297.962V325.26H303.426V326.27L300.545 332.865H298.858Z" fill="#7B7B7B"/>
<path d="M295.988 332.863H294.378V328.457L294.394 327.733L294.42 326.941C294.153 327.208 293.967 327.384 293.863 327.467L292.988 328.17L292.211 327.201L294.665 325.248H295.988V332.863Z" fill="#7B7B7B"/>
<path d="M291.195 329.056C291.195 330.386 290.977 331.371 290.539 332.01C290.105 332.649 289.435 332.968 288.529 332.968C287.65 332.968 286.987 332.638 286.539 331.978C286.094 331.319 285.872 330.345 285.872 329.056C285.872 327.712 286.089 326.723 286.523 326.087C286.957 325.448 287.626 325.129 288.529 325.129C289.407 325.129 290.07 325.462 290.518 326.129C290.97 326.796 291.195 327.772 291.195 329.056ZM287.471 329.056C287.471 329.99 287.551 330.661 287.711 331.067C287.874 331.47 288.147 331.671 288.529 331.671C288.904 331.671 289.174 331.466 289.341 331.057C289.508 330.647 289.591 329.98 289.591 329.056C289.591 328.122 289.506 327.452 289.336 327.046C289.169 326.636 288.9 326.431 288.529 326.431C288.15 326.431 287.879 326.636 287.716 327.046C287.553 327.452 287.471 328.122 287.471 329.056Z" fill="#7B7B7B"/>
<path d="M285.143 332.863H279.82V331.743L281.731 329.811C282.297 329.231 282.667 328.83 282.841 328.608C283.014 328.382 283.139 328.174 283.216 327.983C283.292 327.792 283.33 327.594 283.33 327.389C283.33 327.083 283.245 326.856 283.075 326.707C282.908 326.557 282.685 326.483 282.403 326.483C282.108 326.483 281.822 326.55 281.544 326.686C281.266 326.821 280.976 327.014 280.674 327.264L279.799 326.227C280.174 325.908 280.485 325.682 280.731 325.55C280.978 325.418 281.247 325.318 281.539 325.248C281.83 325.175 282.157 325.139 282.518 325.139C282.994 325.139 283.414 325.225 283.778 325.399C284.143 325.573 284.426 325.816 284.627 326.128C284.829 326.441 284.93 326.799 284.93 327.201C284.93 327.552 284.867 327.882 284.742 328.191C284.62 328.497 284.429 328.811 284.169 329.134C283.912 329.457 283.457 329.917 282.804 330.514L281.825 331.436V331.509H285.143V332.863Z" fill="#7B7B7B"/>
<path d="M389.995 325.15C390.724 325.15 391.311 325.317 391.755 325.65C392.203 325.98 392.427 326.427 392.427 326.989C392.427 327.378 392.32 327.725 392.104 328.031C391.889 328.333 391.542 328.604 391.063 328.843C391.632 329.149 392.04 329.468 392.287 329.802C392.537 330.132 392.662 330.495 392.662 330.89C392.662 331.516 392.417 332.019 391.927 332.401C391.438 332.78 390.793 332.969 389.995 332.969C389.161 332.969 388.507 332.792 388.031 332.438C387.555 332.083 387.317 331.582 387.317 330.932C387.317 330.498 387.432 330.113 387.661 329.776C387.894 329.439 388.265 329.142 388.776 328.885C388.342 328.611 388.029 328.317 387.838 328.005C387.647 327.692 387.552 327.35 387.552 326.979C387.552 326.433 387.777 325.992 388.229 325.656C388.68 325.319 389.269 325.15 389.995 325.15ZM388.807 330.838C388.807 331.137 388.911 331.37 389.12 331.536C389.328 331.703 389.613 331.786 389.974 331.786C390.373 331.786 390.672 331.701 390.87 331.531C391.068 331.358 391.167 331.13 391.167 330.849C391.167 330.616 391.068 330.399 390.87 330.198C390.675 329.993 390.358 329.776 389.917 329.547C389.177 329.887 388.807 330.318 388.807 330.838ZM389.984 326.328C389.71 326.328 389.488 326.399 389.318 326.541C389.151 326.68 389.068 326.868 389.068 327.104C389.068 327.312 389.134 327.5 389.265 327.666C389.401 327.829 389.644 327.998 389.995 328.171C390.335 328.012 390.573 327.849 390.708 327.682C390.844 327.515 390.911 327.322 390.911 327.104C390.911 326.864 390.825 326.675 390.651 326.536C390.477 326.397 390.255 326.328 389.984 326.328Z" fill="#7B7B7B"/>
<path d="M385.255 332.863H383.645V328.457L383.661 327.733L383.687 326.941C383.42 327.208 383.234 327.384 383.13 327.467L382.255 328.17L381.479 327.201L383.932 325.248H385.255V332.863Z" fill="#7B7B7B"/>
<path d="M380.463 329.056C380.463 330.386 380.244 331.371 379.807 332.01C379.373 332.649 378.702 332.968 377.796 332.968C376.918 332.968 376.254 332.638 375.806 331.978C375.362 331.319 375.14 330.345 375.14 329.056C375.14 327.712 375.357 326.723 375.791 326.087C376.225 325.448 376.893 325.129 377.796 325.129C378.675 325.129 379.338 325.462 379.786 326.129C380.237 326.796 380.463 327.772 380.463 329.056ZM376.739 329.056C376.739 329.99 376.819 330.661 376.978 331.067C377.142 331.47 377.414 331.671 377.796 331.671C378.171 331.671 378.442 331.466 378.609 331.057C378.775 330.647 378.859 329.98 378.859 329.056C378.859 328.122 378.774 327.452 378.604 327.046C378.437 326.636 378.168 326.431 377.796 326.431C377.418 326.431 377.147 326.636 376.984 327.046C376.82 327.452 376.739 328.122 376.739 329.056Z" fill="#7B7B7B"/>
<path d="M374.41 332.863H369.087V331.743L370.998 329.811C371.564 329.231 371.934 328.83 372.108 328.608C372.281 328.382 372.406 328.174 372.483 327.983C372.559 327.792 372.597 327.594 372.597 327.389C372.597 327.083 372.512 326.856 372.342 326.707C372.176 326.557 371.952 326.483 371.67 326.483C371.375 326.483 371.089 326.55 370.811 326.686C370.533 326.821 370.243 327.014 369.941 327.264L369.066 326.227C369.441 325.908 369.752 325.682 369.998 325.55C370.245 325.418 370.514 325.318 370.806 325.248C371.097 325.175 371.424 325.139 371.785 325.139C372.261 325.139 372.681 325.225 373.045 325.399C373.41 325.573 373.693 325.816 373.894 326.128C374.096 326.441 374.197 326.799 374.197 327.201C374.197 327.552 374.134 327.882 374.009 328.191C373.888 328.497 373.697 328.811 373.436 329.134C373.179 329.457 372.724 329.917 372.071 330.514L371.092 331.436V331.509H374.41V332.863Z" fill="#7B7B7B"/>
<path d="M481.928 328.499C481.928 329.999 481.612 331.119 480.98 331.859C480.348 332.598 479.391 332.968 478.11 332.968C477.658 332.968 477.316 332.944 477.084 332.895V331.603C477.375 331.676 477.681 331.713 478 331.713C478.539 331.713 478.981 331.635 479.329 331.478C479.676 331.319 479.941 331.07 480.125 330.734C480.31 330.393 480.415 329.926 480.443 329.332H480.381C480.179 329.659 479.947 329.888 479.683 330.02C479.419 330.152 479.089 330.218 478.693 330.218C478.03 330.218 477.507 330.006 477.125 329.582C476.743 329.155 476.552 328.563 476.552 327.806C476.552 326.99 476.783 326.346 477.245 325.874C477.71 325.398 478.342 325.16 479.141 325.16C479.704 325.16 480.195 325.292 480.615 325.556C481.039 325.82 481.363 326.204 481.589 326.707C481.815 327.207 481.928 327.804 481.928 328.499ZM479.172 326.452C478.839 326.452 478.578 326.567 478.391 326.796C478.203 327.025 478.11 327.355 478.11 327.785C478.11 328.153 478.195 328.445 478.365 328.66C478.535 328.876 478.794 328.983 479.141 328.983C479.467 328.983 479.747 328.878 479.98 328.666C480.212 328.45 480.329 328.204 480.329 327.926C480.329 327.513 480.219 327.164 480 326.879C479.785 326.594 479.509 326.452 479.172 326.452Z" fill="#7B7B7B"/>
<path d="M474.521 332.863H472.911V328.457L472.927 327.733L472.953 326.941C472.686 327.208 472.5 327.384 472.396 327.467L471.521 328.17L470.745 327.201L473.198 325.248H474.521V332.863Z" fill="#7B7B7B"/>
<path d="M469.729 329.056C469.729 330.386 469.51 331.371 469.072 332.01C468.638 332.649 467.968 332.968 467.062 332.968C466.183 332.968 465.52 332.638 465.072 331.978C464.628 331.319 464.405 330.345 464.405 329.056C464.405 327.712 464.622 326.723 465.056 326.087C465.49 325.448 466.159 325.129 467.062 325.129C467.94 325.129 468.604 325.462 469.052 326.129C469.503 326.796 469.729 327.772 469.729 329.056ZM466.004 329.056C466.004 329.99 466.084 330.661 466.244 331.067C466.407 331.47 466.68 331.671 467.062 331.671C467.437 331.671 467.708 331.466 467.874 331.057C468.041 330.647 468.124 329.98 468.124 329.056C468.124 328.122 468.039 327.452 467.869 327.046C467.702 326.636 467.433 326.431 467.062 326.431C466.683 326.431 466.412 326.636 466.249 327.046C466.086 327.452 466.004 328.122 466.004 329.056Z" fill="#7B7B7B"/>
<path d="M463.676 332.863H458.353V331.743L460.264 329.811C460.831 329.231 461.2 328.83 461.374 328.608C461.548 328.382 461.673 328.174 461.749 327.983C461.825 327.792 461.864 327.594 461.864 327.389C461.864 327.083 461.779 326.856 461.608 326.707C461.442 326.557 461.218 326.483 460.936 326.483C460.641 326.483 460.355 326.55 460.077 326.686C459.799 326.821 459.509 327.014 459.207 327.264L458.332 326.227C458.707 325.908 459.018 325.682 459.264 325.55C459.511 325.418 459.78 325.318 460.072 325.248C460.363 325.175 460.69 325.139 461.051 325.139C461.527 325.139 461.947 325.225 462.312 325.399C462.676 325.573 462.959 325.816 463.161 326.128C463.362 326.441 463.463 326.799 463.463 327.201C463.463 327.552 463.4 327.882 463.275 328.191C463.154 328.497 462.963 328.811 462.702 329.134C462.445 329.457 461.99 329.917 461.338 330.514L460.358 331.436V331.509H463.676V332.863Z" fill="#7B7B7B"/>
<path d="M571.184 329.056C571.184 330.386 570.965 331.371 570.528 332.01C570.094 332.649 569.424 332.968 568.517 332.968C567.639 332.968 566.976 332.638 566.528 331.978C566.083 331.319 565.861 330.345 565.861 329.056C565.861 327.712 566.078 326.723 566.512 326.087C566.946 325.448 567.614 325.129 568.517 325.129C569.396 325.129 570.059 325.462 570.507 326.129C570.959 326.796 571.184 327.772 571.184 329.056ZM567.46 329.056C567.46 329.99 567.54 330.661 567.7 331.067C567.863 331.47 568.135 331.671 568.517 331.671C568.892 331.671 569.163 331.466 569.33 331.057C569.497 330.647 569.58 329.98 569.58 329.056C569.58 328.122 569.495 327.452 569.325 327.046C569.158 326.636 568.889 326.431 568.517 326.431C568.139 326.431 567.868 326.636 567.705 327.046C567.542 327.452 567.46 328.122 567.46 329.056Z" fill="#7B7B7B"/>
<path d="M565.131 332.863H559.808V331.743L561.72 329.811C562.286 329.231 562.655 328.83 562.829 328.608C563.003 328.382 563.128 328.174 563.204 327.983C563.28 327.792 563.319 327.594 563.319 327.389C563.319 327.083 563.234 326.856 563.063 326.707C562.897 326.557 562.673 326.483 562.392 326.483C562.096 326.483 561.81 326.55 561.532 326.686C561.254 326.821 560.964 327.014 560.662 327.264L559.787 326.227C560.162 325.908 560.473 325.682 560.719 325.55C560.966 325.418 561.235 325.318 561.527 325.248C561.819 325.175 562.145 325.139 562.506 325.139C562.982 325.139 563.402 325.225 563.767 325.399C564.131 325.573 564.414 325.816 564.616 326.128C564.817 326.441 564.918 326.799 564.918 327.201C564.918 327.552 564.855 327.882 564.73 328.191C564.609 328.497 564.418 328.811 564.157 329.134C563.9 329.457 563.445 329.917 562.793 330.514L561.813 331.436V331.509H565.131V332.863Z" fill="#7B7B7B"/>
<path d="M558.995 329.056C558.995 330.386 558.777 331.371 558.339 332.01C557.905 332.649 557.235 332.968 556.328 332.968C555.45 332.968 554.787 332.638 554.339 331.978C553.894 331.319 553.672 330.345 553.672 329.056C553.672 327.712 553.889 326.723 554.323 326.087C554.757 325.448 555.426 325.129 556.328 325.129C557.207 325.129 557.87 325.462 558.318 326.129C558.77 326.796 558.995 327.772 558.995 329.056ZM555.271 329.056C555.271 329.99 555.351 330.661 555.511 331.067C555.674 331.47 555.946 331.671 556.328 331.671C556.703 331.671 556.974 331.466 557.141 331.057C557.308 330.647 557.391 329.98 557.391 329.056C557.391 328.122 557.306 327.452 557.136 327.046C556.969 326.636 556.7 326.431 556.328 326.431C555.95 326.431 555.679 326.636 555.516 327.046C555.353 327.452 555.271 328.122 555.271 329.056Z" fill="#7B7B7B"/>
<path d="M552.943 332.863H547.619V331.743L549.531 329.811C550.097 329.231 550.467 328.83 550.641 328.608C550.814 328.382 550.939 328.174 551.016 327.983C551.092 327.792 551.13 327.594 551.13 327.389C551.13 327.083 551.045 326.856 550.875 326.707C550.708 326.557 550.484 326.483 550.203 326.483C549.908 326.483 549.621 326.55 549.344 326.686C549.066 326.821 548.776 327.014 548.474 327.264L547.599 326.227C547.974 325.908 548.284 325.682 548.531 325.55C548.778 325.418 549.047 325.318 549.338 325.248C549.63 325.175 549.956 325.139 550.318 325.139C550.793 325.139 551.214 325.225 551.578 325.399C551.943 325.573 552.226 325.816 552.427 326.128C552.629 326.441 552.729 326.799 552.729 327.201C552.729 327.552 552.667 327.882 552.542 328.191C552.42 328.497 552.229 328.811 551.969 329.134C551.712 329.457 551.257 329.917 550.604 330.514L549.625 331.436V331.509H552.943V332.863Z" fill="#7B7B7B"/>
<path d="M726.328 329.056C726.328 330.386 726.109 331.371 725.671 332.01C725.237 332.649 724.567 332.968 723.661 332.968C722.782 332.968 722.119 332.638 721.671 331.978C721.227 331.319 721.004 330.345 721.004 329.056C721.004 327.712 721.221 326.723 721.655 326.087C722.09 325.448 722.758 325.129 723.661 325.129C724.539 325.129 725.203 325.462 725.651 326.129C726.102 326.796 726.328 327.772 726.328 329.056ZM722.603 329.056C722.603 329.99 722.683 330.661 722.843 331.067C723.006 331.47 723.279 331.671 723.661 331.671C724.036 331.671 724.307 331.466 724.473 331.057C724.64 330.647 724.723 329.98 724.723 329.056C724.723 328.122 724.638 327.452 724.468 327.046C724.302 326.636 724.032 326.431 723.661 326.431C723.282 326.431 723.012 326.636 722.848 327.046C722.685 327.452 722.603 328.122 722.603 329.056Z" fill="#7B7B7B"/>
<path d="M717.723 327.998C718.459 327.998 719.044 328.205 719.478 328.618C719.916 329.031 720.134 329.597 720.134 330.316C720.134 331.167 719.872 331.822 719.348 332.28C718.824 332.738 718.073 332.967 717.098 332.967C716.25 332.967 715.566 332.83 715.045 332.556V331.165C715.32 331.311 715.639 331.431 716.004 331.525C716.368 331.615 716.714 331.66 717.04 331.66C718.023 331.66 718.514 331.257 718.514 330.452C718.514 329.684 718.006 329.3 716.988 329.3C716.804 329.3 716.601 329.32 716.379 329.358C716.157 329.393 715.976 329.431 715.837 329.472L715.196 329.129L715.483 325.248H719.614V326.613H716.895L716.754 328.108L716.936 328.071C717.148 328.023 717.41 327.998 717.723 327.998Z" fill="#7B7B7B"/>
<path d="M714.139 329.056C714.139 330.386 713.92 331.371 713.483 332.01C713.048 332.649 712.378 332.968 711.472 332.968C710.593 332.968 709.93 332.638 709.482 331.978C709.038 331.319 708.815 330.345 708.815 329.056C708.815 327.712 709.032 326.723 709.467 326.087C709.901 325.448 710.569 325.129 711.472 325.129C712.35 325.129 713.014 325.462 713.462 326.129C713.913 326.796 714.139 327.772 714.139 329.056ZM710.415 329.056C710.415 329.99 710.494 330.661 710.654 331.067C710.817 331.47 711.09 331.671 711.472 331.671C711.847 331.671 712.118 331.466 712.284 331.057C712.451 330.647 712.535 329.98 712.535 329.056C712.535 328.122 712.449 327.452 712.279 327.046C712.113 326.636 711.843 326.431 711.472 326.431C711.093 326.431 710.823 326.636 710.659 327.046C710.496 327.452 710.415 328.122 710.415 329.056Z" fill="#7B7B7B"/>
<path d="M708.086 332.863H702.763V331.743L704.675 329.811C705.241 329.231 705.611 328.83 705.784 328.608C705.958 328.382 706.083 328.174 706.159 327.983C706.236 327.792 706.274 327.594 706.274 327.389C706.274 327.083 706.189 326.856 706.019 326.707C705.852 326.557 705.628 326.483 705.347 326.483C705.051 326.483 704.765 326.55 704.487 326.686C704.209 326.821 703.919 327.014 703.617 327.264L702.742 326.227C703.117 325.908 703.428 325.682 703.675 325.55C703.921 325.418 704.19 325.318 704.482 325.248C704.774 325.175 705.1 325.139 705.461 325.139C705.937 325.139 706.357 325.225 706.722 325.399C707.086 325.573 707.369 325.816 707.571 326.128C707.772 326.441 707.873 326.799 707.873 327.201C707.873 327.552 707.81 327.882 707.685 328.191C707.564 328.497 707.373 328.811 707.112 329.134C706.855 329.457 706.401 329.917 705.748 330.514L704.768 331.436V331.509H708.086V332.863Z" fill="#7B7B7B"/>
</svg>
