<svg width="83" height="254" viewBox="0 0 83 254" fill="none" xmlns="http://www.w3.org/2000/svg">
<circle cx="41.1023" cy="41.1023" r="41.1023" fill="#96B441"/>
<path d="M64.6269 29.6243L57.3542 54.7305H53.3697L60.9132 30.514H52.8281V26.8777H64.6269V29.6243Z" fill="white"/>
<path d="M49.881 52.3707C49.881 53.918 48.7978 55.0012 47.2891 55.0012C45.7804 55.0012 44.6973 53.9567 44.6973 52.5254C44.6973 50.9007 45.8191 49.7788 47.2891 49.7788C48.7978 49.7788 49.881 50.978 49.881 52.3707Z" fill="white"/>
<path d="M42.6819 48.8505H40.2061V54.7305H36.6084V48.8505H29.916V45.6783L36.4924 26.8777H40.2061V45.4076H42.6819V48.8505ZM36.6084 45.4076V35.2335L33.0881 45.4076H36.6084Z" fill="white"/>
<path d="M26.3526 54.7305H22.6002V31.4038L19.0412 33.8796L17.2617 31.2103L23.4126 26.8777H26.3526V54.7305Z" fill="white"/>
<ellipse cx="42.4723" cy="249.48" rx="10.9606" ry="4.11023" fill="black" fill-opacity="0.19"/>
<ellipse cx="42.4723" cy="248.11" rx="10.9606" ry="4.11023" fill="#96B441"/>
<line x1="42.3701" y1="82" x2="42.3701" y2="245" stroke="#96B441" stroke-width="2.74015"/>
</svg>
