<svg width="217" height="202" viewBox="0 0 217 202" fill="none" xmlns="http://www.w3.org/2000/svg">
<path fill-rule="evenodd" clip-rule="evenodd" d="M75.3535 100.821C75.3535 86.7705 86.7437 75.3804 100.794 75.3804C114.845 75.3804 126.235 86.7705 126.235 100.821C126.235 114.872 114.845 126.262 100.794 126.262C86.7437 126.262 75.3535 114.872 75.3535 100.821ZM100.794 76.3804C87.296 76.3804 76.3535 87.3228 76.3535 100.821C76.3535 114.319 87.296 125.262 100.794 125.262C114.292 125.262 125.235 114.319 125.235 100.821C125.235 87.3228 114.292 76.3804 100.794 76.3804Z" fill="#CCCCCC"/>
<path fill-rule="evenodd" clip-rule="evenodd" d="M50.4141 100.821C50.4141 72.9964 72.9706 50.4399 100.795 50.4399C128.62 50.4399 151.177 72.9964 151.177 100.821C151.177 128.646 128.62 151.203 100.795 151.203C72.9706 151.203 50.4141 128.646 50.4141 100.821ZM100.795 51.4399C73.5229 51.4399 51.4141 73.5487 51.4141 100.821C51.4141 128.094 73.5229 150.203 100.795 150.203C128.068 150.203 150.177 128.094 150.177 100.821C150.177 73.5487 128.068 51.4399 100.795 51.4399Z" fill="#CCCCCC"/>
<path fill-rule="evenodd" clip-rule="evenodd" d="M25.4727 100.821C25.4727 59.2219 59.1955 25.499 100.795 25.499C142.394 25.499 176.117 59.2219 176.117 100.821C176.117 142.42 142.394 176.143 100.795 176.143C59.1955 176.143 25.4727 142.42 25.4727 100.821ZM100.795 26.499C59.7478 26.499 26.4727 59.7741 26.4727 100.821C26.4727 141.868 59.7478 175.143 100.795 175.143C141.842 175.143 175.117 141.868 175.117 100.821C175.117 59.7741 141.842 26.499 100.795 26.499Z" fill="#CCCCCC"/>
<path fill-rule="evenodd" clip-rule="evenodd" d="M0.533203 100.821C0.533203 45.4478 45.4224 0.558594 100.796 0.558594C156.17 0.558594 201.059 45.4478 201.059 100.821C201.059 156.195 156.17 201.084 100.796 201.084C45.4224 201.084 0.533203 156.195 0.533203 100.821ZM100.796 1.55859C45.9746 1.55859 1.5332 46 1.5332 100.821C1.5332 155.643 45.9746 200.084 100.796 200.084C155.617 200.084 200.059 155.643 200.059 100.821C200.059 46 155.617 1.55859 100.796 1.55859Z" fill="#CCCCCC"/>
<path fill-rule="evenodd" clip-rule="evenodd" d="M100.5 97.2021V1H101.5V97.2021L126.399 4.27801L127.365 4.53683L102.466 97.4609L150.567 14.1475L151.433 14.6475L103.332 97.9609L171.357 29.9358L172.064 30.6429L104.039 98.668L187.353 50.567L187.853 51.433L104.539 99.5341L197.463 74.6351L197.722 75.6011L104.798 100.5H201V101.5H104.798L197.722 126.399L197.463 127.365L104.539 102.466L187.853 150.567L187.353 151.433L104.039 103.332L172.064 171.357L171.357 172.064L103.332 104.039L151.433 187.353L150.567 187.853L102.466 104.539L127.365 197.463L126.399 197.722L101.5 104.798V201H100.5V104.798L75.6011 197.722L74.6351 197.463L99.5341 104.539L51.433 187.853L50.567 187.353L98.668 104.039L30.6429 172.064L29.9358 171.357L97.9609 103.332L14.6475 151.433L14.1475 150.567L97.4609 102.466L4.53683 127.365L4.27801 126.399L97.2021 101.5H1V100.5H97.2021L4.27801 75.6011L4.53683 74.6351L97.4609 99.5341L14.1475 51.433L14.6475 50.567L97.9609 98.668L29.9358 30.6429L30.6429 29.9358L98.668 97.9609L50.567 14.6475L51.433 14.1475L99.5341 97.4609L74.6351 4.53683L75.6011 4.27801L100.5 97.2021Z" fill="#CCCCCC"/>
<path d="M213.701 112.06C213.081 112.06 212.621 112.46 212.281 112.94L211.041 111.8C211.561 110.94 212.381 110.32 213.781 110.32C216.061 110.32 216.761 111.72 216.761 113.72V114.88C216.761 116.36 216.361 117.1 215.261 117.36C216.241 117.54 216.861 118.44 216.861 119.98V121.44C216.861 123.58 216.181 125.26 213.661 125.26C212.241 125.26 211.341 124.44 210.961 123.8L212.261 122.52C212.561 122.94 213.061 123.46 213.701 123.46C214.581 123.46 214.861 122.86 214.861 121.44V120.44C214.861 118.46 214.321 118.44 213.121 118.44H212.841V116.6H213.121C214.201 116.6 214.761 116.58 214.761 114.62V113.78C214.761 112.78 214.561 112.06 213.701 112.06Z" fill="black"/>
<path d="M207.173 112.22C207.033 112.18 206.593 112.12 206.233 112.12C205.313 112.12 205.273 112.82 205.273 113.86V115.02H206.993V116.8H205.273V125H203.373V116.8H202.273V115.36L203.373 115.1V113.6C203.373 111.28 204.073 110.32 205.993 110.32C206.553 110.32 207.113 110.5 207.173 110.52V112.22Z" fill="black"/>
<path d="M201.635 118.3V121.74C201.635 124.2 200.795 125.26 198.795 125.26C196.775 125.26 195.955 124.14 195.955 121.74V118.3C195.955 115.9 196.775 114.78 198.795 114.78C200.795 114.78 201.635 115.84 201.635 118.3ZM197.915 118.08V121.92C197.915 122.94 198.055 123.54 198.795 123.54C199.615 123.54 199.675 122.92 199.675 121.92V118.08C199.675 117.08 199.615 116.46 198.795 116.46C198.055 116.46 197.915 117.06 197.915 118.08Z" fill="black"/>
<path d="M215.476 108.02C215.096 108.14 214.536 108.26 213.976 108.26C212.656 108.26 212.016 107.8 212.016 105.98V99.8004H210.916V98.3604L212.036 98.1004L212.236 95.8404L213.916 95.4404V98.0204H215.436V99.8004H213.916V105.62C213.916 106.32 214.076 106.48 214.716 106.48C214.936 106.48 215.316 106.44 215.476 106.42V108.02Z" fill="black"/>
<path d="M204.836 98.2266H206.736V105.187C206.736 106.247 206.896 106.407 207.376 106.407C207.696 106.407 207.996 106.227 208.236 106.007V98.2266H210.136V108.207H208.796L208.596 107.307C208.196 107.807 207.616 108.447 206.716 108.447C204.956 108.447 204.836 107.187 204.836 105.907V98.2266Z" fill="black"/>
<path d="M203.618 101.3V104.74C203.618 107.2 202.778 108.26 200.778 108.26C198.757 108.26 197.938 107.14 197.938 104.74V101.3C197.938 98.9003 198.757 97.7803 200.778 97.7803C202.778 97.7803 203.618 98.8403 203.618 101.3ZM199.898 101.08V104.92C199.898 105.94 200.037 106.54 200.778 106.54C201.598 106.54 201.658 105.92 201.658 104.92V101.08C201.658 100.08 201.598 99.4603 200.778 99.4603C200.037 99.4603 199.898 100.06 199.898 101.08Z" fill="black"/>
<path d="M206.158 78.0603C205.498 78.0603 205.018 78.4603 204.678 78.9003L203.418 77.7403C203.938 76.9603 204.758 76.3203 206.418 76.3203C208.218 76.3203 209.518 77.2603 209.518 79.9603C209.518 83.0203 208.538 83.6203 206.958 85.2003C205.958 86.2003 205.678 86.9003 205.678 88.3403V89.1203H209.298V91.0003H203.738V88.7003C203.738 86.2403 204.278 85.2003 205.538 83.9403C206.418 83.0603 207.458 82.2403 207.458 80.2403C207.458 78.5803 206.998 78.0603 206.158 78.0603Z" fill="black"/>
<path d="M94.2431 77.4303L100.674 76.6264L113.537 53.4275L137.886 37L153.275 48.8337L122.151 88.916L172.56 82.1401L150.289 101.319L105 104L153.275 153.921L125.482 144.273L126.401 197.095L100.674 126.127L94.2431 125.323L88.27 122.797L83.2168 118.892L79.1972 113.723L76.7854 107.751L26.367 101.319L5 75.7076L79.1972 88.916L66.3345 66.9793L88.27 79.842L94.2431 77.4303Z" fill="#9E68E2" fill-opacity="0.18"/>
<path fill-rule="evenodd" clip-rule="evenodd" d="M137.466 36.3783C137.734 36.1977 138.087 36.2087 138.343 36.4055L153.732 48.2392C153.89 48.3608 153.993 48.5404 154.019 48.7383C154.044 48.9362 153.99 49.1361 153.867 49.2937L123.867 87.9285L172.46 81.3968C172.789 81.3526 173.108 81.5299 173.244 81.8327C173.38 82.1355 173.301 82.4918 173.049 82.7084L150.778 101.888C150.654 101.995 150.497 102.058 150.333 102.068L106.674 104.652L153.814 153.4C154.055 153.649 154.094 154.032 153.907 154.324C153.72 154.617 153.357 154.743 153.029 154.629L126.251 145.333L127.151 197.082C127.157 197.448 126.898 197.766 126.537 197.832C126.177 197.899 125.821 197.695 125.696 197.35L100.126 126.814L94.1501 126.067C94.0816 126.059 94.0145 126.041 93.9509 126.014L87.9778 123.487C87.9184 123.462 87.8625 123.43 87.8114 123.39L82.7582 119.485C82.7083 119.447 82.6635 119.402 82.6247 119.352L78.6051 114.183C78.5626 114.128 78.5278 114.068 78.5018 114.004L76.2546 108.439L26.2721 102.063C26.0843 102.039 25.9125 101.945 25.7911 101.8L4.4241 76.188C4.22223 75.9461 4.19315 75.6037 4.35133 75.3311C4.50951 75.0586 4.8212 74.914 5.13145 74.9692L77.7277 87.8926L65.6875 67.3587C65.5149 67.0642 65.5628 66.6903 65.8042 66.449C66.0455 66.2076 66.4194 66.1597 66.7139 66.3323L88.3312 79.0085L93.9623 76.7348C94.0225 76.7105 94.0857 76.6941 94.1501 76.6861L100.203 75.9294L112.881 53.0638C112.939 52.9604 113.02 52.872 113.118 52.8058L137.466 36.3783ZM114.106 53.9486L101.33 76.99C101.214 77.1995 101.005 77.3409 100.768 77.3706L94.4332 78.1623L88.5508 80.5375C88.3352 80.6246 88.0913 80.6067 87.8906 80.489L68.4364 69.0813L79.8442 88.5366C79.9922 88.789 79.9799 89.1045 79.8127 89.3446C79.6454 89.5847 79.3538 89.7057 79.0658 89.6544L6.89348 76.8065L26.7542 100.613L76.8803 107.007C77.1496 107.041 77.3792 107.218 77.4809 107.47L79.8535 113.345L83.7506 118.356L88.6517 122.144L94.4394 124.592L100.768 125.383C101.047 125.418 101.284 125.607 101.38 125.872L125.573 192.61L124.732 144.286C124.728 144.041 124.844 143.809 125.042 143.665C125.241 143.522 125.497 143.484 125.728 143.564L150.549 152.181L104.461 104.521C104.257 104.311 104.195 104.001 104.301 103.728C104.408 103.455 104.663 103.269 104.956 103.251L149.992 100.586L170.157 83.2199L122.251 89.6593C121.949 89.6999 121.652 89.5539 121.501 89.29C121.349 89.0261 121.372 88.6965 121.558 88.456L152.22 48.9689L137.857 37.9241L114.106 53.9486Z" fill="#9E68E2"/>
<path fill-rule="evenodd" clip-rule="evenodd" d="M186.266 99.4156L177.96 99.9254L177.899 98.9273L186.205 98.4175L186.266 99.4156Z" fill="black"/>
</svg>
