<svg width="218" height="201" viewBox="0 0 218 201" fill="none" xmlns="http://www.w3.org/2000/svg">
<path fill-rule="evenodd" clip-rule="evenodd" d="M75.6152 100.822C75.6152 86.915 86.8887 75.6416 100.795 75.6416C114.702 75.6416 125.975 86.915 125.975 100.822C125.975 114.728 114.702 126.001 100.795 126.001C86.8887 126.001 75.6152 114.728 75.6152 100.822ZM100.795 76.1201C87.1529 76.1201 76.0937 87.1793 76.0937 100.822C76.0937 114.464 87.1529 125.523 100.795 125.523C114.437 125.523 125.497 114.464 125.497 100.822C125.497 87.1793 114.437 76.1201 100.795 76.1201Z" fill="#CCCCCC"/>
<path fill-rule="evenodd" clip-rule="evenodd" d="M50.6738 100.821C50.6738 73.1399 73.1136 50.7002 100.794 50.7002C128.475 50.7002 150.915 73.1399 150.915 100.821C150.915 128.502 128.475 150.941 100.794 150.941C73.1136 150.941 50.6738 128.502 50.6738 100.821ZM100.794 51.1787C73.3778 51.1787 51.1523 73.4042 51.1523 100.821C51.1523 128.237 73.3778 150.463 100.794 150.463C128.211 150.463 150.437 128.237 150.437 100.821C150.437 73.4042 128.211 51.1787 100.794 51.1787Z" fill="#CCCCCC"/>
<path fill-rule="evenodd" clip-rule="evenodd" d="M25.7344 100.821C25.7344 59.3659 59.3405 25.7598 100.796 25.7598C142.251 25.7598 175.857 59.3659 175.857 100.821C175.857 142.276 142.251 175.882 100.796 175.882C59.3405 175.882 25.7344 142.276 25.7344 100.821ZM100.796 26.2382C59.6047 26.2382 26.2128 59.6301 26.2128 100.821C26.2128 142.012 59.6047 175.404 100.796 175.404C141.987 175.404 175.378 142.012 175.378 100.821C175.378 59.6301 141.987 26.2382 100.796 26.2382Z" fill="#CCCCCC"/>
<path fill-rule="evenodd" clip-rule="evenodd" d="M0.792969 100.821C0.792969 45.5918 45.5654 0.819336 100.795 0.819336C156.025 0.819336 200.797 45.5918 200.797 100.821C200.797 156.051 156.025 200.823 100.795 200.823C45.5654 200.823 0.792969 156.051 0.792969 100.821ZM100.795 1.2978C45.8296 1.2978 1.27144 45.856 1.27144 100.821C1.27144 155.787 45.8296 200.345 100.795 200.345C155.76 200.345 200.318 155.787 200.318 100.821C200.318 45.856 155.76 1.2978 100.795 1.2978Z" fill="#CCCCCC"/>
<path fill-rule="evenodd" clip-rule="evenodd" d="M100.761 99.1828V1H101.239V99.1828L126.651 4.3455L127.113 4.46934L101.701 99.3067L150.793 14.2778L151.207 14.5171L102.116 99.5459L171.542 30.1202L171.88 30.4585L102.454 99.8842L187.483 50.7928L187.722 51.2072L102.693 100.299L197.531 74.887L197.654 75.3492L102.817 100.761H201V101.239H102.817L197.654 126.651L197.531 127.113L102.693 101.701L187.722 150.793L187.483 151.207L102.454 102.116L171.88 171.542L171.542 171.88L102.116 102.454L151.207 187.483L150.793 187.722L101.701 102.693L127.113 197.531L126.651 197.654L101.239 102.817V201H100.761V102.817L75.3492 197.654L74.887 197.531L100.299 102.693L51.2072 187.722L50.7928 187.483L99.8842 102.454L30.4585 171.88L30.1202 171.542L99.5459 102.116L14.5171 151.207L14.2778 150.793L99.3067 101.701L4.46934 127.113L4.3455 126.651L99.1828 101.239H1V100.761H99.1828L4.3455 75.3492L4.46934 74.887L99.3067 100.299L14.2778 51.2072L14.5171 50.7928L99.5459 99.8842L30.1202 30.4585L30.4585 30.1202L99.8842 99.5459L50.7928 14.5171L51.2072 14.2778L100.299 99.3067L74.887 4.46934L75.3492 4.3455L100.761 99.1828Z" fill="#CCCCCC"/>
<path d="M91.9313 66.4632L101.119 65.1999L113.752 53.8302L139.364 34.7612L137.871 64.1663L133.507 82.3131L182.777 79.0963L193.791 100.918L168.651 119.065L101.119 100.918L155.098 155.013L123.858 140.311V185.668L101.119 139.967L90.668 140.196L83.3168 131.928L81.5941 120.443L79.9862 113.092L61.9555 111.484L37.7219 100.918L6.9375 75.7657L60.3476 77.3736L66.779 66.5781L82.398 68.5305L91.9313 66.4632Z" fill="#E46466" fill-opacity="0.32"/>
<path fill-rule="evenodd" clip-rule="evenodd" d="M139.589 34.3392C139.753 34.4265 139.851 34.6004 139.842 34.7854L138.349 64.1905C138.347 64.2201 138.343 64.2494 138.336 64.2782L134.124 81.7933L182.745 78.6188C182.937 78.6063 183.117 78.7093 183.204 78.8806L194.219 100.702C194.325 100.912 194.262 101.168 194.071 101.306L168.931 119.453C168.814 119.537 168.665 119.564 168.526 119.527L102.718 101.843L155.436 154.675C155.6 154.839 155.623 155.098 155.489 155.288C155.355 155.478 155.104 155.545 154.894 155.446L124.337 141.065V185.668C124.337 185.89 124.184 186.083 123.968 186.134C123.752 186.185 123.529 186.08 123.43 185.882L100.826 140.452L90.6785 140.675C90.5382 140.678 90.4036 140.619 90.3104 140.514L82.9592 132.245C82.8975 132.176 82.8573 132.09 82.8436 131.998L81.1233 120.53L79.5938 113.537L61.913 111.96C61.8617 111.956 61.8114 111.943 61.7642 111.922L37.5306 101.357C37.4905 101.339 37.453 101.316 37.4191 101.289L6.63475 76.1362C6.47604 76.0065 6.41755 75.7902 6.48927 75.5982C6.561 75.4062 6.74703 75.2813 6.95188 75.2874L60.0806 76.8868L66.3679 66.3332C66.4652 66.1699 66.6498 66.0797 66.8383 66.1033L82.3763 68.0455L91.8299 65.9956C91.8419 65.993 91.854 65.9909 91.8661 65.9892L100.908 64.7459L113.432 53.4745C113.443 53.4646 113.454 53.4552 113.466 53.4464L139.078 34.3774C139.227 34.2667 139.426 34.2519 139.589 34.3392ZM114.056 54.2007L101.439 65.5555C101.368 65.6196 101.279 65.6608 101.184 65.6739L92.0147 66.9347L82.4994 68.998C82.4466 69.0095 82.3922 69.0119 82.3386 69.0052L67.03 67.0916L60.7587 77.6184C60.6697 77.7677 60.5069 77.857 60.3332 77.8518L8.33091 76.2863L37.9735 100.506L62.0754 111.014L80.0287 112.615C80.2369 112.634 80.409 112.785 80.4536 112.989L82.0615 120.341C82.0628 120.347 82.0639 120.352 82.065 120.358C82.0658 120.363 82.0666 120.367 82.0672 120.372L83.7688 131.716L90.8786 139.713L101.108 139.488C101.294 139.484 101.465 139.588 101.547 139.754L123.38 183.633V140.311C123.38 140.147 123.464 139.995 123.602 139.907C123.74 139.819 123.914 139.809 124.062 139.878L152.828 153.416L100.78 101.256C100.627 101.103 100.596 100.866 100.705 100.678C100.813 100.491 101.034 100.4 101.243 100.456L168.555 118.544L193.18 100.769L182.492 79.5943L133.538 82.7905C133.386 82.8004 133.239 82.7376 133.141 82.6213C133.043 82.505 133.006 82.349 133.041 82.2012L137.395 64.0976L138.834 35.7519L114.056 54.2007Z" fill="#E46466"/>
<path fill-rule="evenodd" clip-rule="evenodd" d="M140.887 32.1786C141.051 32.2852 141.133 32.4806 141.095 32.6722L140.917 33.5739C140.866 33.8331 140.614 34.0018 140.355 33.9506C140.167 33.9135 140.027 33.7711 139.983 33.5968C139.783 33.6744 139.548 33.6088 139.419 33.4249C139.268 33.2084 139.32 32.9101 139.537 32.7585L140.351 32.1877C140.511 32.0756 140.723 32.072 140.887 32.1786ZM138.574 34.0174C138.725 34.2338 138.673 34.5321 138.456 34.6838L136.827 35.8253C136.61 35.977 136.312 35.9244 136.16 35.708C136.009 35.4916 136.061 35.1932 136.278 35.0416L137.907 33.9C138.124 33.7484 138.422 33.8009 138.574 34.0174ZM140.184 34.8151C140.444 34.8663 140.612 35.1179 140.561 35.3772L140.205 37.1805C140.154 37.4397 139.902 37.6084 139.643 37.5572C139.384 37.506 139.215 37.2544 139.266 36.9951L139.622 35.1918C139.674 34.9326 139.925 34.7639 140.184 34.8151ZM135.315 36.3005C135.466 36.5169 135.414 36.8153 135.197 36.9669L133.568 38.1085C133.351 38.2601 133.053 38.2076 132.901 37.9911C132.75 37.7747 132.802 37.4763 133.019 37.3247L134.648 36.1832C134.865 36.0315 135.163 36.0841 135.315 36.3005ZM132.056 38.5836C132.207 38.8 132.155 39.0984 131.938 39.25L130.309 40.3916C130.093 40.5432 129.794 40.4907 129.643 40.2743C129.491 40.0578 129.543 39.7595 129.76 39.6079L131.389 38.4663C131.606 38.3147 131.904 38.3672 132.056 38.5836ZM139.472 38.4217C139.732 38.4729 139.9 38.7245 139.849 38.9838L139.493 40.7871C139.442 41.0463 139.19 41.215 138.931 41.1638C138.672 41.1126 138.503 40.861 138.554 40.6017L138.91 38.7984C138.962 38.5392 139.213 38.3705 139.472 38.4217ZM128.797 40.8668C128.948 41.0832 128.896 41.3815 128.679 41.5332L127.05 42.6747C126.834 42.8264 126.535 42.7738 126.384 42.5574C126.232 42.341 126.285 42.0426 126.501 41.891L128.13 40.7494C128.347 40.5978 128.645 40.6503 128.797 40.8668ZM138.76 42.0283C139.02 42.0795 139.188 42.3312 139.137 42.5904L138.781 44.3937C138.73 44.653 138.478 44.8216 138.219 44.7704C137.96 44.7193 137.791 44.4676 137.842 44.2084L138.198 42.4051C138.249 42.1458 138.501 41.9771 138.76 42.0283ZM125.538 43.1499C125.69 43.3663 125.637 43.6647 125.421 43.8163L123.791 44.9579C123.575 45.1095 123.276 45.057 123.125 44.8405C122.973 44.6241 123.026 44.3257 123.242 44.1741L124.872 43.0326C125.088 42.8809 125.386 42.9335 125.538 43.1499ZM122.279 45.433C122.431 45.6494 122.378 45.9478 122.162 46.0994L120.532 47.241C120.316 47.3926 120.017 47.3401 119.866 47.1237C119.714 46.9072 119.767 46.6089 119.983 46.4573L121.613 45.3157C121.829 45.1641 122.127 45.2166 122.279 45.433ZM138.048 45.6349C138.308 45.6861 138.476 45.9378 138.425 46.197L138.069 48.0003C138.018 48.2596 137.766 48.4282 137.507 48.3771C137.248 48.3259 137.079 48.0742 137.13 47.815L137.486 46.0117C137.537 45.7524 137.789 45.5838 138.048 45.6349ZM119.02 47.7162C119.172 47.9326 119.119 48.2309 118.903 48.3826L117.273 49.5241C117.057 49.6757 116.759 49.6232 116.607 49.4068C116.455 49.1904 116.508 48.892 116.724 48.7404L118.354 47.5988C118.57 47.4472 118.869 47.4997 119.02 47.7162ZM137.336 49.2416C137.596 49.2927 137.764 49.5444 137.713 49.8036L137.357 51.6069C137.306 51.8662 137.054 52.0349 136.795 51.9837C136.536 51.9325 136.367 51.6808 136.418 51.4216L136.774 49.6183C136.825 49.359 137.077 49.1904 137.336 49.2416ZM115.761 49.9993C115.913 50.2157 115.86 50.5141 115.644 50.6657L114.885 51.1972L114.368 51.8425C114.203 52.0487 113.902 52.0819 113.696 51.9166C113.489 51.7514 113.456 51.4502 113.621 51.244L114.181 50.5454C114.21 50.51 114.243 50.4788 114.28 50.4527L115.095 49.882C115.311 49.7303 115.61 49.7829 115.761 49.9993ZM113.174 52.5672C113.38 52.7324 113.414 53.0335 113.248 53.2397L112.129 54.637C111.963 54.8432 111.662 54.8764 111.456 54.7112C111.25 54.546 111.217 54.2448 111.382 54.0386L112.502 52.6413C112.667 52.4351 112.968 52.4019 113.174 52.5672ZM136.624 52.8482C136.883 52.8993 137.052 53.151 137.001 53.4102L136.645 55.2136C136.594 55.4728 136.342 55.6415 136.083 55.5903C135.824 55.5391 135.655 55.2875 135.706 55.0282L136.062 53.2249C136.113 52.9657 136.365 52.797 136.624 52.8482ZM110.935 55.3617C111.141 55.527 111.174 55.8281 111.009 56.0343L109.889 57.4316C109.724 57.6378 109.423 57.671 109.217 57.5058C109.01 57.3405 108.977 57.0394 109.142 56.8332L110.262 55.4359C110.427 55.2297 110.729 55.1965 110.935 55.3617ZM135.912 56.4548C136.171 56.506 136.34 56.7576 136.289 57.0169L135.933 58.8202C135.882 59.0794 135.63 59.2481 135.371 59.1969C135.112 59.1457 134.943 58.8941 134.994 58.6348L135.35 56.8315C135.401 56.5723 135.653 56.4036 135.912 56.4548ZM89.4225 57.1515C89.5673 57.1223 89.7175 57.1616 89.8294 57.258L90.5545 57.8824C90.7547 58.0549 90.7772 58.357 90.6047 58.5572C90.4323 58.7575 90.1302 58.78 89.93 58.6075L89.3823 58.1359L88.6165 58.2905C88.3575 58.3428 88.1051 58.1752 88.0528 57.9162C88.0005 57.6572 88.1681 57.4048 88.4271 57.3525L89.4225 57.1515ZM87.0002 58.1287C87.0525 58.3878 86.8849 58.6401 86.6259 58.6924L84.6352 59.0944C84.3762 59.1467 84.1238 58.9791 84.0715 58.7201C84.0192 58.4611 84.1868 58.2087 84.4458 58.1564L86.4365 57.7544C86.6955 57.7021 86.9479 57.8697 87.0002 58.1287ZM108.695 58.1563C108.901 58.3216 108.935 58.6227 108.769 58.8289L107.65 60.2262C107.484 60.4324 107.183 60.4656 106.977 60.3004C106.771 60.1351 106.738 59.834 106.903 59.6278L108.023 58.2305C108.188 58.0243 108.489 57.9911 108.695 58.1563ZM83.0189 58.9327C83.0712 59.1917 82.9036 59.4441 82.6446 59.4964L80.6539 59.8983C80.3949 59.9506 80.1425 59.783 80.0902 59.524C80.0379 59.265 80.2055 59.0126 80.4645 58.9603L82.4552 58.5584C82.7142 58.5061 82.9666 58.6736 83.0189 58.9327ZM91.3297 59.1817C91.5022 58.9814 91.8043 58.9589 92.0045 59.1314L93.4546 60.3803C93.6548 60.5528 93.6773 60.8549 93.5049 61.0551C93.3324 61.2553 93.0303 61.2779 92.8301 61.1054L91.38 59.8565C91.1798 59.684 91.1573 59.3819 91.3297 59.1817ZM79.0376 59.7366C79.0899 59.9956 78.9223 60.248 78.6633 60.3003L77.6679 60.5013C77.6618 60.5025 77.6557 60.5036 77.6495 60.5046L76.7164 60.6553C76.4555 60.6975 76.2099 60.5202 76.1677 60.2593C76.1256 59.9984 76.3029 59.7528 76.5638 59.7107L77.4877 59.5614L78.4738 59.3623C78.7329 59.31 78.9853 59.4776 79.0376 59.7366ZM75.2462 60.4082C75.2883 60.669 75.111 60.9147 74.8502 60.9568L72.9839 61.2583C72.723 61.3004 72.4774 61.1231 72.4353 60.8622C72.3931 60.6014 72.5704 60.3557 72.8313 60.3136L74.6976 60.0121C74.9584 59.97 75.2041 60.1473 75.2462 60.4082ZM135.2 60.0614C135.459 60.1126 135.628 60.3642 135.577 60.6235L135.221 62.4268C135.17 62.686 134.918 62.8547 134.659 62.8035C134.4 62.7523 134.231 62.5007 134.282 62.2414L134.638 60.4381C134.689 60.1789 134.941 60.0102 135.2 60.0614ZM71.5137 61.0111C71.5559 61.272 71.3785 61.5176 71.1177 61.5598L69.2514 61.8612C68.9906 61.9034 68.7449 61.726 68.7028 61.4652C68.6606 61.2043 68.838 60.9587 69.0988 60.9165L70.9651 60.6151C71.2259 60.5729 71.4716 60.7502 71.5137 61.0111ZM106.456 60.9509C106.662 61.1162 106.695 61.4173 106.53 61.6235L105.41 63.0208C105.245 63.227 104.944 63.2602 104.738 63.0949C104.531 62.9297 104.498 62.6286 104.663 62.4224L105.783 61.0251C105.948 60.8189 106.25 60.7857 106.456 60.9509ZM67.7812 61.614C67.8234 61.8749 67.6461 62.1206 67.3852 62.1627L65.5189 62.4642C65.2581 62.5063 65.0124 62.329 64.9703 62.0681C64.9282 61.8072 65.1055 61.5616 65.3663 61.5195L67.2326 61.218C67.4935 61.1759 67.7391 61.3532 67.7812 61.614ZM94.2299 61.6796C94.4023 61.4793 94.7044 61.4568 94.9047 61.6293L96.3547 62.8782C96.555 63.0507 96.5775 63.3528 96.405 63.553C96.2326 63.7532 95.9305 63.7757 95.7302 63.6033L94.2802 62.3544C94.0799 62.1819 94.0574 61.8798 94.2299 61.6796ZM64.0487 62.217C64.0909 62.4779 63.9136 62.7235 63.6527 62.7656L62.8433 62.8964L62.2019 63.4069C61.9951 63.5715 61.6941 63.5373 61.5295 63.3306C61.365 63.1239 61.3992 62.8228 61.6059 62.6583L62.3453 62.0697C62.4095 62.0185 62.4859 61.9848 62.567 61.9717L63.5001 61.8209C63.761 61.7788 64.0066 61.9561 64.0487 62.217ZM104.216 63.7455C104.423 63.9107 104.456 64.2119 104.29 64.4181L103.171 65.8154C103.005 66.0216 102.704 66.0548 102.498 65.8895C102.292 65.7243 102.259 65.4231 102.424 65.2169L103.544 63.8196C103.709 63.6134 104.01 63.5802 104.216 63.7455ZM134.488 63.668C134.747 63.7192 134.916 63.9708 134.865 64.2301L134.509 66.0334C134.458 66.2926 134.206 66.4613 133.947 66.4101C133.687 66.359 133.519 66.1073 133.57 65.8481L133.926 64.0447C133.977 63.7855 134.229 63.6168 134.488 63.668ZM60.7995 63.9118C60.964 64.1185 60.9298 64.4195 60.7231 64.5841L59.2443 65.7613C59.0376 65.9259 58.7366 65.8917 58.572 65.6849C58.4074 65.4782 58.4416 65.1772 58.6483 65.0126L60.1271 63.8354C60.3339 63.6709 60.6349 63.705 60.7995 63.9118ZM97.13 64.1775C97.3025 63.9772 97.6046 63.9547 97.8048 64.1272L99.2549 65.3761C99.4551 65.5486 99.4776 65.8507 99.3052 66.0509C99.1327 66.2511 98.8306 66.2736 98.6304 66.1012L97.1803 64.8522C96.9801 64.6798 96.9576 64.3777 97.13 64.1775ZM57.8419 66.2661C58.0065 66.4729 57.9723 66.7739 57.7655 66.9385L56.2868 68.1156C56.08 68.2802 55.779 68.246 55.6144 68.0393C55.4498 67.8325 55.484 67.5315 55.6908 67.3669L57.1696 66.1898C57.3763 66.0252 57.6773 66.0594 57.8419 66.2661ZM101.977 66.5401C102.183 66.7053 102.216 67.0064 102.051 67.2126L101.491 67.9113C101.41 68.0126 101.291 68.0766 101.162 68.0885C101.032 68.1005 100.904 68.0593 100.805 67.9746L100.08 67.3501C99.8802 67.1777 99.8577 66.8756 100.03 66.6754C100.203 66.4751 100.505 66.4526 100.705 66.6251L101.054 66.926L101.304 66.6142C101.469 66.408 101.771 66.3748 101.977 66.5401ZM133.776 67.2746C134.035 67.3258 134.204 67.5775 134.153 67.8367L134.02 68.5079L134.526 69.087C134.7 69.286 134.68 69.5883 134.48 69.7621C134.281 69.936 133.979 69.9155 133.805 69.7165L133.145 68.9604C133.048 68.8488 133.007 68.6984 133.036 68.553L133.214 67.6514C133.265 67.3921 133.517 67.2234 133.776 67.2746ZM54.8843 68.6205C55.0489 68.8272 55.0147 69.1282 54.808 69.2928L53.3292 70.47C53.1225 70.6345 52.8214 70.6003 52.6569 70.3936C52.4923 70.1869 52.5265 69.8858 52.7332 69.7213L54.212 68.5441C54.4187 68.3795 54.7197 68.4137 54.8843 68.6205ZM135.172 70.5535C135.371 70.3797 135.673 70.4001 135.847 70.5991L137.168 72.1113C137.341 72.3103 137.321 72.6126 137.122 72.7864C136.923 72.9602 136.621 72.9398 136.447 72.7408L135.126 71.2286C134.952 71.0296 134.973 70.7274 135.172 70.5535ZM51.9268 70.9748C52.0913 71.1815 52.0572 71.4825 51.8504 71.6471L51.111 72.2357C51.0416 72.291 50.9581 72.3259 50.87 72.3364L49.9564 72.4461C49.694 72.4775 49.4558 72.2904 49.4243 72.028C49.3928 71.7656 49.58 71.5274 49.8424 71.4959L50.6212 71.4025L51.2544 70.8984C51.4612 70.7339 51.7622 70.768 51.9268 70.9748ZM48.5471 72.1332C48.5785 72.3956 48.3914 72.6338 48.129 72.6653L46.3017 72.8846C46.0393 72.916 45.8011 72.7289 45.7696 72.4665C45.7381 72.2041 45.9253 71.9659 46.1877 71.9344L48.015 71.7152C48.2774 71.6837 48.5156 71.8709 48.5471 72.1332ZM44.8924 72.5717C44.9238 72.8341 44.7367 73.0723 44.4743 73.1038L42.6469 73.3231C42.3846 73.3545 42.1464 73.1674 42.1149 72.905C42.0834 72.6426 42.2706 72.4044 42.5329 72.3729L44.3603 72.1537C44.6227 72.1222 44.8609 72.3094 44.8924 72.5717ZM41.2377 73.0102C41.2691 73.2726 41.082 73.5108 40.8196 73.5423L38.9922 73.7616C38.7299 73.793 38.4917 73.6059 38.4602 73.3435C38.4287 73.0811 38.6159 72.8429 38.8782 72.8114L40.7056 72.5922C40.968 72.5607 41.2062 72.7479 41.2377 73.0102ZM37.583 73.4487C37.6144 73.7111 37.4273 73.9493 37.1649 73.9808L35.3375 74.2001C35.0752 74.2315 34.837 74.0444 34.8055 73.782C34.774 73.5196 34.9612 73.2814 35.2235 73.2499L37.0509 73.0307C37.3133 72.9992 37.5515 73.1864 37.583 73.4487ZM137.813 73.5778C138.012 73.404 138.314 73.4244 138.488 73.6234L139.809 75.1355C139.983 75.3346 139.962 75.6368 139.763 75.8107C139.564 75.9845 139.262 75.9641 139.088 75.765L137.768 74.2529C137.594 74.0539 137.614 73.7516 137.813 73.5778ZM33.9282 73.8872C33.9597 74.1496 33.7726 74.3878 33.5102 74.4193L31.6828 74.6386C31.4205 74.67 31.1823 74.4829 31.1508 74.2205C31.1193 73.9581 31.3065 73.7199 31.5688 73.6884L33.3962 73.4692C33.6586 73.4377 33.8968 73.6249 33.9282 73.8872ZM30.2735 74.3258C30.305 74.5881 30.1179 74.8263 29.8555 74.8578L28.0281 75.0771C27.7658 75.1085 27.5276 74.9214 27.4961 74.659C27.4646 74.3966 27.6518 74.1584 27.9141 74.1269L29.7415 73.9077C30.0039 73.8762 30.2421 74.0634 30.2735 74.3258ZM26.6188 74.7643C26.6503 75.0266 26.4632 75.2648 26.2008 75.2963L24.3734 75.5156C24.1111 75.547 23.8728 75.3599 23.8414 75.0975C23.8099 74.8351 23.9971 74.5969 24.2594 74.5654L26.0868 74.3462C26.3492 74.3147 26.5874 74.5019 26.6188 74.7643ZM22.9641 75.2028C22.9956 75.4651 22.8084 75.7033 22.5461 75.7348L20.7187 75.9541C20.4564 75.9855 20.2181 75.7984 20.1867 75.536C20.1552 75.2736 20.3424 75.0354 20.6047 75.0039L22.4321 74.7847C22.6944 74.7532 22.9327 74.9404 22.9641 75.2028ZM19.3094 75.6413C19.3409 75.9036 19.1537 76.1418 18.8914 76.1733L17.064 76.3926C16.8017 76.424 16.5634 76.2369 16.532 75.9745C16.5005 75.7121 16.6877 75.4739 16.95 75.4424L18.7774 75.2232C19.0397 75.1917 19.278 75.3789 19.3094 75.6413ZM15.6547 76.0798C15.6862 76.3421 15.499 76.5803 15.2367 76.6118L13.4093 76.8311C13.1469 76.8626 12.9087 76.6754 12.8773 76.413C12.8458 76.1506 13.0329 75.9124 13.2953 75.8809L15.1227 75.6617C15.385 75.6302 15.6233 75.8174 15.6547 76.0798ZM11.6175 77.0447C11.861 76.997 12.0301 76.7686 12 76.5183C11.9685 76.2559 11.7303 76.0687 11.468 76.1002L10.5543 76.2098C10.3743 76.2314 10.2219 76.3529 10.1608 76.5236C10.0997 76.6943 10.1403 76.8848 10.2657 77.0158L10.9103 77.689C11.093 77.8798 11.3959 77.8864 11.5868 77.7036C11.7719 77.5264 11.7836 77.2362 11.6175 77.0447ZM140.455 76.6021C140.654 76.4282 140.956 76.4487 141.13 76.6477L141.648 77.2411L142.384 77.2448C142.649 77.2461 142.862 77.4614 142.86 77.7257C142.859 77.9899 142.644 78.2031 142.38 78.2017L141.427 78.197C141.29 78.1963 141.16 78.1366 141.069 78.0332L140.409 77.2772C140.235 77.0782 140.256 76.7759 140.455 76.6021ZM143.808 77.7304C143.809 77.4662 144.025 77.2531 144.289 77.2544L146.194 77.264C146.458 77.2653 146.671 77.4806 146.67 77.7448C146.668 78.0091 146.453 78.2222 146.189 78.2209L144.284 78.2113C144.02 78.21 143.807 77.9947 143.808 77.7304ZM147.617 77.7496C147.619 77.4853 147.834 77.2722 148.098 77.2735L150.003 77.2831C150.267 77.2844 150.48 77.4997 150.479 77.764C150.477 78.0282 150.262 78.2414 149.998 78.24L148.093 78.2305C147.829 78.2291 147.616 78.0138 147.617 77.7496ZM151.426 77.7687C151.428 77.5045 151.643 77.2913 151.907 77.2927L153.812 77.3022C154.076 77.3036 154.289 77.5189 154.288 77.7831C154.287 78.0474 154.071 78.2605 153.807 78.2592L151.902 78.2496C151.638 78.2483 151.425 78.033 151.426 77.7687ZM155.236 77.7879C155.237 77.5236 155.452 77.3105 155.716 77.3118L157.621 77.3214C157.885 77.3227 158.098 77.538 158.097 77.8022C158.096 78.0665 157.88 78.2796 157.616 78.2783L155.712 78.2687C155.447 78.2674 155.234 78.0521 155.236 77.7879ZM159.045 77.807C159.046 77.5428 159.261 77.3296 159.526 77.331L161.43 77.3405C161.694 77.3419 161.908 77.5571 161.906 77.8214C161.905 78.0856 161.69 78.2988 161.425 78.2975L159.521 78.2879C159.257 78.2866 159.043 78.0713 159.045 77.807ZM162.854 77.8262C162.855 77.5619 163.07 77.3488 163.335 77.3501L165.239 77.3597C165.504 77.361 165.717 77.5763 165.715 77.8405C165.714 78.1048 165.499 78.3179 165.234 78.3166L163.33 78.307C163.066 78.3057 162.853 78.0904 162.854 77.8262ZM166.663 77.8453C166.664 77.581 166.88 77.3679 167.144 77.3692L169.048 77.3788C169.313 77.3801 169.526 77.5954 169.524 77.8597C169.523 78.1239 169.308 78.3371 169.044 78.3357L167.139 78.3262C166.875 78.3248 166.662 78.1095 166.663 77.8453ZM170.472 77.8644C170.473 77.6002 170.689 77.387 170.953 77.3884L172.858 77.3979C173.122 77.3993 173.335 77.6146 173.334 77.8788C173.332 78.1431 173.117 78.3562 172.853 78.3549L170.948 78.3453C170.684 78.344 170.471 78.1287 170.472 77.8644ZM174.281 77.8836C174.283 77.6193 174.498 77.4062 174.762 77.4075L176.667 77.4171C176.931 77.4184 177.144 77.6337 177.143 77.898C177.141 78.1622 176.926 78.3753 176.662 78.374L174.757 78.3644C174.493 78.3631 174.28 78.1478 174.281 77.8836ZM178.09 77.9027C178.092 77.6385 178.307 77.4253 178.571 77.4267L180.476 77.4362C180.74 77.4376 180.953 77.6528 180.952 77.9171C180.951 78.1813 180.735 78.3945 180.471 78.3932L178.566 78.3836C178.302 78.3823 178.089 78.167 178.09 77.9027ZM181.9 77.9219C181.901 77.6576 182.116 77.4445 182.38 77.4458L184.285 77.4554C184.549 77.4567 184.762 77.672 184.761 77.9362C184.76 78.2005 184.544 78.4136 184.28 78.4123L182.376 78.4027C182.111 78.4014 181.898 78.1861 181.9 77.9219ZM185.709 77.941C185.71 77.6768 185.925 77.4636 186.19 77.4649L187.142 77.4697C187.374 77.4709 187.572 77.639 187.611 77.8682L187.773 78.8253C187.818 79.0858 187.642 79.3328 187.382 79.377C187.121 79.4212 186.874 79.2458 186.83 78.9853L186.735 78.4246L186.185 78.4219C185.921 78.4205 185.707 78.2052 185.709 77.941ZM12.2141 78.3588C12.405 78.176 12.7078 78.1826 12.8906 78.3734L14.1797 79.7197C14.3625 79.9106 14.3559 80.2135 14.1651 80.3962C13.9742 80.579 13.6713 80.5724 13.4886 80.3816L12.1994 79.0353C12.0167 78.8444 12.0232 78.5415 12.2141 78.3588ZM187.546 80.3477C187.807 80.3036 188.054 80.479 188.098 80.7395L188.423 82.6537C188.467 82.9142 188.291 83.1612 188.031 83.2054C187.77 83.2496 187.523 83.0742 187.479 82.8136L187.155 80.8995C187.11 80.6389 187.286 80.3919 187.546 80.3477ZM14.7924 81.0514C14.9832 80.8686 15.2861 80.8752 15.4689 81.0661L16.758 82.4124C16.9408 82.6032 16.9342 82.9061 16.7433 83.0889C16.5525 83.2716 16.2496 83.2651 16.0669 83.0742L14.7777 81.7279C14.5949 81.537 14.6015 81.2341 14.7924 81.0514ZM17.3707 83.744C17.5615 83.5612 17.8644 83.5678 18.0472 83.7587L19.3363 85.105C19.5191 85.2959 19.5125 85.5987 19.3216 85.7815C19.1308 85.9642 18.8279 85.9577 18.6451 85.7668L17.356 84.4205C17.1732 84.2296 17.1798 83.9268 17.3707 83.744ZM188.195 84.1761C188.456 84.1319 188.703 84.3073 188.747 84.5679L189.072 86.4821C189.116 86.7426 188.94 86.9896 188.68 87.0338C188.419 87.078 188.172 86.9026 188.128 86.642L187.804 84.7278C187.759 84.4673 187.935 84.2203 188.195 84.1761ZM19.949 86.4366C20.1398 86.2539 20.4427 86.2604 20.6255 86.4513L21.9146 87.7976C22.0974 87.9885 22.0908 88.2914 21.8999 88.4741C21.7091 88.6569 21.4062 88.6503 21.2234 88.4594L19.9343 87.1131C19.7515 86.9223 19.7581 86.6194 19.949 86.4366ZM188.844 88.0045C189.105 87.9603 189.352 88.1357 189.396 88.3963L189.721 90.3104C189.765 90.571 189.589 90.818 189.329 90.8622C189.068 90.9063 188.821 90.7309 188.777 90.4704L188.453 88.5562C188.408 88.2957 188.584 88.0487 188.844 88.0045ZM22.5272 89.1292C22.7181 88.9465 23.021 88.9531 23.2037 89.1439L24.4929 90.4902C24.6756 90.6811 24.6691 90.984 24.4782 91.1667C24.2873 91.3495 23.9845 91.3429 23.8017 91.1521L22.5126 89.8057C22.3298 89.6149 22.3364 89.312 22.5272 89.1292ZM25.1055 91.8219C25.2964 91.6391 25.5993 91.6457 25.782 91.8365L27.0712 93.1829C27.2539 93.3737 27.2474 93.6766 27.0565 93.8594C26.8656 94.0421 26.5628 94.0355 26.38 93.8447L25.0909 92.4984C24.9081 92.3075 24.9147 92.0046 25.1055 91.8219ZM189.493 91.8329C189.754 91.7887 190.001 91.9641 190.045 92.2246L190.37 94.1388C190.414 94.3994 190.238 94.6464 189.978 94.6905C189.717 94.7347 189.47 94.5593 189.426 94.2988L189.102 92.3846C189.058 92.1241 189.233 91.8771 189.493 91.8329ZM27.6838 94.5145C27.8747 94.3317 28.1776 94.3383 28.3603 94.5292L29.6495 95.8755C29.8322 96.0663 29.8256 96.3692 29.6348 96.552C29.4439 96.7347 29.141 96.7282 28.9583 96.5373L27.6691 95.191C27.4864 95.0001 27.493 94.6972 27.6838 94.5145ZM190.143 95.6613C190.403 95.6171 190.65 95.7925 190.694 96.053L191.019 97.9672C191.063 98.2277 190.888 98.4748 190.627 98.5189C190.367 98.5631 190.119 98.3877 190.075 98.1272L189.751 96.213C189.707 95.9524 189.882 95.7054 190.143 95.6613ZM30.2621 97.2071C30.453 97.0244 30.7558 97.0309 30.9386 97.2218L32.2277 98.5681C32.4105 98.759 32.4039 99.0618 32.2131 99.2446C32.0222 99.4274 31.7193 99.4208 31.5366 99.2299L30.2474 97.8836C30.0647 97.6927 30.0712 97.3899 30.2621 97.2071ZM190.792 99.4896C191.052 99.4455 191.299 99.6209 191.343 99.8814L191.506 100.838C191.542 101.054 191.428 101.267 191.229 101.355L190.385 101.732C190.143 101.839 189.861 101.731 189.753 101.489C189.645 101.248 189.754 100.965 189.995 100.858L190.5 100.633L190.4 100.041C190.356 99.7808 190.531 99.5338 190.792 99.4896ZM32.8404 99.8997C33.0312 99.717 33.3341 99.7235 33.5169 99.9144L34.1288 100.553L34.8701 101.072C35.0866 101.223 35.1394 101.522 34.988 101.738C34.8365 101.955 34.5382 102.008 34.3216 101.856L33.5416 101.311C33.5159 101.293 33.492 101.272 33.4703 101.249L32.8257 100.576C32.643 100.385 32.6495 100.082 32.8404 99.8997ZM100.703 100.679C100.812 100.492 101.032 100.4 101.242 100.456L102.178 100.707C102.433 100.775 102.584 101.038 102.516 101.293C102.479 101.431 102.385 101.539 102.267 101.598C102.265 101.718 102.218 101.837 102.126 101.929C101.939 102.116 101.636 102.115 101.449 101.928L100.779 101.256C100.626 101.103 100.595 100.866 100.703 100.679ZM103.464 101.547C103.532 101.292 103.794 101.14 104.05 101.209L105.922 101.71C106.177 101.779 106.328 102.041 106.26 102.296C106.192 102.551 105.929 102.703 105.674 102.634L103.802 102.133C103.547 102.065 103.395 101.802 103.464 101.547ZM188.939 101.852C189.047 102.093 188.938 102.376 188.697 102.484L187.009 103.236C186.768 103.344 186.485 103.235 186.377 102.994C186.27 102.753 186.378 102.47 186.62 102.362L188.307 101.61C188.549 101.502 188.832 101.611 188.939 101.852ZM35.7638 102.281C35.9152 102.064 36.2135 102.011 36.4301 102.163L37.9901 103.254C38.2066 103.405 38.2594 103.704 38.1079 103.92C37.9565 104.137 37.6582 104.19 37.4416 104.038L35.8816 102.947C35.6651 102.796 35.6123 102.497 35.7638 102.281ZM107.208 102.55C107.276 102.295 107.538 102.143 107.794 102.212L109.666 102.713C109.921 102.782 110.072 103.044 110.004 103.299C109.936 103.554 109.673 103.706 109.418 103.638L107.546 103.136C107.291 103.068 107.139 102.805 107.208 102.55ZM102.791 102.595C102.978 102.409 103.281 102.409 103.468 102.596L104.809 103.94C104.995 104.127 104.995 104.43 104.808 104.617C104.621 104.803 104.318 104.803 104.131 104.616L102.79 103.272C102.604 103.085 102.604 102.782 102.791 102.595ZM185.564 103.357C185.671 103.598 185.563 103.881 185.321 103.989L183.634 104.741C183.392 104.848 183.109 104.74 183.002 104.499C182.894 104.257 183.003 103.974 183.244 103.867L184.932 103.114C185.173 103.007 185.456 103.115 185.564 103.357ZM110.952 103.553C111.02 103.298 111.282 103.146 111.538 103.215L113.41 103.716C113.665 103.785 113.816 104.047 113.748 104.302C113.68 104.557 113.417 104.709 113.162 104.641L111.29 104.139C111.035 104.071 110.883 103.808 110.952 103.553ZM114.696 104.556C114.764 104.301 115.026 104.149 115.282 104.218L117.154 104.719C117.409 104.788 117.56 105.05 117.492 105.305C117.424 105.561 117.161 105.712 116.906 105.644L115.034 105.142C114.779 105.074 114.627 104.811 114.696 104.556ZM38.8837 104.463C39.0352 104.246 39.3335 104.194 39.55 104.345L41.11 105.436C41.3266 105.587 41.3793 105.886 41.2279 106.102C41.0765 106.319 40.7781 106.372 40.5616 106.22L39.0016 105.129C38.7851 104.978 38.7323 104.679 38.8837 104.463ZM182.188 104.861C182.296 105.103 182.187 105.386 181.946 105.493L180.258 106.245C180.017 106.353 179.734 106.245 179.626 106.003C179.519 105.762 179.627 105.479 179.869 105.371L181.556 104.619C181.798 104.512 182.081 104.62 182.188 104.861ZM105.473 105.283C105.66 105.096 105.963 105.097 106.149 105.284L107.49 106.627C107.677 106.814 107.677 107.117 107.49 107.304C107.302 107.491 107 107.49 106.813 107.303L105.472 105.96C105.285 105.772 105.286 105.47 105.473 105.283ZM118.44 105.559C118.508 105.304 118.771 105.152 119.026 105.221L120.898 105.722C121.153 105.791 121.305 106.053 121.236 106.308C121.168 106.564 120.905 106.715 120.65 106.647L118.778 106.145C118.523 106.077 118.371 105.814 118.44 105.559ZM178.813 106.366C178.92 106.607 178.812 106.89 178.57 106.998L176.883 107.75C176.641 107.858 176.358 107.749 176.251 107.508C176.143 107.266 176.252 106.984 176.493 106.876L178.181 106.124C178.422 106.016 178.705 106.125 178.813 106.366ZM122.184 106.562C122.252 106.307 122.515 106.156 122.77 106.224L124.642 106.725C124.897 106.794 125.049 107.056 124.98 107.311C124.912 107.567 124.649 107.718 124.394 107.65L122.522 107.148C122.267 107.08 122.115 106.818 122.184 106.562ZM42.0037 106.645C42.1552 106.428 42.4535 106.376 42.67 106.527L44.23 107.618C44.4466 107.77 44.4993 108.068 44.3479 108.284C44.1964 108.501 43.8981 108.554 43.6816 108.402L42.1216 107.311C41.905 107.16 41.8523 106.861 42.0037 106.645ZM125.928 107.565C125.996 107.31 126.259 107.159 126.514 107.227L128.386 107.729C128.641 107.797 128.793 108.059 128.724 108.314C128.656 108.57 128.393 108.721 128.138 108.653L126.266 108.151C126.011 108.083 125.859 107.821 125.928 107.565ZM175.437 107.87C175.545 108.112 175.436 108.395 175.195 108.502L173.507 109.255C173.266 109.362 172.983 109.254 172.875 109.012C172.768 108.771 172.876 108.488 173.117 108.381L174.805 107.628C175.047 107.521 175.329 107.629 175.437 107.87ZM108.154 107.97C108.341 107.784 108.644 107.784 108.831 107.971L110.172 109.315C110.359 109.502 110.358 109.805 110.171 109.992C109.984 110.178 109.681 110.178 109.495 109.991L108.154 108.647C107.967 108.46 107.967 108.157 108.154 107.97ZM129.672 108.568C129.74 108.313 130.003 108.162 130.258 108.23L132.13 108.732C132.385 108.8 132.537 109.062 132.468 109.318C132.4 109.573 132.138 109.724 131.882 109.656L130.01 109.154C129.755 109.086 129.604 108.824 129.672 108.568ZM45.1237 108.827C45.2751 108.61 45.5734 108.558 45.79 108.709L47.35 109.8C47.5665 109.952 47.6193 110.25 47.4678 110.466C47.3164 110.683 47.0181 110.736 46.8015 110.584L45.2416 109.493C45.025 109.342 44.9722 109.044 45.1237 108.827ZM172.062 109.375C172.169 109.616 172.061 109.899 171.819 110.007L170.132 110.759C169.89 110.867 169.607 110.758 169.5 110.517C169.392 110.276 169.501 109.993 169.742 109.885L171.43 109.133C171.671 109.025 171.954 109.134 172.062 109.375ZM133.416 109.571C133.484 109.316 133.747 109.165 134.002 109.233L135.874 109.735C136.129 109.803 136.281 110.065 136.212 110.321C136.144 110.576 135.882 110.727 135.626 110.659L133.754 110.157C133.499 110.089 133.348 109.827 133.416 109.571ZM137.16 110.575C137.228 110.319 137.491 110.168 137.746 110.236L139.618 110.738C139.873 110.806 140.025 111.068 139.956 111.324C139.888 111.579 139.626 111.73 139.37 111.662L137.498 111.161C137.243 111.092 137.092 110.83 137.16 110.575ZM110.836 110.658C111.023 110.471 111.326 110.472 111.513 110.659L112.854 112.002C113.04 112.189 113.04 112.492 112.853 112.679C112.666 112.866 112.363 112.865 112.176 112.678L110.835 111.335C110.649 111.148 110.649 110.845 110.836 110.658ZM168.686 110.88C168.794 111.121 168.685 111.404 168.444 111.512L166.756 112.264C166.515 112.371 166.232 112.263 166.124 112.022C166.017 111.78 166.125 111.497 166.366 111.39L168.054 110.637C168.296 110.53 168.578 110.638 168.686 110.88ZM48.2437 111.009C48.3951 110.793 48.6934 110.74 48.91 110.891L50.47 111.982C50.6865 112.134 50.7393 112.432 50.5878 112.649C50.4364 112.865 50.1381 112.918 49.9215 112.766L48.3615 111.675C48.145 111.524 48.0922 111.226 48.2437 111.009ZM140.904 111.578C140.972 111.322 141.235 111.171 141.49 111.239L143.362 111.741C143.617 111.809 143.769 112.071 143.7 112.327C143.632 112.582 143.37 112.733 143.114 112.665L141.242 112.164C140.987 112.095 140.836 111.833 140.904 111.578ZM165.31 112.384C165.418 112.626 165.31 112.909 165.068 113.016L163.38 113.768C163.139 113.876 162.856 113.768 162.749 113.526C162.641 113.285 162.749 113.002 162.991 112.894L164.679 112.142C164.92 112.034 165.203 112.143 165.31 112.384ZM144.648 112.581C144.716 112.325 144.979 112.174 145.234 112.242L147.106 112.744C147.361 112.812 147.513 113.075 147.444 113.33C147.376 113.585 147.114 113.737 146.858 113.668L144.986 113.167C144.731 113.098 144.58 112.836 144.648 112.581ZM79.9722 112.977C80.0644 113.066 80.1172 113.188 80.1189 113.316L80.1332 114.436C80.1366 114.7 79.9252 114.917 79.6609 114.92C79.3967 114.924 79.1798 114.712 79.1764 114.448L79.1682 113.812L78.6846 113.825C78.4204 113.831 78.2008 113.623 78.1941 113.359C78.1874 113.094 78.3961 112.875 78.6603 112.868L79.6283 112.843C79.7562 112.84 79.8801 112.888 79.9722 112.977ZM77.2147 113.383C77.2214 113.648 77.0127 113.867 76.7485 113.874L74.8125 113.923C74.5483 113.93 74.3287 113.721 74.322 113.457C74.3153 113.193 74.524 112.973 74.7882 112.967L76.7242 112.917C76.9884 112.911 77.208 113.119 77.2147 113.383ZM51.3636 113.191C51.5151 112.975 51.8134 112.922 52.0299 113.073L52.6809 113.529L53.4916 113.508C53.7557 113.501 53.9753 113.71 53.9821 113.974C53.9888 114.238 53.7801 114.458 53.5159 114.465L52.5479 114.489C52.4457 114.492 52.3453 114.462 52.2615 114.403L51.4815 113.857C51.2649 113.706 51.2122 113.408 51.3636 113.191ZM73.3426 113.482C73.3493 113.746 73.1406 113.966 72.8764 113.972L70.9404 114.022C70.6762 114.028 70.4566 113.82 70.4499 113.555C70.4432 113.291 70.6519 113.072 70.916 113.065L72.8521 113.016C73.1163 113.009 73.3359 113.218 73.3426 113.482ZM69.4705 113.58C69.4772 113.845 69.2685 114.064 69.0043 114.071L67.0683 114.12C66.8041 114.127 66.5845 113.918 66.5778 113.654C66.5711 113.39 66.7798 113.17 67.0439 113.163L68.98 113.114C69.2442 113.107 69.4638 113.316 69.4705 113.58ZM113.518 113.345C113.705 113.159 114.008 113.159 114.195 113.346L115.535 114.69C115.722 114.877 115.722 115.18 115.535 115.367C115.348 115.553 115.045 115.553 114.858 115.366L113.517 114.022C113.33 113.835 113.331 113.532 113.518 113.345ZM65.5984 113.679C65.6051 113.943 65.3964 114.163 65.1322 114.169L63.1962 114.218C62.932 114.225 62.7124 114.017 62.7057 113.752C62.699 113.488 62.9077 113.269 63.1718 113.262L65.1079 113.213C65.3721 113.206 65.5917 113.415 65.5984 113.679ZM148.392 113.584C148.461 113.328 148.723 113.177 148.978 113.245L150.85 113.747C151.105 113.815 151.257 114.078 151.189 114.333C151.12 114.588 150.858 114.74 150.603 114.671L148.731 114.17C148.475 114.101 148.324 113.839 148.392 113.584ZM61.7263 113.777C61.733 114.041 61.5243 114.261 61.2601 114.268L59.3241 114.317C59.0599 114.324 58.8403 114.115 58.8336 113.851C58.8269 113.587 59.0356 113.367 59.2997 113.36L61.2358 113.311C61.5 113.304 61.7195 113.513 61.7263 113.777ZM57.8542 113.876C57.8609 114.14 57.6522 114.359 57.388 114.366L55.452 114.415C55.1878 114.422 54.9682 114.213 54.9615 113.949C54.9548 113.685 55.1635 113.465 55.4276 113.459L57.3637 113.41C57.6278 113.403 57.8474 113.612 57.8542 113.876ZM161.935 113.889C162.042 114.13 161.934 114.413 161.693 114.521L160.005 115.273C159.764 115.381 159.481 115.272 159.373 115.031C159.265 114.789 159.374 114.507 159.615 114.399L161.303 113.647C161.544 113.539 161.827 113.648 161.935 113.889ZM152.136 114.587C152.205 114.332 152.467 114.18 152.722 114.248L154.594 114.75C154.849 114.818 155.001 115.081 154.933 115.336C154.864 115.591 154.602 115.743 154.347 115.674L152.475 115.173C152.219 115.104 152.068 114.842 152.136 114.587ZM158.559 115.393C158.667 115.635 158.558 115.918 158.317 116.025L157.473 116.401C157.373 116.446 157.261 116.455 157.155 116.427L156.219 116.176C155.963 116.107 155.812 115.845 155.88 115.59C155.949 115.335 156.211 115.183 156.466 115.251L157.238 115.458L157.928 115.151C158.169 115.044 158.452 115.152 158.559 115.393ZM116.2 116.033C116.387 115.846 116.69 115.847 116.876 116.034L118.217 117.377C118.404 117.564 118.403 117.867 118.216 118.054C118.029 118.241 117.726 118.24 117.54 118.053L116.199 116.71C116.012 116.523 116.013 116.22 116.2 116.033ZM79.6774 116.203C79.9416 116.2 80.1585 116.411 80.1619 116.675L80.1907 118.915C80.194 119.179 79.9826 119.396 79.7184 119.4C79.4541 119.403 79.2372 119.192 79.2338 118.927L79.2051 116.688C79.2017 116.423 79.4131 116.206 79.6774 116.203ZM118.881 118.72C119.068 118.534 119.371 118.534 119.558 118.721L120.899 120.065C121.085 120.252 121.085 120.555 120.898 120.742C120.711 120.928 120.408 120.928 120.221 120.741L118.881 119.397C118.694 119.21 118.694 118.907 118.881 118.72ZM79.7348 120.683C79.999 120.679 80.216 120.891 80.2194 121.155L80.232 122.14L80.7486 122.959C80.8895 123.182 80.8226 123.478 80.5991 123.619C80.3756 123.76 80.0802 123.693 79.9392 123.469L79.3506 122.536C79.3035 122.462 79.278 122.375 79.2769 122.287L79.2625 121.167C79.2591 120.903 79.4706 120.686 79.7348 120.683ZM121.563 121.408C121.75 121.221 122.053 121.222 122.24 121.409L123.58 122.752C123.767 122.939 123.767 123.242 123.58 123.429C123.393 123.616 123.09 123.615 122.903 123.428L121.562 122.085C121.376 121.898 121.376 121.595 121.563 121.408ZM124.245 124.095C124.432 123.909 124.735 123.909 124.921 124.096L126.262 125.44C126.449 125.627 126.449 125.93 126.261 126.117C126.074 126.303 125.771 126.303 125.585 126.116L124.244 124.772C124.057 124.585 124.058 124.282 124.245 124.095ZM81.2658 124.676C81.4893 124.535 81.7847 124.602 81.9257 124.825L83.1029 126.691C83.2439 126.915 83.177 127.21 82.9535 127.351C82.73 127.492 82.4345 127.425 82.2935 127.202L81.1163 125.336C80.9754 125.112 81.0423 124.817 81.2658 124.676ZM126.926 126.783C127.113 126.596 127.416 126.597 127.603 126.784L128.944 128.127C129.131 128.314 129.13 128.617 128.943 128.804C128.756 128.991 128.453 128.99 128.267 128.803L126.926 127.46C126.739 127.273 126.739 126.97 126.926 126.783ZM83.6201 128.408C83.8436 128.267 84.1391 128.334 84.2801 128.558L84.8718 129.496L85.3886 130.338C85.5269 130.563 85.4564 130.858 85.2311 130.996C85.0059 131.134 84.7113 131.064 84.5731 130.838L84.0593 130.001L84.0562 129.996L83.4707 129.068C83.3297 128.845 83.3966 128.549 83.6201 128.408ZM129.608 129.47C129.795 129.284 130.098 129.284 130.285 129.471L131.626 130.815C131.812 131.002 131.812 131.305 131.625 131.492C131.438 131.678 131.135 131.678 130.948 131.491L129.607 130.147C129.421 129.96 129.421 129.657 129.608 129.47ZM85.7644 131.865C85.9896 131.726 86.2842 131.797 86.4224 132.022L87.4562 133.707C87.5945 133.932 87.524 134.226 87.2987 134.365C87.0735 134.503 86.7789 134.432 86.6407 134.207L85.6069 132.523C85.4686 132.298 85.5392 132.003 85.7644 131.865ZM132.29 132.158C132.477 131.971 132.78 131.972 132.966 132.159L134.307 133.502C134.494 133.689 134.494 133.992 134.307 134.179C134.12 134.366 133.817 134.365 133.63 134.178L132.289 132.835C132.102 132.648 132.103 132.345 132.29 132.158ZM134.971 134.845C135.159 134.659 135.462 134.659 135.648 134.846L136.989 136.19C137.176 136.377 137.175 136.68 136.988 136.867C136.801 137.053 136.498 137.053 136.312 136.866L134.971 135.522C134.784 135.335 134.784 135.032 134.971 134.845ZM87.832 135.234C88.0572 135.095 88.3518 135.166 88.4901 135.391L89.5238 137.075C89.6621 137.301 89.5916 137.595 89.3663 137.733C89.1411 137.872 88.8465 137.801 88.7083 137.576L87.6745 135.892C87.5362 135.666 87.6068 135.372 87.832 135.234ZM137.653 137.533C137.84 137.346 138.143 137.347 138.33 137.534L139.671 138.877C139.857 139.064 139.857 139.367 139.67 139.554C139.483 139.741 139.18 139.74 138.993 139.553L137.652 138.21C137.466 138.023 137.466 137.72 137.653 137.533ZM89.8996 138.602C90.1248 138.464 90.4194 138.535 90.5576 138.76L91.0247 139.521L91.8186 140.097C92.0325 140.252 92.0801 140.551 91.925 140.765C91.7699 140.979 91.4707 141.026 91.2568 140.871L90.3858 140.24C90.335 140.203 90.2918 140.156 90.259 140.103L89.7421 139.26C89.6038 139.035 89.6744 138.741 89.8996 138.602ZM140.335 140.22C140.522 140.034 140.825 140.034 141.012 140.221L142.352 141.565C142.539 141.752 142.539 142.055 142.352 142.242C142.165 142.428 141.862 142.428 141.675 142.241L140.334 140.897C140.148 140.71 140.148 140.407 140.335 140.22ZM124.168 140.831C124.304 140.741 124.476 140.727 124.625 140.793L125.468 141.166C125.709 141.273 125.818 141.556 125.711 141.798C125.604 142.039 125.321 142.148 125.08 142.041L124.919 141.97L124.921 142.163C124.924 142.428 124.712 142.644 124.448 142.647C124.184 142.651 123.967 142.439 123.964 142.175L123.953 141.236C123.951 141.073 124.032 140.921 124.168 140.831ZM92.8922 141.466C93.0473 141.252 93.3465 141.205 93.5604 141.36L95.3022 142.623C95.5162 142.778 95.5638 143.078 95.4087 143.291C95.2535 143.505 94.9543 143.553 94.7404 143.398L92.9986 142.135C92.7847 141.979 92.737 141.68 92.8922 141.466ZM126.521 142.156C126.628 141.915 126.91 141.806 127.152 141.913L128.836 142.659C129.078 142.767 129.187 143.049 129.08 143.291C128.973 143.532 128.69 143.641 128.449 143.534L126.764 142.788C126.523 142.681 126.414 142.398 126.521 142.156ZM143.017 142.908C143.204 142.721 143.507 142.722 143.693 142.909L145.034 144.252C145.221 144.439 145.22 144.742 145.033 144.929C144.846 145.116 144.543 145.115 144.357 144.928L143.016 143.585C142.829 143.398 142.83 143.095 143.017 142.908ZM129.89 143.65C129.997 143.408 130.279 143.299 130.521 143.406L132.205 144.153C132.447 144.26 132.556 144.542 132.449 144.784C132.342 145.025 132.059 145.134 131.818 145.027L130.133 144.281C129.892 144.174 129.783 143.891 129.89 143.65ZM124.459 143.568C124.723 143.564 124.94 143.776 124.943 144.04L124.965 145.917C124.968 146.182 124.757 146.398 124.492 146.401C124.228 146.405 124.011 146.193 124.008 145.929L123.986 144.052C123.983 143.787 124.195 143.571 124.459 143.568ZM96.3758 143.993C96.531 143.779 96.8302 143.731 97.0441 143.887L98.7859 145.15C98.9998 145.305 99.0475 145.604 98.8923 145.818C98.7372 146.032 98.438 146.08 98.2241 145.924L96.4822 144.661C96.2683 144.506 96.2207 144.207 96.3758 143.993ZM133.259 145.143C133.366 144.901 133.648 144.792 133.89 144.899L135.574 145.646C135.816 145.753 135.925 146.035 135.818 146.277C135.711 146.519 135.428 146.628 135.187 146.521L133.502 145.774C133.261 145.667 133.151 145.384 133.259 145.143ZM145.698 145.595C145.885 145.409 146.188 145.409 146.375 145.596L147.716 146.94C147.902 147.127 147.902 147.43 147.715 147.617C147.528 147.803 147.225 147.803 147.038 147.616L145.698 146.272C145.511 146.085 145.511 145.782 145.698 145.595ZM99.8595 146.52C100.015 146.306 100.314 146.258 100.528 146.413L101.399 147.045C101.455 147.085 101.501 147.138 101.535 147.198L101.994 148.017C102.124 148.248 102.042 148.539 101.811 148.669C101.581 148.798 101.289 148.716 101.16 148.485L100.752 147.758L99.9659 147.188C99.752 147.033 99.7043 146.733 99.8595 146.52ZM136.627 146.636C136.735 146.394 137.017 146.285 137.259 146.392L138.943 147.139C139.185 147.246 139.294 147.529 139.187 147.77C139.08 148.012 138.797 148.121 138.556 148.014L136.871 147.267C136.629 147.16 136.52 146.877 136.627 146.636ZM124.503 147.322C124.767 147.318 124.984 147.53 124.987 147.794L125.009 149.671C125.013 149.936 124.801 150.152 124.537 150.155C124.272 150.159 124.056 149.947 124.053 149.683L124.03 147.806C124.027 147.541 124.239 147.325 124.503 147.322ZM139.996 148.129C140.103 147.887 140.386 147.778 140.628 147.885L142.312 148.632C142.554 148.739 142.663 149.022 142.556 149.263C142.449 149.505 142.166 149.614 141.924 149.507L140.24 148.76C139.998 148.653 139.889 148.37 139.996 148.129ZM148.38 148.283C148.567 148.096 148.87 148.097 149.057 148.284L150.398 149.627C150.584 149.815 150.584 150.117 150.397 150.304C150.21 150.491 149.907 150.49 149.72 150.303L148.379 148.96C148.193 148.773 148.193 148.47 148.38 148.283ZM143.365 149.622C143.472 149.38 143.755 149.271 143.997 149.378L145.681 150.125C145.923 150.232 146.032 150.515 145.925 150.756C145.818 150.998 145.535 151.107 145.293 151L143.609 150.253C143.367 150.146 143.258 149.864 143.365 149.622ZM102.262 149.473C102.492 149.343 102.784 149.425 102.913 149.656L103.832 151.294C103.961 151.525 103.879 151.816 103.649 151.946C103.418 152.075 103.127 151.993 102.997 151.762L102.079 150.124C101.949 149.893 102.031 149.602 102.262 149.473ZM146.734 151.115C146.841 150.874 147.124 150.765 147.366 150.872L149.05 151.618C149.292 151.725 149.401 152.008 149.294 152.249C149.187 152.491 148.904 152.6 148.662 152.493L146.978 151.746C146.736 151.639 146.627 151.357 146.734 151.115ZM151.062 150.97C151.249 150.784 151.552 150.784 151.738 150.971L153.079 152.315C153.266 152.502 153.266 152.805 153.079 152.992C152.891 153.178 152.589 153.178 152.402 152.991L151.061 151.647C150.874 151.46 150.875 151.157 151.062 150.97ZM124.547 151.076C124.812 151.073 125.028 151.284 125.032 151.548L125.054 153.425C125.057 153.69 124.845 153.906 124.581 153.91C124.317 153.913 124.1 153.701 124.097 153.437L124.075 151.56C124.072 151.295 124.283 151.079 124.547 151.076ZM150.103 152.608C150.21 152.367 150.493 152.258 150.735 152.365L152.419 153.111C152.661 153.218 152.77 153.501 152.663 153.743C152.555 153.984 152.273 154.093 152.031 153.986L150.347 153.24C150.105 153.132 149.996 152.85 150.103 152.608ZM104.1 152.75C104.33 152.62 104.622 152.702 104.751 152.933L105.67 154.571C105.799 154.802 105.717 155.093 105.486 155.223C105.256 155.352 104.964 155.27 104.835 155.039L103.916 153.401C103.787 153.17 103.869 152.879 104.1 152.75ZM153.743 153.658C153.93 153.471 154.233 153.472 154.42 153.659L155.091 154.331C155.253 154.494 155.277 154.75 155.146 154.939C155.016 155.129 154.769 155.199 154.558 155.106L153.716 154.733C153.474 154.626 153.365 154.343 153.472 154.101C153.504 154.03 153.551 153.969 153.609 153.923C153.624 153.826 153.669 153.733 153.743 153.658ZM124.592 154.83C124.856 154.827 125.073 155.038 125.076 155.302L125.098 157.179C125.101 157.444 124.889 157.66 124.625 157.664C124.361 157.667 124.144 157.455 124.141 157.191L124.119 155.314C124.116 155.05 124.328 154.833 124.592 154.83ZM105.937 156.027C106.168 155.897 106.459 155.979 106.589 156.21L107.507 157.848C107.637 158.079 107.555 158.37 107.324 158.5C107.094 158.629 106.802 158.547 106.673 158.316L105.754 156.678C105.625 156.447 105.707 156.156 105.937 156.027ZM124.636 158.584C124.9 158.581 125.117 158.792 125.12 159.057L125.142 160.934C125.145 161.198 124.934 161.414 124.669 161.418C124.405 161.421 124.188 161.209 124.185 160.945L124.163 159.068C124.16 158.804 124.372 158.587 124.636 158.584ZM107.775 159.304C108.005 159.174 108.297 159.256 108.426 159.487L109.345 161.125C109.474 161.356 109.392 161.647 109.162 161.777C108.931 161.906 108.64 161.824 108.51 161.593L107.591 159.955C107.462 159.724 107.544 159.433 107.775 159.304ZM124.68 162.338C124.944 162.335 125.161 162.546 125.164 162.811L125.186 164.688C125.19 164.952 124.978 165.169 124.714 165.172C124.449 165.175 124.233 164.963 124.23 164.699L124.207 162.822C124.204 162.558 124.416 162.341 124.68 162.338ZM109.612 162.58C109.843 162.451 110.135 162.533 110.264 162.764L111.183 164.402C111.312 164.633 111.23 164.924 110.999 165.054C110.769 165.183 110.477 165.101 110.348 164.87L109.429 163.232C109.3 163.001 109.382 162.71 109.612 162.58ZM111.45 165.857C111.681 165.728 111.972 165.81 112.101 166.041L113.02 167.679C113.149 167.91 113.067 168.201 112.837 168.331C112.606 168.46 112.315 168.378 112.186 168.147L111.267 166.509C111.137 166.278 111.22 165.987 111.45 165.857ZM124.725 166.092C124.989 166.089 125.205 166.3 125.209 166.565L125.231 168.442C125.234 168.706 125.022 168.923 124.758 168.926C124.494 168.929 124.277 168.717 124.274 168.453L124.252 166.576C124.249 166.312 124.46 166.095 124.725 166.092ZM113.288 169.134C113.518 169.005 113.81 169.087 113.939 169.318L114.858 170.956C114.987 171.187 114.905 171.478 114.674 171.608C114.444 171.737 114.152 171.655 114.023 171.424L113.104 169.786C112.975 169.555 113.057 169.264 113.288 169.134ZM124.769 169.846C125.033 169.843 125.25 170.054 125.253 170.319L125.275 172.196C125.278 172.46 125.066 172.677 124.802 172.68C124.538 172.683 124.321 172.471 124.318 172.207L124.296 170.33C124.293 170.066 124.505 169.849 124.769 169.846ZM115.125 172.411C115.356 172.282 115.647 172.364 115.777 172.595L116.695 174.233C116.825 174.464 116.743 174.755 116.512 174.885C116.282 175.014 115.99 174.932 115.861 174.701L114.942 173.063C114.813 172.832 114.895 172.541 115.125 172.411ZM124.813 173.6C125.077 173.597 125.294 173.808 125.297 174.073L125.319 175.95C125.322 176.214 125.111 176.431 124.846 176.434C124.582 176.437 124.365 176.225 124.362 175.961L124.34 174.084C124.337 173.82 124.549 173.603 124.813 173.6ZM116.963 175.688C117.193 175.559 117.485 175.641 117.614 175.872L118.533 177.51C118.662 177.741 118.58 178.032 118.35 178.162C118.119 178.291 117.828 178.209 117.698 177.978L116.78 176.34C116.65 176.109 116.732 175.818 116.963 175.688ZM124.857 177.354C125.122 177.351 125.338 177.562 125.341 177.827L125.364 179.704C125.367 179.968 125.155 180.185 124.891 180.188C124.626 180.191 124.41 179.979 124.407 179.715L124.384 177.838C124.381 177.574 124.593 177.357 124.857 177.354ZM118.8 178.965C119.031 178.836 119.323 178.918 119.452 179.149L120.371 180.787C120.5 181.018 120.418 181.309 120.187 181.439C119.957 181.568 119.665 181.486 119.536 181.255L118.617 179.617C118.488 179.386 118.57 179.095 118.8 178.965ZM124.902 181.108C125.166 181.105 125.383 181.317 125.386 181.581L125.408 183.458C125.411 183.722 125.199 183.939 124.935 183.942C124.671 183.945 124.454 183.733 124.451 183.469L124.429 181.592C124.426 181.328 124.637 181.111 124.902 181.108ZM120.638 182.242C120.869 182.113 121.16 182.195 121.289 182.426L122.208 184.064C122.338 184.295 122.255 184.586 122.025 184.716C121.794 184.845 121.503 184.763 121.374 184.532L120.455 182.894C120.326 182.663 120.408 182.372 120.638 182.242ZM124.946 184.862C125.21 184.859 125.427 185.071 125.43 185.335L125.452 187.212C125.455 187.476 125.243 187.693 124.979 187.696C124.715 187.699 124.498 187.487 124.495 187.223L124.473 185.346C124.47 185.082 124.682 184.865 124.946 184.862ZM122.476 185.519C122.706 185.39 122.998 185.472 123.127 185.703L124.046 187.341C124.175 187.572 124.093 187.863 123.863 187.993C123.632 188.122 123.34 188.04 123.211 187.809L122.292 186.171C122.163 185.94 122.245 185.649 122.476 185.519ZM124.99 188.616C125.254 188.613 125.471 188.825 125.474 189.089L125.485 190.027C125.488 190.246 125.342 190.439 125.13 190.495C124.919 190.552 124.696 190.458 124.589 190.267L124.13 189.448C124.001 189.217 124.083 188.926 124.313 188.796C124.424 188.734 124.55 188.721 124.664 188.75C124.749 188.668 124.863 188.618 124.99 188.616Z" fill="#7B7B7B"/>
<path d="M146.645 164.34V160.16C146.645 159.52 146.445 159.4 146.185 159.4C145.885 159.4 145.685 159.54 145.685 160.18V164.34C145.685 164.96 145.885 165.12 146.185 165.12C146.445 165.12 146.645 164.98 146.645 164.34ZM147.945 160.9V163.66C147.945 164.78 147.865 166.22 146.165 166.22C144.465 166.22 144.385 164.82 144.385 163.68V160.88C144.385 159.72 144.465 158.34 146.165 158.34C147.865 158.34 147.945 159.78 147.945 160.9ZM152.045 158.64L147.085 173.28L145.905 172.84L150.865 158.2L152.045 158.64ZM152.365 171.28V167.1C152.365 166.46 152.165 166.34 151.905 166.34C151.605 166.34 151.405 166.48 151.405 167.12V171.28C151.405 171.9 151.605 172.06 151.905 172.06C152.165 172.06 152.365 171.92 152.365 171.28ZM153.665 167.84V170.6C153.665 171.72 153.585 173.16 151.885 173.16C150.185 173.16 150.105 171.76 150.105 170.62V167.82C150.105 166.66 150.185 165.28 151.885 165.28C153.585 165.28 153.665 166.72 153.665 167.84Z" fill="black"/>
<path d="M137.123 163.8V163.12C137.123 161.04 137.123 158.32 140.123 158.32C143.083 158.32 143.083 160.96 143.083 163.08V168.5C143.083 171.06 142.783 173.26 139.883 173.26C138.603 173.26 137.783 172.8 137.203 172.16L138.303 170.72C138.603 171 139.103 171.42 139.683 171.42C140.923 171.42 141.083 170.56 141.083 167.98V167.34C140.823 167.7 140.323 168.14 139.503 168.14C137.223 168.14 137.123 166.42 137.123 163.8ZM139.143 162.78V163.64C139.143 165.16 139.143 166.32 140.083 166.32C141.063 166.32 141.063 165.14 141.063 163.6V162.78C141.063 161.28 141.063 160.1 140.083 160.1C139.143 160.1 139.143 161.26 139.143 162.78Z" fill="black"/>
<path d="M136 169.96H134.72V173H132.86V169.96H129.4V168.32L132.8 158.6H134.72V168.18H136V169.96ZM132.86 168.18V162.92L131.04 168.18H132.86Z" fill="black"/>
<path d="M87.6448 159.34V155.16C87.6448 154.52 87.4448 154.4 87.1848 154.4C86.8848 154.4 86.6848 154.54 86.6848 155.18V159.34C86.6848 159.96 86.8848 160.12 87.1848 160.12C87.4448 160.12 87.6448 159.98 87.6448 159.34ZM88.9448 155.9V158.66C88.9448 159.78 88.8648 161.22 87.1648 161.22C85.4648 161.22 85.3848 159.82 85.3848 158.68V155.88C85.3848 154.72 85.4648 153.34 87.1648 153.34C88.8648 153.34 88.9448 154.78 88.9448 155.9ZM93.0448 153.64L88.0848 168.28L86.9048 167.84L91.8648 153.2L93.0448 153.64ZM93.3648 166.28V162.1C93.3648 161.46 93.1648 161.34 92.9048 161.34C92.6048 161.34 92.4048 161.48 92.4048 162.12V166.28C92.4048 166.9 92.6048 167.06 92.9048 167.06C93.1648 167.06 93.3648 166.92 93.3648 166.28ZM94.6648 162.84V165.6C94.6648 166.72 94.5848 168.16 92.8848 168.16C91.1848 168.16 91.1048 166.76 91.1048 165.62V162.82C91.1048 161.66 91.1848 160.28 92.8848 160.28C94.5848 160.28 94.6648 161.72 94.6648 162.84Z" fill="black"/>
<path d="M83.0633 168H81.1233V155.94L79.2833 157.22L78.3633 155.84L81.5433 153.6H83.0633V168Z" fill="black"/>
<path d="M77.0004 164.96H75.7204V168H73.8604V164.96H70.4004V163.32L73.8004 153.6H75.7204V163.18H77.0004V164.96ZM73.8604 163.18V157.92L72.0404 163.18H73.8604Z" fill="black"/>
<path d="M182.645 150.34V146.16C182.645 145.52 182.445 145.4 182.185 145.4C181.885 145.4 181.685 145.54 181.685 146.18V150.34C181.685 150.96 181.885 151.12 182.185 151.12C182.445 151.12 182.645 150.98 182.645 150.34ZM183.945 146.9V149.66C183.945 150.78 183.865 152.22 182.165 152.22C180.465 152.22 180.385 150.82 180.385 149.68V146.88C180.385 145.72 180.465 144.34 182.165 144.34C183.865 144.34 183.945 145.78 183.945 146.9ZM188.045 144.64L183.085 159.28L181.905 158.84L186.865 144.2L188.045 144.64ZM188.365 157.28V153.1C188.365 152.46 188.165 152.34 187.905 152.34C187.605 152.34 187.405 152.48 187.405 153.12V157.28C187.405 157.9 187.605 158.06 187.905 158.06C188.165 158.06 188.365 157.92 188.365 157.28ZM189.665 153.84V156.6C189.665 157.72 189.585 159.16 187.885 159.16C186.185 159.16 186.105 157.76 186.105 156.62V153.82C186.105 152.66 186.185 151.28 187.885 151.28C189.585 151.28 189.665 152.72 189.665 153.84Z" fill="black"/>
<path d="M179.103 153.28V155C179.103 157.86 178.223 159.28 175.963 159.28C174.523 159.28 173.643 158.64 173.123 157.8L174.443 156.52C175.103 157.34 175.443 157.44 175.943 157.44C176.903 157.44 177.103 156.32 177.103 154.92V153.8C177.103 152.5 176.943 151.7 176.023 151.7C175.403 151.7 174.983 152.28 174.803 152.64L173.483 151.84L173.663 144.6H178.863V146.48H175.243L175.123 150.66C175.283 150.22 175.943 149.74 176.683 149.74C178.383 149.74 179.103 150.92 179.103 153.28Z" fill="black"/>
<path d="M171.581 147.92V148.82C171.581 150.12 171.281 151.26 170.181 151.5C171.161 151.68 171.681 152.78 171.681 154.32V155.44C171.681 157.28 171.261 159.26 168.701 159.26C166.141 159.26 165.721 157.28 165.721 155.44V154.32C165.721 152.78 166.241 151.68 167.221 151.5C166.121 151.26 165.821 150.12 165.821 148.82V147.92C165.821 145.92 166.421 144.32 168.701 144.32C170.981 144.32 171.581 145.92 171.581 147.92ZM169.761 155.44V154.58C169.761 153.46 169.581 152.56 168.701 152.56C167.821 152.56 167.641 153.46 167.641 154.58V155.44C167.641 156.56 167.821 157.46 168.701 157.46C169.581 157.46 169.761 156.56 169.761 155.44ZM169.721 148.82V148C169.721 146.92 169.541 146.04 168.701 146.04C167.861 146.04 167.681 146.92 167.681 148V148.82C167.681 149.9 167.861 150.78 168.701 150.78C169.541 150.78 169.721 149.9 169.721 148.82Z" fill="black"/>
<path fill-rule="evenodd" clip-rule="evenodd" d="M163.867 152.674L156.193 155.893L155.806 154.971L163.48 151.752L163.867 152.674Z" fill="black"/>
<path fill-rule="evenodd" clip-rule="evenodd" d="M133.395 155.398L128.908 148.281L128.062 148.815L132.55 155.931L133.395 155.398Z" fill="black"/>
<path fill-rule="evenodd" clip-rule="evenodd" d="M87.3629 150.745L89.6295 142.642L88.6665 142.373L86.3999 150.475L87.3629 150.745Z" fill="black"/>
<path fill-rule="evenodd" clip-rule="evenodd" d="M202.615 108.178L196.653 102.373L197.35 101.656L203.313 107.461L202.615 108.178Z" fill="black"/>
<path d="M210.645 117.34V113.16C210.645 112.52 210.445 112.4 210.185 112.4C209.885 112.4 209.685 112.54 209.685 113.18V117.34C209.685 117.96 209.885 118.12 210.185 118.12C210.445 118.12 210.645 117.98 210.645 117.34ZM211.945 113.9V116.66C211.945 117.78 211.865 119.22 210.165 119.22C208.465 119.22 208.385 117.82 208.385 116.68V113.88C208.385 112.72 208.465 111.34 210.165 111.34C211.865 111.34 211.945 112.78 211.945 113.9ZM216.045 111.64L211.085 126.28L209.905 125.84L214.865 111.2L216.045 111.64ZM216.365 124.28V120.1C216.365 119.46 216.165 119.34 215.905 119.34C215.605 119.34 215.405 119.48 215.405 120.12V124.28C215.405 124.9 215.605 125.06 215.905 125.06C216.165 125.06 216.365 124.92 216.365 124.28ZM217.665 120.84V123.6C217.665 124.72 217.585 126.16 215.885 126.16C214.185 126.16 214.105 124.76 214.105 123.62V120.82C214.105 119.66 214.185 118.28 215.885 118.28C217.585 118.28 217.665 119.72 217.665 120.84Z" fill="black"/>
<path d="M203.924 113.06C203.304 113.06 202.844 113.46 202.504 113.94L201.264 112.8C201.784 111.94 202.604 111.32 204.004 111.32C206.284 111.32 206.984 112.72 206.984 114.72V115.88C206.984 117.36 206.584 118.1 205.484 118.36C206.464 118.54 207.084 119.44 207.084 120.98V122.44C207.084 124.58 206.404 126.26 203.884 126.26C202.464 126.26 201.564 125.44 201.184 124.8L202.484 123.52C202.784 123.94 203.284 124.46 203.924 124.46C204.804 124.46 205.084 123.86 205.084 122.44V121.44C205.084 119.46 204.544 119.44 203.344 119.44H203.064V117.6H203.344C204.424 117.6 204.984 117.58 204.984 115.62V114.78C204.984 113.78 204.784 113.06 203.924 113.06Z" fill="black"/>
<path d="M193.721 116.8V116.12C193.721 114.04 193.721 111.32 196.721 111.32C199.681 111.32 199.681 113.96 199.681 116.08V121.5C199.681 124.06 199.381 126.26 196.481 126.26C195.201 126.26 194.381 125.8 193.801 125.16L194.901 123.72C195.201 124 195.701 124.42 196.281 124.42C197.521 124.42 197.681 123.56 197.681 120.98V120.34C197.421 120.7 196.921 121.14 196.101 121.14C193.821 121.14 193.721 119.42 193.721 116.8ZM195.741 115.78V116.64C195.741 118.16 195.741 119.32 196.681 119.32C197.661 119.32 197.661 118.14 197.661 116.6V115.78C197.661 114.28 197.661 113.1 196.681 113.1C195.741 113.1 195.741 114.26 195.741 115.78Z" fill="black"/>
</svg>
