<svg width="217" height="202" viewBox="0 0 217 202" fill="none" xmlns="http://www.w3.org/2000/svg">
<path fill-rule="evenodd" clip-rule="evenodd" d="M75.3535 100.821C75.3535 86.7705 86.7437 75.3804 100.794 75.3804C114.845 75.3804 126.235 86.7705 126.235 100.821C126.235 114.872 114.845 126.262 100.794 126.262C86.7437 126.262 75.3535 114.872 75.3535 100.821ZM100.794 76.3804C87.296 76.3804 76.3535 87.3228 76.3535 100.821C76.3535 114.319 87.296 125.262 100.794 125.262C114.292 125.262 125.235 114.319 125.235 100.821C125.235 87.3228 114.292 76.3804 100.794 76.3804Z" fill="#CCCCCC"/>
<path fill-rule="evenodd" clip-rule="evenodd" d="M50.4141 100.821C50.4141 72.9964 72.9706 50.4399 100.795 50.4399C128.62 50.4399 151.177 72.9964 151.177 100.821C151.177 128.646 128.62 151.203 100.795 151.203C72.9706 151.203 50.4141 128.646 50.4141 100.821ZM100.795 51.4399C73.5229 51.4399 51.4141 73.5487 51.4141 100.821C51.4141 128.094 73.5229 150.203 100.795 150.203C128.068 150.203 150.177 128.094 150.177 100.821C150.177 73.5487 128.068 51.4399 100.795 51.4399Z" fill="#CCCCCC"/>
<path fill-rule="evenodd" clip-rule="evenodd" d="M25.4727 100.821C25.4727 59.2219 59.1955 25.499 100.795 25.499C142.394 25.499 176.117 59.2219 176.117 100.821C176.117 142.42 142.394 176.143 100.795 176.143C59.1955 176.143 25.4727 142.42 25.4727 100.821ZM100.795 26.499C59.7478 26.499 26.4727 59.7741 26.4727 100.821C26.4727 141.868 59.7478 175.143 100.795 175.143C141.842 175.143 175.117 141.868 175.117 100.821C175.117 59.7741 141.842 26.499 100.795 26.499Z" fill="#CCCCCC"/>
<path fill-rule="evenodd" clip-rule="evenodd" d="M0.533203 100.821C0.533203 45.4478 45.4224 0.558594 100.796 0.558594C156.17 0.558594 201.059 45.4478 201.059 100.821C201.059 156.195 156.17 201.084 100.796 201.084C45.4224 201.084 0.533203 156.195 0.533203 100.821ZM100.796 1.55859C45.9746 1.55859 1.5332 46 1.5332 100.821C1.5332 155.643 45.9746 200.084 100.796 200.084C155.617 200.084 200.059 155.643 200.059 100.821C200.059 46 155.617 1.55859 100.796 1.55859Z" fill="#CCCCCC"/>
<path fill-rule="evenodd" clip-rule="evenodd" d="M100.5 97.2021V1H101.5V97.2021L126.399 4.27801L127.365 4.53683L102.466 97.4609L150.567 14.1475L151.433 14.6475L103.332 97.9609L171.357 29.9358L172.064 30.6429L104.039 98.668L187.353 50.567L187.853 51.433L104.539 99.5341L197.463 74.6351L197.722 75.6011L104.798 100.5H201V101.5H104.798L197.722 126.399L197.463 127.365L104.539 102.466L187.853 150.567L187.353 151.433L104.039 103.332L172.064 171.357L171.357 172.064L103.332 104.039L151.433 187.353L150.567 187.853L102.466 104.539L127.365 197.463L126.399 197.722L101.5 104.798V201H100.5V104.798L75.6011 197.722L74.6351 197.463L99.5341 104.539L51.433 187.853L50.567 187.353L98.668 104.039L30.6429 172.064L29.9358 171.357L97.9609 103.332L14.6475 151.433L14.1475 150.567L97.4609 102.466L4.53683 127.365L4.27801 126.399L97.2021 101.5H1V100.5H97.2021L4.27801 75.6011L4.53683 74.6351L97.4609 99.5341L14.1475 51.433L14.6475 50.567L97.9609 98.668L29.9358 30.6429L30.6429 29.9358L98.668 97.9609L50.567 14.6475L51.433 14.1475L99.5341 97.4609L74.6351 4.53683L75.6011 4.27801L100.5 97.2021Z" fill="#CCCCCC"/>
<path d="M94.0693 77.0294L100.501 76.2255L113.363 53.0266L137.712 36.5991L153.101 48.4328L121.977 88.5151L172.386 81.7392L150.115 100.918H100.501L153.101 153.52L125.308 143.872L126.227 196.694L100.501 125.726L94.0693 124.922L88.0962 122.396L83.043 118.491L79.0234 113.322L76.6116 107.35L26.1932 100.918L4.82617 75.3067L79.0234 88.5151L66.1607 66.5784L88.0962 79.4412L94.0693 77.0294Z" fill="#9E68E2" fill-opacity="0.18"/>
<path fill-rule="evenodd" clip-rule="evenodd" d="M137.153 35.7702C137.509 35.5294 137.98 35.544 138.321 35.8064L153.711 47.6401C153.922 47.8023 154.059 48.0418 154.093 48.3057C154.127 48.5695 154.054 48.836 153.891 49.0461L124.265 87.1985L172.253 80.7481C172.691 80.6892 173.117 80.9256 173.298 81.3294C173.48 81.7331 173.374 82.2081 173.039 82.497L150.768 101.676C150.586 101.832 150.355 101.918 150.115 101.918H102.915L153.808 152.813C154.138 153.143 154.196 153.656 153.949 154.051C153.701 154.446 153.214 154.618 152.773 154.465L126.333 145.286L127.227 196.677C127.236 197.165 126.89 197.589 126.409 197.677C125.928 197.766 125.454 197.494 125.287 197.035L99.7692 126.643L93.9453 125.915C93.8539 125.903 93.7645 125.879 93.6797 125.843L87.7066 123.317C87.6274 123.283 87.5528 123.24 87.4847 123.187L82.4315 119.282C82.365 119.231 82.3052 119.171 82.2536 119.105L78.234 113.936C78.1772 113.863 78.1308 113.782 78.0961 113.696L75.9038 108.268L26.0667 101.91C25.8162 101.878 25.5871 101.753 25.4254 101.559L4.05831 75.9473C3.78914 75.6247 3.75037 75.1682 3.96128 74.8048C4.17218 74.4414 4.58777 74.2485 5.00144 74.3222L77.0641 87.1506L65.298 67.0843C65.0678 66.6917 65.1317 66.1931 65.4536 65.8713C65.7754 65.5495 66.2739 65.4856 66.6665 65.7158L88.1778 78.3298L93.6949 76.1021C93.7752 76.0697 93.8593 76.0479 93.9453 76.0371L99.8725 75.2962L112.489 52.5417C112.565 52.4038 112.673 52.2859 112.804 52.1977L137.153 35.7702ZM114.122 53.7214L101.375 76.7104C101.22 76.9896 100.942 77.1782 100.625 77.2178L94.3227 78.0055L88.4706 80.3684C88.183 80.4845 87.8579 80.4607 87.5904 80.3038L68.9632 69.3811L79.886 88.0093C80.0834 88.3459 80.067 88.7664 79.844 89.0866C79.621 89.4068 79.2322 89.568 78.8481 89.4996L7.35081 76.7719L26.7094 99.9762L76.7382 106.358C77.0971 106.404 77.4034 106.64 77.5389 106.975L79.8984 112.818L83.7546 117.777L88.6051 121.525L94.3311 123.947L100.625 124.734C100.998 124.781 101.313 125.032 101.441 125.385L125.123 190.714L124.309 143.889C124.303 143.563 124.457 143.254 124.722 143.062C124.986 142.87 125.328 142.82 125.636 142.927L149.314 151.147L99.7936 101.626C99.5076 101.34 99.422 100.909 99.5768 100.536C99.7316 100.162 100.096 99.9184 100.501 99.9184H149.744L169.182 83.1789L122.11 89.5062C121.708 89.5603 121.312 89.3657 121.11 89.0138C120.908 88.6619 120.938 88.2225 121.187 87.9018L151.695 48.6131L137.674 37.8312L114.122 53.7214Z" fill="#9E68E2"/>
<path fill-rule="evenodd" clip-rule="evenodd" d="M140.554 31.7417C140.896 31.9644 141.069 32.3728 140.99 32.7733L140.634 34.5766C140.527 35.1184 140.001 35.4709 139.459 35.364C139.083 35.2897 138.798 35.0136 138.695 34.6704C138.286 34.8064 137.82 34.6658 137.56 34.2949C137.243 33.8426 137.353 33.219 137.805 32.9022L139.435 31.7606C139.769 31.5264 140.212 31.5189 140.554 31.7417ZM135.939 35.4305C136.256 35.8828 136.146 36.5064 135.694 36.8233L132.435 39.1064C131.983 39.4233 131.359 39.3135 131.042 38.8612C130.726 38.4089 130.835 37.7853 131.288 37.4684L134.547 35.1853C134.999 34.8684 135.622 34.9782 135.939 35.4305ZM139.134 37.0084C139.676 37.1154 140.029 37.6414 139.922 38.1832L139.21 41.7898C139.103 42.3316 138.577 42.6842 138.035 42.5772C137.493 42.4702 137.141 41.9443 137.247 41.4024L137.96 37.7958C138.067 37.254 138.592 36.9015 139.134 37.0084ZM129.422 39.9968C129.738 40.4491 129.629 41.0727 129.176 41.3896L125.917 43.6727C125.465 43.9896 124.842 43.8798 124.525 43.4275C124.208 42.9751 124.318 42.3516 124.77 42.0347L128.029 39.7515C128.481 39.4347 129.105 39.5444 129.422 39.9968ZM122.904 44.563C123.221 45.0154 123.111 45.6389 122.659 45.9558L119.4 48.239C118.947 48.5559 118.324 48.4461 118.007 47.9937C117.69 47.5414 117.8 46.9178 118.252 46.6009L121.511 44.3178C121.963 44.0009 122.587 44.1107 122.904 44.563ZM137.71 44.2217C138.252 44.3286 138.605 44.8546 138.498 45.3964L137.786 49.003C137.679 49.5449 137.153 49.8974 136.611 49.7904C136.069 49.6834 135.716 49.1575 135.823 48.6157L136.535 45.0091C136.642 44.4672 137.168 44.1147 137.71 44.2217ZM116.386 49.1293C116.703 49.5816 116.593 50.2052 116.141 50.5221L114.628 51.5816L113.598 52.8673C113.253 53.2983 112.623 53.3677 112.192 53.0223C111.761 52.6769 111.692 52.0476 112.037 51.6166L113.157 50.2193C113.217 50.1453 113.286 50.0801 113.364 50.0256L114.993 48.8841C115.446 48.5672 116.069 48.677 116.386 49.1293ZM136.286 51.4349C136.828 51.5419 137.18 52.0678 137.073 52.6097L136.361 56.2163C136.254 56.7581 135.729 57.1106 135.187 57.0036C134.645 56.8967 134.292 56.3707 134.399 55.8289L135.111 52.2223C135.218 51.6805 135.744 51.3279 136.286 51.4349ZM111.204 54.2562C111.635 54.6015 111.704 55.2309 111.359 55.6619L109.119 58.4564C108.774 58.8874 108.144 58.9568 107.713 58.6114C107.282 58.2661 107.213 57.6367 107.558 57.2058L109.798 54.4112C110.143 53.9802 110.773 53.9108 111.204 54.2562ZM88.7021 56.6403C89.0048 56.5792 89.3187 56.6613 89.5526 56.8629L91.0027 58.1118C91.4212 58.4722 91.4682 59.1036 91.1078 59.5221C90.7474 59.9406 90.116 59.9876 89.6975 59.6272L88.6182 58.6976L87.605 58.9022C87.0636 59.0115 86.5361 58.6613 86.4268 58.1199C86.3175 57.5786 86.6678 57.0511 87.2091 56.9418L88.7021 56.6403ZM85.4013 58.327C85.5106 58.8684 85.1603 59.3959 84.619 59.5052L81.633 60.1081C81.0916 60.2174 80.5642 59.8672 80.4548 59.3258C80.3455 58.7845 80.6958 58.257 81.2371 58.1477L84.2231 57.5447C84.7645 57.4354 85.292 57.7857 85.4013 58.327ZM134.862 58.6481C135.404 58.7551 135.756 59.2811 135.649 59.8229L134.937 63.4295C134.83 63.9713 134.304 64.3238 133.763 64.2169C133.221 64.1099 132.868 63.584 132.975 63.0421L133.687 59.4355C133.794 58.8937 134.32 58.5412 134.862 58.6481ZM79.4293 59.5329C79.5386 60.0743 79.1884 60.6017 78.647 60.7111L77.154 61.0125C77.1412 61.0151 77.1284 61.0174 77.1156 61.0195L75.2493 61.321C74.7041 61.4091 74.1907 61.0385 74.1026 60.4932C74.0146 59.948 74.3852 59.4346 74.9304 59.3466L76.7773 59.0482L78.2512 58.7506C78.7925 58.6413 79.32 58.9916 79.4293 59.5329ZM106.725 59.8453C107.156 60.1907 107.225 60.82 106.88 61.251L104.64 64.0456C104.295 64.4766 103.665 64.546 103.234 64.2006C102.804 63.8552 102.734 63.2259 103.079 62.7949L105.319 60.0003C105.664 59.5694 106.294 59.5 106.725 59.8453ZM72.3446 60.7772C72.4326 61.3225 72.062 61.8358 71.5168 61.9239L67.7843 62.5269C67.2391 62.6149 66.7257 62.2443 66.6377 61.6991C66.5496 61.1539 66.9202 60.6405 67.4654 60.5525L71.1979 59.9495C71.7431 59.8614 72.2565 60.232 72.3446 60.7772ZM92.4926 60.7148C92.853 60.2963 93.4844 60.2493 93.9029 60.6097L96.803 63.1076C97.2215 63.468 97.2685 64.0994 96.9081 64.5179C96.5477 64.9364 95.9162 64.9834 95.4978 64.623L92.5976 62.1251C92.1792 61.7647 92.1321 61.1332 92.4926 60.7148ZM64.8796 61.9831C64.9677 62.5283 64.5971 63.0417 64.0519 63.1298L62.4441 63.3895L61.1702 64.4036C60.7381 64.7476 60.109 64.6761 59.765 64.244C59.421 63.8119 59.4925 63.1828 59.9246 62.8389L61.4033 61.6617C61.5377 61.5548 61.6972 61.4842 61.8667 61.4569L63.7329 61.1554C64.2781 61.0673 64.7915 61.4379 64.8796 61.9831ZM58.3722 65.3528C58.7161 65.7849 58.6447 66.414 58.2126 66.7579L55.255 69.1123C54.8229 69.4562 54.1938 69.3848 53.8499 68.9527C53.5059 68.5206 53.5773 67.8915 54.0094 67.5475L56.967 65.1932C57.3991 64.8492 58.0282 64.9207 58.3722 65.3528ZM102.246 65.4345C102.677 65.7799 102.746 66.4092 102.401 66.8402L101.281 68.2375C101.111 68.4492 100.863 68.5829 100.593 68.6079C100.322 68.6328 100.054 68.5469 99.848 68.3698L98.3979 67.1209C97.9795 66.7604 97.9324 66.129 98.2928 65.7106C98.6533 65.2921 99.2847 65.2451 99.7031 65.6055L100.368 66.1783L100.84 65.5895C101.185 65.1585 101.815 65.0891 102.246 65.4345ZM133.438 65.8614C133.98 65.9683 134.332 66.4943 134.225 67.0361L133.964 68.3577L134.632 69.122C134.995 69.538 134.953 70.1697 134.537 70.533C134.121 70.8963 133.489 70.8536 133.126 70.4377L132.135 69.3036C131.931 69.0703 131.847 68.7559 131.907 68.452L132.263 66.6487C132.37 66.1069 132.896 65.7544 133.438 65.8614ZM52.4571 70.0614C52.801 70.4935 52.7296 71.1227 52.2975 71.4666L50.8187 72.6438C50.6736 72.7593 50.4992 72.8322 50.315 72.8543L48.3049 73.0955C47.7566 73.1613 47.2587 72.7701 47.1929 72.2217C47.1271 71.6734 47.5183 71.1755 48.0667 71.1097L49.7951 70.9023L51.0519 69.9019C51.484 69.5579 52.1131 69.6293 52.4571 70.0614ZM135.202 71.2949C135.618 70.9316 136.25 70.9742 136.613 71.3902L138.594 73.6584C138.957 74.0744 138.915 74.7061 138.499 75.0694C138.083 75.4327 137.451 75.39 137.088 74.9741L135.107 72.7059C134.743 72.2899 134.786 71.6582 135.202 71.2949ZM45.1585 72.4658C45.2243 73.0142 44.8331 73.512 44.2848 73.5778L40.2646 74.0602C39.7162 74.126 39.2184 73.7348 39.1526 73.1864C39.0868 72.6381 39.478 72.1402 40.0263 72.0744L44.0465 71.5921C44.5949 71.5263 45.0927 71.9175 45.1585 72.4658ZM37.1182 73.4305C37.184 73.9789 36.7928 74.4767 36.2444 74.5425L32.2242 75.0249C31.6759 75.0907 31.178 74.6995 31.1122 74.1511C31.0464 73.6028 31.4376 73.1049 31.986 73.0391L36.0062 72.5568C36.5545 72.491 37.0524 72.8822 37.1182 73.4305ZM29.0778 74.3952C29.1436 74.9436 28.7524 75.4414 28.2041 75.5072L24.1839 75.9896C23.6355 76.0554 23.1377 75.6642 23.0719 75.1158C23.0061 74.5675 23.3973 74.0696 23.9456 74.0038L27.9658 73.5215C28.5142 73.4557 29.012 73.8469 29.0778 74.3952ZM21.0375 75.3599C21.1033 75.9083 20.7121 76.4061 20.1637 76.4719L16.1436 76.9543C15.5952 77.0201 15.0973 76.6289 15.0315 76.0805C14.9658 75.5322 15.3569 75.0343 15.9053 74.9685L19.9255 74.4862C20.4738 74.4204 20.9717 74.8116 21.0375 75.3599ZM12.9971 76.3246C13.0629 76.873 12.6717 77.3708 12.1234 77.4366L12.101 77.4393L12.1667 77.5079C12.5487 77.9068 12.535 78.5398 12.1361 78.9218C11.7372 79.3038 11.1041 79.29 10.7222 78.8911L9.27189 77.3765C9.00983 77.1029 8.92496 76.7046 9.0527 76.3478C9.18043 75.9911 9.49882 75.7372 9.87504 75.6921L11.8851 75.4509C12.4335 75.3851 12.9313 75.7763 12.9971 76.3246ZM139.164 75.8313C139.58 75.468 140.212 75.5107 140.575 75.9266L141.269 76.7208L142.722 76.7281C143.274 76.7309 143.72 77.1809 143.717 77.7331C143.714 78.2854 143.264 78.7309 142.712 78.7281L140.808 78.7185C140.521 78.7171 140.248 78.5925 140.059 78.3764L139.069 77.2423C138.706 76.8263 138.748 76.1946 139.164 75.8313ZM145.526 77.7422C145.529 77.19 145.979 76.7445 146.531 76.7473L150.34 76.7664C150.893 76.7692 151.338 77.2191 151.335 77.7714C151.333 78.3237 150.883 78.7692 150.33 78.7664L146.521 78.7472C145.969 78.7445 145.524 78.2945 145.526 77.7422ZM153.145 77.7805C153.147 77.2282 153.597 76.7828 154.15 76.7855L157.959 76.8047C158.511 76.8075 158.956 77.2574 158.954 77.8097C158.951 78.362 158.501 78.8074 157.949 78.8047L154.14 78.7855C153.587 78.7827 153.142 78.3328 153.145 77.7805ZM160.763 77.8188C160.766 77.2665 161.216 76.8211 161.768 76.8238L165.577 76.843C166.129 76.8457 166.575 77.2957 166.572 77.848C166.569 78.4003 166.119 78.8457 165.567 78.8429L161.758 78.8238C161.206 78.821 160.76 78.3711 160.763 77.8188ZM168.381 77.8571C168.384 77.3048 168.834 76.8593 169.386 76.8621L173.195 76.8813C173.748 76.884 174.193 77.334 174.19 77.8863C174.188 78.4385 173.738 78.884 173.185 78.8812L169.376 78.8621C168.824 78.8593 168.378 78.4094 168.381 77.8571ZM175.999 77.8954C176.002 77.3431 176.452 76.8976 177.004 76.9004L180.814 76.9195C181.366 76.9223 181.811 77.3723 181.809 77.9245C181.806 78.4768 181.356 78.9223 180.804 78.9195L176.994 78.9004C176.442 78.8976 175.997 78.4476 175.999 77.8954ZM183.618 77.9336C183.621 77.3814 184.07 76.9359 184.623 76.9387L186.527 76.9482C187.013 76.9507 187.427 77.302 187.508 77.7811L187.833 79.6953C187.925 80.2398 187.559 80.756 187.014 80.8484C186.469 80.9407 185.953 80.5741 185.861 80.0296L185.677 78.944L184.613 78.9387C184.06 78.9359 183.615 78.4859 183.618 77.9336ZM13.6534 80.5065C14.0523 80.1245 14.6853 80.1382 15.0673 80.5371L17.9679 83.5663C18.3498 83.9652 18.3361 84.5982 17.9372 84.9802C17.5383 85.3622 16.9053 85.3484 16.5233 84.9495L13.6227 81.9203C13.2408 81.5214 13.2545 80.8884 13.6534 80.5065ZM187.329 82.7049C187.873 82.6126 188.39 82.9791 188.482 83.5237L189.131 87.352C189.223 87.8965 188.857 88.4128 188.312 88.5051C187.768 88.5974 187.251 88.2309 187.159 87.6863L186.51 83.858C186.418 83.3134 186.784 82.7972 187.329 82.7049ZM19.4546 86.5649C19.8535 86.1829 20.4865 86.1966 20.8684 86.5955L23.769 89.6247C24.151 90.0236 24.1372 90.6566 23.7383 91.0386C23.3394 91.4206 22.7064 91.4068 22.3245 91.0079L19.4239 87.9787C19.0419 87.5798 19.0557 86.9468 19.4546 86.5649ZM188.627 90.3616C189.171 90.2693 189.688 90.6359 189.78 91.1804L190.429 95.0088C190.521 95.5533 190.155 96.0696 189.61 96.1619C189.066 96.2542 188.549 95.8876 188.457 95.3431L187.808 91.5147C187.716 90.9702 188.082 90.454 188.627 90.3616ZM25.2557 92.6232C25.6546 92.2413 26.2876 92.255 26.6696 92.6539L29.5702 95.6831C29.9521 96.082 29.9384 96.715 29.5395 97.097C29.1406 97.479 28.5076 97.4652 28.1256 97.0663L25.225 94.0371C24.8431 93.6382 24.8568 93.0052 25.2557 92.6232ZM189.925 98.0184C190.47 97.9261 190.986 98.2927 191.078 98.8372L191.403 100.751C191.479 101.201 191.241 101.646 190.824 101.832L189.136 102.584C188.632 102.809 188.04 102.582 187.816 102.078C187.591 101.573 187.817 100.982 188.322 100.757L189.301 100.321L189.106 99.1715C189.014 98.627 189.381 98.1107 189.925 98.0184ZM31.0568 98.6816C31.4557 98.2997 32.0888 98.3134 32.4707 98.7123L33.8528 100.156L35.3319 101.19C35.7844 101.507 35.8947 102.13 35.5782 102.583C35.2617 103.035 34.6382 103.146 34.1856 102.829L32.6256 101.738C32.5718 101.7 32.5219 101.658 32.4765 101.61L31.0262 100.096C30.6442 99.6966 30.6579 99.0636 31.0568 98.6816ZM99.6348 100.418C99.8612 100.026 100.322 99.8355 100.759 99.9526L102.765 100.49C103.299 100.633 103.615 101.181 103.472 101.715C103.399 101.989 103.218 102.206 102.987 102.333C103.01 102.615 102.913 102.904 102.697 103.119C102.306 103.51 101.673 103.509 101.283 103.118L99.7927 101.625C99.4732 101.305 99.4084 100.81 99.6348 100.418ZM105.552 102.272C105.695 101.738 106.243 101.422 106.777 101.565L110.788 102.639C111.322 102.782 111.638 103.331 111.495 103.864C111.352 104.398 110.804 104.714 110.271 104.571L106.259 103.497C105.726 103.354 105.409 102.805 105.552 102.272ZM186.267 102.768C186.492 103.273 186.265 103.864 185.761 104.089L182.385 105.593C181.881 105.818 181.289 105.592 181.064 105.087C180.84 104.583 181.066 103.991 181.571 103.767L184.946 102.262C185.451 102.037 186.042 102.264 186.267 102.768ZM37.0592 103.618C37.3758 103.166 37.9992 103.056 38.4518 103.372L41.5718 105.554C42.0244 105.871 42.1347 106.494 41.8181 106.947C41.5016 107.399 40.8781 107.51 40.4255 107.193L37.3056 105.011C36.853 104.695 36.7427 104.071 37.0592 103.618ZM113.575 104.421C113.718 103.888 114.266 103.571 114.8 103.714L118.811 104.789C119.344 104.932 119.661 105.48 119.518 106.013C119.375 106.547 118.827 106.864 118.293 106.721L114.282 105.646C113.749 105.503 113.432 104.955 113.575 104.421ZM104.264 104.69C104.655 104.3 105.288 104.3 105.678 104.691L108.658 107.677C109.048 108.068 109.047 108.702 108.656 109.092C108.265 109.482 107.632 109.481 107.242 109.09L104.262 106.104C103.872 105.713 103.873 105.08 104.264 104.69ZM179.516 105.777C179.741 106.282 179.514 106.873 179.009 107.098L175.634 108.603C175.129 108.827 174.538 108.601 174.313 108.096C174.089 107.592 174.315 107.001 174.82 106.776L178.195 105.271C178.7 105.046 179.291 105.273 179.516 105.777ZM121.598 106.571C121.741 106.037 122.289 105.721 122.823 105.863L126.834 106.938C127.367 107.081 127.684 107.629 127.541 108.163C127.398 108.696 126.85 109.013 126.316 108.87L122.305 107.795C121.771 107.652 121.455 107.104 121.598 106.571ZM43.2992 107.983C43.6157 107.53 44.2392 107.42 44.6918 107.736L47.8117 109.918C48.2643 110.235 48.3746 110.858 48.0581 111.311C47.7416 111.764 47.1181 111.874 46.6655 111.557L43.5455 109.375C43.0929 109.059 42.9827 108.435 43.2992 107.983ZM129.621 108.72C129.764 108.187 130.312 107.87 130.845 108.013L134.857 109.088C135.39 109.231 135.707 109.779 135.564 110.312C135.421 110.846 134.873 111.162 134.339 111.019L130.328 109.945C129.794 109.802 129.478 109.254 129.621 108.72ZM172.765 108.787C172.989 109.291 172.763 109.882 172.258 110.107L168.883 111.612C168.378 111.837 167.787 111.61 167.562 111.105C167.337 110.601 167.564 110.01 168.069 109.785L171.444 108.28C171.949 108.056 172.54 108.282 172.765 108.787ZM137.644 110.869C137.787 110.336 138.335 110.019 138.868 110.162L142.88 111.237C143.413 111.38 143.73 111.928 143.587 112.462C143.444 112.995 142.896 113.312 142.362 113.169L138.351 112.094C137.817 111.951 137.501 111.403 137.644 110.869ZM110.223 110.662C110.614 110.272 111.247 110.273 111.637 110.664L114.617 113.65C115.007 114.041 115.006 114.674 114.615 115.064C114.225 115.454 113.591 115.453 113.201 115.062L110.222 112.076C109.831 111.685 109.832 111.052 110.223 110.662ZM166.014 111.796C166.238 112.3 166.012 112.891 165.507 113.116L162.132 114.621C161.627 114.846 161.036 114.619 160.811 114.115C160.586 113.61 160.813 113.019 161.317 112.794L164.693 111.29C165.197 111.065 165.789 111.291 166.014 111.796ZM49.5391 112.347C49.8557 111.894 50.4791 111.784 50.9317 112.1L52.2221 113.003L54.1519 112.954C54.704 112.94 55.1629 113.376 55.177 113.928C55.191 114.48 54.7548 114.939 54.2027 114.953L51.944 115.011C51.7304 115.016 51.5206 114.953 51.3455 114.83L49.7855 113.739C49.3329 113.423 49.2226 112.799 49.5391 112.347ZM145.667 113.019C145.81 112.485 146.358 112.169 146.891 112.312L150.903 113.386C151.436 113.529 151.753 114.078 151.61 114.611C151.467 115.145 150.919 115.461 150.385 115.318L146.374 114.244C145.84 114.101 145.524 113.552 145.667 113.019ZM79.7168 112.601C79.9094 112.787 80.0198 113.042 80.0232 113.309L80.0519 115.549C80.059 116.101 79.6171 116.554 79.0648 116.562C78.5126 116.569 78.0592 116.127 78.0521 115.574L78.0364 114.347L76.79 114.379C76.2379 114.393 75.7789 113.957 75.7649 113.405C75.7509 112.853 76.1871 112.394 76.7392 112.38L78.9979 112.322C79.2652 112.315 79.5241 112.416 79.7168 112.601ZM73.2468 113.469C73.2608 114.021 72.8246 114.48 72.2725 114.494L67.7551 114.609C67.203 114.623 66.744 114.186 66.73 113.634C66.716 113.082 67.1522 112.623 67.7043 112.609L72.2217 112.494C72.7738 112.48 73.2328 112.917 73.2468 113.469ZM64.2119 113.698C64.2259 114.251 63.7897 114.709 63.2376 114.723L58.7202 114.838C58.1681 114.852 57.7091 114.416 57.6951 113.864C57.681 113.312 58.1172 112.853 58.6693 112.839L63.1868 112.724C63.7389 112.71 64.1979 113.146 64.2119 113.698ZM159.262 114.805C159.487 115.309 159.261 115.901 158.756 116.126L157.068 116.878C156.859 116.971 156.624 116.99 156.403 116.93L154.397 116.393C153.863 116.25 153.547 115.702 153.69 115.168C153.833 114.635 154.381 114.318 154.914 114.461L156.578 114.907L157.942 114.299C158.446 114.074 159.038 114.301 159.262 114.805ZM116.182 116.634C116.573 116.244 117.207 116.245 117.597 116.636L120.576 119.622C120.966 120.013 120.966 120.646 120.575 121.036C120.184 121.426 119.551 121.426 119.161 121.035L116.181 118.048C115.791 117.658 115.792 117.024 116.182 116.634ZM79.0966 119.041C79.6489 119.034 80.1023 119.476 80.1094 120.028L80.1345 121.986L81.1611 123.614C81.4558 124.081 81.3159 124.698 80.8488 124.993C80.3817 125.288 79.7642 125.148 79.4695 124.681L78.2924 122.814C78.1939 122.658 78.1406 122.478 78.1382 122.294L78.1095 120.054C78.1024 119.502 78.5444 119.048 79.0966 119.041ZM122.142 122.607C122.533 122.216 123.166 122.217 123.556 122.608L126.536 125.594C126.926 125.985 126.925 126.618 126.534 127.008C126.143 127.398 125.51 127.398 125.12 127.007L122.14 124.021C121.75 123.63 121.751 122.997 122.142 122.607ZM82.1362 127.034C82.6033 126.739 83.2208 126.879 83.5155 127.346L84.6992 129.223L86.2498 131.749C86.5387 132.22 86.3913 132.836 85.9206 133.125C85.4499 133.414 84.8341 133.266 84.5452 132.796L83.001 130.279L82.9945 130.269L81.8239 128.413C81.5292 127.946 81.669 127.329 82.1362 127.034ZM128.101 128.579C128.492 128.189 129.125 128.189 129.515 128.58L132.495 131.566C132.885 131.957 132.884 132.59 132.493 132.981C132.103 133.371 131.469 133.37 131.079 132.979L128.1 129.993C127.709 129.602 127.71 128.969 128.101 128.579ZM134.06 134.551C134.451 134.161 135.085 134.162 135.475 134.552L138.454 137.539C138.844 137.93 138.844 138.563 138.453 138.953C138.062 139.343 137.429 139.342 137.039 138.951L134.059 135.965C133.669 135.574 133.67 134.941 134.06 134.551ZM87.9758 136.473C88.4465 136.185 89.0623 136.332 89.3512 136.803L90.7978 139.16L91.9431 139.99C92.3902 140.315 92.4898 140.94 92.1655 141.387C91.8413 141.834 91.216 141.934 90.7689 141.609L89.4625 140.662C89.3562 140.585 89.2661 140.487 89.1973 140.375L87.6467 137.849C87.3578 137.378 87.5051 136.762 87.9758 136.473ZM123.264 140.396C123.548 140.208 123.908 140.178 124.219 140.316L126.114 141.156C126.619 141.38 126.847 141.971 126.624 142.476C126.4 142.98 125.809 143.208 125.304 142.985L124.833 142.776L124.838 143.252C124.845 143.804 124.402 144.257 123.85 144.264C123.298 144.27 122.845 143.828 122.838 143.276L122.814 141.242C122.81 140.902 122.98 140.583 123.264 140.396ZM140.02 140.523C140.411 140.133 141.044 140.134 141.434 140.525L144.414 143.511C144.804 143.902 144.803 144.535 144.412 144.925C144.021 145.315 143.388 145.314 142.998 144.924L140.018 141.937C139.628 141.546 139.629 140.913 140.02 140.523ZM93.1592 142.108C93.4835 141.661 94.1088 141.561 94.5559 141.885L97.1686 143.78C97.6157 144.104 97.7152 144.73 97.391 145.177C97.0667 145.624 96.4415 145.724 95.9944 145.399L93.3816 143.504C92.9346 143.18 92.835 142.555 93.1592 142.108ZM128.585 143.345C128.809 142.84 129.4 142.612 129.905 142.836L133.695 144.516C134.2 144.739 134.427 145.33 134.204 145.835C133.98 146.34 133.389 146.568 132.884 146.344L129.094 144.664C128.589 144.441 128.361 143.85 128.585 143.345ZM98.3847 145.898C98.709 145.451 99.3343 145.351 99.7813 145.675L101.088 146.623C101.205 146.708 101.302 146.817 101.373 146.943L102.368 148.718C102.638 149.2 102.467 149.809 101.985 150.079C101.503 150.35 100.894 150.178 100.624 149.696L99.7358 148.113L98.6071 147.294C98.16 146.97 98.0605 146.345 98.3847 145.898ZM136.165 146.704C136.389 146.2 136.98 145.972 137.485 146.195L141.275 147.875C141.78 148.099 142.008 148.69 141.784 149.195C141.56 149.7 140.969 149.927 140.464 149.704L136.674 148.024C136.169 147.8 135.941 147.209 136.165 146.704ZM145.979 146.495C146.37 146.105 147.003 146.106 147.393 146.497L150.373 149.483C150.763 149.874 150.762 150.507 150.372 150.897C149.981 151.287 149.347 151.287 148.957 150.896L145.978 147.91C145.588 147.519 145.588 146.886 145.979 146.495ZM123.874 146.331C124.427 146.324 124.88 146.767 124.886 147.319L124.934 151.386C124.941 151.938 124.498 152.391 123.946 152.398C123.394 152.404 122.941 151.962 122.934 151.409L122.886 147.343C122.88 146.79 123.322 146.337 123.874 146.331ZM143.745 150.064C143.969 149.559 144.56 149.331 145.065 149.555L148.855 151.235C149.36 151.458 149.588 152.049 149.364 152.554C149.14 153.059 148.549 153.287 148.044 153.063L144.254 151.383C143.749 151.16 143.522 150.569 143.745 150.064ZM102.998 151.885C103.479 151.615 104.089 151.786 104.359 152.268L106.35 155.818C106.62 156.3 106.448 156.909 105.967 157.18C105.485 157.45 104.875 157.278 104.605 156.796L102.615 153.246C102.344 152.765 102.516 152.155 102.998 151.885ZM151.939 152.468C152.329 152.078 152.963 152.078 153.353 152.469L154.843 153.962C155.183 154.303 155.232 154.838 154.959 155.235C154.686 155.632 154.17 155.778 153.729 155.583L151.834 154.743C151.33 154.519 151.102 153.928 151.325 153.424C151.401 153.254 151.517 153.116 151.658 153.015C151.69 152.815 151.784 152.622 151.939 152.468ZM123.97 154.465C124.523 154.458 124.976 154.901 124.982 155.453L125.03 159.52C125.036 160.072 124.594 160.525 124.042 160.531C123.49 160.538 123.037 160.095 123.03 159.543L122.982 155.476C122.976 154.924 123.418 154.471 123.97 154.465ZM106.979 158.985C107.461 158.715 108.07 158.887 108.34 159.368L110.331 162.918C110.601 163.4 110.43 164.01 109.948 164.28C109.466 164.55 108.857 164.378 108.587 163.897L106.596 160.347C106.326 159.865 106.497 159.255 106.979 158.985ZM124.066 162.598C124.618 162.592 125.071 163.034 125.078 163.587L125.126 167.653C125.132 168.206 124.69 168.659 124.138 168.665C123.585 168.672 123.133 168.229 123.126 167.677L123.078 163.61C123.072 163.058 123.514 162.605 124.066 162.598ZM110.961 166.085C111.442 165.815 112.052 165.987 112.322 166.468L114.313 170.019C114.583 170.5 114.411 171.11 113.93 171.38C113.448 171.65 112.838 171.478 112.568 170.997L110.578 167.447C110.307 166.965 110.479 166.355 110.961 166.085ZM124.162 170.732C124.714 170.726 125.167 171.168 125.174 171.72L125.222 175.787C125.228 176.339 124.786 176.792 124.234 176.799C123.681 176.805 123.228 176.363 123.222 175.811L123.174 171.744C123.167 171.192 123.61 170.739 124.162 170.732ZM114.942 173.185C115.424 172.915 116.033 173.087 116.303 173.569L118.294 177.119C118.564 177.6 118.393 178.21 117.911 178.48C117.429 178.75 116.82 178.579 116.55 178.097L114.559 174.547C114.289 174.065 114.46 173.456 114.942 173.185ZM124.258 178.866C124.81 178.859 125.263 179.302 125.27 179.854L125.318 183.921C125.324 184.473 124.882 184.926 124.33 184.933C123.777 184.939 123.324 184.497 123.318 183.945L123.27 179.878C123.263 179.325 123.706 178.872 124.258 178.866ZM118.924 180.286C119.405 180.016 120.015 180.187 120.285 180.669L122.276 184.219C122.546 184.701 122.374 185.31 121.893 185.58C121.411 185.85 120.801 185.679 120.531 185.197L118.541 181.647C118.27 181.165 118.442 180.556 118.924 180.286ZM124.354 187C124.906 186.993 125.359 187.436 125.366 187.988L125.39 190.021C125.395 190.478 125.09 190.881 124.648 190.999C124.207 191.117 123.741 190.921 123.517 190.522L122.522 188.747C122.252 188.265 122.423 187.656 122.905 187.386C123.144 187.252 123.413 187.227 123.658 187.293C123.836 187.115 124.082 187.003 124.354 187Z" fill="#7B7B7B"/>
<path d="M213.701 112.06C213.081 112.06 212.621 112.46 212.281 112.94L211.041 111.8C211.561 110.94 212.381 110.32 213.781 110.32C216.061 110.32 216.761 111.72 216.761 113.72V114.88C216.761 116.36 216.361 117.1 215.261 117.36C216.241 117.54 216.861 118.44 216.861 119.98V121.44C216.861 123.58 216.181 125.26 213.661 125.26C212.241 125.26 211.341 124.44 210.961 123.8L212.261 122.52C212.561 122.94 213.061 123.46 213.701 123.46C214.581 123.46 214.861 122.86 214.861 121.44V120.44C214.861 118.46 214.321 118.44 213.121 118.44H212.841V116.6H213.121C214.201 116.6 214.761 116.58 214.761 114.62V113.78C214.761 112.78 214.561 112.06 213.701 112.06Z" fill="black"/>
<path d="M207.173 112.22C207.033 112.18 206.593 112.12 206.233 112.12C205.313 112.12 205.273 112.82 205.273 113.86V115.02H206.993V116.8H205.273V125H203.373V116.8H202.273V115.36L203.373 115.1V113.6C203.373 111.28 204.073 110.32 205.993 110.32C206.553 110.32 207.113 110.5 207.173 110.52V112.22Z" fill="black"/>
<path d="M201.635 118.3V121.74C201.635 124.2 200.795 125.26 198.795 125.26C196.775 125.26 195.955 124.14 195.955 121.74V118.3C195.955 115.9 196.775 114.78 198.795 114.78C200.795 114.78 201.635 115.84 201.635 118.3ZM197.915 118.08V121.92C197.915 122.94 198.055 123.54 198.795 123.54C199.615 123.54 199.675 122.92 199.675 121.92V118.08C199.675 117.08 199.615 116.46 198.795 116.46C198.055 116.46 197.915 117.06 197.915 118.08Z" fill="black"/>
<path d="M215.476 108.02C215.096 108.14 214.536 108.26 213.976 108.26C212.656 108.26 212.016 107.8 212.016 105.98V99.8004H210.916V98.3604L212.036 98.1004L212.236 95.8404L213.916 95.4404V98.0204H215.436V99.8004H213.916V105.62C213.916 106.32 214.076 106.48 214.716 106.48C214.936 106.48 215.316 106.44 215.476 106.42V108.02Z" fill="black"/>
<path d="M204.836 98.0205H206.736V104.981C206.736 106.041 206.896 106.201 207.376 106.201C207.696 106.201 207.996 106.021 208.236 105.801V98.0205H210.136V108.001H208.796L208.596 107.101C208.196 107.601 207.616 108.241 206.716 108.241C204.956 108.241 204.836 106.981 204.836 105.701V98.0205Z" fill="black"/>
<path d="M203.618 101.3V104.74C203.618 107.2 202.778 108.26 200.778 108.26C198.757 108.26 197.938 107.14 197.938 104.74V101.3C197.938 98.9003 198.757 97.7803 200.778 97.7803C202.778 97.7803 203.618 98.8403 203.618 101.3ZM199.898 101.08V104.92C199.898 105.94 200.037 106.54 200.778 106.54C201.598 106.54 201.658 105.92 201.658 104.92V101.08C201.658 100.08 201.598 99.4603 200.778 99.4603C200.037 99.4603 199.898 100.06 199.898 101.08Z" fill="black"/>
<path d="M206.158 78.0603C205.498 78.0603 205.018 78.4603 204.678 78.9003L203.418 77.7403C203.938 76.9603 204.758 76.3203 206.418 76.3203C208.218 76.3203 209.518 77.2603 209.518 79.9603C209.518 83.0203 208.538 83.6203 206.958 85.2003C205.958 86.2003 205.678 86.9003 205.678 88.3403V89.1203H209.298V91.0003H203.738V88.7003C203.738 86.2403 204.278 85.2003 205.538 83.9403C206.418 83.0603 207.458 82.2403 207.458 80.2403C207.458 78.5803 206.998 78.0603 206.158 78.0603Z" fill="black"/>
<path fill-rule="evenodd" clip-rule="evenodd" d="M186.266 102.21L177.96 102.719L177.899 101.721L186.205 101.211L186.266 102.21Z" fill="black"/>
</svg>
