<svg width="220" height="202" viewBox="0 0 220 202" fill="none" xmlns="http://www.w3.org/2000/svg">
<path fill-rule="evenodd" clip-rule="evenodd" d="M75.3535 100.821C75.3535 86.7705 86.7437 75.3804 100.794 75.3804C114.845 75.3804 126.235 86.7705 126.235 100.821C126.235 114.872 114.845 126.262 100.794 126.262C86.7437 126.262 75.3535 114.872 75.3535 100.821ZM100.794 76.3804C87.296 76.3804 76.3535 87.3228 76.3535 100.821C76.3535 114.319 87.296 125.262 100.794 125.262C114.292 125.262 125.235 114.319 125.235 100.821C125.235 87.3228 114.292 76.3804 100.794 76.3804Z" fill="#CCCCCC"/>
<path fill-rule="evenodd" clip-rule="evenodd" d="M50.4141 100.821C50.4141 72.9964 72.9706 50.4399 100.795 50.4399C128.62 50.4399 151.177 72.9964 151.177 100.821C151.177 128.646 128.62 151.203 100.795 151.203C72.9706 151.203 50.4141 128.646 50.4141 100.821ZM100.795 51.4399C73.5229 51.4399 51.4141 73.5487 51.4141 100.821C51.4141 128.094 73.5229 150.203 100.795 150.203C128.068 150.203 150.177 128.094 150.177 100.821C150.177 73.5487 128.068 51.4399 100.795 51.4399Z" fill="#CCCCCC"/>
<path fill-rule="evenodd" clip-rule="evenodd" d="M25.4727 100.821C25.4727 59.2219 59.1955 25.499 100.795 25.499C142.394 25.499 176.117 59.2219 176.117 100.821C176.117 142.42 142.394 176.143 100.795 176.143C59.1955 176.143 25.4727 142.42 25.4727 100.821ZM100.795 26.499C59.7478 26.499 26.4727 59.7741 26.4727 100.821C26.4727 141.868 59.7478 175.143 100.795 175.143C141.842 175.143 175.117 141.868 175.117 100.821C175.117 59.7741 141.842 26.499 100.795 26.499Z" fill="#CCCCCC"/>
<path fill-rule="evenodd" clip-rule="evenodd" d="M0.533203 100.821C0.533203 45.4478 45.4224 0.558594 100.796 0.558594C156.17 0.558594 201.059 45.4478 201.059 100.821C201.059 156.195 156.17 201.084 100.796 201.084C45.4224 201.084 0.533203 156.195 0.533203 100.821ZM100.796 1.55859C45.9746 1.55859 1.5332 46 1.5332 100.821C1.5332 155.643 45.9746 200.084 100.796 200.084C155.617 200.084 200.059 155.643 200.059 100.821C200.059 46 155.617 1.55859 100.796 1.55859Z" fill="#CCCCCC"/>
<path fill-rule="evenodd" clip-rule="evenodd" d="M100.5 97.2021V1H101.5V97.2021L126.399 4.27801L127.365 4.53683L102.466 97.4609L150.567 14.1475L151.433 14.6475L103.332 97.9609L171.357 29.9358L172.064 30.6429L104.039 98.668L187.353 50.567L187.853 51.433L104.539 99.5341L197.463 74.6351L197.722 75.6011L104.798 100.5H201V101.5H104.798L197.722 126.399L197.463 127.365L104.539 102.466L187.853 150.567L187.353 151.433L104.039 103.332L172.064 171.357L171.357 172.064L103.332 104.039L151.433 187.353L150.567 187.853L102.466 104.539L127.365 197.463L126.399 197.722L101.5 104.798V201H100.5V104.798L75.6011 197.722L74.6351 197.463L99.5341 104.539L51.433 187.853L50.567 187.353L98.668 104.039L30.6429 172.064L29.9358 171.357L97.9609 103.332L14.6475 151.433L14.1475 150.567L97.4609 102.466L4.53683 127.365L4.27801 126.399L97.2021 101.5H1V100.5H97.2021L4.27801 75.6011L4.53683 74.6351L97.4609 99.5341L14.1475 51.433L14.6475 50.567L97.9609 98.668L29.9358 30.6429L30.6429 29.9358L98.668 97.9609L50.567 14.6475L51.433 14.1475L99.5341 97.4609L74.6351 4.53683L75.6011 4.27801L100.5 97.2021Z" fill="#CCCCCC"/>
<path d="M88.5988 54.2901L101.118 69.5645L115.589 47.2845L142.234 29.7085L133.621 68.5309L145.105 75.5365L194.594 75.8811L190.585 100.919L159.576 116.654L101.118 100.919L150.733 150.534L122.939 138.704L126.156 194.397L101.118 149.27L94.2273 126.645L93.8828 113.552L89.173 112.977L94.9164 104.594L49.7798 114.7L35.8834 100.919L14.7461 77.8334L38.2952 64.741L63.3327 63.1332L75.736 56.9315L88.5988 54.2901Z" fill="#41B464" fill-opacity="0.26"/>
<path fill-rule="evenodd" clip-rule="evenodd" d="M142.801 28.8849C143.137 29.1159 143.299 29.5274 143.21 29.9251L134.752 68.0495L145.389 74.5385L194.601 74.8811C194.893 74.8831 195.169 75.0123 195.358 75.2349C195.546 75.4575 195.628 75.7512 195.582 76.0392L191.573 101.077C191.522 101.393 191.323 101.665 191.038 101.81L160.028 117.545C159.808 117.657 159.554 117.683 159.316 117.619L104.47 102.856L151.44 149.827C151.778 150.166 151.829 150.697 151.561 151.094C151.293 151.491 150.782 151.642 150.341 151.454L124.03 140.255L127.154 194.34C127.181 194.805 126.882 195.228 126.434 195.358C125.986 195.488 125.508 195.29 125.281 194.882L100.244 149.755C100.21 149.693 100.182 149.628 100.161 149.561L93.2707 126.936C93.2445 126.85 93.2301 126.761 93.2277 126.671L92.9058 114.44L89.052 113.97C88.7052 113.928 88.4056 113.708 88.2617 113.389C88.1179 113.071 88.1506 112.7 88.348 112.412L92.6554 106.125L49.9983 115.676C49.6655 115.75 49.3177 115.65 49.0756 115.41L35.1793 101.629C35.1679 101.617 35.1568 101.606 35.1459 101.594L14.0086 78.5087C13.8019 78.2831 13.71 77.9752 13.759 77.6731C13.8081 77.3711 13.9927 77.1081 14.2602 76.9594L37.8093 63.867C37.939 63.7949 38.0831 63.7526 38.2311 63.7431L63.0666 62.1482L75.2888 56.0371C75.3668 55.9981 75.4495 55.9695 75.5349 55.952L88.3976 53.3105C88.7615 53.2358 89.1367 53.3689 89.3722 53.6562L101.024 67.8728L114.75 46.7398C114.825 46.6243 114.923 46.5256 115.038 46.4497L141.683 28.8737C142.023 28.6494 142.466 28.6538 142.801 28.8849ZM116.314 48.0043L101.957 70.1092C101.783 70.3768 101.492 70.5454 101.173 70.563C100.855 70.5806 100.547 70.4452 100.345 70.1984L88.2083 55.3911L76.0658 57.8847L63.7799 64.0276C63.6604 64.0874 63.5301 64.1226 63.3968 64.1311L38.5842 65.7245L16.3388 78.0921L36.6047 100.225L50.0954 113.605L94.6979 103.618C95.0989 103.528 95.514 103.693 95.7444 104.033C95.9749 104.373 95.9736 104.82 95.7414 105.159L90.9286 112.184L94.0038 112.559C94.4957 112.619 94.8694 113.03 94.8825 113.525L95.2234 126.483L102.044 148.877L124.905 190.081L121.94 138.762C121.92 138.416 122.08 138.085 122.363 137.886C122.646 137.687 123.012 137.648 123.33 137.784L146.378 147.594L100.411 101.626C100.091 101.305 100.026 100.81 100.252 100.418C100.479 100.026 100.941 99.8352 101.378 99.9529L159.465 115.588L189.678 100.257L193.423 76.8729L145.098 76.5365C144.917 76.5352 144.739 76.4847 144.584 76.3902L133.1 69.3846C132.735 69.162 132.552 68.7318 132.644 68.3143L140.723 31.9033L116.314 48.0043Z" fill="#41B464"/>
<path fill-rule="evenodd" clip-rule="evenodd" d="M141.172 31.7417C141.514 31.9644 141.686 32.3728 141.607 32.7733L141.251 34.5766C141.144 35.1184 140.618 35.4709 140.076 35.364C139.7 35.2897 139.415 35.0136 139.312 34.6704C138.903 34.8064 138.437 34.6658 138.177 34.2949C137.861 33.8426 137.97 33.219 138.423 32.9022L140.052 31.7606C140.386 31.5264 140.83 31.5189 141.172 31.7417ZM136.557 35.4305C136.873 35.8828 136.764 36.5064 136.311 36.8233L133.052 39.1064C132.6 39.4233 131.977 39.3135 131.66 38.8612C131.343 38.4089 131.453 37.7853 131.905 37.4684L135.164 35.1853C135.616 34.8684 136.24 34.9782 136.557 35.4305ZM139.751 37.0084C140.293 37.1154 140.646 37.6414 140.539 38.1832L139.827 41.7898C139.72 42.3316 139.194 42.6842 138.652 42.5772C138.11 42.4702 137.758 41.9443 137.865 41.4024L138.577 37.7958C138.684 37.254 139.21 36.9015 139.751 37.0084ZM130.039 39.9968C130.356 40.4491 130.246 41.0727 129.794 41.3896L126.535 43.6727C126.082 43.9896 125.459 43.8798 125.142 43.4275C124.825 42.9751 124.935 42.3516 125.387 42.0347L128.646 39.7515C129.098 39.4347 129.722 39.5444 130.039 39.9968ZM123.521 44.563C123.838 45.0154 123.728 45.6389 123.276 45.9558L120.017 48.239C119.565 48.5559 118.941 48.4461 118.624 47.9937C118.307 47.5414 118.417 46.9178 118.869 46.6009L122.128 44.3178C122.58 44.0009 123.204 44.1107 123.521 44.563ZM138.327 44.2217C138.869 44.3286 139.222 44.8546 139.115 45.3964L138.403 49.003C138.296 49.5449 137.77 49.8974 137.228 49.7904C136.686 49.6834 136.334 49.1575 136.441 48.6157L137.153 45.0091C137.26 44.4672 137.786 44.1147 138.327 44.2217ZM117.003 49.1293C117.32 49.5816 117.21 50.2052 116.758 50.5221L115.246 51.5816L114.215 52.8673C113.87 53.2983 113.241 53.3677 112.81 53.0223C112.379 52.6769 112.309 52.0476 112.655 51.6166L113.774 50.2193C113.834 50.1453 113.903 50.0801 113.981 50.0256L115.61 48.8841C116.063 48.5672 116.686 48.677 117.003 49.1293ZM136.903 51.4349C137.445 51.5419 137.798 52.0678 137.691 52.6097L136.979 56.2163C136.872 56.7581 136.346 57.1106 135.804 57.0036C135.262 56.8967 134.91 56.3707 135.017 55.8289L135.729 52.2223C135.836 51.6805 136.361 51.3279 136.903 51.4349ZM111.821 54.2562C112.252 54.6015 112.321 55.2309 111.976 55.6619L109.736 58.4564C109.391 58.8874 108.762 58.9568 108.331 58.6114C107.9 58.2661 107.83 57.6367 108.176 57.2058L110.415 54.4112C110.761 53.9802 111.39 53.9108 111.821 54.2562ZM89.3193 56.6403C89.622 56.5792 89.9359 56.6613 90.1698 56.8629L91.6199 58.1118C92.0384 58.4722 92.0854 59.1036 91.725 59.5221C91.3646 59.9406 90.7332 59.9876 90.3147 59.6272L89.2354 58.6976L88.2222 58.9022C87.6808 59.0115 87.1533 58.6613 87.044 58.1199C86.9347 57.5786 87.2849 57.0511 87.8263 56.9418L89.3193 56.6403ZM86.0185 58.327C86.1278 58.8684 85.7775 59.3959 85.2362 59.5052L82.2502 60.1081C81.7088 60.2174 81.1814 59.8672 81.072 59.3258C80.9627 58.7845 81.313 58.257 81.8543 58.1477L84.8403 57.5447C85.3817 57.4354 85.9091 57.7857 86.0185 58.327ZM135.479 58.6481C136.021 58.7551 136.374 59.2811 136.267 59.8229L135.555 63.4295C135.448 63.9713 134.922 64.3238 134.38 64.2169C133.838 64.1099 133.485 63.584 133.592 63.0421L134.304 59.4355C134.411 58.8937 134.937 58.5412 135.479 58.6481ZM80.0465 59.5329C80.1558 60.0743 79.8056 60.6017 79.2642 60.7111L77.7712 61.0125C77.7584 61.0151 77.7456 61.0174 77.7327 61.0195L75.8665 61.321C75.3213 61.4091 74.8079 61.0385 74.7198 60.4932C74.6318 59.948 75.0023 59.4346 75.5476 59.3466L77.3945 59.0482L78.8683 58.7506C79.4097 58.6413 79.9372 58.9916 80.0465 59.5329ZM107.342 59.8453C107.773 60.1907 107.842 60.82 107.497 61.251L105.257 64.0456C104.912 64.4766 104.283 64.546 103.852 64.2006C103.421 63.8552 103.351 63.2259 103.697 62.7949L105.936 60.0003C106.282 59.5694 106.911 59.5 107.342 59.8453ZM72.9618 60.7772C73.0498 61.3225 72.6792 61.8358 72.134 61.9239L68.4015 62.5269C67.8563 62.6149 67.3429 62.2443 67.2549 61.6991C67.1668 61.1539 67.5374 60.6405 68.0826 60.5525L71.8151 59.9495C72.3603 59.8614 72.8737 60.232 72.9618 60.7772ZM93.1097 60.7148C93.4702 60.2963 94.1016 60.2493 94.52 60.6097L97.4202 63.1076C97.8386 63.468 97.8857 64.0994 97.5253 64.5179C97.1648 64.9364 96.5334 64.9834 96.115 64.623L93.2148 62.1251C92.7964 61.7647 92.7493 61.1332 93.1097 60.7148ZM65.4968 61.9831C65.5849 62.5283 65.2143 63.0417 64.6691 63.1298L63.0613 63.3895L61.7874 64.4036C61.3553 64.7476 60.7261 64.6761 60.3822 64.244C60.0382 63.8119 60.1097 63.1828 60.5418 62.8389L62.0205 61.6617C62.1548 61.5548 62.3144 61.4842 62.4839 61.4569L64.3501 61.1554C64.8953 61.0673 65.4087 61.4379 65.4968 61.9831ZM58.9894 65.3528C59.3333 65.7849 59.2619 66.414 58.8298 66.7579L55.8722 69.1123C55.4401 69.4562 54.811 69.3848 54.4671 68.9527C54.1231 68.5206 54.1945 67.8915 54.6266 67.5475L57.5842 65.1932C58.0163 64.8492 58.6454 64.9207 58.9894 65.3528ZM102.863 65.4345C103.294 65.7799 103.363 66.4092 103.018 66.8402L101.898 68.2375C101.728 68.4492 101.48 68.5829 101.21 68.6079C100.94 68.6328 100.671 68.5469 100.465 68.3698L99.0151 67.1209C98.5966 66.7604 98.5496 66.129 98.91 65.7106C99.2704 65.2921 99.9019 65.2451 100.32 65.6055L100.985 66.1783L101.457 65.5895C101.803 65.1585 102.432 65.0891 102.863 65.4345ZM134.055 65.8614C134.597 65.9683 134.949 66.4943 134.842 67.0361L134.582 68.3577L135.249 69.122C135.612 69.538 135.57 70.1697 135.154 70.533C134.738 70.8963 134.106 70.8536 133.743 70.4377L132.752 69.3036C132.549 69.0703 132.464 68.7559 132.524 68.452L132.88 66.6487C132.987 66.1069 133.513 65.7544 134.055 65.8614ZM53.0742 70.0614C53.4182 70.4935 53.3468 71.1227 52.9147 71.4666L51.4359 72.6438C51.2908 72.7593 51.1164 72.8322 50.9322 72.8543L48.9221 73.0955C48.3738 73.1613 47.8759 72.7701 47.8101 72.2217C47.7443 71.6734 48.1355 71.1755 48.6839 71.1097L50.4123 70.9023L51.6691 69.9019C52.1012 69.5579 52.7303 69.6293 53.0742 70.0614ZM135.819 71.2949C136.235 70.9316 136.867 70.9742 137.23 71.3902L139.211 73.6584C139.575 74.0744 139.532 74.7061 139.116 75.0694C138.7 75.4327 138.068 75.39 137.705 74.9741L135.724 72.7059C135.361 72.2899 135.403 71.6582 135.819 71.2949ZM45.7757 72.4658C45.8415 73.0142 45.4503 73.512 44.902 73.5778L40.8818 74.0602C40.3334 74.126 39.8356 73.7348 39.7698 73.1864C39.704 72.6381 40.0952 72.1402 40.6435 72.0744L44.6637 71.5921C45.212 71.5263 45.7099 71.9175 45.7757 72.4658ZM37.7354 73.4305C37.8012 73.9789 37.41 74.4767 36.8616 74.5425L32.8414 75.0249C32.2931 75.0907 31.7952 74.6995 31.7294 74.1511C31.6636 73.6028 32.0548 73.1049 32.6032 73.0391L36.6234 72.5568C37.1717 72.491 37.6696 72.8822 37.7354 73.4305ZM29.695 74.3952C29.7608 74.9436 29.3696 75.4414 28.8213 75.5072L24.8011 75.9896C24.2527 76.0554 23.7549 75.6642 23.6891 75.1158C23.6233 74.5675 24.0145 74.0696 24.5628 74.0038L28.583 73.5215C29.1314 73.4557 29.6292 73.8469 29.695 74.3952ZM21.6547 75.3599C21.7205 75.9083 21.3293 76.4061 20.7809 76.4719L16.7607 76.9543C16.2124 77.0201 15.7145 76.6289 15.6487 76.0805C15.5829 75.5322 15.9741 75.0343 16.5225 74.9685L20.5427 74.4862C21.091 74.4204 21.5889 74.8116 21.6547 75.3599ZM13.6143 76.3246C13.6801 76.873 13.2889 77.3708 12.7406 77.4366L12.7182 77.4393L12.7839 77.5079C13.1659 77.9068 13.1521 78.5398 12.7532 78.9218C12.3543 79.3038 11.7213 79.29 11.3394 78.8911L9.88908 77.3765C9.62702 77.1029 9.54215 76.7046 9.66988 76.3478C9.79762 75.9911 10.116 75.7372 10.4922 75.6921L12.5023 75.4509C13.0507 75.3851 13.5485 75.7763 13.6143 76.3246ZM139.781 75.8313C140.197 75.468 140.829 75.5107 141.192 75.9266L141.886 76.7208L143.339 76.7281C143.892 76.7309 144.337 77.1809 144.334 77.7331C144.332 78.2854 143.882 78.7309 143.329 78.7281L141.425 78.7185C141.138 78.7171 140.865 78.5925 140.677 78.3764L139.686 77.2423C139.323 76.8263 139.365 76.1946 139.781 75.8313ZM146.144 77.7422C146.146 77.19 146.596 76.7445 147.149 76.7473L150.958 76.7664C151.51 76.7692 151.955 77.2191 151.953 77.7714C151.95 78.3237 151.5 78.7692 150.948 78.7664L147.138 78.7472C146.586 78.7445 146.141 78.2945 146.144 77.7422ZM153.762 77.7805C153.765 77.2282 154.215 76.7828 154.767 76.7855L158.576 76.8047C159.128 76.8075 159.574 77.2574 159.571 77.8097C159.568 78.362 159.118 78.8074 158.566 78.8047L154.757 78.7855C154.204 78.7827 153.759 78.3328 153.762 77.7805ZM161.38 77.8188C161.383 77.2665 161.833 76.8211 162.385 76.8238L166.194 76.843C166.747 76.8457 167.192 77.2957 167.189 77.848C167.186 78.4003 166.736 78.8457 166.184 78.8429L162.375 78.8238C161.823 78.821 161.377 78.3711 161.38 77.8188ZM168.998 77.8571C169.001 77.3048 169.451 76.8593 170.003 76.8621L173.813 76.8813C174.365 76.884 174.81 77.334 174.807 77.8863C174.805 78.4385 174.355 78.884 173.802 78.8812L169.993 78.8621C169.441 78.8593 168.996 78.4094 168.998 77.8571ZM176.617 77.8954C176.619 77.3431 177.069 76.8976 177.622 76.9004L181.431 76.9195C181.983 76.9223 182.429 77.3723 182.426 77.9245C182.423 78.4768 181.973 78.9223 181.421 78.9195L177.612 78.9004C177.059 78.8976 176.614 78.4476 176.617 77.8954ZM184.235 77.9336C184.238 77.3814 184.688 76.9359 185.24 76.9387L187.145 76.9482C187.63 76.9507 188.044 77.302 188.125 77.7811L188.45 79.6953C188.542 80.2398 188.176 80.756 187.631 80.8484C187.087 80.9407 186.57 80.5741 186.478 80.0296L186.294 78.944L185.23 78.9387C184.678 78.9359 184.232 78.4859 184.235 77.9336ZM14.2706 80.5065C14.6695 80.1245 15.3025 80.1382 15.6845 80.5371L18.5851 83.5663C18.967 83.9652 18.9533 84.5982 18.5544 84.9802C18.1555 85.3622 17.5225 85.3484 17.1405 84.9495L14.2399 81.9203C13.858 81.5214 13.8717 80.8884 14.2706 80.5065ZM187.946 82.7049C188.49 82.6126 189.007 82.9791 189.099 83.5237L189.748 87.352C189.84 87.8965 189.474 88.4128 188.929 88.5051C188.385 88.5974 187.869 88.2309 187.776 87.6863L187.127 83.858C187.035 83.3134 187.401 82.7972 187.946 82.7049ZM20.0717 86.5649C20.4706 86.1829 21.1037 86.1966 21.4856 86.5955L24.3862 89.6247C24.7682 90.0236 24.7544 90.6566 24.3555 91.0386C23.9566 91.4206 23.3236 91.4068 22.9417 91.0079L20.0411 87.9787C19.6591 87.5798 19.6728 86.9468 20.0717 86.5649ZM189.244 90.3616C189.789 90.2693 190.305 90.6359 190.397 91.1804L191.046 95.0088C191.139 95.5533 190.772 96.0696 190.227 96.1619C189.683 96.2542 189.167 95.8876 189.074 95.3431L188.425 91.5147C188.333 90.9702 188.7 90.454 189.244 90.3616ZM25.8729 92.6232C26.2718 92.2413 26.9048 92.255 27.2868 92.6539L30.1873 95.6831C30.5693 96.082 30.5556 96.715 30.1567 97.097C29.7578 97.479 29.1248 97.4652 28.7428 97.0663L25.8422 94.0371C25.4603 93.6382 25.474 93.0052 25.8729 92.6232ZM190.542 98.0184C191.087 97.9261 191.603 98.2927 191.695 98.8372L192.02 100.751C192.096 101.201 191.858 101.646 191.441 101.832L189.753 102.584C189.249 102.809 188.658 102.582 188.433 102.078C188.208 101.573 188.435 100.982 188.939 100.757L189.918 100.321L189.723 99.1715C189.631 98.627 189.998 98.1107 190.542 98.0184ZM31.674 98.6816C32.0729 98.2997 32.706 98.3134 33.0879 98.7123L34.4699 100.156L35.949 101.19C36.4016 101.507 36.5119 102.13 36.1954 102.583C35.8789 103.035 35.2554 103.146 34.8028 102.829L33.2428 101.738C33.189 101.7 33.1391 101.658 33.0937 101.61L31.6434 100.096C31.2614 99.6966 31.2751 99.0636 31.674 98.6816ZM100.252 100.418C100.478 100.026 100.94 99.8355 101.377 99.9526L103.382 100.49C103.916 100.633 104.232 101.181 104.089 101.715C104.016 101.989 103.835 102.206 103.605 102.333C103.627 102.615 103.53 102.904 103.314 103.119C102.923 103.51 102.29 103.509 101.9 103.118L100.41 101.625C100.09 101.305 100.026 100.81 100.252 100.418ZM106.169 102.272C106.312 101.738 106.86 101.422 107.394 101.565L111.405 102.639C111.939 102.782 112.255 103.331 112.112 103.864C111.969 104.398 111.421 104.714 110.888 104.571L106.876 103.497C106.343 103.354 106.026 102.805 106.169 102.272ZM186.884 102.768C187.109 103.273 186.882 103.864 186.378 104.089L183.002 105.593C182.498 105.818 181.907 105.592 181.682 105.087C181.457 104.583 181.683 103.991 182.188 103.767L185.563 102.262C186.068 102.037 186.659 102.264 186.884 102.768ZM37.6764 103.618C37.9929 103.166 38.6164 103.056 39.069 103.372L42.189 105.554C42.6416 105.871 42.7519 106.494 42.4353 106.947C42.1188 107.399 41.4953 107.51 41.0427 107.193L37.9228 105.011C37.4702 104.695 37.3599 104.071 37.6764 103.618ZM114.192 104.421C114.335 103.888 114.883 103.571 115.417 103.714L119.428 104.789C119.962 104.932 120.278 105.48 120.135 106.013C119.992 106.547 119.444 106.864 118.911 106.721L114.899 105.646C114.366 105.503 114.049 104.955 114.192 104.421ZM104.881 104.69C105.272 104.3 105.905 104.3 106.295 104.691L109.275 107.677C109.665 108.068 109.664 108.702 109.273 109.092C108.882 109.482 108.249 109.481 107.859 109.09L104.879 106.104C104.489 105.713 104.49 105.08 104.881 104.69ZM180.133 105.777C180.358 106.282 180.131 106.873 179.627 107.098L176.251 108.603C175.747 108.827 175.155 108.601 174.931 108.096C174.706 107.592 174.932 107.001 175.437 106.776L178.812 105.271C179.317 105.046 179.908 105.273 180.133 105.777ZM122.215 106.571C122.358 106.037 122.906 105.721 123.44 105.863L127.451 106.938C127.985 107.081 128.301 107.629 128.158 108.163C128.015 108.696 127.467 109.013 126.934 108.87L122.922 107.795C122.389 107.652 122.072 107.104 122.215 106.571ZM43.9164 107.983C44.2329 107.53 44.8564 107.42 45.309 107.736L48.4289 109.918C48.8815 110.235 48.9918 110.858 48.6753 111.311C48.3587 111.764 47.7353 111.874 47.2827 111.557L44.1627 109.375C43.7101 109.059 43.5998 108.435 43.9164 107.983ZM130.238 108.72C130.381 108.187 130.929 107.87 131.463 108.013L135.474 109.088C136.008 109.231 136.324 109.779 136.181 110.312C136.038 110.846 135.49 111.162 134.957 111.019L130.945 109.945C130.412 109.802 130.095 109.254 130.238 108.72ZM173.382 108.787C173.607 109.291 173.38 109.882 172.876 110.107L169.5 111.612C168.996 111.837 168.404 111.61 168.18 111.105C167.955 110.601 168.181 110.01 168.686 109.785L172.061 108.28C172.566 108.056 173.157 108.282 173.382 108.787ZM138.261 110.869C138.404 110.336 138.952 110.019 139.486 110.162L143.497 111.237C144.031 111.38 144.347 111.928 144.204 112.462C144.061 112.995 143.513 113.312 142.98 113.169L138.968 112.094C138.435 111.951 138.118 111.403 138.261 110.869ZM110.84 110.662C111.231 110.272 111.864 110.273 112.255 110.664L115.234 113.65C115.624 114.041 115.624 114.674 115.233 115.064C114.842 115.454 114.209 115.453 113.818 115.062L110.839 112.076C110.449 111.685 110.449 111.052 110.84 110.662ZM166.631 111.796C166.856 112.3 166.629 112.891 166.124 113.116L162.749 114.621C162.244 114.846 161.653 114.619 161.428 114.115C161.204 113.61 161.43 113.019 161.935 112.794L165.31 111.29C165.815 111.065 166.406 111.291 166.631 111.796ZM50.1563 112.347C50.4728 111.894 51.0963 111.784 51.5489 112.1L52.8393 113.003L54.7691 112.954C55.3212 112.94 55.7801 113.376 55.7942 113.928C55.8082 114.48 55.372 114.939 54.8199 114.953L52.5612 115.011C52.3475 115.016 52.1378 114.953 51.9626 114.83L50.4027 113.739C49.9501 113.423 49.8398 112.799 50.1563 112.347ZM146.284 113.019C146.427 112.485 146.975 112.169 147.509 112.312L151.52 113.386C152.054 113.529 152.37 114.078 152.227 114.611C152.084 115.145 151.536 115.461 151.002 115.318L146.991 114.244C146.458 114.101 146.141 113.552 146.284 113.019ZM80.334 112.601C80.5266 112.787 80.637 113.042 80.6404 113.309L80.6691 115.549C80.6762 116.101 80.2343 116.554 79.682 116.562C79.1298 116.569 78.6764 116.127 78.6693 115.574L78.6536 114.347L77.4072 114.379C76.8551 114.393 76.3961 113.957 76.3821 113.405C76.3681 112.853 76.8042 112.394 77.3564 112.38L79.6151 112.322C79.8824 112.315 80.1413 112.416 80.334 112.601ZM73.864 113.469C73.878 114.021 73.4418 114.48 72.8897 114.494L68.3723 114.609C67.8202 114.623 67.3612 114.186 67.3472 113.634C67.3331 113.082 67.7693 112.623 68.3214 112.609L72.8389 112.494C73.391 112.48 73.85 112.917 73.864 113.469ZM64.8291 113.698C64.8431 114.251 64.4069 114.709 63.8548 114.723L59.3374 114.838C58.7853 114.852 58.3263 114.416 58.3123 113.864C58.2982 113.312 58.7344 112.853 59.2865 112.839L63.804 112.724C64.3561 112.71 64.815 113.146 64.8291 113.698ZM159.88 114.805C160.104 115.309 159.878 115.901 159.373 116.126L157.686 116.878C157.476 116.971 157.241 116.99 157.02 116.93L155.014 116.393C154.48 116.25 154.164 115.702 154.307 115.168C154.45 114.635 154.998 114.318 155.532 114.461L157.195 114.907L158.559 114.299C159.064 114.074 159.655 114.301 159.88 114.805ZM116.8 116.634C117.191 116.244 117.824 116.245 118.214 116.636L121.194 119.622C121.584 120.013 121.583 120.646 121.192 121.036C120.801 121.426 120.168 121.426 119.778 121.035L116.798 118.048C116.408 117.658 116.409 117.024 116.8 116.634ZM79.7138 119.041C80.2661 119.034 80.7195 119.476 80.7265 120.028L80.7516 121.986L81.7783 123.614C82.073 124.081 81.9331 124.698 81.466 124.993C80.9989 125.288 80.3814 125.148 80.0867 124.681L78.9095 122.814C78.8111 122.658 78.7578 122.478 78.7554 122.294L78.7267 120.054C78.7196 119.502 79.1616 119.048 79.7138 119.041ZM122.759 122.607C123.15 122.216 123.783 122.217 124.173 122.608L127.153 125.594C127.543 125.985 127.542 126.618 127.151 127.008C126.76 127.398 126.127 127.398 125.737 127.007L122.757 124.021C122.367 123.63 122.368 122.997 122.759 122.607ZM82.7533 127.034C83.2205 126.739 83.838 126.879 84.1326 127.346L85.3164 129.223L86.867 131.749C87.1559 132.22 87.0085 132.836 86.5378 133.125C86.0671 133.414 85.4513 133.266 85.1624 132.796L83.6182 130.279L83.6117 130.269L82.441 128.413C82.1464 127.946 82.2862 127.329 82.7533 127.034ZM128.718 128.579C129.109 128.189 129.742 128.189 130.133 128.58L133.112 131.566C133.502 131.957 133.502 132.59 133.111 132.981C132.72 133.371 132.087 133.37 131.696 132.979L128.717 129.993C128.327 129.602 128.327 128.969 128.718 128.579ZM134.678 134.551C135.069 134.161 135.702 134.162 136.092 134.552L139.072 137.539C139.462 137.93 139.461 138.563 139.07 138.953C138.679 139.343 138.046 139.342 137.656 138.951L134.676 135.965C134.286 135.574 134.287 134.941 134.678 134.551ZM88.593 136.473C89.0637 136.185 89.6795 136.332 89.9684 136.803L91.415 139.16L92.5603 139.99C93.0074 140.315 93.1069 140.94 92.7827 141.387C92.4584 141.834 91.8332 141.934 91.3861 141.609L90.0797 140.662C89.9734 140.585 89.8833 140.487 89.8145 140.375L88.2638 137.849C87.9749 137.378 88.1223 136.762 88.593 136.473ZM123.881 140.396C124.165 140.208 124.525 140.178 124.837 140.316L126.732 141.156C127.237 141.38 127.464 141.971 127.241 142.476C127.017 142.98 126.426 143.208 125.921 142.985L125.45 142.776L125.455 143.252C125.462 143.804 125.019 144.257 124.467 144.264C123.915 144.27 123.462 143.828 123.455 143.276L123.432 141.242C123.428 140.902 123.597 140.583 123.881 140.396ZM140.637 140.523C141.028 140.133 141.661 140.134 142.051 140.525L145.031 143.511C145.421 143.902 145.42 144.535 145.029 144.925C144.638 145.315 144.005 145.314 143.615 144.924L140.635 141.937C140.245 141.546 140.246 140.913 140.637 140.523ZM93.7764 142.108C94.1007 141.661 94.726 141.561 95.173 141.885L97.7858 143.78C98.2329 144.104 98.3324 144.73 98.0082 145.177C97.6839 145.624 97.0586 145.724 96.6116 145.399L93.9988 143.504C93.5517 143.18 93.4522 142.555 93.7764 142.108ZM129.202 143.345C129.426 142.84 130.017 142.612 130.522 142.836L134.312 144.516C134.817 144.739 135.045 145.33 134.821 145.835C134.597 146.34 134.006 146.568 133.501 146.344L129.711 144.664C129.206 144.441 128.979 143.85 129.202 143.345ZM99.0019 145.898C99.3262 145.451 99.9515 145.351 100.399 145.675L101.705 146.623C101.822 146.708 101.919 146.817 101.99 146.943L102.985 148.718C103.256 149.2 103.084 149.809 102.602 150.079C102.121 150.35 101.511 150.178 101.241 149.696L100.353 148.113L99.2243 147.294C98.7772 146.97 98.6777 146.345 99.0019 145.898ZM136.782 146.704C137.006 146.2 137.597 145.972 138.102 146.195L141.892 147.875C142.397 148.099 142.625 148.69 142.401 149.195C142.177 149.7 141.586 149.927 141.081 149.704L137.291 148.024C136.787 147.8 136.559 147.209 136.782 146.704ZM146.596 146.495C146.987 146.105 147.62 146.106 148.011 146.497L150.99 149.483C151.38 149.874 151.38 150.507 150.989 150.897C150.598 151.287 149.965 151.287 149.574 150.896L146.595 147.91C146.205 147.519 146.205 146.886 146.596 146.495ZM124.492 146.331C125.044 146.324 125.497 146.767 125.503 147.319L125.551 151.386C125.558 151.938 125.115 152.391 124.563 152.398C124.011 152.404 123.558 151.962 123.551 151.409L123.503 147.343C123.497 146.79 123.939 146.337 124.492 146.331ZM144.363 150.064C144.586 149.559 145.177 149.331 145.682 149.555L149.472 151.235C149.977 151.458 150.205 152.049 149.981 152.554C149.757 153.059 149.167 153.287 148.662 153.063L144.872 151.383C144.367 151.16 144.139 150.569 144.363 150.064ZM103.615 151.885C104.097 151.615 104.706 151.786 104.976 152.268L106.967 155.818C107.237 156.3 107.065 156.909 106.584 157.18C106.102 157.45 105.493 157.278 105.222 156.796L103.232 153.246C102.962 152.765 103.133 152.155 103.615 151.885ZM152.556 152.468C152.947 152.078 153.58 152.078 153.97 152.469L155.46 153.962C155.8 154.303 155.849 154.838 155.576 155.235C155.304 155.632 154.787 155.778 154.347 155.583L152.452 154.743C151.947 154.519 151.719 153.928 151.943 153.424C152.018 153.254 152.134 153.116 152.275 153.015C152.307 152.815 152.401 152.622 152.556 152.468ZM124.587 154.465C125.14 154.458 125.593 154.901 125.599 155.453L125.647 159.52C125.654 160.072 125.211 160.525 124.659 160.531C124.107 160.538 123.654 160.095 123.647 159.543L123.599 155.476C123.593 154.924 124.035 154.471 124.587 154.465ZM107.596 158.985C108.078 158.715 108.688 158.887 108.958 159.368L110.948 162.918C111.219 163.4 111.047 164.01 110.565 164.28C110.084 164.55 109.474 164.378 109.204 163.897L107.213 160.347C106.943 159.865 107.115 159.255 107.596 158.985ZM124.683 162.598C125.236 162.592 125.689 163.034 125.695 163.587L125.743 167.653C125.75 168.206 125.307 168.659 124.755 168.665C124.203 168.672 123.75 168.229 123.743 167.677L123.695 163.61C123.689 163.058 124.131 162.605 124.683 162.598ZM111.578 166.085C112.06 165.815 112.669 165.987 112.939 166.468L114.93 170.019C115.2 170.5 115.029 171.11 114.547 171.38C114.065 171.65 113.456 171.478 113.185 170.997L111.195 167.447C110.925 166.965 111.096 166.355 111.578 166.085ZM124.779 170.732C125.332 170.726 125.784 171.168 125.791 171.72L125.839 175.787C125.845 176.339 125.403 176.792 124.851 176.799C124.299 176.805 123.846 176.363 123.839 175.811L123.791 171.744C123.785 171.192 124.227 170.739 124.779 170.732ZM115.559 173.185C116.041 172.915 116.651 173.087 116.921 173.569L118.911 177.119C119.182 177.6 119.01 178.21 118.528 178.48C118.047 178.75 117.437 178.579 117.167 178.097L115.176 174.547C114.906 174.065 115.078 173.456 115.559 173.185ZM124.875 178.866C125.427 178.859 125.88 179.302 125.887 179.854L125.935 183.921C125.941 184.473 125.499 184.926 124.947 184.933C124.394 184.939 123.941 184.497 123.935 183.945L123.887 179.878C123.881 179.325 124.323 178.872 124.875 178.866ZM119.541 180.286C120.023 180.016 120.632 180.187 120.902 180.669L122.893 184.219C123.163 184.701 122.992 185.31 122.51 185.58C122.028 185.85 121.419 185.679 121.148 185.197L119.158 181.647C118.888 181.165 119.059 180.556 119.541 180.286ZM124.971 187C125.523 186.993 125.976 187.436 125.983 187.988L126.007 190.021C126.012 190.478 125.707 190.881 125.265 190.999C124.824 191.117 124.358 190.921 124.135 190.522L123.139 188.747C122.869 188.265 123.041 187.656 123.522 187.386C123.761 187.252 124.031 187.227 124.275 187.293C124.453 187.115 124.699 187.003 124.971 187Z" fill="#7B7B7B"/>
<path d="M212.643 119.34V115.16C212.643 114.52 212.443 114.4 212.183 114.4C211.883 114.4 211.683 114.54 211.683 115.18V119.34C211.683 119.96 211.883 120.12 212.183 120.12C212.443 120.12 212.643 119.98 212.643 119.34ZM213.943 115.9V118.66C213.943 119.78 213.863 121.22 212.163 121.22C210.463 121.22 210.383 119.82 210.383 118.68V115.88C210.383 114.72 210.463 113.34 212.163 113.34C213.863 113.34 213.943 114.78 213.943 115.9ZM218.043 113.64L213.083 128.28L211.903 127.84L216.863 113.2L218.043 113.64ZM218.363 126.28V122.1C218.363 121.46 218.163 121.34 217.903 121.34C217.603 121.34 217.403 121.48 217.403 122.12V126.28C217.403 126.9 217.603 127.06 217.903 127.06C218.163 127.06 218.363 126.92 218.363 126.28ZM219.663 122.84V125.6C219.663 126.72 219.583 128.16 217.883 128.16C216.183 128.16 216.103 126.76 216.103 125.62V122.82C216.103 121.66 216.183 120.28 217.883 120.28C219.583 120.28 219.663 121.72 219.663 122.84Z" fill="black"/>
<path d="M207.061 123.74V117.8C207.061 116.28 207.061 115.12 206.121 115.12C205.141 115.12 205.141 116.3 205.141 117.84V123.74C205.141 125.24 205.141 126.42 206.121 126.42C207.061 126.42 207.061 125.26 207.061 123.74ZM209.081 118.12V123.46C209.081 125.54 209.081 128.26 206.081 128.26C203.121 128.26 203.121 125.62 203.121 123.5V118.08C203.121 115.96 203.121 113.32 206.081 113.32C209.081 113.32 209.081 116.04 209.081 118.12Z" fill="black"/>
<path d="M195.719 118.8V118.12C195.719 116.04 195.719 113.32 198.719 113.32C201.679 113.32 201.679 115.96 201.679 118.08V123.5C201.679 126.06 201.379 128.26 198.479 128.26C197.199 128.26 196.379 127.8 195.799 127.16L196.899 125.72C197.199 126 197.699 126.42 198.279 126.42C199.519 126.42 199.679 125.56 199.679 122.98V122.34C199.419 122.7 198.919 123.14 198.099 123.14C195.819 123.14 195.719 121.42 195.719 118.8ZM197.739 117.78V118.64C197.739 120.16 197.739 121.32 198.679 121.32C199.659 121.32 199.659 120.14 199.659 118.6V117.78C199.659 116.28 199.659 115.1 198.679 115.1C197.739 115.1 197.739 116.26 197.739 117.78Z" fill="black"/>
<path d="M76.6428 133.34V129.16C76.6428 128.52 76.4428 128.4 76.1828 128.4C75.8828 128.4 75.6828 128.54 75.6828 129.18V133.34C75.6828 133.96 75.8828 134.12 76.1828 134.12C76.4428 134.12 76.6428 133.98 76.6428 133.34ZM77.9428 129.9V132.66C77.9428 133.78 77.8628 135.22 76.1628 135.22C74.4628 135.22 74.3828 133.82 74.3828 132.68V129.88C74.3828 128.72 74.4628 127.34 76.1628 127.34C77.8628 127.34 77.9428 128.78 77.9428 129.9ZM82.0428 127.64L77.0828 142.28L75.9028 141.84L80.8628 127.2L82.0428 127.64ZM82.3628 140.28V136.1C82.3628 135.46 82.1628 135.34 81.9028 135.34C81.6028 135.34 81.4028 135.48 81.4028 136.12V140.28C81.4028 140.9 81.6028 141.06 81.9028 141.06C82.1628 141.06 82.3628 140.92 82.3628 140.28ZM83.6628 136.84V139.6C83.6628 140.72 83.5828 142.16 81.8828 142.16C80.1828 142.16 80.1028 140.76 80.1028 139.62V136.82C80.1028 135.66 80.1828 134.28 81.8828 134.28C83.5828 134.28 83.6628 135.72 83.6628 136.84Z" fill="#D85456"/>
<path d="M73.0805 129.02L69.3205 142H67.2605L71.1605 129.48H66.9805V127.6H73.0805V129.02Z" fill="#D85456"/>
<path d="M64.659 142H62.719V129.94L60.879 131.22L59.959 129.84L63.139 127.6H64.659V142Z" fill="#D85456"/>
<path fill-rule="evenodd" clip-rule="evenodd" d="M203.586 109.129L197.418 103.543L198.089 102.802L204.257 108.388L203.586 109.129Z" fill="black"/>
<path fill-rule="evenodd" clip-rule="evenodd" d="M76.1038 125.695L81.9358 118.109L82.7286 118.719L76.8966 126.305L76.1038 125.695Z" fill="black"/>
</svg>
