<svg width="218" height="201" viewBox="0 0 218 201" fill="none" xmlns="http://www.w3.org/2000/svg">
<path fill-rule="evenodd" clip-rule="evenodd" d="M75.6152 100.822C75.6152 86.915 86.8887 75.6416 100.795 75.6416C114.702 75.6416 125.975 86.915 125.975 100.822C125.975 114.728 114.702 126.001 100.795 126.001C86.8887 126.001 75.6152 114.728 75.6152 100.822ZM100.795 76.1201C87.1529 76.1201 76.0937 87.1793 76.0937 100.822C76.0937 114.464 87.1529 125.523 100.795 125.523C114.437 125.523 125.497 114.464 125.497 100.822C125.497 87.1793 114.437 76.1201 100.795 76.1201Z" fill="#CCCCCC"/>
<path fill-rule="evenodd" clip-rule="evenodd" d="M50.6738 100.821C50.6738 73.1399 73.1136 50.7002 100.794 50.7002C128.475 50.7002 150.915 73.1399 150.915 100.821C150.915 128.502 128.475 150.941 100.794 150.941C73.1136 150.941 50.6738 128.502 50.6738 100.821ZM100.794 51.1787C73.3778 51.1787 51.1523 73.4042 51.1523 100.821C51.1523 128.237 73.3778 150.463 100.794 150.463C128.211 150.463 150.437 128.237 150.437 100.821C150.437 73.4042 128.211 51.1787 100.794 51.1787Z" fill="#CCCCCC"/>
<path fill-rule="evenodd" clip-rule="evenodd" d="M25.7344 100.821C25.7344 59.3659 59.3405 25.7598 100.796 25.7598C142.251 25.7598 175.857 59.3659 175.857 100.821C175.857 142.276 142.251 175.882 100.796 175.882C59.3405 175.882 25.7344 142.276 25.7344 100.821ZM100.796 26.2382C59.6047 26.2382 26.2128 59.6301 26.2128 100.821C26.2128 142.012 59.6047 175.404 100.796 175.404C141.987 175.404 175.378 142.012 175.378 100.821C175.378 59.6301 141.987 26.2382 100.796 26.2382Z" fill="#CCCCCC"/>
<path fill-rule="evenodd" clip-rule="evenodd" d="M0.792969 100.821C0.792969 45.5918 45.5654 0.819336 100.795 0.819336C156.025 0.819336 200.797 45.5918 200.797 100.821C200.797 156.051 156.025 200.823 100.795 200.823C45.5654 200.823 0.792969 156.051 0.792969 100.821ZM100.795 1.2978C45.8296 1.2978 1.27144 45.856 1.27144 100.821C1.27144 155.787 45.8296 200.345 100.795 200.345C155.76 200.345 200.318 155.787 200.318 100.821C200.318 45.856 155.76 1.2978 100.795 1.2978Z" fill="#CCCCCC"/>
<path fill-rule="evenodd" clip-rule="evenodd" d="M100.761 99.1828V1H101.239V99.1828L126.651 4.3455L127.113 4.46934L101.701 99.3067L150.793 14.2778L151.207 14.5171L102.116 99.5459L171.542 30.1202L171.88 30.4585L102.454 99.8842L187.483 50.7928L187.722 51.2072L102.693 100.299L197.531 74.887L197.654 75.3492L102.817 100.761H201V101.239H102.817L197.654 126.651L197.531 127.113L102.693 101.701L187.722 150.793L187.483 151.207L102.454 102.116L171.88 171.542L171.542 171.88L102.116 102.454L151.207 187.483L150.793 187.722L101.701 102.693L127.113 197.531L126.651 197.654L101.239 102.817V201H100.761V102.817L75.3492 197.654L74.887 197.531L100.299 102.693L51.2072 187.722L50.7928 187.483L99.8842 102.454L30.4585 171.88L30.1202 171.542L99.5459 102.116L14.5171 151.207L14.2778 150.793L99.3067 101.701L4.46934 127.113L4.3455 126.651L99.1828 101.239H1V100.761H99.1828L4.3455 75.3492L4.46934 74.887L99.3067 100.299L14.2778 51.2072L14.5171 50.7928L99.5459 99.8842L30.1202 30.4585L30.4585 30.1202L99.8842 99.5459L50.7928 14.5171L51.2072 14.2778L100.299 99.3067L74.887 4.46934L75.3492 4.3455L100.761 99.1828Z" fill="#CCCCCC"/>
<path d="M89.5 57L101 66.5L114.5 50L141 31L133.5 68L141.5 77H188.5L192 100.5L158 115.5L153 130.5L155.5 155L124.421 141.188L125 190.5L101 147.5L90.5 140L84 130L79.5 121.5V113L52 113.5L33 100.5L9 76L49.5 71L62 61.5L77 59L89.5 57Z" fill="#E46466" fill-opacity="0.32"/>
<path fill-rule="evenodd" clip-rule="evenodd" d="M141.408 30.3704C141.666 30.5379 141.796 30.8468 141.735 31.149L134.31 67.7818L141.837 76.25H188.5C188.872 76.25 189.187 76.522 189.242 76.8895L192.742 100.39C192.792 100.724 192.612 101.05 192.303 101.186L158.607 116.052L153.763 130.584L156.246 154.924C156.273 155.19 156.157 155.45 155.94 155.607C155.724 155.764 155.44 155.794 155.195 155.685L125.185 142.348L125.75 190.491C125.754 190.834 125.525 191.136 125.193 191.225C124.862 191.313 124.512 191.165 124.345 190.866L100.427 148.012L90.0641 140.61C89.9878 140.556 89.9223 140.487 89.8712 140.409L83.3712 130.409C83.3632 130.396 83.3556 130.384 83.3483 130.371C83.3445 130.365 83.3408 130.358 83.3372 130.351L78.8372 121.851C78.7799 121.743 78.75 121.622 78.75 121.5V113.764L52.0137 114.25C51.8579 114.253 51.7051 114.207 51.5765 114.119L32.5765 101.119C32.5361 101.091 32.4985 101.06 32.4643 101.025L8.46425 76.5248C8.26463 76.3211 8.19789 76.0217 8.29207 75.7524C8.38624 75.4831 8.62501 75.2906 8.90812 75.2556L49.2073 70.2804L61.5462 60.9029C61.6432 60.8292 61.7566 60.7802 61.8767 60.7602L76.8767 58.2602L76.8815 58.2594L89.3815 56.2594C89.5943 56.2254 89.8115 56.2845 89.9777 56.4218L100.897 65.4419L113.92 49.5251C113.961 49.4741 114.009 49.4289 114.063 49.3905L140.563 30.3905C140.814 30.2108 141.149 30.2028 141.408 30.3704ZM115.018 50.5517L101.58 66.9749C101.454 67.1294 101.271 67.2271 101.073 67.2465C100.874 67.2658 100.676 67.2053 100.522 67.0782L89.2837 57.7941L77.1233 59.7398L77.1185 59.7406L62.3062 62.2093L49.9538 71.5971C49.8483 71.6773 49.7234 71.7281 49.5919 71.7444L10.597 76.5585L33.4843 99.9226L52.2259 112.746L79.4864 112.25C79.6876 112.246 79.8819 112.324 80.0255 112.465C80.1691 112.606 80.25 112.799 80.25 113V121.314L84.6472 129.619L91.0515 139.472L101.436 146.89C101.526 146.954 101.601 147.038 101.655 147.134L124.215 187.555L123.671 141.196C123.668 140.941 123.795 140.701 124.009 140.561C124.222 140.421 124.492 140.398 124.726 140.502L154.623 153.789L152.254 130.576C152.243 130.47 152.255 130.364 152.288 130.263L157.288 115.263C157.355 115.062 157.504 114.899 157.697 114.814L191.174 100.045L187.853 77.75H141.5C141.286 77.75 141.082 77.6584 140.939 77.4983L132.939 68.4983C132.783 68.322 132.718 68.0822 132.765 67.851L139.886 32.7217L115.018 50.5517Z" fill="#E46466"/>
<path d="M146.645 164.34V160.16C146.645 159.52 146.445 159.4 146.185 159.4C145.885 159.4 145.685 159.54 145.685 160.18V164.34C145.685 164.96 145.885 165.12 146.185 165.12C146.445 165.12 146.645 164.98 146.645 164.34ZM147.945 160.9V163.66C147.945 164.78 147.865 166.22 146.165 166.22C144.465 166.22 144.385 164.82 144.385 163.68V160.88C144.385 159.72 144.465 158.34 146.165 158.34C147.865 158.34 147.945 159.78 147.945 160.9ZM152.045 158.64L147.085 173.28L145.905 172.84L150.865 158.2L152.045 158.64ZM152.365 171.28V167.1C152.365 166.46 152.165 166.34 151.905 166.34C151.605 166.34 151.405 166.48 151.405 167.12V171.28C151.405 171.9 151.605 172.06 151.905 172.06C152.165 172.06 152.365 171.92 152.365 171.28ZM153.665 167.84V170.6C153.665 171.72 153.585 173.16 151.885 173.16C150.185 173.16 150.105 171.76 150.105 170.62V167.82C150.105 166.66 150.185 165.28 151.885 165.28C153.585 165.28 153.665 166.72 153.665 167.84Z" fill="black"/>
<path d="M137.123 163.8V163.12C137.123 161.04 137.123 158.32 140.123 158.32C143.083 158.32 143.083 160.96 143.083 163.08V168.5C143.083 171.06 142.783 173.26 139.883 173.26C138.603 173.26 137.783 172.8 137.203 172.16L138.303 170.72C138.603 171 139.103 171.42 139.683 171.42C140.923 171.42 141.083 170.56 141.083 167.98V167.34C140.823 167.7 140.323 168.14 139.503 168.14C137.223 168.14 137.123 166.42 137.123 163.8ZM139.143 162.78V163.64C139.143 165.16 139.143 166.32 140.083 166.32C141.063 166.32 141.063 165.14 141.063 163.6V162.78C141.063 161.28 141.063 160.1 140.083 160.1C139.143 160.1 139.143 161.26 139.143 162.78Z" fill="black"/>
<path d="M136 169.96H134.72V173H132.86V169.96H129.4V168.32L132.8 158.6H134.72V168.18H136V169.96ZM132.86 168.18V162.92L131.04 168.18H132.86Z" fill="black"/>
<path d="M87.6448 159.34V155.16C87.6448 154.52 87.4448 154.4 87.1848 154.4C86.8848 154.4 86.6848 154.54 86.6848 155.18V159.34C86.6848 159.96 86.8848 160.12 87.1848 160.12C87.4448 160.12 87.6448 159.98 87.6448 159.34ZM88.9448 155.9V158.66C88.9448 159.78 88.8648 161.22 87.1648 161.22C85.4648 161.22 85.3848 159.82 85.3848 158.68V155.88C85.3848 154.72 85.4648 153.34 87.1648 153.34C88.8648 153.34 88.9448 154.78 88.9448 155.9ZM93.0448 153.64L88.0848 168.28L86.9048 167.84L91.8648 153.2L93.0448 153.64ZM93.3648 166.28V162.1C93.3648 161.46 93.1648 161.34 92.9048 161.34C92.6048 161.34 92.4048 161.48 92.4048 162.12V166.28C92.4048 166.9 92.6048 167.06 92.9048 167.06C93.1648 167.06 93.3648 166.92 93.3648 166.28ZM94.6648 162.84V165.6C94.6648 166.72 94.5848 168.16 92.8848 168.16C91.1848 168.16 91.1048 166.76 91.1048 165.62V162.82C91.1048 161.66 91.1848 160.28 92.8848 160.28C94.5848 160.28 94.6648 161.72 94.6648 162.84Z" fill="black"/>
<path d="M83.0633 168H81.1233V155.94L79.2833 157.22L78.3633 155.84L81.5433 153.6H83.0633V168Z" fill="black"/>
<path d="M77.0004 164.96H75.7204V168H73.8604V164.96H70.4004V163.32L73.8004 153.6H75.7204V163.18H77.0004V164.96ZM73.8604 163.18V157.92L72.0404 163.18H73.8604Z" fill="black"/>
<path d="M182.645 150.34V146.16C182.645 145.52 182.445 145.4 182.185 145.4C181.885 145.4 181.685 145.54 181.685 146.18V150.34C181.685 150.96 181.885 151.12 182.185 151.12C182.445 151.12 182.645 150.98 182.645 150.34ZM183.945 146.9V149.66C183.945 150.78 183.865 152.22 182.165 152.22C180.465 152.22 180.385 150.82 180.385 149.68V146.88C180.385 145.72 180.465 144.34 182.165 144.34C183.865 144.34 183.945 145.78 183.945 146.9ZM188.045 144.64L183.085 159.28L181.905 158.84L186.865 144.2L188.045 144.64ZM188.365 157.28V153.1C188.365 152.46 188.165 152.34 187.905 152.34C187.605 152.34 187.405 152.48 187.405 153.12V157.28C187.405 157.9 187.605 158.06 187.905 158.06C188.165 158.06 188.365 157.92 188.365 157.28ZM189.665 153.84V156.6C189.665 157.72 189.585 159.16 187.885 159.16C186.185 159.16 186.105 157.76 186.105 156.62V153.82C186.105 152.66 186.185 151.28 187.885 151.28C189.585 151.28 189.665 152.72 189.665 153.84Z" fill="black"/>
<path d="M179.103 153.28V155C179.103 157.86 178.223 159.28 175.963 159.28C174.523 159.28 173.643 158.64 173.123 157.8L174.443 156.52C175.103 157.34 175.443 157.44 175.943 157.44C176.903 157.44 177.103 156.32 177.103 154.92V153.8C177.103 152.5 176.943 151.7 176.023 151.7C175.403 151.7 174.983 152.28 174.803 152.64L173.483 151.84L173.663 144.6H178.863V146.48H175.243L175.123 150.66C175.283 150.22 175.943 149.74 176.683 149.74C178.383 149.74 179.103 150.92 179.103 153.28Z" fill="black"/>
<path d="M171.581 147.92V148.82C171.581 150.12 171.281 151.26 170.181 151.5C171.161 151.68 171.681 152.78 171.681 154.32V155.44C171.681 157.28 171.261 159.26 168.701 159.26C166.141 159.26 165.721 157.28 165.721 155.44V154.32C165.721 152.78 166.241 151.68 167.221 151.5C166.121 151.26 165.821 150.12 165.821 148.82V147.92C165.821 145.92 166.421 144.32 168.701 144.32C170.981 144.32 171.581 145.92 171.581 147.92ZM169.761 155.44V154.58C169.761 153.46 169.581 152.56 168.701 152.56C167.821 152.56 167.641 153.46 167.641 154.58V155.44C167.641 156.56 167.821 157.46 168.701 157.46C169.581 157.46 169.761 156.56 169.761 155.44ZM169.721 148.82V148C169.721 146.92 169.541 146.04 168.701 146.04C167.861 146.04 167.681 146.92 167.681 148V148.82C167.681 149.9 167.861 150.78 168.701 150.78C169.541 150.78 169.721 149.9 169.721 148.82Z" fill="black"/>
<path fill-rule="evenodd" clip-rule="evenodd" d="M163.867 152.674L156.193 155.893L155.806 154.971L163.48 151.752L163.867 152.674Z" fill="black"/>
<path fill-rule="evenodd" clip-rule="evenodd" d="M133.395 155.398L128.908 148.281L128.062 148.815L132.55 155.931L133.395 155.398Z" fill="black"/>
<path fill-rule="evenodd" clip-rule="evenodd" d="M87.3629 150.745L89.6295 142.642L88.6665 142.373L86.3999 150.475L87.3629 150.745Z" fill="black"/>
<path fill-rule="evenodd" clip-rule="evenodd" d="M202.615 108.178L196.653 102.373L197.35 101.656L203.313 107.461L202.615 108.178Z" fill="black"/>
<path d="M210.645 117.34V113.16C210.645 112.52 210.445 112.4 210.185 112.4C209.885 112.4 209.685 112.54 209.685 113.18V117.34C209.685 117.96 209.885 118.12 210.185 118.12C210.445 118.12 210.645 117.98 210.645 117.34ZM211.945 113.9V116.66C211.945 117.78 211.865 119.22 210.165 119.22C208.465 119.22 208.385 117.82 208.385 116.68V113.88C208.385 112.72 208.465 111.34 210.165 111.34C211.865 111.34 211.945 112.78 211.945 113.9ZM216.045 111.64L211.085 126.28L209.905 125.84L214.865 111.2L216.045 111.64ZM216.365 124.28V120.1C216.365 119.46 216.165 119.34 215.905 119.34C215.605 119.34 215.405 119.48 215.405 120.12V124.28C215.405 124.9 215.605 125.06 215.905 125.06C216.165 125.06 216.365 124.92 216.365 124.28ZM217.665 120.84V123.6C217.665 124.72 217.585 126.16 215.885 126.16C214.185 126.16 214.105 124.76 214.105 123.62V120.82C214.105 119.66 214.185 118.28 215.885 118.28C217.585 118.28 217.665 119.72 217.665 120.84Z" fill="black"/>
<path d="M203.924 113.06C203.304 113.06 202.844 113.46 202.504 113.94L201.264 112.8C201.784 111.94 202.604 111.32 204.004 111.32C206.284 111.32 206.984 112.72 206.984 114.72V115.88C206.984 117.36 206.584 118.1 205.484 118.36C206.464 118.54 207.084 119.44 207.084 120.98V122.44C207.084 124.58 206.404 126.26 203.884 126.26C202.464 126.26 201.564 125.44 201.184 124.8L202.484 123.52C202.784 123.94 203.284 124.46 203.924 124.46C204.804 124.46 205.084 123.86 205.084 122.44V121.44C205.084 119.46 204.544 119.44 203.344 119.44H203.064V117.6H203.344C204.424 117.6 204.984 117.58 204.984 115.62V114.78C204.984 113.78 204.784 113.06 203.924 113.06Z" fill="black"/>
<path d="M193.721 116.8V116.12C193.721 114.04 193.721 111.32 196.721 111.32C199.681 111.32 199.681 113.96 199.681 116.08V121.5C199.681 124.06 199.381 126.26 196.481 126.26C195.201 126.26 194.381 125.8 193.801 125.16L194.901 123.72C195.201 124 195.701 124.42 196.281 124.42C197.521 124.42 197.681 123.56 197.681 120.98V120.34C197.421 120.7 196.921 121.14 196.101 121.14C193.821 121.14 193.721 119.42 193.721 116.8ZM195.741 115.78V116.64C195.741 118.16 195.741 119.32 196.681 119.32C197.661 119.32 197.661 118.14 197.661 116.6V115.78C197.661 114.28 197.661 113.1 196.681 113.1C195.741 113.1 195.741 114.26 195.741 115.78Z" fill="black"/>
</svg>
