<svg width="216" height="223" viewBox="0 0 216 223" fill="none" xmlns="http://www.w3.org/2000/svg">
<path fill-rule="evenodd" clip-rule="evenodd" d="M75.3555 100.821C75.3555 86.7705 86.7456 75.3804 100.796 75.3804C114.847 75.3804 126.237 86.7705 126.237 100.821C126.237 114.872 114.847 126.262 100.796 126.262C86.7456 126.262 75.3555 114.872 75.3555 100.821ZM100.796 76.3804C87.2979 76.3804 76.3555 87.3228 76.3555 100.821C76.3555 114.319 87.2979 125.262 100.796 125.262C114.294 125.262 125.237 114.319 125.237 100.821C125.237 87.3228 114.294 76.3804 100.796 76.3804Z" fill="#CCCCCC"/>
<path fill-rule="evenodd" clip-rule="evenodd" d="M50.4141 100.821C50.4141 72.9964 72.9706 50.4399 100.795 50.4399C128.62 50.4399 151.177 72.9964 151.177 100.821C151.177 128.646 128.62 151.203 100.795 151.203C72.9706 151.203 50.4141 128.646 50.4141 100.821ZM100.795 51.4399C73.5229 51.4399 51.4141 73.5487 51.4141 100.821C51.4141 128.094 73.5229 150.203 100.795 150.203C128.068 150.203 150.177 128.094 150.177 100.821C150.177 73.5487 128.068 51.4399 100.795 51.4399Z" fill="#CCCCCC"/>
<path fill-rule="evenodd" clip-rule="evenodd" d="M25.4727 100.821C25.4727 59.2219 59.1955 25.499 100.795 25.499C142.394 25.499 176.117 59.2219 176.117 100.821C176.117 142.42 142.394 176.143 100.795 176.143C59.1955 176.143 25.4727 142.42 25.4727 100.821ZM100.795 26.499C59.7478 26.499 26.4727 59.7741 26.4727 100.821C26.4727 141.868 59.7478 175.143 100.795 175.143C141.842 175.143 175.117 141.868 175.117 100.821C175.117 59.7741 141.842 26.499 100.795 26.499Z" fill="#CCCCCC"/>
<path fill-rule="evenodd" clip-rule="evenodd" d="M0.535156 100.821C0.535156 45.4478 45.4243 0.558594 100.798 0.558594C156.171 0.558594 201.061 45.4478 201.061 100.821C201.061 156.195 156.171 201.084 100.798 201.084C45.4243 201.084 0.535156 156.195 0.535156 100.821ZM100.798 1.55859C45.9766 1.55859 1.53516 46 1.53516 100.821C1.53516 155.643 45.9766 200.084 100.798 200.084C155.619 200.084 200.061 155.643 200.061 100.821C200.061 46 155.619 1.55859 100.798 1.55859Z" fill="#CCCCCC"/>
<path fill-rule="evenodd" clip-rule="evenodd" d="M100.5 97.2021V1H101.5V97.2021L126.399 4.27801L127.365 4.53683L102.466 97.4609L150.567 14.1475L151.433 14.6475L103.332 97.9609L171.357 29.9358L172.064 30.6429L104.039 98.668L187.353 50.567L187.853 51.433L104.539 99.5341L197.463 74.6351L197.722 75.6011L104.798 100.5H201V101.5H104.798L197.722 126.399L197.463 127.365L104.539 102.466L187.853 150.567L187.353 151.433L104.039 103.332L172.064 171.357L171.357 172.064L103.332 104.039L151.433 187.353L150.567 187.853L102.466 104.539L127.365 197.463L126.399 197.722L101.5 104.798V201H100.5V104.798L75.6011 197.722L74.6351 197.463L99.5341 104.539L51.433 187.853L50.567 187.353L98.668 104.039L30.6429 172.064L29.9358 171.357L97.9609 103.332L14.6475 151.433L14.1475 150.567L97.4609 102.466L4.53683 127.365L4.27801 126.399L97.2021 101.5H1V100.5H97.2021L4.27801 75.6011L4.53683 74.6351L97.4609 99.5341L14.1475 51.433L14.6475 50.567L97.9609 98.668L29.9358 30.6429L30.6429 29.9358L98.668 97.9609L50.567 14.6475L51.433 14.1475L99.5341 97.4609L74.6351 4.53683L75.6011 4.27801L100.5 97.2021Z" fill="#CCCCCC"/>
<path d="M83.662 35.6832L101.12 69.4488L115.131 48.7766L141.661 30.7412L117.083 85.069L159.692 67.1519L188.175 77.6028L191.265 100.918L122.94 106.775L101.12 100.918L161.646 161.444L128.224 147.776L125.583 192.329L101.12 168.564L83.662 166.267L69.6508 155.586L56.5584 145.594L50.4704 130.204L27.1567 120.787L20.0363 100.918L14.0586 77.6028L42.6609 67.1519L49.322 49.1211L65.057 38.5542L83.662 35.6832Z" fill="#E4C864" fill-opacity="0.19"/>
<path fill-rule="evenodd" clip-rule="evenodd" d="M142.305 29.9759C142.648 30.2642 142.757 30.7453 142.573 31.1534L119.045 83.1593L159.305 66.2301C159.538 66.132 159.799 66.126 160.037 66.2131L188.52 76.664C188.869 76.7921 189.118 77.103 189.166 77.4714L192.257 100.786C192.293 101.057 192.216 101.331 192.045 101.544C191.874 101.757 191.623 101.891 191.351 101.914L123.026 107.771C122.91 107.781 122.794 107.771 122.681 107.741L104.468 102.852L162.353 160.737C162.69 161.073 162.742 161.601 162.479 161.997C162.215 162.394 161.708 162.549 161.267 162.369L129.14 149.231L126.581 192.388C126.558 192.779 126.31 193.12 125.945 193.261C125.58 193.403 125.167 193.319 124.886 193.046L100.661 169.512L83.5317 167.259C83.3587 167.236 83.1947 167.168 83.0559 167.062L69.0447 156.382L69.0443 156.381L55.9518 146.389C55.8073 146.278 55.6956 146.131 55.6287 145.962L49.6985 130.971L26.7824 121.714C26.518 121.608 26.3117 121.393 26.2155 121.124L19.0951 101.255C19.0846 101.226 19.0755 101.196 19.0678 101.166L13.0901 77.8512C12.9625 77.3534 13.2329 76.8399 13.7156 76.6636L41.8834 66.3714L48.3841 48.7746C48.457 48.5774 48.5901 48.4082 48.7646 48.2909L64.4996 37.724C64.6214 37.6422 64.7597 37.5882 64.9046 37.5659L83.5096 34.6949C83.9342 34.6294 84.3531 34.8424 84.5504 35.224L101.236 67.4955L114.303 48.2155C114.374 48.1109 114.464 48.0206 114.569 47.9496L141.099 29.9142C141.47 29.6624 141.962 29.6876 142.305 29.9759ZM115.851 49.496L101.948 70.0099C101.75 70.3018 101.413 70.4679 101.061 70.447C100.709 70.4262 100.394 70.2214 100.232 69.9081L83.1041 36.7812L65.4298 39.5085L50.1481 49.771L43.5991 67.4984C43.4974 67.7737 43.2799 67.9904 43.0043 68.0912L15.2523 78.2314L20.9936 100.624L27.9471 120.028L50.8451 129.277C51.099 129.38 51.2997 129.582 51.4005 129.837L57.3862 144.967L70.2572 154.791L70.2577 154.792L84.0566 165.31L101.25 167.573C101.464 167.601 101.662 167.697 101.817 167.847L124.714 190.091L127.226 147.717C127.245 147.395 127.419 147.101 127.692 146.929C127.965 146.758 128.304 146.728 128.603 146.85L157.425 158.637L100.413 101.625C100.093 101.305 100.027 100.809 100.254 100.417C100.48 100.025 100.942 99.8345 101.379 99.9519L123.03 105.763L190.137 100.011L187.263 78.3334L159.717 68.2262L117.471 85.9908C117.092 86.1502 116.654 86.0612 116.367 85.7665C116.08 85.4718 116.003 85.0315 116.172 84.6568L139.286 33.565L115.851 49.496Z" fill="#E4C864"/>
<path fill-rule="evenodd" clip-rule="evenodd" d="M141.174 31.7417C141.516 31.9644 141.688 32.3728 141.609 32.7733L141.253 34.5766C141.146 35.1184 140.62 35.4709 140.078 35.364C139.702 35.2897 139.417 35.0136 139.314 34.6704C138.905 34.8064 138.439 34.6658 138.179 34.2949C137.862 33.8426 137.972 33.219 138.425 32.9022L140.054 31.7606C140.388 31.5264 140.831 31.5189 141.174 31.7417ZM136.558 35.4305C136.875 35.8828 136.766 36.5064 136.313 36.8233L133.054 39.1064C132.602 39.4233 131.978 39.3135 131.662 38.8612C131.345 38.4089 131.454 37.7853 131.907 37.4684L135.166 35.1853C135.618 34.8684 136.242 34.9782 136.558 35.4305ZM139.753 37.0084C140.295 37.1154 140.648 37.6414 140.541 38.1832L139.829 41.7898C139.722 42.3316 139.196 42.6842 138.654 42.5772C138.112 42.4702 137.76 41.9443 137.867 41.4024L138.579 37.7958C138.686 37.254 139.212 36.9015 139.753 37.0084ZM130.041 39.9968C130.358 40.4491 130.248 41.0727 129.795 41.3896L126.537 43.6727C126.084 43.9896 125.461 43.8798 125.144 43.4275C124.827 42.9751 124.937 42.3516 125.389 42.0347L128.648 39.7515C129.1 39.4347 129.724 39.5444 130.041 39.9968ZM123.523 44.563C123.84 45.0154 123.73 45.6389 123.278 45.9558L120.019 48.239C119.566 48.5559 118.943 48.4461 118.626 47.9937C118.309 47.5414 118.419 46.9178 118.871 46.6009L122.13 44.3178C122.582 44.0009 123.206 44.1107 123.523 44.563ZM138.329 44.2217C138.871 44.3286 139.224 44.8546 139.117 45.3964L138.405 49.003C138.298 49.5449 137.772 49.8974 137.23 49.7904C136.688 49.6834 136.336 49.1575 136.443 48.6157L137.155 45.0091C137.262 44.4672 137.788 44.1147 138.329 44.2217ZM117.005 49.1293C117.322 49.5816 117.212 50.2052 116.76 50.5221L115.248 51.5816L114.217 52.8673C113.872 53.2983 113.243 53.3677 112.812 53.0223C112.381 52.6769 112.311 52.0476 112.657 51.6166L113.776 50.2193C113.836 50.1453 113.905 50.0801 113.983 50.0256L115.612 48.8841C116.065 48.5672 116.688 48.677 117.005 49.1293ZM136.905 51.4349C137.447 51.5419 137.8 52.0678 137.693 52.6097L136.981 56.2163C136.874 56.7581 136.348 57.1106 135.806 57.0036C135.264 56.8967 134.911 56.3707 135.018 55.8289L135.73 52.2223C135.837 51.6805 136.363 51.3279 136.905 51.4349ZM111.823 54.2562C112.254 54.6015 112.323 55.2309 111.978 55.6619L109.738 58.4564C109.393 58.8874 108.764 58.9568 108.333 58.6114C107.902 58.2661 107.832 57.6367 108.178 57.2058L110.417 54.4112C110.762 53.9802 111.392 53.9108 111.823 54.2562ZM89.3213 56.6403C89.6239 56.5792 89.9378 56.6613 90.1718 56.8629L91.6218 58.1118C92.0403 58.4722 92.0874 59.1036 91.7269 59.5221C91.3665 59.9406 90.7351 59.9876 90.3166 59.6272L89.2374 58.6976L88.2241 58.9022C87.6828 59.0115 87.1553 58.6613 87.046 58.1199C86.9367 57.5786 87.2869 57.0511 87.8283 56.9418L89.3213 56.6403ZM86.0204 58.327C86.1297 58.8684 85.7795 59.3959 85.2381 59.5052L82.2521 60.1081C81.7108 60.2174 81.1833 59.8672 81.074 59.3258C80.9647 58.7845 81.3149 58.257 81.8563 58.1477L84.8423 57.5447C85.3836 57.4354 85.9111 57.7857 86.0204 58.327ZM135.481 58.6481C136.023 58.7551 136.376 59.2811 136.269 59.8229L135.556 63.4295C135.45 63.9713 134.924 64.3238 134.382 64.2169C133.84 64.1099 133.487 63.584 133.594 63.0421L134.306 59.4355C134.413 58.8937 134.939 58.5412 135.481 58.6481ZM80.0484 59.5329C80.1578 60.0743 79.8075 60.6017 79.2662 60.7111L77.7732 61.0125C77.7604 61.0151 77.7476 61.0174 77.7347 61.0195L75.8685 61.321C75.3232 61.4091 74.8099 61.0385 74.7218 60.4932C74.6337 59.948 75.0043 59.4346 75.5495 59.3466L77.3964 59.0482L78.8703 58.7506C79.4117 58.6413 79.9391 58.9916 80.0484 59.5329ZM107.344 59.8453C107.775 60.1907 107.844 60.82 107.499 61.251L105.259 64.0456C104.914 64.4766 104.285 64.546 103.854 64.2006C103.423 63.8552 103.353 63.2259 103.699 62.7949L105.938 60.0003C106.283 59.5694 106.913 59.5 107.344 59.8453ZM72.9637 60.7772C73.0518 61.3225 72.6812 61.8358 72.136 61.9239L68.4035 62.5269C67.8583 62.6149 67.3449 62.2443 67.2568 61.6991C67.1687 61.1539 67.5393 60.6405 68.0845 60.5525L71.817 59.9495C72.3622 59.8614 72.8756 60.232 72.9637 60.7772ZM93.1117 60.7148C93.4721 60.2963 94.1035 60.2493 94.522 60.6097L97.4221 63.1076C97.8406 63.468 97.8876 64.0994 97.5272 64.5179C97.1668 64.9364 96.5354 64.9834 96.1169 64.623L93.2168 62.1251C92.7983 61.7647 92.7513 61.1332 93.1117 60.7148ZM65.4987 61.9831C65.5868 62.5283 65.2162 63.0417 64.671 63.1298L63.0632 63.3895L61.7893 64.4036C61.3572 64.7476 60.7281 64.6761 60.3841 64.244C60.0402 63.8119 60.1116 63.1828 60.5437 62.8389L62.0225 61.6617C62.1568 61.5548 62.3164 61.4842 62.4858 61.4569L64.3521 61.1554C64.8973 61.0673 65.4107 61.4379 65.4987 61.9831ZM58.9913 65.3528C59.3353 65.7849 59.2638 66.414 58.8317 66.7579L55.8742 69.1123C55.4421 69.4562 54.813 69.3848 54.469 68.9527C54.125 68.5206 54.1965 67.8915 54.6286 67.5475L57.5861 65.1932C58.0182 64.8492 58.6474 64.9207 58.9913 65.3528ZM102.865 65.4345C103.296 65.7799 103.365 66.4092 103.02 66.8402L101.9 68.2375C101.73 68.4492 101.482 68.5829 101.212 68.6079C100.941 68.6328 100.673 68.5469 100.467 68.3698L99.0171 67.1209C98.5986 66.7604 98.5515 66.129 98.912 65.7106C99.2724 65.2921 99.9038 65.2451 100.322 65.6055L100.987 66.1783L101.459 65.5895C101.805 65.1585 102.434 65.0891 102.865 65.4345ZM134.057 65.8614C134.599 65.9683 134.951 66.4943 134.844 67.0361L134.584 68.3577L135.251 69.122C135.614 69.538 135.572 70.1697 135.156 70.533C134.74 70.8963 134.108 70.8536 133.745 70.4377L132.754 69.3036C132.55 69.0703 132.466 68.7559 132.526 68.452L132.882 66.6487C132.989 66.1069 133.515 65.7544 134.057 65.8614ZM53.0762 70.0614C53.4202 70.4935 53.3487 71.1227 52.9166 71.4666L51.4378 72.6438C51.2927 72.7593 51.1183 72.8322 50.9342 72.8543L48.9241 73.0955C48.3757 73.1613 47.8779 72.7701 47.8121 72.2217C47.7463 71.6734 48.1375 71.1755 48.6858 71.1097L50.4142 70.9023L51.671 69.9019C52.1031 69.5579 52.7322 69.6293 53.0762 70.0614ZM135.821 71.2949C136.237 70.9316 136.869 70.9742 137.232 71.3902L139.213 73.6584C139.577 74.0744 139.534 74.7061 139.118 75.0694C138.702 75.4327 138.07 75.39 137.707 74.9741L135.726 72.7059C135.363 72.2899 135.405 71.6582 135.821 71.2949ZM45.7777 72.4658C45.8434 73.0142 45.4523 73.512 44.9039 73.5778L40.8837 74.0602C40.3354 74.126 39.8375 73.7348 39.7717 73.1864C39.7059 72.6381 40.0971 72.1402 40.6455 72.0744L44.6656 71.5921C45.214 71.5263 45.7119 71.9175 45.7777 72.4658ZM37.7373 73.4305C37.8031 73.9789 37.4119 74.4767 36.8636 74.5425L32.8434 75.0249C32.295 75.0907 31.7972 74.6995 31.7314 74.1511C31.6656 73.6028 32.0568 73.1049 32.6051 73.0391L36.6253 72.5568C37.1737 72.491 37.6715 72.8822 37.7373 73.4305ZM29.697 74.3952C29.7628 74.9436 29.3716 75.4414 28.8232 75.5072L24.803 75.9896C24.2547 76.0554 23.7568 75.6642 23.691 75.1158C23.6252 74.5675 24.0164 74.0696 24.5648 74.0038L28.585 73.5215C29.1333 73.4557 29.6312 73.8469 29.697 74.3952ZM21.6566 75.3599C21.7224 75.9083 21.3312 76.4061 20.7829 76.4719L16.7627 76.9543C16.2143 77.0201 15.7165 76.6289 15.6507 76.0805C15.5849 75.5322 15.9761 75.0343 16.5244 74.9685L20.5446 74.4862C21.093 74.4204 21.5908 74.8116 21.6566 75.3599ZM13.6163 76.3246C13.6821 76.873 13.2909 77.3708 12.7425 77.4366L12.7202 77.4393L12.7859 77.5079C13.1678 77.9068 13.1541 78.5398 12.7552 78.9218C12.3563 79.3038 11.7233 79.29 11.3413 78.8911L9.89103 77.3765C9.62897 77.1029 9.5441 76.7046 9.67184 76.3478C9.79957 75.9911 10.118 75.7372 10.4942 75.6921L12.5043 75.4509C13.0526 75.3851 13.5505 75.7763 13.6163 76.3246ZM139.783 75.8313C140.199 75.468 140.831 75.5107 141.194 75.9266L141.888 76.7208L143.341 76.7281C143.894 76.7309 144.339 77.1809 144.336 77.7331C144.334 78.2854 143.884 78.7309 143.331 78.7281L141.427 78.7185C141.14 78.7171 140.867 78.5925 140.679 78.3764L139.688 77.2423C139.325 76.8263 139.367 76.1946 139.783 75.8313ZM146.145 77.7422C146.148 77.19 146.598 76.7445 147.15 76.7473L150.96 76.7664C151.512 76.7692 151.957 77.2191 151.955 77.7714C151.952 78.3237 151.502 78.7692 150.95 78.7664L147.14 78.7472C146.588 78.7445 146.143 78.2945 146.145 77.7422ZM153.764 77.7805C153.767 77.2282 154.216 76.7828 154.769 76.7855L158.578 76.8047C159.13 76.8075 159.576 77.2574 159.573 77.8097C159.57 78.362 159.12 78.8074 158.568 78.8047L154.759 78.7855C154.206 78.7827 153.761 78.3328 153.764 77.7805ZM161.382 77.8188C161.385 77.2665 161.835 76.8211 162.387 76.8238L166.196 76.843C166.748 76.8457 167.194 77.2957 167.191 77.848C167.188 78.4003 166.738 78.8457 166.186 78.8429L162.377 78.8238C161.825 78.821 161.379 78.3711 161.382 77.8188ZM169 77.8571C169.003 77.3048 169.453 76.8593 170.005 76.8621L173.814 76.8813C174.367 76.884 174.812 77.334 174.809 77.8863C174.807 78.4385 174.357 78.884 173.804 78.8812L169.995 78.8621C169.443 78.8593 168.998 78.4094 169 77.8571ZM176.619 77.8954C176.621 77.3431 177.071 76.8976 177.624 76.9004L181.433 76.9195C181.985 76.9223 182.43 77.3723 182.428 77.9245C182.425 78.4768 181.975 78.9223 181.423 78.9195L177.614 78.9004C177.061 78.8976 176.616 78.4476 176.619 77.8954ZM184.237 77.9336C184.24 77.3814 184.69 76.9359 185.242 76.9387L187.146 76.9482C187.632 76.9507 188.046 77.302 188.127 77.7811L188.452 79.6953C188.544 80.2398 188.178 80.756 187.633 80.8484C187.089 80.9407 186.572 80.5741 186.48 80.0296L186.296 78.944L185.232 78.9387C184.68 78.9359 184.234 78.4859 184.237 77.9336ZM14.2726 80.5065C14.6715 80.1245 15.3045 80.1382 15.6864 80.5371L18.587 83.5663C18.969 83.9652 18.9552 84.5982 18.5563 84.9802C18.1574 85.3622 17.5244 85.3484 17.1425 84.9495L14.2419 81.9203C13.8599 81.5214 13.8737 80.8884 14.2726 80.5065ZM187.948 82.7049C188.492 82.6126 189.009 82.9791 189.101 83.5237L189.75 87.352C189.842 87.8965 189.476 88.4128 188.931 88.5051C188.387 88.5974 187.871 88.2309 187.778 87.6863L187.129 83.858C187.037 83.3134 187.403 82.7972 187.948 82.7049ZM20.0737 86.5649C20.4726 86.1829 21.1056 86.1966 21.4876 86.5955L24.3882 89.6247C24.7701 90.0236 24.7564 90.6566 24.3575 91.0386C23.9586 91.4206 23.3256 91.4068 22.9436 91.0079L20.043 87.9787C19.6611 87.5798 19.6748 86.9468 20.0737 86.5649ZM189.246 90.3616C189.791 90.2693 190.307 90.6359 190.399 91.1804L191.048 95.0088C191.141 95.5533 190.774 96.0696 190.229 96.1619C189.685 96.2542 189.169 95.8876 189.076 95.3431L188.427 91.5147C188.335 90.9702 188.702 90.454 189.246 90.3616ZM25.8748 92.6232C26.2737 92.2413 26.9068 92.255 27.2887 92.6539L30.1893 95.6831C30.5713 96.082 30.5575 96.715 30.1586 97.097C29.7597 97.479 29.1267 97.4652 28.7447 97.0663L25.8442 94.0371C25.4622 93.6382 25.4759 93.0052 25.8748 92.6232ZM190.544 98.0184C191.089 97.9261 191.605 98.2927 191.697 98.8372L192.022 100.751C192.098 101.201 191.86 101.646 191.443 101.832L189.755 102.584C189.251 102.809 188.66 102.582 188.435 102.078C188.21 101.573 188.437 100.982 188.941 100.757L189.92 100.321L189.725 99.1715C189.633 98.627 190 98.1107 190.544 98.0184ZM31.676 98.6816C32.0749 98.2997 32.7079 98.3134 33.0899 98.7123L34.4719 100.156L35.951 101.19C36.4036 101.507 36.5139 102.13 36.1973 102.583C35.8808 103.035 35.2573 103.146 34.8047 102.829L33.2448 101.738C33.191 101.7 33.141 101.658 33.0956 101.61L31.6453 100.096C31.2634 99.6966 31.2771 99.0636 31.676 98.6816ZM100.254 100.418C100.48 100.026 100.942 99.8355 101.379 99.9526L103.384 100.49C103.918 100.633 104.234 101.181 104.091 101.715C104.018 101.989 103.837 102.206 103.606 102.333C103.629 102.615 103.532 102.904 103.316 103.119C102.925 103.51 102.292 103.509 101.902 103.118L100.412 101.625C100.092 101.305 100.028 100.81 100.254 100.418ZM106.171 102.272C106.314 101.738 106.862 101.422 107.396 101.565L111.407 102.639C111.941 102.782 112.257 103.331 112.114 103.864C111.971 104.398 111.423 104.714 110.89 104.571L106.878 103.497C106.345 103.354 106.028 102.805 106.171 102.272ZM186.886 102.768C187.111 103.273 186.884 103.864 186.38 104.089L183.004 105.593C182.5 105.818 181.908 105.592 181.684 105.087C181.459 104.583 181.685 103.991 182.19 103.767L185.565 102.262C186.07 102.037 186.661 102.264 186.886 102.768ZM37.6784 103.618C37.9949 103.166 38.6184 103.056 39.071 103.372L42.1909 105.554C42.6435 105.871 42.7538 106.494 42.4373 106.947C42.1208 107.399 41.4973 107.51 41.0447 107.193L37.9247 105.011C37.4721 104.695 37.3618 104.071 37.6784 103.618ZM114.194 104.421C114.337 103.888 114.885 103.571 115.419 103.714L119.43 104.789C119.964 104.932 120.28 105.48 120.137 106.013C119.994 106.547 119.446 106.864 118.913 106.721L114.901 105.646C114.368 105.503 114.051 104.955 114.194 104.421ZM104.883 104.69C105.274 104.3 105.907 104.3 106.297 104.691L109.277 107.677C109.667 108.068 109.666 108.702 109.275 109.092C108.884 109.482 108.251 109.481 107.861 109.09L104.881 106.104C104.491 105.713 104.492 105.08 104.883 104.69ZM180.135 105.777C180.36 106.282 180.133 106.873 179.629 107.098L176.253 108.603C175.749 108.827 175.157 108.601 174.933 108.096C174.708 107.592 174.934 107.001 175.439 106.776L178.814 105.271C179.319 105.046 179.91 105.273 180.135 105.777ZM122.217 106.571C122.36 106.037 122.908 105.721 123.442 105.863L127.453 106.938C127.987 107.081 128.303 107.629 128.16 108.163C128.017 108.696 127.469 109.013 126.936 108.87L122.924 107.795C122.391 107.652 122.074 107.104 122.217 106.571ZM43.9183 107.983C44.2348 107.53 44.8583 107.42 45.3109 107.736L48.4309 109.918C48.8835 110.235 48.9938 110.858 48.6772 111.311C48.3607 111.764 47.7372 111.874 47.2846 111.557L44.1647 109.375C43.7121 109.059 43.6018 108.435 43.9183 107.983ZM130.24 108.72C130.383 108.187 130.931 107.87 131.465 108.013L135.476 109.088C136.01 109.231 136.326 109.779 136.183 110.312C136.04 110.846 135.492 111.162 134.959 111.019L130.947 109.945C130.414 109.802 130.097 109.254 130.24 108.72ZM173.384 108.787C173.609 109.291 173.382 109.882 172.878 110.107L169.502 111.612C168.998 111.837 168.406 111.61 168.181 111.105C167.957 110.601 168.183 110.01 168.688 109.785L172.063 108.28C172.568 108.056 173.159 108.282 173.384 108.787ZM138.263 110.869C138.406 110.336 138.954 110.019 139.488 110.162L143.499 111.237C144.033 111.38 144.349 111.928 144.206 112.462C144.063 112.995 143.515 113.312 142.981 113.169L138.97 112.094C138.437 111.951 138.12 111.403 138.263 110.869ZM110.842 110.662C111.233 110.272 111.866 110.273 112.256 110.664L115.236 113.65C115.626 114.041 115.626 114.674 115.235 115.064C114.844 115.454 114.21 115.453 113.82 115.062L110.841 112.076C110.451 111.685 110.451 111.052 110.842 110.662ZM166.633 111.796C166.858 112.3 166.631 112.891 166.126 113.116L162.751 114.621C162.246 114.846 161.655 114.619 161.43 114.115C161.206 113.61 161.432 113.019 161.937 112.794L165.312 111.29C165.817 111.065 166.408 111.291 166.633 111.796ZM50.1583 112.347C50.4748 111.894 51.0983 111.784 51.5509 112.1L52.8412 113.003L54.771 112.954C55.3231 112.94 55.7821 113.376 55.7961 113.928C55.8102 114.48 55.374 114.939 54.8219 114.953L52.5631 115.011C52.3495 115.016 52.1397 114.953 51.9646 114.83L50.4046 113.739C49.952 113.423 49.8417 112.799 50.1583 112.347ZM146.286 113.019C146.429 112.485 146.977 112.169 147.511 112.312L151.522 113.386C152.055 113.529 152.372 114.078 152.229 114.611C152.086 115.145 151.538 115.461 151.004 115.318L146.993 114.244C146.459 114.101 146.143 113.552 146.286 113.019ZM80.3359 112.601C80.5286 112.787 80.6389 113.042 80.6424 113.309L80.6711 115.549C80.6782 116.101 80.2362 116.554 79.684 116.562C79.1317 116.569 78.6783 116.127 78.6712 115.574L78.6555 114.347L77.4091 114.379C76.857 114.393 76.3981 113.957 76.384 113.405C76.37 112.853 76.8062 112.394 77.3583 112.38L79.617 112.322C79.8843 112.315 80.1432 112.416 80.3359 112.601ZM73.8659 113.469C73.88 114.021 73.4438 114.48 72.8917 114.494L68.3742 114.609C67.8221 114.623 67.3632 114.186 67.3491 113.634C67.3351 113.082 67.7713 112.623 68.3234 112.609L72.8409 112.494C73.393 112.48 73.8519 112.917 73.8659 113.469ZM64.831 113.698C64.8451 114.251 64.4089 114.709 63.8568 114.723L59.3393 114.838C58.7872 114.852 58.3283 114.416 58.3142 113.864C58.3002 113.312 58.7364 112.853 59.2885 112.839L63.8059 112.724C64.3581 112.71 64.817 113.146 64.831 113.698ZM159.882 114.805C160.106 115.309 159.88 115.901 159.375 116.126L157.688 116.878C157.478 116.971 157.243 116.99 157.022 116.93L155.016 116.393C154.482 116.25 154.166 115.702 154.309 115.168C154.452 114.635 155 114.318 155.533 114.461L157.197 114.907L158.561 114.299C159.066 114.074 159.657 114.301 159.882 114.805ZM116.802 116.634C117.193 116.244 117.826 116.245 118.216 116.636L121.195 119.622C121.586 120.013 121.585 120.646 121.194 121.036C120.803 121.426 120.17 121.426 119.78 121.035L116.8 118.048C116.41 117.658 116.411 117.024 116.802 116.634ZM79.7158 119.041C80.268 119.034 80.7214 119.476 80.7285 120.028L80.7536 121.986L81.7803 123.614C82.0749 124.081 81.9351 124.698 81.468 124.993C81.0008 125.288 80.3833 125.148 80.0887 124.681L78.9115 122.814C78.8131 122.658 78.7597 122.478 78.7574 122.294L78.7287 120.054C78.7216 119.502 79.1635 119.048 79.7158 119.041ZM122.761 122.607C123.152 122.216 123.785 122.217 124.175 122.608L127.155 125.594C127.545 125.985 127.544 126.618 127.153 127.008C126.762 127.398 126.129 127.398 125.739 127.007L122.759 124.021C122.369 123.63 122.37 122.997 122.761 122.607ZM82.7553 127.034C83.2224 126.739 83.84 126.879 84.1346 127.346L85.3183 129.223L86.8689 131.749C87.1578 132.22 87.0105 132.836 86.5398 133.125C86.0691 133.414 85.4533 133.266 85.1644 132.796L83.6202 130.279L83.6137 130.269L82.443 128.413C82.1484 127.946 82.2882 127.329 82.7553 127.034ZM128.72 128.579C129.111 128.189 129.744 128.189 130.134 128.58L133.114 131.566C133.504 131.957 133.504 132.59 133.113 132.981C132.722 133.371 132.089 133.37 131.698 132.979L128.719 129.993C128.329 129.602 128.329 128.969 128.72 128.579ZM134.68 134.551C135.071 134.161 135.704 134.162 136.094 134.552L139.074 137.539C139.464 137.93 139.463 138.563 139.072 138.953C138.681 139.343 138.048 139.342 137.658 138.951L134.678 135.965C134.288 135.574 134.289 134.941 134.68 134.551ZM88.595 136.473C89.0657 136.185 89.6815 136.332 89.9704 136.803L91.417 139.16L92.5623 139.99C93.0093 140.315 93.1089 140.94 92.7846 141.387C92.4604 141.834 91.8351 141.934 91.388 141.609L90.0817 140.662C89.9753 140.585 89.8852 140.487 89.8165 140.375L88.2658 137.849C87.9769 137.378 88.1243 136.762 88.595 136.473ZM123.883 140.396C124.167 140.208 124.527 140.178 124.839 140.316L126.734 141.156C127.239 141.38 127.466 141.971 127.243 142.476C127.019 142.98 126.428 143.208 125.923 142.985L125.452 142.776L125.457 143.252C125.464 143.804 125.021 144.257 124.469 144.264C123.917 144.27 123.464 143.828 123.457 143.276L123.433 141.242C123.429 140.902 123.599 140.583 123.883 140.396ZM140.639 140.523C141.03 140.133 141.663 140.134 142.053 140.525L145.033 143.511C145.423 143.902 145.422 144.535 145.031 144.925C144.64 145.315 144.007 145.314 143.617 144.924L140.637 141.937C140.247 141.546 140.248 140.913 140.639 140.523ZM93.7784 142.108C94.1026 141.661 94.7279 141.561 95.175 141.885L97.7877 143.78C98.2348 144.104 98.3344 144.73 98.0101 145.177C97.6859 145.624 97.0606 145.724 96.6135 145.399L94.0008 143.504C93.5537 143.18 93.4541 142.555 93.7784 142.108ZM129.204 143.345C129.428 142.84 130.019 142.612 130.524 142.836L134.314 144.516C134.819 144.739 135.047 145.33 134.823 145.835C134.599 146.34 134.008 146.568 133.503 146.344L129.713 144.664C129.208 144.441 128.98 143.85 129.204 143.345ZM99.0039 145.898C99.3281 145.451 99.9534 145.351 100.4 145.675L101.707 146.623C101.824 146.708 101.921 146.817 101.992 146.943L102.987 148.718C103.257 149.2 103.086 149.809 102.604 150.079C102.123 150.35 101.513 150.178 101.243 149.696L100.355 148.113L99.2263 147.294C98.7792 146.97 98.6796 146.345 99.0039 145.898ZM136.784 146.704C137.008 146.2 137.599 145.972 138.104 146.195L141.894 147.875C142.399 148.099 142.627 148.69 142.403 149.195C142.179 149.7 141.588 149.927 141.083 149.704L137.293 148.024C136.788 147.8 136.561 147.209 136.784 146.704ZM146.598 146.495C146.989 146.105 147.622 146.106 148.013 146.497L150.992 149.483C151.382 149.874 151.382 150.507 150.991 150.897C150.6 151.287 149.967 151.287 149.576 150.896L146.597 147.91C146.207 147.519 146.207 146.886 146.598 146.495ZM124.494 146.331C125.046 146.324 125.499 146.767 125.505 147.319L125.553 151.386C125.56 151.938 125.117 152.391 124.565 152.398C124.013 152.404 123.56 151.962 123.553 151.409L123.505 147.343C123.499 146.79 123.941 146.337 124.494 146.331ZM144.364 150.064C144.588 149.559 145.179 149.331 145.684 149.555L149.474 151.235C149.979 151.458 150.207 152.049 149.983 152.554C149.759 153.059 149.168 153.287 148.664 153.063L144.874 151.383C144.369 151.16 144.141 150.569 144.364 150.064ZM103.617 151.885C104.098 151.615 104.708 151.786 104.978 152.268L106.969 155.818C107.239 156.3 107.067 156.909 106.586 157.18C106.104 157.45 105.495 157.278 105.224 156.796L103.234 153.246C102.964 152.765 103.135 152.155 103.617 151.885ZM152.558 152.468C152.949 152.078 153.582 152.078 153.972 152.469L155.462 153.962C155.802 154.303 155.851 154.838 155.578 155.235C155.306 155.632 154.789 155.778 154.349 155.583L152.454 154.743C151.949 154.519 151.721 153.928 151.945 153.424C152.02 153.254 152.136 153.116 152.277 153.015C152.309 152.815 152.403 152.622 152.558 152.468ZM124.589 154.465C125.142 154.458 125.595 154.901 125.601 155.453L125.649 159.52C125.656 160.072 125.213 160.525 124.661 160.531C124.109 160.538 123.656 160.095 123.649 159.543L123.601 155.476C123.595 154.924 124.037 154.471 124.589 154.465ZM107.598 158.985C108.08 158.715 108.689 158.887 108.96 159.368L110.95 162.918C111.22 163.4 111.049 164.01 110.567 164.28C110.086 164.55 109.476 164.378 109.206 163.897L107.215 160.347C106.945 159.865 107.117 159.255 107.598 158.985ZM124.685 162.598C125.238 162.592 125.691 163.034 125.697 163.587L125.745 167.653C125.752 168.206 125.309 168.659 124.757 168.665C124.205 168.672 123.752 168.229 123.745 167.677L123.697 163.61C123.691 163.058 124.133 162.605 124.685 162.598ZM111.58 166.085C112.061 165.815 112.671 165.987 112.941 166.468L114.932 170.019C115.202 170.5 115.03 171.11 114.549 171.38C114.067 171.65 113.458 171.478 113.187 170.997L111.197 167.447C110.927 166.965 111.098 166.355 111.58 166.085ZM124.781 170.732C125.333 170.726 125.786 171.168 125.793 171.72L125.841 175.787C125.847 176.339 125.405 176.792 124.853 176.799C124.301 176.805 123.848 176.363 123.841 175.811L123.793 171.744C123.787 171.192 124.229 170.739 124.781 170.732ZM115.561 173.185C116.043 172.915 116.652 173.087 116.923 173.569L118.913 177.119C119.184 177.6 119.012 178.21 118.53 178.48C118.049 178.75 117.439 178.579 117.169 178.097L115.178 174.547C114.908 174.065 115.08 173.456 115.561 173.185ZM124.877 178.866C125.429 178.859 125.882 179.302 125.889 179.854L125.937 183.921C125.943 184.473 125.501 184.926 124.949 184.933C124.396 184.939 123.943 184.497 123.937 183.945L123.889 179.878C123.882 179.325 124.325 178.872 124.877 178.866ZM119.543 180.286C120.025 180.016 120.634 180.187 120.904 180.669L122.895 184.219C123.165 184.701 122.993 185.31 122.512 185.58C122.03 185.85 121.421 185.679 121.15 185.197L119.16 181.647C118.89 181.165 119.061 180.556 119.543 180.286ZM124.973 187C125.525 186.993 125.978 187.436 125.985 187.988L126.009 190.021C126.014 190.478 125.709 190.881 125.267 190.999C124.826 191.117 124.36 190.921 124.137 190.522L123.141 188.747C122.871 188.265 123.043 187.656 123.524 187.386C123.763 187.252 124.032 187.227 124.277 187.293C124.455 187.115 124.701 187.003 124.973 187Z" fill="#7B7B7B"/>
<path d="M208.645 121.34V117.16C208.645 116.52 208.445 116.4 208.185 116.4C207.885 116.4 207.685 116.54 207.685 117.18V121.34C207.685 121.96 207.885 122.12 208.185 122.12C208.445 122.12 208.645 121.98 208.645 121.34ZM209.945 117.9V120.66C209.945 121.78 209.865 123.22 208.165 123.22C206.465 123.22 206.385 121.82 206.385 120.68V117.88C206.385 116.72 206.465 115.34 208.165 115.34C209.865 115.34 209.945 116.78 209.945 117.9ZM214.045 115.64L209.085 130.28L207.905 129.84L212.865 115.2L214.045 115.64ZM214.365 128.28V124.1C214.365 123.46 214.165 123.34 213.905 123.34C213.605 123.34 213.405 123.48 213.405 124.12V128.28C213.405 128.9 213.605 129.06 213.905 129.06C214.165 129.06 214.365 128.92 214.365 128.28ZM215.665 124.84V127.6C215.665 128.72 215.585 130.16 213.885 130.16C212.185 130.16 212.105 128.76 212.105 127.62V124.82C212.105 123.66 212.185 122.28 213.885 122.28C215.585 122.28 215.665 123.72 215.665 124.84Z" fill="black"/>
<path d="M204.063 130H202.123V117.94L200.283 119.22L199.363 117.84L202.543 115.6H204.063V130Z" fill="black"/>
<path d="M191.721 120.8V120.12C191.721 118.04 191.721 115.32 194.721 115.32C197.681 115.32 197.681 117.96 197.681 120.08V125.5C197.681 128.06 197.381 130.26 194.481 130.26C193.201 130.26 192.381 129.8 191.801 129.16L192.901 127.72C193.201 128 193.701 128.42 194.281 128.42C195.521 128.42 195.681 127.56 195.681 124.98V124.34C195.421 124.7 194.921 125.14 194.101 125.14C191.821 125.14 191.721 123.42 191.721 120.8ZM193.741 119.78V120.64C193.741 122.16 193.741 123.32 194.681 123.32C195.661 123.32 195.661 122.14 195.661 120.6V119.78C195.661 118.28 195.661 117.1 194.681 117.1C193.741 117.1 193.741 118.26 193.741 119.78Z" fill="black"/>
<path d="M158.645 127.34V123.16C158.645 122.52 158.445 122.4 158.185 122.4C157.885 122.4 157.685 122.54 157.685 123.18V127.34C157.685 127.96 157.885 128.12 158.185 128.12C158.445 128.12 158.645 127.98 158.645 127.34ZM159.945 123.9V126.66C159.945 127.78 159.865 129.22 158.165 129.22C156.465 129.22 156.385 127.82 156.385 126.68V123.88C156.385 122.72 156.465 121.34 158.165 121.34C159.865 121.34 159.945 122.78 159.945 123.9ZM164.045 121.64L159.085 136.28L157.905 135.84L162.865 121.2L164.045 121.64ZM164.365 134.28V130.1C164.365 129.46 164.165 129.34 163.905 129.34C163.605 129.34 163.405 129.48 163.405 130.12V134.28C163.405 134.9 163.605 135.06 163.905 135.06C164.165 135.06 164.365 134.92 164.365 134.28ZM165.665 130.84V133.6C165.665 134.72 165.585 136.16 163.885 136.16C162.185 136.16 162.105 134.76 162.105 133.62V130.82C162.105 129.66 162.185 128.28 163.885 128.28C165.585 128.28 165.665 129.72 165.665 130.84Z" fill="#D85456"/>
<path d="M151.761 123.06C151.101 123.06 150.621 123.46 150.281 123.9L149.021 122.74C149.541 121.96 150.361 121.32 152.021 121.32C153.821 121.32 155.121 122.26 155.121 124.96C155.121 128.02 154.141 128.62 152.561 130.2C151.561 131.2 151.281 131.9 151.281 133.34V134.12H154.901V136H149.341V133.7C149.341 131.24 149.881 130.2 151.141 128.94C152.021 128.06 153.061 127.24 153.061 125.24C153.061 123.58 152.601 123.06 151.761 123.06Z" fill="#D85456"/>
<path d="M144.519 123.06C143.899 123.06 143.439 123.46 143.099 123.94L141.859 122.8C142.379 121.94 143.199 121.32 144.599 121.32C146.879 121.32 147.579 122.72 147.579 124.72V125.88C147.579 127.36 147.179 128.1 146.079 128.36C147.059 128.54 147.679 129.44 147.679 130.98V132.44C147.679 134.58 146.999 136.26 144.479 136.26C143.059 136.26 142.159 135.44 141.779 134.8L143.079 133.52C143.379 133.94 143.879 134.46 144.519 134.46C145.399 134.46 145.679 133.86 145.679 132.44V131.44C145.679 129.46 145.139 129.44 143.939 129.44H143.659V127.6H143.939C145.019 127.6 145.579 127.58 145.579 125.62V124.78C145.579 123.78 145.379 123.06 144.519 123.06Z" fill="#D85456"/>
<path d="M187.645 183.34V179.16C187.645 178.52 187.445 178.4 187.185 178.4C186.885 178.4 186.685 178.54 186.685 179.18V183.34C186.685 183.96 186.885 184.12 187.185 184.12C187.445 184.12 187.645 183.98 187.645 183.34ZM188.945 179.9V182.66C188.945 183.78 188.865 185.22 187.165 185.22C185.465 185.22 185.385 183.82 185.385 182.68V179.88C185.385 178.72 185.465 177.34 187.165 177.34C188.865 177.34 188.945 178.78 188.945 179.9ZM193.045 177.64L188.085 192.28L186.905 191.84L191.865 177.2L193.045 177.64ZM193.365 190.28V186.1C193.365 185.46 193.165 185.34 192.905 185.34C192.605 185.34 192.405 185.48 192.405 186.12V190.28C192.405 190.9 192.605 191.06 192.905 191.06C193.165 191.06 193.365 190.92 193.365 190.28ZM194.665 186.84V189.6C194.665 190.72 194.585 192.16 192.885 192.16C191.185 192.16 191.105 190.76 191.105 189.62V186.82C191.105 185.66 191.185 184.28 192.885 184.28C194.585 184.28 194.665 185.72 194.665 186.84Z" fill="black"/>
<path d="M184.083 186.78V187.46C184.083 189.54 184.083 192.26 181.083 192.26C178.123 192.26 178.123 189.62 178.123 187.5V182.08C178.123 179.52 178.423 177.32 181.323 177.32C182.463 177.32 183.323 177.7 183.903 178.34L182.803 179.78C182.503 179.5 182.103 179.16 181.523 179.16C180.283 179.16 180.123 180.02 180.123 182.6V183.44C180.243 183.14 180.883 182.44 181.903 182.44C183.963 182.44 184.083 184.16 184.083 186.78ZM182.063 187.8V186.94C182.063 185.42 182.063 184.26 181.123 184.26C180.143 184.26 180.143 185.44 180.143 186.98V187.8C180.143 189.3 180.143 190.48 181.123 190.48C182.063 190.48 182.063 189.32 182.063 187.8Z" fill="black"/>
<path d="M176.581 180.92V181.82C176.581 183.12 176.281 184.26 175.181 184.5C176.161 184.68 176.681 185.78 176.681 187.32V188.44C176.681 190.28 176.261 192.26 173.701 192.26C171.141 192.26 170.721 190.28 170.721 188.44V187.32C170.721 185.78 171.241 184.68 172.221 184.5C171.121 184.26 170.821 183.12 170.821 181.82V180.92C170.821 178.92 171.421 177.32 173.701 177.32C175.981 177.32 176.581 178.92 176.581 180.92ZM174.761 188.44V187.58C174.761 186.46 174.581 185.56 173.701 185.56C172.821 185.56 172.641 186.46 172.641 187.58V188.44C172.641 189.56 172.821 190.46 173.701 190.46C174.581 190.46 174.761 189.56 174.761 188.44ZM174.721 181.82V181C174.721 179.92 174.541 179.04 173.701 179.04C172.861 179.04 172.681 179.92 172.681 181V181.82C172.681 182.9 172.861 183.78 173.701 183.78C174.541 183.78 174.721 182.9 174.721 181.82Z" fill="black"/>
<path d="M144.645 213.34V209.16C144.645 208.52 144.445 208.4 144.185 208.4C143.885 208.4 143.685 208.54 143.685 209.18V213.34C143.685 213.96 143.885 214.12 144.185 214.12C144.445 214.12 144.645 213.98 144.645 213.34ZM145.945 209.9V212.66C145.945 213.78 145.865 215.22 144.165 215.22C142.465 215.22 142.385 213.82 142.385 212.68V209.88C142.385 208.72 142.465 207.34 144.165 207.34C145.865 207.34 145.945 208.78 145.945 209.9ZM150.045 207.64L145.085 222.28L143.905 221.84L148.865 207.2L150.045 207.64ZM150.365 220.28V216.1C150.365 215.46 150.165 215.34 149.905 215.34C149.605 215.34 149.405 215.48 149.405 216.12V220.28C149.405 220.9 149.605 221.06 149.905 221.06C150.165 221.06 150.365 220.92 150.365 220.28ZM151.665 216.84V219.6C151.665 220.72 151.585 222.16 149.885 222.16C148.185 222.16 148.105 220.76 148.105 219.62V216.82C148.105 215.66 148.185 214.28 149.885 214.28C151.585 214.28 151.665 215.72 151.665 216.84Z" fill="black"/>
<path d="M141.083 216.78V217.46C141.083 219.54 141.083 222.26 138.083 222.26C135.123 222.26 135.123 219.62 135.123 217.5V212.08C135.123 209.52 135.423 207.32 138.323 207.32C139.463 207.32 140.323 207.7 140.903 208.34L139.803 209.78C139.503 209.5 139.103 209.16 138.523 209.16C137.283 209.16 137.123 210.02 137.123 212.6V213.44C137.243 213.14 137.883 212.44 138.903 212.44C140.963 212.44 141.083 214.16 141.083 216.78ZM139.063 217.8V216.94C139.063 215.42 139.063 214.26 138.123 214.26C137.143 214.26 137.143 215.44 137.143 216.98V217.8C137.143 219.3 137.143 220.48 138.123 220.48C139.063 220.48 139.063 219.32 139.063 217.8Z" fill="black"/>
<path d="M133.581 210.92V211.82C133.581 213.12 133.281 214.26 132.181 214.5C133.161 214.68 133.681 215.78 133.681 217.32V218.44C133.681 220.28 133.261 222.26 130.701 222.26C128.141 222.26 127.721 220.28 127.721 218.44V217.32C127.721 215.78 128.241 214.68 129.221 214.5C128.121 214.26 127.821 213.12 127.821 211.82V210.92C127.821 208.92 128.421 207.32 130.701 207.32C132.981 207.32 133.581 208.92 133.581 210.92ZM131.761 218.44V217.58C131.761 216.46 131.581 215.56 130.701 215.56C129.821 215.56 129.641 216.46 129.641 217.58V218.44C129.641 219.56 129.821 220.46 130.701 220.46C131.581 220.46 131.761 219.56 131.761 218.44ZM131.721 211.82V211C131.721 209.92 131.541 209.04 130.701 209.04C129.861 209.04 129.681 209.92 129.681 211V211.82C129.681 212.9 129.861 213.78 130.701 213.78C131.541 213.78 131.721 212.9 131.721 211.82Z" fill="black"/>
<path fill-rule="evenodd" clip-rule="evenodd" d="M200.586 106.986L194.418 101.4L195.089 100.659L201.257 106.245L200.586 106.986Z" fill="black"/>
<path fill-rule="evenodd" clip-rule="evenodd" d="M145.586 117.129L139.418 111.543L140.089 110.802L146.257 116.388L145.586 117.129Z" fill="black"/>
<path fill-rule="evenodd" clip-rule="evenodd" d="M172.586 173.129L166.418 167.543L167.089 166.802L173.257 172.388L172.586 173.129Z" fill="black"/>
<path fill-rule="evenodd" clip-rule="evenodd" d="M135.586 203.129L129.418 197.543L130.089 196.802L136.257 202.388L135.586 203.129Z" fill="black"/>
</svg>
