<svg width="216" height="223" viewBox="0 0 216 223" fill="none" xmlns="http://www.w3.org/2000/svg">
<path fill-rule="evenodd" clip-rule="evenodd" d="M75.3555 100.821C75.3555 86.7705 86.7456 75.3804 100.796 75.3804C114.847 75.3804 126.237 86.7705 126.237 100.821C126.237 114.872 114.847 126.262 100.796 126.262C86.7456 126.262 75.3555 114.872 75.3555 100.821ZM100.796 76.3804C87.2979 76.3804 76.3555 87.3228 76.3555 100.821C76.3555 114.319 87.2979 125.262 100.796 125.262C114.294 125.262 125.237 114.319 125.237 100.821C125.237 87.3228 114.294 76.3804 100.796 76.3804Z" fill="#CCCCCC"/>
<path fill-rule="evenodd" clip-rule="evenodd" d="M50.4141 100.821C50.4141 72.9964 72.9706 50.4399 100.795 50.4399C128.62 50.4399 151.177 72.9964 151.177 100.821C151.177 128.646 128.62 151.203 100.795 151.203C72.9706 151.203 50.4141 128.646 50.4141 100.821ZM100.795 51.4399C73.5229 51.4399 51.4141 73.5487 51.4141 100.821C51.4141 128.094 73.5229 150.203 100.795 150.203C128.068 150.203 150.177 128.094 150.177 100.821C150.177 73.5487 128.068 51.4399 100.795 51.4399Z" fill="#CCCCCC"/>
<path fill-rule="evenodd" clip-rule="evenodd" d="M25.4727 100.821C25.4727 59.2219 59.1955 25.499 100.795 25.499C142.394 25.499 176.117 59.2219 176.117 100.821C176.117 142.42 142.394 176.143 100.795 176.143C59.1955 176.143 25.4727 142.42 25.4727 100.821ZM100.795 26.499C59.7478 26.499 26.4727 59.7741 26.4727 100.821C26.4727 141.868 59.7478 175.143 100.795 175.143C141.842 175.143 175.117 141.868 175.117 100.821C175.117 59.7741 141.842 26.499 100.795 26.499Z" fill="#CCCCCC"/>
<path fill-rule="evenodd" clip-rule="evenodd" d="M0.535156 100.821C0.535156 45.4478 45.4243 0.558594 100.798 0.558594C156.171 0.558594 201.061 45.4478 201.061 100.821C201.061 156.195 156.171 201.084 100.798 201.084C45.4243 201.084 0.535156 156.195 0.535156 100.821ZM100.798 1.55859C45.9766 1.55859 1.53516 46 1.53516 100.821C1.53516 155.643 45.9766 200.084 100.798 200.084C155.619 200.084 200.061 155.643 200.061 100.821C200.061 46 155.619 1.55859 100.798 1.55859Z" fill="#CCCCCC"/>
<path fill-rule="evenodd" clip-rule="evenodd" d="M100.5 97.2021V1H101.5V97.2021L126.399 4.27801L127.365 4.53683L102.466 97.4609L150.567 14.1475L151.433 14.6475L103.332 97.9609L171.357 29.9358L172.064 30.6429L104.039 98.668L187.353 50.567L187.853 51.433L104.539 99.5341L197.463 74.6351L197.722 75.6011L104.798 100.5H201V101.5H104.798L197.722 126.399L197.463 127.365L104.539 102.466L187.853 150.567L187.353 151.433L104.039 103.332L172.064 171.357L171.357 172.064L103.332 104.039L151.433 187.353L150.567 187.853L102.466 104.539L127.365 197.463L126.399 197.722L101.5 104.798V201H100.5V104.798L75.6011 197.722L74.6351 197.463L99.5341 104.539L51.433 187.853L50.567 187.353L98.668 104.039L30.6429 172.064L29.9358 171.357L97.9609 103.332L14.6475 151.433L14.1475 150.567L97.4609 102.466L4.53683 127.365L4.27801 126.399L97.2021 101.5H1V100.5H97.2021L4.27801 75.6011L4.53683 74.6351L97.4609 99.5341L14.1475 51.433L14.6475 50.567L97.9609 98.668L29.9358 30.6429L30.6429 29.9358L98.668 97.9609L50.567 14.6475L51.433 14.1475L99.5341 97.4609L74.6351 4.53683L75.6011 4.27801L100.5 97.2021Z" fill="#CCCCCC"/>
<path d="M83.6034 35.942L101.061 69.7076L115.072 49.0354L141.603 31L117.025 85.3277L159.634 67.4107L188.116 77.8616L191.207 101.176L122.882 107.034L164.5 138L161.587 161.702L128.166 148.035L125.524 192.588L101.061 168.823L83.6034 166.526L69.5922 155.845L56.4998 145.853L50.4118 130.463L27.0982 121.046L19.9777 101.176L14 77.8616L42.6023 67.4107L49.2634 49.3799L64.9984 38.813L83.6034 35.942Z" fill="#E4C864" fill-opacity="0.19"/>
<path fill-rule="evenodd" clip-rule="evenodd" d="M142.086 30.426C142.343 30.6423 142.425 31.0031 142.286 31.3091L118.496 83.8955L159.343 66.7193C159.518 66.6458 159.714 66.6413 159.892 66.7066L188.375 77.1575C188.637 77.2535 188.823 77.4868 188.86 77.7631L191.951 101.078C191.977 101.281 191.92 101.486 191.792 101.646C191.663 101.806 191.475 101.906 191.271 101.924L124.916 107.612L164.948 137.398C165.164 137.559 165.277 137.824 165.245 138.091L162.332 161.794C162.303 162.026 162.168 162.231 161.966 162.349C161.765 162.468 161.52 162.485 161.303 162.397L128.853 149.126L126.273 192.632C126.256 192.925 126.069 193.181 125.796 193.287C125.522 193.393 125.212 193.33 125.002 193.126L100.717 169.534L83.5057 167.27C83.3759 167.252 83.2529 167.202 83.1488 167.122L69.1377 156.442L69.1373 156.441L56.0449 146.449C55.9365 146.366 55.8527 146.255 55.8025 146.128L49.8329 131.038L26.8174 121.741C26.6191 121.661 26.4644 121.5 26.3922 121.299L19.2718 101.429C19.264 101.408 19.2571 101.385 19.2513 101.363L13.2736 78.0479C13.1779 77.6746 13.3807 77.2895 13.7427 77.1572L42.0192 66.8253L48.56 49.12C48.6146 48.9721 48.7145 48.8452 48.8454 48.7573L64.5804 38.1903C64.6717 38.129 64.7754 38.0885 64.8841 38.0717L83.4891 35.2008C83.8075 35.1517 84.1218 35.3114 84.2697 35.5976L101.148 68.2426L114.452 48.6146C114.505 48.5361 114.572 48.4684 114.651 48.4151L141.181 30.3797C141.459 30.1909 141.829 30.2098 142.086 30.426ZM115.613 49.5749L101.682 70.1284C101.534 70.3473 101.281 70.4719 101.017 70.4563C100.753 70.4406 100.516 70.287 100.395 70.052L83.1849 36.7655L65.278 39.5287L49.883 49.8673L43.306 67.6706C43.2297 67.877 43.0666 68.0396 42.8598 68.1151L14.8953 78.3331L20.6957 100.956L27.6909 120.476L50.6929 129.768C50.8833 129.845 51.0338 129.996 51.1094 130.187L57.1207 145.383L70.047 155.249L70.0474 155.249L83.8994 165.808L101.159 168.079C101.319 168.1 101.468 168.172 101.584 168.285L124.873 190.909L127.417 147.99C127.432 147.749 127.562 147.529 127.766 147.4C127.971 147.271 128.226 147.249 128.45 147.34L160.962 160.637L163.703 138.341L122.434 107.635C122.184 107.449 122.075 107.128 122.16 106.828C122.246 106.529 122.507 106.313 122.818 106.286L190.36 100.496L187.433 78.4096L159.652 68.2164L117.315 86.0191C117.031 86.1387 116.703 86.072 116.487 85.8509C116.272 85.6299 116.214 85.2997 116.341 85.0186L139.822 33.1178L115.613 49.5749Z" fill="#E4C864"/>
<path d="M208.645 121.34V117.16C208.645 116.52 208.445 116.4 208.185 116.4C207.885 116.4 207.685 116.54 207.685 117.18V121.34C207.685 121.96 207.885 122.12 208.185 122.12C208.445 122.12 208.645 121.98 208.645 121.34ZM209.945 117.9V120.66C209.945 121.78 209.865 123.22 208.165 123.22C206.465 123.22 206.385 121.82 206.385 120.68V117.88C206.385 116.72 206.465 115.34 208.165 115.34C209.865 115.34 209.945 116.78 209.945 117.9ZM214.045 115.64L209.085 130.28L207.905 129.84L212.865 115.2L214.045 115.64ZM214.365 128.28V124.1C214.365 123.46 214.165 123.34 213.905 123.34C213.605 123.34 213.405 123.48 213.405 124.12V128.28C213.405 128.9 213.605 129.06 213.905 129.06C214.165 129.06 214.365 128.92 214.365 128.28ZM215.665 124.84V127.6C215.665 128.72 215.585 130.16 213.885 130.16C212.185 130.16 212.105 128.76 212.105 127.62V124.82C212.105 123.66 212.185 122.28 213.885 122.28C215.585 122.28 215.665 123.72 215.665 124.84Z" fill="black"/>
<path d="M204.063 130H202.123V117.94L200.283 119.22L199.363 117.84L202.543 115.6H204.063V130Z" fill="black"/>
<path d="M191.721 120.8V120.12C191.721 118.04 191.721 115.32 194.721 115.32C197.681 115.32 197.681 117.96 197.681 120.08V125.5C197.681 128.06 197.381 130.26 194.481 130.26C193.201 130.26 192.381 129.8 191.801 129.16L192.901 127.72C193.201 128 193.701 128.42 194.281 128.42C195.521 128.42 195.681 127.56 195.681 124.98V124.34C195.421 124.7 194.921 125.14 194.101 125.14C191.821 125.14 191.721 123.42 191.721 120.8ZM193.741 119.78V120.64C193.741 122.16 193.741 123.32 194.681 123.32C195.661 123.32 195.661 122.14 195.661 120.6V119.78C195.661 118.28 195.661 117.1 194.681 117.1C193.741 117.1 193.741 118.26 193.741 119.78Z" fill="black"/>
<path d="M158.645 127.34V123.16C158.645 122.52 158.445 122.4 158.185 122.4C157.885 122.4 157.685 122.54 157.685 123.18V127.34C157.685 127.96 157.885 128.12 158.185 128.12C158.445 128.12 158.645 127.98 158.645 127.34ZM159.945 123.9V126.66C159.945 127.78 159.865 129.22 158.165 129.22C156.465 129.22 156.385 127.82 156.385 126.68V123.88C156.385 122.72 156.465 121.34 158.165 121.34C159.865 121.34 159.945 122.78 159.945 123.9ZM164.045 121.64L159.085 136.28L157.905 135.84L162.865 121.2L164.045 121.64ZM164.365 134.28V130.1C164.365 129.46 164.165 129.34 163.905 129.34C163.605 129.34 163.405 129.48 163.405 130.12V134.28C163.405 134.9 163.605 135.06 163.905 135.06C164.165 135.06 164.365 134.92 164.365 134.28ZM165.665 130.84V133.6C165.665 134.72 165.585 136.16 163.885 136.16C162.185 136.16 162.105 134.76 162.105 133.62V130.82C162.105 129.66 162.185 128.28 163.885 128.28C165.585 128.28 165.665 129.72 165.665 130.84Z" fill="#D85456"/>
<path d="M151.761 123.06C151.101 123.06 150.621 123.46 150.281 123.9L149.021 122.74C149.541 121.96 150.361 121.32 152.021 121.32C153.821 121.32 155.121 122.26 155.121 124.96C155.121 128.02 154.141 128.62 152.561 130.2C151.561 131.2 151.281 131.9 151.281 133.34V134.12H154.901V136H149.341V133.7C149.341 131.24 149.881 130.2 151.141 128.94C152.021 128.06 153.061 127.24 153.061 125.24C153.061 123.58 152.601 123.06 151.761 123.06Z" fill="#D85456"/>
<path d="M144.519 123.06C143.899 123.06 143.439 123.46 143.099 123.94L141.859 122.8C142.379 121.94 143.199 121.32 144.599 121.32C146.879 121.32 147.579 122.72 147.579 124.72V125.88C147.579 127.36 147.179 128.1 146.079 128.36C147.059 128.54 147.679 129.44 147.679 130.98V132.44C147.679 134.58 146.999 136.26 144.479 136.26C143.059 136.26 142.159 135.44 141.779 134.8L143.079 133.52C143.379 133.94 143.879 134.46 144.519 134.46C145.399 134.46 145.679 133.86 145.679 132.44V131.44C145.679 129.46 145.139 129.44 143.939 129.44H143.659V127.6H143.939C145.019 127.6 145.579 127.58 145.579 125.62V124.78C145.579 123.78 145.379 123.06 144.519 123.06Z" fill="#D85456"/>
<path d="M187.645 183.34V179.16C187.645 178.52 187.445 178.4 187.185 178.4C186.885 178.4 186.685 178.54 186.685 179.18V183.34C186.685 183.96 186.885 184.12 187.185 184.12C187.445 184.12 187.645 183.98 187.645 183.34ZM188.945 179.9V182.66C188.945 183.78 188.865 185.22 187.165 185.22C185.465 185.22 185.385 183.82 185.385 182.68V179.88C185.385 178.72 185.465 177.34 187.165 177.34C188.865 177.34 188.945 178.78 188.945 179.9ZM193.045 177.64L188.085 192.28L186.905 191.84L191.865 177.2L193.045 177.64ZM193.365 190.28V186.1C193.365 185.46 193.165 185.34 192.905 185.34C192.605 185.34 192.405 185.48 192.405 186.12V190.28C192.405 190.9 192.605 191.06 192.905 191.06C193.165 191.06 193.365 190.92 193.365 190.28ZM194.665 186.84V189.6C194.665 190.72 194.585 192.16 192.885 192.16C191.185 192.16 191.105 190.76 191.105 189.62V186.82C191.105 185.66 191.185 184.28 192.885 184.28C194.585 184.28 194.665 185.72 194.665 186.84Z" fill="black"/>
<path d="M184.083 186.78V187.46C184.083 189.54 184.083 192.26 181.083 192.26C178.123 192.26 178.123 189.62 178.123 187.5V182.08C178.123 179.52 178.423 177.32 181.323 177.32C182.463 177.32 183.323 177.7 183.903 178.34L182.803 179.78C182.503 179.5 182.103 179.16 181.523 179.16C180.283 179.16 180.123 180.02 180.123 182.6V183.44C180.243 183.14 180.883 182.44 181.903 182.44C183.963 182.44 184.083 184.16 184.083 186.78ZM182.063 187.8V186.94C182.063 185.42 182.063 184.26 181.123 184.26C180.143 184.26 180.143 185.44 180.143 186.98V187.8C180.143 189.3 180.143 190.48 181.123 190.48C182.063 190.48 182.063 189.32 182.063 187.8Z" fill="black"/>
<path d="M176.581 180.92V181.82C176.581 183.12 176.281 184.26 175.181 184.5C176.161 184.68 176.681 185.78 176.681 187.32V188.44C176.681 190.28 176.261 192.26 173.701 192.26C171.141 192.26 170.721 190.28 170.721 188.44V187.32C170.721 185.78 171.241 184.68 172.221 184.5C171.121 184.26 170.821 183.12 170.821 181.82V180.92C170.821 178.92 171.421 177.32 173.701 177.32C175.981 177.32 176.581 178.92 176.581 180.92ZM174.761 188.44V187.58C174.761 186.46 174.581 185.56 173.701 185.56C172.821 185.56 172.641 186.46 172.641 187.58V188.44C172.641 189.56 172.821 190.46 173.701 190.46C174.581 190.46 174.761 189.56 174.761 188.44ZM174.721 181.82V181C174.721 179.92 174.541 179.04 173.701 179.04C172.861 179.04 172.681 179.92 172.681 181V181.82C172.681 182.9 172.861 183.78 173.701 183.78C174.541 183.78 174.721 182.9 174.721 181.82Z" fill="black"/>
<path d="M144.645 213.34V209.16C144.645 208.52 144.445 208.4 144.185 208.4C143.885 208.4 143.685 208.54 143.685 209.18V213.34C143.685 213.96 143.885 214.12 144.185 214.12C144.445 214.12 144.645 213.98 144.645 213.34ZM145.945 209.9V212.66C145.945 213.78 145.865 215.22 144.165 215.22C142.465 215.22 142.385 213.82 142.385 212.68V209.88C142.385 208.72 142.465 207.34 144.165 207.34C145.865 207.34 145.945 208.78 145.945 209.9ZM150.045 207.64L145.085 222.28L143.905 221.84L148.865 207.2L150.045 207.64ZM150.365 220.28V216.1C150.365 215.46 150.165 215.34 149.905 215.34C149.605 215.34 149.405 215.48 149.405 216.12V220.28C149.405 220.9 149.605 221.06 149.905 221.06C150.165 221.06 150.365 220.92 150.365 220.28ZM151.665 216.84V219.6C151.665 220.72 151.585 222.16 149.885 222.16C148.185 222.16 148.105 220.76 148.105 219.62V216.82C148.105 215.66 148.185 214.28 149.885 214.28C151.585 214.28 151.665 215.72 151.665 216.84Z" fill="black"/>
<path d="M141.083 216.78V217.46C141.083 219.54 141.083 222.26 138.083 222.26C135.123 222.26 135.123 219.62 135.123 217.5V212.08C135.123 209.52 135.423 207.32 138.323 207.32C139.463 207.32 140.323 207.7 140.903 208.34L139.803 209.78C139.503 209.5 139.103 209.16 138.523 209.16C137.283 209.16 137.123 210.02 137.123 212.6V213.44C137.243 213.14 137.883 212.44 138.903 212.44C140.963 212.44 141.083 214.16 141.083 216.78ZM139.063 217.8V216.94C139.063 215.42 139.063 214.26 138.123 214.26C137.143 214.26 137.143 215.44 137.143 216.98V217.8C137.143 219.3 137.143 220.48 138.123 220.48C139.063 220.48 139.063 219.32 139.063 217.8Z" fill="black"/>
<path d="M133.581 210.92V211.82C133.581 213.12 133.281 214.26 132.181 214.5C133.161 214.68 133.681 215.78 133.681 217.32V218.44C133.681 220.28 133.261 222.26 130.701 222.26C128.141 222.26 127.721 220.28 127.721 218.44V217.32C127.721 215.78 128.241 214.68 129.221 214.5C128.121 214.26 127.821 213.12 127.821 211.82V210.92C127.821 208.92 128.421 207.32 130.701 207.32C132.981 207.32 133.581 208.92 133.581 210.92ZM131.761 218.44V217.58C131.761 216.46 131.581 215.56 130.701 215.56C129.821 215.56 129.641 216.46 129.641 217.58V218.44C129.641 219.56 129.821 220.46 130.701 220.46C131.581 220.46 131.761 219.56 131.761 218.44ZM131.721 211.82V211C131.721 209.92 131.541 209.04 130.701 209.04C129.861 209.04 129.681 209.92 129.681 211V211.82C129.681 212.9 129.861 213.78 130.701 213.78C131.541 213.78 131.721 212.9 131.721 211.82Z" fill="black"/>
<path fill-rule="evenodd" clip-rule="evenodd" d="M200.586 106.986L194.418 101.4L195.089 100.659L201.257 106.245L200.586 106.986Z" fill="black"/>
<path fill-rule="evenodd" clip-rule="evenodd" d="M145.586 117.129L139.418 111.543L140.089 110.802L146.257 116.388L145.586 117.129Z" fill="black"/>
<path fill-rule="evenodd" clip-rule="evenodd" d="M172.586 173.129L166.418 167.543L167.089 166.802L173.257 172.388L172.586 173.129Z" fill="black"/>
<path fill-rule="evenodd" clip-rule="evenodd" d="M135.586 203.129L129.418 197.543L130.089 196.802L136.257 202.388L135.586 203.129Z" fill="black"/>
</svg>
