<svg width="220" height="201" viewBox="0 0 220 201" fill="none" xmlns="http://www.w3.org/2000/svg">
<path fill-rule="evenodd" clip-rule="evenodd" d="M74.8203 100.262C74.8203 86.212 86.2105 74.8218 100.261 74.8218C114.312 74.8218 125.702 86.212 125.702 100.262C125.702 114.313 114.312 125.703 100.261 125.703C86.2105 125.703 74.8203 114.313 74.8203 100.262ZM100.261 75.8218C86.7628 75.8218 75.8203 86.7642 75.8203 100.262C75.8203 113.761 86.7628 124.703 100.261 124.703C113.759 124.703 124.702 113.761 124.702 100.262C124.702 86.7642 113.759 75.8218 100.261 75.8218Z" fill="#CCCCCC"/>
<path fill-rule="evenodd" clip-rule="evenodd" d="M49.8809 100.263C49.8809 72.4378 72.4374 49.8813 100.262 49.8813C128.087 49.8813 150.644 72.4378 150.644 100.263C150.644 128.088 128.087 150.644 100.262 150.644C72.4374 150.644 49.8809 128.088 49.8809 100.263ZM100.262 50.8813C72.9896 50.8813 50.8809 72.9901 50.8809 100.263C50.8809 127.535 72.9896 149.644 100.262 149.644C127.535 149.644 149.644 127.535 149.644 100.263C149.644 72.9901 127.535 50.8813 100.262 50.8813Z" fill="#CCCCCC"/>
<path fill-rule="evenodd" clip-rule="evenodd" d="M24.9395 100.262C24.9395 58.6633 58.6623 24.9404 100.262 24.9404C141.861 24.9404 175.584 58.6633 175.584 100.262C175.584 141.862 141.861 175.585 100.262 175.585C58.6623 175.585 24.9395 141.862 24.9395 100.262ZM100.262 25.9404C59.2146 25.9404 25.9395 59.2156 25.9395 100.262C25.9395 141.309 59.2146 174.585 100.262 174.585C141.308 174.585 174.584 141.309 174.584 100.262C174.584 59.2156 141.308 25.9404 100.262 25.9404Z" fill="#CCCCCC"/>
<path fill-rule="evenodd" clip-rule="evenodd" d="M0 100.263C0 44.8892 44.8892 0 100.263 0C155.636 0 200.525 44.8892 200.525 100.263C200.525 155.636 155.636 200.525 100.263 200.525C44.8892 200.525 0 155.636 0 100.263ZM100.263 1C45.4414 1 1 45.4414 1 100.263C1 155.084 45.4414 199.525 100.263 199.525C155.084 199.525 199.525 155.084 199.525 100.263C199.525 45.4414 155.084 1 100.263 1Z" fill="#CCCCCC"/>
<path fill-rule="evenodd" clip-rule="evenodd" d="M99.9668 96.6435V0.441406H100.967V96.6435L125.866 3.71942L126.832 3.97824L101.933 96.9023L150.034 13.5889L150.9 14.0889L102.799 97.4023L170.824 29.3772L171.531 30.0843L103.506 98.1095L186.819 50.0084L187.319 50.8744L104.006 98.9755L196.93 74.0765L197.189 75.0425L104.265 99.9414H200.467V100.941H104.265L197.189 125.84L196.93 126.806L104.006 101.907L187.319 150.008L186.819 150.874L103.506 102.773L171.531 170.799L170.824 171.506L102.799 103.48L150.9 186.794L150.034 187.294L101.933 103.98L126.832 196.905L125.866 197.163L100.967 104.239V200.441H99.9668V104.239L75.0679 197.163L74.1019 196.905L99.0009 103.98L50.8998 187.294L50.0338 186.794L98.1348 103.48L30.1097 171.506L29.4026 170.799L97.4277 102.773L14.1143 150.874L13.6143 150.008L96.9277 101.907L4.00363 126.806L3.74481 125.84L96.6689 100.941H0.466797V99.9414H96.6689L3.74481 75.0425L4.00363 74.0765L96.9277 98.9755L13.6143 50.8744L14.1143 50.0084L97.4277 98.1095L29.4026 30.0843L30.1097 29.3772L98.1348 97.4023L50.0338 14.0889L50.8998 13.5889L99.0009 96.9023L74.1019 3.97824L75.0679 3.71942L99.9668 96.6435Z" fill="#CCCCCC"/>
<path d="M87.8527 54.5816L100.372 69.856L114.843 47.576L141.488 30L132.874 68.8224L144.359 75.828H195L193.848 101.21L161.5 118L181 147.5L149.986 150.826L122.193 138.995L125.41 194.689L100.372 149.561L93.4812 126.937L93.1367 113.843L88.4269 113.269L94.1703 104.885L49.0337 114.992L35.1374 101.21L14 78.1249L37.5491 65.0325L62.5866 63.4247L74.99 57.223L87.8527 54.5816Z" fill="#41B464" fill-opacity="0.26"/>
<path fill-rule="evenodd" clip-rule="evenodd" d="M141.913 29.3823C142.165 29.5556 142.286 29.8642 142.22 30.1625L133.723 68.4614L144.57 75.078H195C195.205 75.078 195.401 75.1618 195.542 75.3098C195.684 75.4579 195.759 75.6574 195.749 75.862L194.598 101.244C194.585 101.512 194.432 101.752 194.194 101.876L162.585 118.282L181.626 147.086C181.77 147.305 181.79 147.583 181.679 147.819C181.567 148.056 181.34 148.218 181.08 148.246L150.066 151.571C149.939 151.585 149.811 151.566 149.693 151.516L123.011 140.159L126.158 194.645C126.178 194.995 125.954 195.312 125.618 195.409C125.282 195.506 124.923 195.359 124.754 195.053L99.7162 149.925C99.6906 149.879 99.6699 149.83 99.6545 149.78L92.7638 127.155C92.7441 127.091 92.7333 127.024 92.7315 126.956L92.404 114.509L88.3361 114.013C88.076 113.982 87.8513 113.816 87.7434 113.578C87.6355 113.339 87.6601 113.061 87.8082 112.845L92.4746 106.033L49.1976 115.723C48.948 115.779 48.6872 115.704 48.5056 115.524L34.6092 101.743C34.6007 101.734 34.5923 101.725 34.5842 101.717L13.4469 78.6314C13.2919 78.4622 13.2229 78.2312 13.2597 78.0047C13.2965 77.7782 13.435 77.5809 13.6356 77.4694L37.1847 64.377C37.2819 64.323 37.39 64.2912 37.5011 64.2841L62.387 62.686L74.6545 56.5522C74.713 56.523 74.7751 56.5015 74.8391 56.4884L87.7018 53.8469C87.9747 53.7909 88.2561 53.8907 88.4327 54.1061L100.302 68.5872L114.214 47.1675C114.27 47.0809 114.343 47.0068 114.43 46.9499L141.075 29.3739C141.33 29.2057 141.662 29.209 141.913 29.3823ZM115.386 48.1158L101.001 70.2646C100.871 70.4652 100.652 70.5917 100.413 70.6049C100.175 70.6181 99.9436 70.5165 99.7919 70.3315L87.5598 55.4074L75.2373 57.9379L62.922 64.0955C62.8324 64.1403 62.7347 64.1667 62.6347 64.1731L37.7658 65.7702L15.1945 78.3189L35.6783 100.69L49.2704 114.17L94.0065 104.153C94.3072 104.086 94.6185 104.209 94.7913 104.465C94.9641 104.72 94.9632 105.055 94.7891 105.309L89.7436 112.674L93.2275 113.099C93.5964 113.144 93.8767 113.452 93.8865 113.823L94.2283 126.815L101.066 149.267L124.471 191.452L121.444 139.039C121.429 138.78 121.549 138.531 121.761 138.382C121.973 138.233 122.248 138.204 122.486 138.305L150.101 150.059L179.695 146.886L160.874 118.414C160.757 118.236 160.721 118.017 160.774 117.812C160.827 117.606 160.966 117.432 161.154 117.334L193.119 100.744L194.215 76.578H144.359C144.221 76.578 144.086 76.5401 143.968 76.4683L132.484 69.4627C132.21 69.2957 132.073 68.9731 132.142 68.66L140.354 31.6461L115.386 48.1158Z" fill="#359D55"/>
<path d="M212.11 118.782V114.602C212.11 113.962 211.91 113.842 211.65 113.842C211.35 113.842 211.15 113.982 211.15 114.622V118.782C211.15 119.402 211.35 119.562 211.65 119.562C211.91 119.562 212.11 119.422 212.11 118.782ZM213.41 115.342V118.102C213.41 119.222 213.33 120.662 211.63 120.662C209.93 120.662 209.85 119.262 209.85 118.122V115.322C209.85 114.162 209.93 112.782 211.63 112.782C213.33 112.782 213.41 114.222 213.41 115.342ZM217.51 113.082L212.55 127.722L211.37 127.282L216.33 112.642L217.51 113.082ZM217.83 125.722V121.542C217.83 120.902 217.63 120.782 217.37 120.782C217.07 120.782 216.87 120.922 216.87 121.562V125.722C216.87 126.342 217.07 126.502 217.37 126.502C217.63 126.502 217.83 126.362 217.83 125.722ZM219.13 122.282V125.042C219.13 126.162 219.05 127.602 217.35 127.602C215.65 127.602 215.57 126.202 215.57 125.062V122.262C215.57 121.102 215.65 119.722 217.35 119.722C219.05 119.722 219.13 121.162 219.13 122.282Z" fill="black"/>
<path d="M206.528 123.182V117.242C206.528 115.722 206.528 114.562 205.588 114.562C204.608 114.562 204.608 115.742 204.608 117.282V123.182C204.608 124.682 204.608 125.862 205.588 125.862C206.528 125.862 206.528 124.702 206.528 123.182ZM208.548 117.562V122.902C208.548 124.982 208.548 127.702 205.548 127.702C202.588 127.702 202.588 125.062 202.588 122.942V117.522C202.588 115.402 202.588 112.762 205.548 112.762C208.548 112.762 208.548 115.482 208.548 117.562Z" fill="black"/>
<path d="M195.186 118.242V117.562C195.186 115.482 195.186 112.762 198.186 112.762C201.146 112.762 201.146 115.402 201.146 117.522V122.942C201.146 125.502 200.846 127.702 197.946 127.702C196.666 127.702 195.846 127.242 195.266 126.602L196.366 125.162C196.666 125.442 197.166 125.862 197.746 125.862C198.986 125.862 199.146 125.002 199.146 122.422V121.782C198.886 122.142 198.386 122.582 197.566 122.582C195.286 122.582 195.186 120.862 195.186 118.242ZM197.206 117.222V118.082C197.206 119.602 197.206 120.762 198.146 120.762C199.126 120.762 199.126 119.582 199.126 118.042V117.222C199.126 115.722 199.126 114.542 198.146 114.542C197.206 114.542 197.206 115.702 197.206 117.222Z" fill="black"/>
<path d="M76.1096 132.782V128.602C76.1096 127.962 75.9096 127.842 75.6496 127.842C75.3496 127.842 75.1496 127.982 75.1496 128.622V132.782C75.1496 133.402 75.3496 133.562 75.6496 133.562C75.9096 133.562 76.1096 133.422 76.1096 132.782ZM77.4096 129.342V132.102C77.4096 133.222 77.3296 134.662 75.6296 134.662C73.9296 134.662 73.8496 133.262 73.8496 132.122V129.322C73.8496 128.162 73.9296 126.782 75.6296 126.782C77.3296 126.782 77.4096 128.222 77.4096 129.342ZM81.5096 127.082L76.5496 141.722L75.3696 141.282L80.3296 126.642L81.5096 127.082ZM81.8296 139.722V135.542C81.8296 134.902 81.6296 134.782 81.3696 134.782C81.0696 134.782 80.8696 134.922 80.8696 135.562V139.722C80.8696 140.342 81.0696 140.502 81.3696 140.502C81.6296 140.502 81.8296 140.362 81.8296 139.722ZM83.1296 136.282V139.042C83.1296 140.162 83.0496 141.602 81.3496 141.602C79.6496 141.602 79.5696 140.202 79.5696 139.062V136.262C79.5696 135.102 79.6496 133.722 81.3496 133.722C83.0496 133.722 83.1296 135.162 83.1296 136.282Z" fill="#D85456"/>
<path d="M72.5473 128.462L68.7873 141.442H66.7273L70.6273 128.922H66.4473V127.042H72.5473V128.462Z" fill="#D85456"/>
<path d="M64.1258 141.442H62.1858V129.382L60.3458 130.662L59.4258 129.282L62.6058 127.042H64.1258V141.442Z" fill="#D85456"/>
<path fill-rule="evenodd" clip-rule="evenodd" d="M203.053 108.57L196.885 102.984L197.556 102.243L203.724 107.829L203.053 108.57Z" fill="black"/>
<path fill-rule="evenodd" clip-rule="evenodd" d="M75.5706 125.137L81.4026 117.551L82.1954 118.16L76.3634 125.746L75.5706 125.137Z" fill="black"/>
</svg>
