<svg width="180" height="180" viewBox="0 0 180 180" fill="none" xmlns="http://www.w3.org/2000/svg">
<mask id="mask0_2116_3777" style="mask-type:alpha" maskUnits="userSpaceOnUse" x="0" y="0" width="180" height="180">
<circle cx="89.5852" cy="89.5852" r="89.5852" fill="#F5EEDA"/>
</mask>
<g mask="url(#mask0_2116_3777)">
<rect y="-3.4458" width="198.983" height="202.428" fill="#F5EEDA"/>
<g style="mix-blend-mode:multiply">
<path d="M35.754 -47.8298L34.7734 -60.8002L18.0713 -68.5336L19.1833 -43.4283M35.754 -47.8298L19.1833 -43.4283M35.754 -47.8298L36.4134 -39.1084M19.1833 -43.4283L19.3521 -39.6176M19.3521 -39.6176L36.4134 -39.1084M19.3521 -39.6176L19.8485 -28.4099M36.4134 -39.1084L37.0728 -30.3869M37.0728 -30.3869L19.8485 -28.4099M37.0728 -30.3869L38.5776 -10.4841M19.8485 -28.4099L20.7024 -9.13263M20.7024 -9.13263L38.5776 -10.4841M20.7024 -9.13263L21.7349 14.1794M38.5776 -10.4841L40.6404 16.7983M40.6404 16.7983L21.7349 14.1794M40.6404 16.7983L41.3336 25.967M21.7349 14.1794L22.1023 22.4732M22.1023 22.4732L41.3336 25.967M22.1023 22.4732L22.5193 31.8877M41.3336 25.967L41.6718 30.4396M41.6718 30.4396L22.5193 31.8877M41.6718 30.4396L41.9761 34.4649M22.5193 31.8877L22.6087 33.905M22.6087 33.905L41.9761 34.4649M22.6087 33.905L23.1845 46.906M41.9761 34.4649L42.4496 40.7264M42.4496 40.7264L23.1845 46.906M42.4496 40.7264L44.5123 68.0089M23.1845 46.906L23.8597 62.1485M23.8597 62.1485C24.3512 62.3363 44.022 61.5237 44.5123 68.0089M23.8597 62.1485L24.7235 81.65M44.5123 68.0089L45.7804 84.7809M45.7804 84.7809C39.2412 84.3757 25.8748 83.1822 24.7235 81.65M45.7804 84.7809L47.0992 102.224M24.7235 81.65L25.5575 100.479M47.0992 102.224L25.5575 100.479M47.0992 102.224L47.3867 106.025M25.5575 100.479L25.8355 106.755M25.8355 106.755C31.8842 106.373 44.6627 105.692 47.3867 106.025M25.8355 106.755L27.7517 150.017M47.3867 106.025L50.6837 149.633M50.6837 149.633C43.7925 150.229 29.5583 151.14 27.7517 150.017M50.6837 149.633L52.3914 172.219M27.7517 150.017L28.6453 170.191M28.6453 170.191C35.866 171.594 50.7242 173.964 52.3914 172.219M28.6453 170.191L30.0552 202.021M52.3914 172.219L54.8769 205.092M30.0552 202.021L54.8769 205.092M30.0552 202.021L30.6211 214.798M54.8769 205.092L55.3672 211.577M55.3672 211.577L30.6211 214.798M55.3672 211.577L57.1933 235.729M30.6211 214.798L31.4154 232.73M31.4154 232.73C38.0991 235.748 52.6119 240.574 57.1933 235.729M31.4154 232.73L32.5373 258.06M57.1933 235.729L61.1836 288.505L33.977 290.562L32.5373 258.06M59.206 257.393C51.1277 260.552 34.4843 265.109 32.5373 258.06" stroke="#88867F" stroke-width="0.430698"/>
</g>
<g style="mix-blend-mode:multiply">
<path d="M158.783 12.9319L160.413 5.30606L170.96 2.06119L168.271 16.8852M158.783 12.9319L168.271 16.8852M158.783 12.9319L157.687 18.0596M168.271 16.8852L167.863 19.1353M167.863 19.1353L157.687 18.0596M167.863 19.1353L166.663 25.7532M157.687 18.0596L156.59 23.1874M156.59 23.1874L166.663 25.7532M156.59 23.1874L154.089 34.8891M166.663 25.7532L164.598 37.1359M164.598 37.1359L154.089 34.8891M164.598 37.1359L162.102 50.9011M154.089 34.8891L150.659 50.9297M150.659 50.9297L162.102 50.9011M150.659 50.9297L149.507 56.3204M162.102 50.9011L161.214 55.7983M161.214 55.7983L149.507 56.3204M161.214 55.7983L160.205 61.3574M149.507 56.3204L148.945 58.95M148.945 58.95L160.205 61.3574M148.945 58.95L148.439 61.3167M160.205 61.3574L159.989 62.5486M159.989 62.5486L148.439 61.3167M159.989 62.5486L158.597 70.2253M148.439 61.3167L147.652 64.9981M147.652 64.9981L158.597 70.2253M147.652 64.9981L144.223 81.0387M158.597 70.2253L156.965 79.2256M156.965 79.2256C156.658 79.2975 145.038 77.2258 144.223 81.0387M156.965 79.2256L154.876 90.7407M144.223 81.0387L142.114 90.8997M142.114 90.8997C146.032 91.1872 154.069 91.558 154.876 90.7407M142.114 90.8997L139.922 101.155M154.876 90.7407L152.86 101.859M139.922 101.155L152.86 101.859M139.922 101.155L139.444 103.39M152.86 101.859L152.188 105.565M152.188 105.565C148.625 104.849 141.089 103.412 139.444 103.39M152.188 105.565L147.555 131.11M139.444 103.39L133.963 129.029M133.963 129.029C138.009 129.94 146.391 131.631 147.555 131.11M133.963 129.029L131.124 142.309M147.555 131.11L145.394 143.022M145.394 143.022C140.991 143.272 131.973 143.48 131.124 142.309M145.394 143.022L141.986 161.817M131.124 142.309L126.992 161.636M141.986 161.817L126.992 161.636M141.986 161.817L140.617 169.361M126.992 161.636L126.177 165.449M126.177 165.449L140.617 169.361M126.177 165.449L123.141 179.649M140.617 169.361L138.697 179.95M138.697 179.95C134.483 181.203 125.471 182.897 123.141 179.649M138.697 179.95L135.984 194.906M123.141 179.649L116.508 210.678L132.504 214.098L135.984 194.906M120.196 192.356C124.739 194.885 134.258 198.937 135.984 194.906" stroke="#88867F" stroke-width="0.430698"/>
</g>
<path d="M38.8291 -2.06738C41.2203 51.0548 107.433 107.093 183.475 86.635" stroke="#837D6D" stroke-width="0.861396"/>
<g style="mix-blend-mode:multiply">
<path d="M10.7036 14.4662L11.3435 6.421L17.8556 1.3554L16.9161 16.9146M10.7036 14.4662L16.9161 16.9146M10.7036 14.4662L10.2733 19.876M16.9161 16.9146L16.7735 19.2762M16.7735 19.2762L10.2733 19.876M16.7735 19.2762L16.3541 26.2223M10.2733 19.876L9.84308 25.2857M9.84308 25.2857L16.3541 26.2223M9.84308 25.2857L8.86122 37.631M16.3541 26.2223L15.6327 38.1695M15.6327 38.1695L8.86122 37.631M15.6327 38.1695L14.7604 52.6174M8.86122 37.631L7.51529 54.5537M7.51529 54.5537L14.7604 52.6174M7.51529 54.5537L7.06297 60.2409M14.7604 52.6174L14.45 57.7574M14.45 57.7574L7.06297 60.2409M14.45 57.7574L14.0977 63.5921M7.06297 60.2409L6.84233 63.0151M6.84233 63.0151L14.0977 63.5921M6.84233 63.0151L6.64375 65.5119M14.0977 63.5921L14.0222 64.8424M14.0222 64.8424L6.64375 65.5119M14.0222 64.8424L13.5357 72.8999M6.64375 65.5119L6.33485 69.3958M6.33485 69.3958L13.5357 72.8999M6.33485 69.3958L4.98893 86.3185M13.5357 72.8999L12.9653 82.3465M12.9653 82.3465C12.7745 82.4709 5.30886 82.2959 4.98893 86.3185M12.9653 82.3465L12.2355 94.4327M4.98893 86.3185L4.16151 96.7219M4.16151 96.7219C6.65723 96.362 11.766 95.4004 12.2355 94.4327M4.16151 96.7219L3.301 107.541M12.2355 94.4327L11.5309 106.102M3.301 107.541L11.5309 106.102M3.301 107.541L3.11346 109.899M11.5309 106.102L11.296 109.992M11.296 109.992C9.00307 109.856 4.15646 109.647 3.11346 109.899M11.296 109.992L9.67707 136.804M3.11346 109.899L0.962186 136.948M0.962186 136.948C3.5712 137.202 8.96679 137.529 9.67707 136.804M0.962186 136.948L-0.152063 150.958M9.67707 136.804L8.92212 149.307M8.92212 149.307C6.14666 150.296 0.446187 152.011 -0.152063 150.958M8.92212 149.307L7.73098 169.033M-0.152063 150.958L-1.77379 171.348M7.73098 169.033L-1.77379 171.348M7.73098 169.033L7.25285 176.952M-1.77379 171.348L-2.09372 175.371M-2.09372 175.371L7.25285 176.952M-2.09372 175.371L-3.2852 190.352M7.25285 176.952L6.58179 188.066M6.58179 188.066C3.97737 190.045 -1.64222 193.274 -3.2852 190.352M6.58179 188.066L5.63392 203.764M-3.2852 190.352L-5.88879 223.088L4.41762 223.907L5.63392 203.764M-4.4965 203.796C-1.4887 205.617 4.7483 208.16 5.63392 203.764" stroke="#88867F" stroke-width="0.430698"/>
</g>
<path d="M94.0707 113.947V-2.32131C90.8901 -6.73865 89.2767 -7.7678 87.2565 -2.32131L73.6279 86.6901L94.0707 113.947Z" fill="#C36E25"/>
<path d="M71.9248 140.352L140.068 17.2694C145.431 13.6656 146.566 15.4112 147.734 20.2506L100.034 155.258L71.9248 140.352Z" fill="#C46E25"/>
<path d="M33.5947 238.665V92.1579C33.5947 84.9178 36.576 66.1785 53.6117 62.7714C67.2402 60.0457 75.4741 73.5607 77.8875 80.6589C90.0964 95.1392 115.622 125.122 120.051 129.211C125.587 134.321 128.569 145.82 123.884 156.042C119.199 166.263 100.064 171.395 88.5348 166.689C77.7723 162.296 67.2402 148.376 63.8331 138.58C61.1073 130.744 58.4384 135.315 57.4447 138.58C51.9081 169.386 40.4942 232.532 39.1313 238.665C37.7685 244.798 34.8724 241.22 33.5947 238.665Z" fill="#DF802F"/>
<path d="M222.691 107.984C184.219 127.291 116.081 160.952 114.718 161.974L100.034 136.093L217.58 100.744L222.691 107.984Z" fill="#DF802F"/>
<circle cx="56.5933" cy="85.4121" r="17.0357" fill="#FFECC6"/>
<circle cx="49.3528" cy="80.7283" r="4.68481" fill="#A4AC9F"/>
<circle cx="49.3521" cy="80.7286" r="2.12946" fill="#3D3F42"/>
<circle cx="62.9817" cy="80.7283" r="4.68481" fill="#A4AC9F"/>
<circle cx="56.5926" cy="87.9676" r="6.81427" fill="#A4AC9F"/>
<circle cx="62.1295" cy="80.7286" r="2.12946" fill="#3D3F42"/>
<ellipse cx="54.8889" cy="85.8382" rx="0.851784" ry="1.27768" fill="#3D3F42"/>
<ellipse cx="57.4748" cy="85.8382" rx="0.851784" ry="1.27768" fill="#3D3F42"/>
<path d="M39.5576 75.1917C40.4514 73.7019 42.6807 73.6301 43.8164 74.3399L39.9834 82.0059C39.4155 81.864 38.1947 81.3245 37.8539 80.3024C37.428 79.0247 38.28 77.3211 39.5576 75.1917Z" fill="#898383"/>
<path d="M73.628 75.1917C72.7342 73.7019 70.5048 73.6301 69.3691 74.3399L73.2021 82.0059C73.77 81.864 74.9909 81.3245 75.3316 80.3024C75.7575 79.0247 74.9056 77.3211 73.628 75.1917Z" fill="#898383"/>
<path d="M56.593 90.9492L51.9082 92.2269C51.9082 93.9305 54.8894 94.7822 56.593 94.7822C58.2966 94.7822 61.2778 93.9305 61.2778 92.2269L56.593 90.9492Z" fill="#3D3F42"/>
<path d="M93.1808 131.546C83.1609 125.382 81.9268 103.848 86.1018 91.3745L118.774 129.345C111.331 134.114 103.201 137.709 93.1808 131.546Z" fill="#FFF3DA"/>
<path d="M60.7285 -20.2432C76.9228 30.4069 136.531 39.1932 186.492 26.7029" stroke="#C46D23" stroke-width="3.44559"/>
</g>
</svg>
