<svg width="180" height="180" viewBox="0 0 180 180" fill="none" xmlns="http://www.w3.org/2000/svg">
<mask id="mask0_2116_3807" style="mask-type:alpha" maskUnits="userSpaceOnUse" x="0" y="0" width="180" height="180">
<circle cx="89.5852" cy="89.5852" r="89.5852" fill="#F5EEDA"/>
</mask>
<g mask="url(#mask0_2116_3807)">
<rect y="-3.4458" width="198.983" height="202.428" fill="#F5EEDA"/>
<g style="mix-blend-mode:multiply">
<path d="M35.8623 -51.1873L34.1213 -64.1771L11.4085 -70.2524L13.7211 -45.028M35.8623 -51.1873L13.7211 -45.028M35.8623 -51.1873L37.033 -42.4528M13.7211 -45.028L14.0722 -41.1993M14.0722 -41.1993L37.033 -42.4528M14.0722 -41.1993L15.1046 -29.9384M37.033 -42.4528L38.2036 -33.7183M38.2036 -33.7183L15.1046 -29.9384M38.2036 -33.7183L40.8752 -13.7857M15.1046 -29.9384L16.8804 -10.5697M16.8804 -10.5697L40.8752 -13.7857M16.8804 -10.5697L19.0278 12.8529M40.8752 -13.7857L44.5373 13.5377M44.5373 13.5377L19.0278 12.8529M44.5373 13.5377L45.768 22.7201M19.0278 12.8529L19.7918 21.186M19.7918 21.186L45.768 22.7201M19.7918 21.186L20.6591 30.6451M45.768 22.7201L46.3683 27.1994M46.3683 27.1994L20.6591 30.6451M46.3683 27.1994L46.9086 31.2307M20.6591 30.6451L20.8449 32.6721M20.8449 32.6721L46.9086 31.2307M20.8449 32.6721L22.0425 45.7347M46.9086 31.2307L47.7491 37.5016M47.7491 37.5016L22.0425 45.7347M47.7491 37.5016L51.4112 64.825M22.0425 45.7347L23.4466 61.0495M23.4466 61.0495C24.1137 61.1881 50.5407 58.3301 51.4112 64.825M23.4466 61.0495L25.2431 80.6434M51.4112 64.825L53.6625 81.6221M53.6625 81.6221C44.8552 81.8906 26.8412 82.0707 25.2431 80.6434M53.6625 81.6221L56.0038 99.0912M25.2431 80.6434L26.9775 99.5617M56.0038 99.0912L26.9775 99.5617M56.0038 99.0912L56.5141 102.899M26.9775 99.5617L27.5557 105.868M27.5557 105.868C35.6776 104.855 52.84 102.844 56.5141 102.899M27.5557 105.868L31.5409 149.335M56.5141 102.899L62.3674 146.571M62.3674 146.571C53.1194 147.887 34.0069 150.281 31.5409 149.335M62.3674 146.571L65.3992 169.191M31.5409 149.335L33.3992 169.604M33.3992 169.604C43.1554 170.273 63.2139 171.126 65.3992 169.191M33.3992 169.604L36.3313 201.585M65.3992 169.191L69.8117 202.114M36.3313 201.585L69.8117 202.114M36.3313 201.585L37.5083 214.423M69.8117 202.114L70.6822 208.609M70.6822 208.609L37.5083 214.423M70.6822 208.609L73.924 232.796M37.5083 214.423L39.1602 232.44M39.1602 232.44C48.2467 234.794 67.9207 238.161 73.924 232.796M39.1602 232.44L41.4935 257.89M73.924 232.796L81.0081 285.651L44.4875 290.546L41.4935 257.89M77.336 254.454C66.575 258.48 44.3412 264.804 41.4935 257.89" stroke="#88867F" stroke-width="0.861396"/>
</g>
<g style="mix-blend-mode:multiply">
<path d="M167.397 12.9319L169.027 5.30606L179.574 2.06119L176.885 16.8852M167.397 12.9319L176.885 16.8852M167.397 12.9319L166.301 18.0596M176.885 16.8852L176.477 19.1353M176.477 19.1353L166.301 18.0596M176.477 19.1353L175.277 25.7532M166.301 18.0596L165.205 23.1874M165.205 23.1874L175.277 25.7532M165.205 23.1874L162.703 34.8891M175.277 25.7532L173.213 37.1359M173.213 37.1359L162.703 34.8891M173.213 37.1359L170.716 50.9011M162.703 34.8891L159.274 50.9297M159.274 50.9297L170.716 50.9011M159.274 50.9297L158.121 56.3204M170.716 50.9011L169.828 55.7983M169.828 55.7983L158.121 56.3204M169.828 55.7983L168.82 61.3574M158.121 56.3204L157.559 58.95M157.559 58.95L168.82 61.3574M157.559 58.95L157.053 61.3167M168.82 61.3574L168.604 62.5486M168.604 62.5486L157.053 61.3167M168.604 62.5486L167.211 70.2253M157.053 61.3167L156.266 64.9981M156.266 64.9981L167.211 70.2253M156.266 64.9981L152.837 81.0387M167.211 70.2253L165.579 79.2256M165.579 79.2256C165.272 79.2975 153.652 77.2258 152.837 81.0387M165.579 79.2256L163.491 90.7407M152.837 81.0387L150.729 90.8997M150.729 90.8997C154.646 91.1872 162.683 91.558 163.491 90.7407M150.729 90.8997L148.536 101.155M163.491 90.7407L161.474 101.859M148.536 101.155L161.474 101.859M148.536 101.155L148.058 103.39M161.474 101.859L160.802 105.565M160.802 105.565C157.24 104.849 149.704 103.412 148.058 103.39M160.802 105.565L156.169 131.11M148.058 103.39L142.577 129.029M142.577 129.029C146.623 129.94 155.005 131.631 156.169 131.11M142.577 129.029L139.738 142.309M156.169 131.11L154.009 143.022M154.009 143.022C149.606 143.272 140.588 143.48 139.738 142.309M154.009 143.022L150.6 161.817M139.738 142.309L135.606 161.636M150.6 161.817L135.606 161.636M150.6 161.817L149.232 169.361M135.606 161.636L134.791 165.449M134.791 165.449L149.232 169.361M134.791 165.449L131.755 179.649M149.232 169.361L147.311 179.95M147.311 179.95C143.097 181.203 134.086 182.897 131.755 179.649M147.311 179.95L144.599 194.906M131.755 179.649L125.122 210.678L141.118 214.098L144.599 194.906M128.81 192.356C133.354 194.885 142.872 198.937 144.599 194.906" stroke="#88867F" stroke-width="0.861396"/>
</g>
<path d="M38.8291 -2.06787C41.2203 51.0543 107.433 107.093 183.475 86.6345" stroke="#837D6D" stroke-width="0.861396"/>
<path d="M112.663 41.905L111.951 -8.16455H85.2416H58.5324C51.6565 45.3409 40.7193 130.418 32.8184 191.797C27.2737 234.871 23.2243 266.274 23.1236 266.901L54.2587 268.177L115.919 270.704L113.47 98.6294L112.938 61.2357C128.129 49.1936 131.433 23.1553 130.876 7.04646H123.397C123.397 25.9018 117.292 41.905 112.663 41.905Z" fill="url(#paint0_linear_2116_3807)"/>
<path d="M122.944 7.64746C122.944 26.4872 116.86 42.4773 112.246 42.4773L112.52 61.792C127.659 49.7599 130.952 23.7431 130.397 7.64746H122.944Z" fill="url(#paint1_linear_2116_3807)"/>
<path fill-rule="evenodd" clip-rule="evenodd" d="M102.846 -42.1427C103.612 -32.7462 104.142 -17.941 103.247 -4.07462C102.8 2.85895 101.997 9.54607 100.692 15.2C99.3849 20.8674 97.586 25.44 95.1834 28.1956C89.016 35.2692 84.0924 39.8373 80.1381 43.3391C79.425 43.9707 78.7418 44.5688 78.0873 45.1419C75.1237 47.7365 72.749 49.8156 70.8541 52.1424C68.5335 54.992 63.52 63.1705 61.9016 72.7001C60.2783 82.2586 62.0714 93.2181 73.4409 101.465C84.623 109.576 92.7365 117.428 97.0233 125.912C101.296 134.368 101.788 143.493 97.634 154.218C93.9745 163.667 86.8804 171.887 79.8243 180.062L79.8239 180.062L79.8235 180.063L79.8231 180.063C78.8588 181.18 77.8952 182.297 76.9412 183.415C69.0397 192.68 61.7934 202.101 60.6012 213.296C59.4143 224.442 62.8692 238.242 66.5602 249.405C68.4087 254.995 70.3224 259.941 71.7565 263.583C71.9354 264.037 72.1066 264.471 72.2692 264.882L72.2694 264.883C72.7596 266.124 73.1715 267.167 73.4784 267.982C73.683 268.525 73.8376 268.958 73.9368 269.277C73.9866 269.437 74.0198 269.56 74.0387 269.649C74.0456 269.682 74.0496 269.706 74.0518 269.722C74.0543 269.74 74.0548 269.747 74.0551 269.747C74.0555 269.747 74.0557 269.74 74.0578 269.727L74.9057 269.879C74.9276 269.743 74.902 269.593 74.8788 269.483C74.8518 269.355 74.8095 269.203 74.7561 269.031C74.649 268.687 74.4868 268.234 74.281 267.687C73.9718 266.866 73.5568 265.816 73.0665 264.574L73.0641 264.568L72.8413 264.004C72.7479 263.767 72.6522 263.525 72.5544 263.276C71.122 259.638 69.2154 254.711 67.3748 249.144C63.6877 237.994 60.2895 224.348 61.4553 213.402C62.6158 202.504 69.6799 193.267 77.597 183.984C78.5464 182.871 79.5081 181.757 80.4726 180.64L80.4733 180.639C87.518 172.48 94.7184 164.14 98.4351 154.543C102.667 143.616 102.185 134.232 97.7877 125.531C93.4046 116.856 85.1523 108.903 73.9357 100.767C62.9067 92.7672 61.1646 82.1843 62.7483 72.8591C64.3369 63.5051 69.2727 55.4586 71.5222 52.6963C73.3681 50.4296 75.6769 48.4077 78.6366 45.8159C79.2953 45.239 79.9863 44.6339 80.7117 43.9916C84.6835 40.4741 89.635 35.8801 95.8332 28.7712C98.3769 25.8538 100.214 21.111 101.529 15.4083C102.848 9.69205 103.655 2.95419 104.105 -4.00458C105.003 -17.9229 104.47 -32.7718 103.702 -42.1992L102.846 -42.1427ZM84.06 -14.5918C85.0547 -9.52829 85.6435 -0.869316 84.1582 8.59478C82.6731 18.0576 79.1197 28.2936 71.8589 36.548C62.7014 46.9585 54.3756 57.1084 50.3979 68.3882C46.4074 79.7041 46.8025 92.1234 54.9923 107.035C63.0877 121.774 65.1 134.321 64.5605 144.393C64.0208 154.47 60.9259 162.095 58.764 166.997C57.2967 170.324 54.5967 174.889 51.3615 180.36L51.361 180.36C49.8409 182.931 48.2026 185.701 46.5185 188.636C41.2657 197.791 35.5992 208.505 31.8126 219.606C28.7689 228.53 28.1259 239.654 28.5472 249.906C28.9687 260.165 30.4579 269.593 31.7052 275.148L32.5429 274.971C31.3065 269.465 29.8246 260.089 29.4054 249.885C28.9858 239.674 29.6322 228.675 32.6255 219.899C36.3852 208.876 42.0189 198.219 47.2642 189.077C48.9242 186.184 50.5485 183.437 52.0623 180.877L52.063 180.876L52.0638 180.875C55.3183 175.372 58.0618 170.733 59.5501 167.358C61.7259 162.425 64.8701 154.686 65.4182 144.454C65.9665 134.216 63.9152 121.507 55.7426 106.627C47.6644 91.9185 47.3049 79.7569 51.2079 68.6888C55.1236 57.5846 63.3393 47.5475 72.5062 37.1263C79.9049 28.7153 83.5051 18.3108 85.0067 8.7431C86.508 -0.823273 85.9164 -9.58462 84.9025 -14.7458L84.06 -14.5918ZM112.152 36.5089C111.928 36.5026 111.656 36.4553 111.318 36.3845C111.224 36.3648 111.124 36.3432 111.021 36.3208L111.02 36.3206C110.766 36.2655 110.487 36.2049 110.2 36.1534C109.382 36.0064 108.42 35.9158 107.401 36.1711C105.329 36.6903 103.222 38.58 101.479 43.634C100.854 45.4445 100.345 47.0908 99.8839 48.584L99.8834 48.5854C99.7064 49.1582 99.5363 49.7086 99.3693 50.237C98.7643 52.1513 98.1997 53.7794 97.4845 55.2035C96.0713 58.0174 94.0549 60.0686 89.8757 61.8422C85.5349 63.6843 80.185 68.0902 77.9294 73.9187C76.7974 76.8438 76.4445 80.1303 77.3971 83.619C78.349 87.105 80.5949 90.7591 84.6046 94.4393C89.5476 98.9763 95.4178 100.998 100.634 101.586C105.836 102.173 110.438 101.339 112.864 100.102L112.465 99.3302C110.228 100.471 105.804 101.302 100.716 100.728C95.6412 100.156 89.9564 98.1916 85.1778 93.8055C81.2612 90.2107 79.1237 86.694 78.2251 83.403C77.3272 80.1148 77.6567 77.0181 78.7305 74.2435C80.8864 68.6726 86.0412 64.4126 90.2205 62.639C94.5614 60.7968 96.7393 58.616 98.2524 55.6031C99.0004 54.1138 99.5819 52.4297 100.188 50.5109C100.358 49.9732 100.53 49.417 100.708 48.8405L100.708 48.84C101.169 47.3507 101.671 45.7253 102.291 43.9291C103.995 38.988 105.956 37.4271 107.622 37.0095C108.472 36.7965 109.296 36.866 110.063 37.0037C110.334 37.0524 110.588 37.1076 110.836 37.1615C110.944 37.1848 111.05 37.2079 111.156 37.2302C111.495 37.3011 111.834 37.3637 112.142 37.3725L112.152 36.5089ZM112.409 67.7384C108.491 67.2526 103.662 68.0465 100.079 70.0917C98.2845 71.1164 96.7791 72.4687 95.8707 74.1572C94.9572 75.8549 94.6628 77.8649 95.2501 80.1587C96.4075 84.679 98.9034 87.0469 102.087 88.1768C105.225 89.2904 108.997 89.1887 112.706 88.8905L112.623 88.0294C108.911 88.3278 105.306 88.408 102.361 87.3626C99.4615 86.3336 97.1687 84.202 96.0816 79.9562C95.5467 77.8669 95.8193 76.0801 96.6276 74.5779C97.4408 73.0665 98.8117 71.8158 100.513 70.8448C103.922 68.8985 108.564 68.1303 112.318 68.5958L112.409 67.7384ZM25.9547 542.159L25.5877 541.45L25.1966 542.146C22.0019 547.834 19.8391 555.48 18.5272 563.763C17.6177 569.506 17.1151 575.568 16.9646 581.52C15.8398 579.732 14.6556 577.998 13.4205 576.347C9.42029 571 4.86954 566.507 0.0565853 563.912L-0.485331 563.62L-0.566332 564.255C-1.5007 571.581 0.0911388 580.547 2.97095 589.179C-4.59788 584.243 -12.8383 580.681 -20.1014 580.433L-20.6875 580.413L-20.5102 581.003C-17.2836 591.729 -7.22824 603.259 2.89421 611.267C7.96263 615.277 13.0775 618.428 17.4051 620.163C19.5679 621.03 21.5531 621.552 23.2482 621.64C23.8624 621.671 24.4449 621.647 24.9872 621.558L25.002 621.56C25.1513 621.627 25.3032 621.681 25.4577 621.724L25.5703 621.755L25.6831 621.725C25.8067 621.692 25.9286 621.652 26.0487 621.604C26.1214 621.599 26.1938 621.591 26.2659 621.582C26.7626 621.651 27.2915 621.668 27.8461 621.639C29.5413 621.552 31.5265 621.03 33.6892 620.163C38.0168 618.428 43.1317 615.277 48.2001 611.267C58.3226 603.259 68.378 591.729 71.6045 581.003L71.7819 580.413L71.1957 580.433C64.0242 580.678 55.8998 584.153 48.4099 588.993C51.3174 580.32 52.9301 571.301 51.991 563.938L51.91 563.303L51.3681 563.595C46.5551 566.19 42.0044 570.683 38.0041 576.03C36.5823 577.93 35.2278 579.942 33.9538 582.018C33.5203 567.412 31.0485 552.004 25.9547 542.159ZM47.2415 589.763C50.261 581.104 52.0055 572.056 51.2268 564.678C46.7564 567.237 42.4848 571.49 38.6788 576.577C37.018 578.796 35.4489 581.171 33.9934 583.626C34.032 585.602 34.0334 587.558 33.9991 589.479C33.9241 593.674 33.6785 597.709 33.2758 601.42C34.6711 599.977 36.1741 598.535 37.7608 597.122C40.6763 594.525 43.8855 592.014 47.2415 589.763ZM33.1133 602.83C34.6962 601.145 36.4376 599.45 38.2994 597.792C40.9216 595.456 43.7736 593.2 46.7476 591.145C45.4476 594.696 43.9421 598.163 42.3186 601.4C39.3797 607.259 36.0707 612.333 32.9292 615.771C31.3576 617.49 29.8418 618.785 28.4493 619.567C28.4207 619.583 28.3921 619.599 28.3636 619.615C28.6412 619.229 28.9057 618.8 29.1577 618.335C30.1315 616.539 30.9659 614.11 31.6551 611.227C32.248 608.746 32.7368 605.913 33.1133 602.83ZM32.2906 602.458C32.7662 598.476 33.0554 594.071 33.1378 589.464C33.1637 588.017 33.1692 586.551 33.1537 585.073C31.4783 588.024 29.9693 591.068 28.6633 594.081C27.695 596.316 26.8394 598.53 26.1108 600.675C26.9179 603.049 27.5728 605.345 28.0554 607.494C29.2833 605.852 30.7081 604.159 32.2906 602.458ZM28.2923 608.605C29.392 607.088 30.6733 605.516 32.1041 603.927C31.7553 606.517 31.3243 608.905 30.8173 611.026C30.2687 613.322 29.6339 615.293 28.9246 616.863C29.109 615.183 29.0212 613.179 28.701 610.958C28.5918 610.2 28.4551 609.414 28.2923 608.605ZM27.383 608.415C26.9636 606.416 26.3842 604.271 25.6614 602.039C24.9132 604.385 24.3254 606.631 23.9177 608.708C24.2513 609.185 24.5668 609.657 24.8632 610.122C25.1036 610.499 25.3318 610.873 25.5472 611.242C25.7625 610.873 25.9907 610.499 26.2311 610.122C26.588 609.562 26.9725 608.992 27.383 608.415ZM26.0297 612.102C26.3036 611.614 26.6031 611.116 26.9272 610.607C27.1445 610.266 27.3726 609.921 27.6109 609.572C27.7071 610.096 27.7913 610.609 27.8634 611.108C28.2064 613.489 28.2688 615.562 28.0288 617.214C28.0032 617.39 27.9742 617.561 27.942 617.726C27.8987 617.117 27.7779 616.475 27.5904 615.809C27.2661 614.658 26.7355 613.412 26.0297 612.102ZM25.0646 612.102C24.7907 611.614 24.4912 611.116 24.1672 610.607C24.017 610.371 23.8617 610.134 23.7014 609.894C23.6505 610.198 23.6038 610.497 23.5613 610.791C23.2478 612.966 23.1687 614.885 23.3405 616.46C23.3875 616.246 23.4421 616.029 23.5039 615.809C23.8283 614.658 24.3588 613.412 25.0646 612.102ZM24.0874 619.251C23.8831 618.381 23.9543 617.309 24.3089 616.05C24.5734 615.112 24.9906 614.089 25.5472 613C26.1037 614.089 26.5209 615.112 26.7854 616.051C27.2254 617.612 27.2291 618.887 26.8115 619.844C26.5303 620.082 26.2039 620.274 25.8333 620.421C25.6068 620.43 25.388 620.419 25.177 620.386C25.0139 620.317 24.8596 620.239 24.7143 620.152C24.478 619.904 24.2686 619.603 24.0874 619.251ZM28.0684 620.742C28.3333 620.624 28.6 620.489 28.868 620.339C30.3642 619.498 31.9473 618.136 33.5515 616.38C36.7616 612.868 40.1116 607.721 43.0724 601.818C44.8788 598.216 46.5465 594.32 47.9512 590.329C55.393 585.378 63.4944 581.764 70.6175 581.343C67.2813 591.64 57.5793 602.749 47.7002 610.565C42.6722 614.542 37.6279 617.643 33.3981 619.339C31.3946 620.142 29.591 620.623 28.0684 620.742ZM-19.5231 581.343C-12.3087 581.77 -4.09057 585.472 3.42934 590.52C4.84313 594.556 6.52688 598.496 8.35228 602.135C11.3131 608.039 14.6631 613.185 17.8731 616.698C19.4773 618.453 21.0605 619.815 22.5567 620.656C22.5862 620.673 22.6157 620.689 22.6452 620.705C21.2058 620.542 19.5352 620.076 17.6963 619.339C13.4665 617.643 8.42217 614.542 3.39416 610.565C-6.48492 602.749 -16.1869 591.64 -19.5231 581.343ZM25.2061 600.677C24.3755 603.156 23.7126 605.544 23.2406 607.765C21.9695 606.041 20.4773 604.257 18.8098 602.465C18.2875 598.435 17.9503 593.975 17.8283 589.312C17.7872 587.739 17.7706 586.144 17.7795 584.536C19.6521 587.751 21.3289 591.094 22.7614 594.399C23.6824 596.523 24.5014 598.631 25.2061 600.677ZM23.0135 608.9C21.8738 607.3 20.5278 605.637 19.0141 603.954C19.3845 606.509 19.8321 608.868 20.3484 610.968C21.0193 613.697 21.8023 615.971 22.6733 617.663C22.6294 617.45 22.5912 617.23 22.5585 617.005C22.3014 615.236 22.3738 613.068 22.7237 610.641C22.8052 610.075 22.902 609.494 23.0135 608.9ZM19.5119 611.174C18.9057 608.708 18.3944 605.897 17.9902 602.84C16.4049 601.151 14.6603 599.454 12.795 597.792C10.2573 595.532 7.50449 593.345 4.63412 591.344C5.94385 594.937 7.46469 598.444 9.10613 601.717C12.0449 607.576 15.354 612.65 18.4955 616.088C20.0671 617.807 21.5829 619.102 22.9754 619.884C23.013 619.905 23.0506 619.926 23.088 619.946C22.7197 619.475 22.3721 618.927 22.0443 618.318C21.0731 616.513 20.2246 614.073 19.5119 611.174ZM13.3335 597.122C14.9175 598.533 16.4181 599.972 17.8113 601.413C17.3665 597.66 17.0782 593.577 16.9672 589.335C16.9138 587.292 16.9015 585.212 16.9326 583.113C15.6193 580.952 14.2187 578.862 12.7459 576.894C8.93989 571.807 4.66828 567.554 0.19784 564.995C-0.577114 572.338 1.14716 581.336 4.14022 589.956C7.39203 592.158 10.5014 594.599 13.3335 597.122ZM23.5356 594.024C24.3164 595.825 25.0258 597.617 25.6558 599.372C26.3136 597.516 27.0612 595.617 27.889 593.707C29.3872 590.25 31.151 586.751 33.1271 583.394C32.8189 568.811 30.4715 553.301 25.5568 543.284C22.6443 548.768 20.6271 556.011 19.378 563.898C18.4072 570.028 17.9026 576.531 17.7979 582.873C19.9772 586.484 21.9123 590.278 23.5356 594.024Z" fill="#F1EBDD"/>
<path d="M28.004 155.083C21.157 141.126 16.9164 126.446 17.6478 113.274C21.3833 114.389 25.1345 115.943 28.8601 117.862C32.3095 119.639 35.7369 121.728 39.1095 124.071C42.0692 126.127 44.9867 128.378 47.8397 130.784C48.7997 131.593 49.7524 132.42 50.6969 133.263C54.8663 136.985 58.877 141.018 62.6561 145.232C65.7505 148.683 68.6896 152.254 71.4334 155.875C72.5085 157.293 73.5536 158.719 74.5664 160.148C76.6266 163.056 78.5528 165.976 80.3248 168.873C81.332 170.52 82.2895 172.159 83.1934 173.784C92.4792 190.477 96.1122 205.659 90.0598 212.052C82.1033 215.86 67.7695 207.177 53.9359 192.487C52.6585 191.131 51.3854 189.723 50.122 188.27C48.8988 186.862 47.6848 185.411 46.4847 183.922C42.0779 178.454 37.8597 172.465 34.0734 166.186C32.3228 163.282 30.6646 160.317 29.1227 157.312C28.7426 156.571 28.3696 155.828 28.004 155.083Z" fill="#359D55"/>
<path d="M95.8953 136.444C107.349 125.933 120.232 117.717 133.075 114.697C133.061 118.595 132.63 122.633 131.841 126.749C131.112 130.56 130.076 134.438 128.781 138.335C127.646 141.755 126.311 145.19 124.809 148.606C124.304 149.756 123.779 150.903 123.238 152.047C120.846 157.099 118.11 162.085 115.135 166.901C112.7 170.844 110.104 174.673 107.406 178.328C106.349 179.76 105.277 181.165 104.192 182.541C101.985 185.338 99.728 188.011 97.4498 190.529C96.1547 191.961 94.8528 193.342 93.5496 194.669C80.1606 208.293 66.6228 216.067 58.7805 212.068C52.8799 205.511 57.1592 189.308 67.3418 171.888C68.282 170.279 69.2726 168.66 70.3101 167.037C71.3146 165.467 72.3631 163.892 73.4525 162.32C77.453 156.548 82.0058 150.809 86.9597 145.403C89.2501 142.904 91.6261 140.475 94.0729 138.147C94.6762 137.573 95.2837 137.005 95.8953 136.444Z" fill="#359D55"/>
<path d="M137.475 95.2785C131.572 85.9104 127.461 75.8334 126.985 66.4487C129.715 66.9564 132.489 67.7741 135.272 68.8521C137.85 69.8502 140.435 71.0714 143 72.476C145.252 73.7087 147.488 75.0828 149.69 76.5714C150.431 77.0723 151.168 77.5862 151.901 78.112C155.135 80.4331 158.28 82.9872 161.274 85.6866C163.726 87.8969 166.077 90.2047 168.294 92.5617C169.162 93.4853 170.01 94.4164 170.835 95.3521C172.514 97.2558 174.099 99.1788 175.572 101.097C176.41 102.187 177.212 103.276 177.975 104.358C185.811 115.48 189.53 125.96 185.726 130.944C180.378 134.241 169.571 129.173 158.664 119.813C157.657 118.949 156.649 118.048 155.645 117.114C154.672 116.209 153.703 115.274 152.741 114.309C149.207 110.769 145.767 106.846 142.612 102.684C141.153 100.76 139.755 98.7848 138.436 96.773C138.111 96.277 137.79 95.7788 137.475 95.2785Z" fill="#359D55"/>
<path d="M68.4821 180.823C65.7323 175.031 64.3774 171.13 58.2819 161.64M18.2939 114.195C28.2604 121.585 36.969 131.83 44.9736 142.488M44.9736 142.488C46.3503 140.422 48.904 136.149 47.5697 130.306M44.9736 142.488C48.5905 147.304 55.2777 156.963 58.2819 161.64M58.2819 161.64C54.0873 166.208 49.2879 167.204 45.222 166.915" stroke="#41B464" stroke-width="0.861396"/>
<path d="M82.6422 182.545C87.4204 178.271 90.7801 175.869 98.1612 167.341M132.375 115.577C128.102 127.225 120.735 138.473 112.773 149.163M112.773 149.163C115.144 149.9 119.964 151.142 125.192 148.211M112.773 149.163C109.175 153.993 101.799 163.137 98.1612 167.341M98.1612 167.341C92.5939 164.608 90.2823 160.285 89.4107 156.303" stroke="#41B464" stroke-width="0.861396"/>
<path d="M179.17 121.457C176.132 116.577 174.534 113.243 168.124 105.396M127.513 67.0508C137.204 72.674 146.04 80.9469 154.282 89.6522M154.282 89.6522C155.322 87.691 157.207 83.6621 155.439 78.6041M154.282 89.6522C158.007 93.5858 164.965 101.528 168.124 105.396M168.124 105.396C164.79 109.84 160.565 111.172 156.875 111.296" stroke="#41B464" stroke-width="0.861396"/>
<path d="M28.9287 -31.8716C31.3199 21.2506 97.533 77.2889 173.575 56.8308" stroke="#41B464" stroke-width="2.58419"/>
<path d="M-0.359375 -4.30713C2.0318 48.8151 50.3915 178.74 171.848 155.051" stroke="#41B464" stroke-width="2.58419"/>
</g>
<defs>
<linearGradient id="paint0_linear_2116_3807" x1="87.8629" y1="-51.6844" x2="76.6648" y2="216.21" gradientUnits="userSpaceOnUse">
<stop stop-color="#83C781"/>
<stop offset="1" stop-color="#41B464"/>
</linearGradient>
<linearGradient id="paint1_linear_2116_3807" x1="126.825" y1="15.5633" x2="112.272" y2="74.1473" gradientUnits="userSpaceOnUse">
<stop stop-color="#41B464"/>
<stop offset="1" stop-color="#50854C"/>
</linearGradient>
</defs>
</svg>
