<svg width="23" height="23" viewBox="0 0 23 23" fill="none" xmlns="http://www.w3.org/2000/svg">
<path d="M22.5761 11.5C22.5761 17.6327 17.6106 22.6034 11.4863 22.6034C5.36206 22.6034 0.396552 17.6327 0.396552 11.5C0.396552 5.36729 5.36206 0.396552 11.4863 0.396552C17.6106 0.396552 22.5761 5.36729 22.5761 11.5Z" stroke="white" stroke-width="0.793103"/>
<path d="M10.7214 13.7559V13.3934C10.7214 13.0216 10.7563 12.7033 10.826 12.4384C10.8957 12.1689 11.0165 11.9179 11.1884 11.6856C11.365 11.4532 11.609 11.2069 11.9204 10.9467C12.2828 10.6446 12.5686 10.389 12.7777 10.1799C12.9915 9.96616 13.1449 9.75239 13.2378 9.53862C13.3308 9.32486 13.3772 9.06695 13.3772 8.76488C13.3772 8.28159 13.2215 7.91214 12.9102 7.65655C12.5988 7.39632 12.1597 7.2662 11.5927 7.2662C11.1327 7.2662 10.7237 7.32429 10.3659 7.44046C10.0081 7.55664 9.6642 7.69605 9.33425 7.8587L8.92996 6.92464C9.31102 6.72481 9.72461 6.56216 10.1707 6.43669C10.6169 6.31122 11.1141 6.24848 11.6624 6.24848C12.5593 6.24848 13.2541 6.47155 13.7467 6.91767C14.2393 7.35914 14.4856 7.96791 14.4856 8.74397C14.4856 9.17615 14.4158 9.5456 14.2764 9.8523C14.137 10.1544 13.9395 10.4332 13.6839 10.6888C13.4283 10.9397 13.1263 11.2069 12.7777 11.4904C12.471 11.7506 12.2364 11.9807 12.0737 12.1805C11.9111 12.3757 11.7995 12.5778 11.7391 12.7869C11.6787 12.9914 11.6485 13.2377 11.6485 13.5258V13.7559H10.7214ZM10.4147 15.861C10.4147 15.5357 10.4914 15.3057 10.6447 15.1709C10.7981 15.0315 10.9956 14.9618 11.2372 14.9618C11.4649 14.9618 11.6578 15.0315 11.8158 15.1709C11.9784 15.3057 12.0598 15.5357 12.0598 15.861C12.0598 16.1816 11.9784 16.4163 11.8158 16.565C11.6578 16.7091 11.4649 16.7811 11.2372 16.7811C10.9956 16.7811 10.7981 16.7091 10.6447 16.565C10.4914 16.4163 10.4147 16.1816 10.4147 15.861Z" fill="white"/>
</svg>
